M48
;DRILL file {KiCad 4.0.6} date 06/12/17 11:20:08
;FORMAT={-:-/ absolute / inch / decimal}
FMAT,2
INCH,TZ
T1C0.016
T2C0.039
T3C0.040
T4C0.051
T5C0.067
T6C0.098
%
G90
G05
M72
T1
X4.7Y-2.5
T2
X3.345Y-3.2755
X3.445Y-3.2755
X3.545Y-3.2755
X3.645Y-3.2755
X3.745Y-3.2755
X3.845Y-3.2755
X3.945Y-3.2755
X4.045Y-3.2755
X4.755Y-3.2755
X4.855Y-3.2755
X4.955Y-3.2755
X5.055Y-3.2755
X5.155Y-3.2755
X5.255Y-3.2755
X5.355Y-3.2755
X5.455Y-3.2755
T3
X4.4Y-3.4705
X4.4Y-3.5705
X4.4Y-3.6705
X4.4Y-3.7705
X4.4Y-3.8705
X4.4Y-3.9705
T4
X3.3Y-2.2323
X3.3Y-5.2087
X3.5Y-2.2323
X3.5Y-5.2087
X3.7Y-2.2323
X3.7Y-5.2087
X3.9Y-2.2323
X3.9Y-5.2087
X4.1Y-2.2323
X4.1Y-5.2087
X4.3Y-2.2323
X4.3Y-5.2087
X4.5Y-2.2323
X4.5Y-5.2087
X4.7Y-2.2323
X4.7Y-5.2087
X4.9Y-2.2323
X4.9Y-5.2087
X5.1Y-2.2323
X5.1Y-5.2087
X5.3Y-2.2323
X5.3Y-5.2087
X5.5Y-2.2323
X5.5Y-5.2087
T5
X3.4861Y-4.1255
X3.6239Y-4.1255
X3.7611Y-4.1255
X3.8989Y-4.1255
X4.8961Y-4.1255
X5.0339Y-4.1255
X5.1711Y-4.1255
X5.3089Y-4.1255
T6
X3.295Y-4.1705
X4.095Y-4.1705
X4.705Y-4.1705
X5.505Y-4.1705
T0
M30
