G04 #@! TF.FileFunction,Copper,L2,Bot,Signal*
%FSLAX46Y46*%
G04 Gerber Fmt 4.6, Leading zero omitted, Abs format (unit mm)*
G04 Created by KiCad (PCBNEW 4.0.6) date 06/12/17 11:19:09*
%MOMM*%
%LPD*%
G01*
G04 APERTURE LIST*
%ADD10C,0.100000*%
%ADD11C,0.300000*%
%ADD12R,2.500000X2.500000*%
%ADD13C,2.500000*%
%ADD14C,3.200400*%
%ADD15C,1.778000*%
%ADD16C,2.717800*%
%ADD17C,1.900000*%
%ADD18C,1.016000*%
%ADD19C,0.609600*%
%ADD20C,0.254000*%
G04 APERTURE END LIST*
D10*
D11*
X83800000Y-112414857D02*
X83585714Y-112486286D01*
X83514286Y-112557714D01*
X83442857Y-112700571D01*
X83442857Y-112914857D01*
X83514286Y-113057714D01*
X83585714Y-113129143D01*
X83728572Y-113200571D01*
X84300000Y-113200571D01*
X84300000Y-111700571D01*
X83800000Y-111700571D01*
X83657143Y-111772000D01*
X83585714Y-111843429D01*
X83514286Y-111986286D01*
X83514286Y-112129143D01*
X83585714Y-112272000D01*
X83657143Y-112343429D01*
X83800000Y-112414857D01*
X84300000Y-112414857D01*
X82514286Y-111700571D02*
X82228572Y-111700571D01*
X82085714Y-111772000D01*
X81942857Y-111914857D01*
X81871429Y-112200571D01*
X81871429Y-112700571D01*
X81942857Y-112986286D01*
X82085714Y-113129143D01*
X82228572Y-113200571D01*
X82514286Y-113200571D01*
X82657143Y-113129143D01*
X82800000Y-112986286D01*
X82871429Y-112700571D01*
X82871429Y-112200571D01*
X82800000Y-111914857D01*
X82657143Y-111772000D01*
X82514286Y-111700571D01*
X81442857Y-111700571D02*
X80585714Y-111700571D01*
X81014285Y-113200571D02*
X81014285Y-111700571D01*
D12*
X139700000Y-56700000D03*
D13*
X134620000Y-56700000D03*
X129540000Y-56700000D03*
D12*
X124460000Y-56700000D03*
D13*
X119380000Y-56700000D03*
X114300000Y-56700000D03*
D12*
X109220000Y-56700000D03*
D13*
X104140000Y-56700000D03*
X99060000Y-56700000D03*
D12*
X93980000Y-56700000D03*
D13*
X88900000Y-56700000D03*
X83820000Y-56700000D03*
D12*
X83820000Y-132300000D03*
D13*
X88900000Y-132300000D03*
X93980000Y-132300000D03*
D12*
X99060000Y-132300000D03*
D13*
X104140000Y-132300000D03*
X109220000Y-132300000D03*
D12*
X114300000Y-132300000D03*
D13*
X119380000Y-132300000D03*
X124460000Y-132300000D03*
D12*
X129540000Y-132300000D03*
D13*
X134620000Y-132300000D03*
X139700000Y-132300000D03*
D14*
X139827000Y-105930000D03*
X119507000Y-105930000D03*
D15*
X138557000Y-83197000D03*
X136017000Y-83197000D03*
X133477000Y-83197000D03*
X130937000Y-83197000D03*
X128397000Y-83197000D03*
X125857000Y-83197000D03*
X123317000Y-83197000D03*
X120777000Y-83197000D03*
D16*
X124360940Y-104787000D03*
X127861060Y-104787000D03*
X131345940Y-104787000D03*
X134846060Y-104787000D03*
D14*
X104013000Y-105930000D03*
X83693000Y-105930000D03*
D15*
X102743000Y-83197000D03*
X100203000Y-83197000D03*
X97663000Y-83197000D03*
X95123000Y-83197000D03*
X92583000Y-83197000D03*
X90043000Y-83197000D03*
X87503000Y-83197000D03*
X84963000Y-83197000D03*
D16*
X88546940Y-104787000D03*
X92047060Y-104787000D03*
X95531940Y-104787000D03*
X99032060Y-104787000D03*
D17*
X111760000Y-100850000D03*
X111760000Y-98310000D03*
X111760000Y-95770000D03*
X111760000Y-93230000D03*
X111760000Y-90690000D03*
X111760000Y-88150000D03*
D18*
X119380000Y-63500000D03*
D19*
X90170000Y-78740000D02*
X90170000Y-83070000D01*
X119380000Y-63500000D02*
X113030000Y-69850000D01*
X113030000Y-69850000D02*
X99060000Y-69850000D01*
X99060000Y-69850000D02*
X90170000Y-78740000D01*
X90170000Y-83070000D02*
X90043000Y-83197000D01*
X125730000Y-83070000D02*
X125857000Y-83197000D01*
X90043000Y-83197000D02*
X90043000Y-83693000D01*
X125857000Y-83693000D02*
X125857000Y-83197000D01*
X87503000Y-83197000D02*
X87503000Y-77597000D01*
X104140000Y-60960000D02*
X104140000Y-56700000D01*
X87503000Y-77597000D02*
X104140000Y-60960000D01*
X84963000Y-83197000D02*
X84963000Y-76327000D01*
X99060000Y-62230000D02*
X99060000Y-56700000D01*
X84963000Y-76327000D02*
X99060000Y-62230000D01*
D20*
G36*
X144950000Y-137240000D02*
X123300800Y-137240000D01*
X123317000Y-137160000D01*
X123317000Y-133801257D01*
X123535935Y-133953420D01*
X123874684Y-134101416D01*
X124235729Y-134180797D01*
X124605315Y-134188539D01*
X124969367Y-134124346D01*
X125314017Y-133990666D01*
X125626137Y-133792588D01*
X125893840Y-133537658D01*
X126106929Y-133235586D01*
X126257286Y-132897877D01*
X126339185Y-132537396D01*
X126345081Y-132115166D01*
X126273279Y-131752539D01*
X126132410Y-131410764D01*
X125927839Y-131102860D01*
X125875347Y-131050000D01*
X127651928Y-131050000D01*
X127651928Y-133550000D01*
X127659992Y-133651121D01*
X127713106Y-133822634D01*
X127811900Y-133972559D01*
X127948550Y-134089025D01*
X128112237Y-134162810D01*
X128290000Y-134188072D01*
X130790000Y-134188072D01*
X130891121Y-134180008D01*
X131062634Y-134126894D01*
X131212559Y-134028100D01*
X131329025Y-133891450D01*
X131402810Y-133727763D01*
X131428072Y-133550000D01*
X131428072Y-132458496D01*
X132732522Y-132458496D01*
X132799254Y-132822091D01*
X132935338Y-133165799D01*
X133135590Y-133476529D01*
X133392382Y-133742446D01*
X133695935Y-133953420D01*
X134034684Y-134101416D01*
X134395729Y-134180797D01*
X134765315Y-134188539D01*
X135129367Y-134124346D01*
X135474017Y-133990666D01*
X135786137Y-133792588D01*
X136053840Y-133537658D01*
X136266929Y-133235586D01*
X136417286Y-132897877D01*
X136499185Y-132537396D01*
X136500286Y-132458496D01*
X137812522Y-132458496D01*
X137879254Y-132822091D01*
X138015338Y-133165799D01*
X138215590Y-133476529D01*
X138472382Y-133742446D01*
X138775935Y-133953420D01*
X139114684Y-134101416D01*
X139475729Y-134180797D01*
X139845315Y-134188539D01*
X140209367Y-134124346D01*
X140554017Y-133990666D01*
X140866137Y-133792588D01*
X141133840Y-133537658D01*
X141346929Y-133235586D01*
X141497286Y-132897877D01*
X141579185Y-132537396D01*
X141585081Y-132115166D01*
X141513279Y-131752539D01*
X141372410Y-131410764D01*
X141167839Y-131102860D01*
X140907358Y-130840555D01*
X140600890Y-130633839D01*
X140260107Y-130490587D01*
X139897990Y-130416255D01*
X139528331Y-130413674D01*
X139165211Y-130482943D01*
X138822461Y-130621423D01*
X138513137Y-130823840D01*
X138249019Y-131082482D01*
X138040169Y-131387500D01*
X137894542Y-131727275D01*
X137817683Y-132088864D01*
X137812522Y-132458496D01*
X136500286Y-132458496D01*
X136505081Y-132115166D01*
X136433279Y-131752539D01*
X136292410Y-131410764D01*
X136087839Y-131102860D01*
X135827358Y-130840555D01*
X135520890Y-130633839D01*
X135180107Y-130490587D01*
X134817990Y-130416255D01*
X134448331Y-130413674D01*
X134085211Y-130482943D01*
X133742461Y-130621423D01*
X133433137Y-130823840D01*
X133169019Y-131082482D01*
X132960169Y-131387500D01*
X132814542Y-131727275D01*
X132737683Y-132088864D01*
X132732522Y-132458496D01*
X131428072Y-132458496D01*
X131428072Y-131050000D01*
X131420008Y-130948879D01*
X131366894Y-130777366D01*
X131268100Y-130627441D01*
X131131450Y-130510975D01*
X130967763Y-130437190D01*
X130790000Y-130411928D01*
X128290000Y-130411928D01*
X128188879Y-130419992D01*
X128017366Y-130473106D01*
X127867441Y-130571900D01*
X127750975Y-130708550D01*
X127677190Y-130872237D01*
X127651928Y-131050000D01*
X125875347Y-131050000D01*
X125667358Y-130840555D01*
X125360890Y-130633839D01*
X125020107Y-130490587D01*
X124657990Y-130416255D01*
X124288331Y-130413674D01*
X123925211Y-130482943D01*
X123582461Y-130621423D01*
X123317000Y-130795137D01*
X123317000Y-126873000D01*
X123221460Y-126365250D01*
X122921380Y-125898913D01*
X122463511Y-125586064D01*
X121920000Y-125476000D01*
X101600000Y-125476000D01*
X101092250Y-125571540D01*
X100625913Y-125871620D01*
X100313064Y-126329489D01*
X100203000Y-126873000D01*
X100203000Y-130411928D01*
X97810000Y-130411928D01*
X97708879Y-130419992D01*
X97537366Y-130473106D01*
X97387441Y-130571900D01*
X97270975Y-130708550D01*
X97197190Y-130872237D01*
X97171928Y-131050000D01*
X97171928Y-133550000D01*
X97179992Y-133651121D01*
X97233106Y-133822634D01*
X97331900Y-133972559D01*
X97468550Y-134089025D01*
X97632237Y-134162810D01*
X97810000Y-134188072D01*
X100203000Y-134188072D01*
X100203000Y-137160000D01*
X100218053Y-137240000D01*
X78570000Y-137240000D01*
X78570000Y-131050000D01*
X81931928Y-131050000D01*
X81931928Y-133550000D01*
X81939992Y-133651121D01*
X81993106Y-133822634D01*
X82091900Y-133972559D01*
X82228550Y-134089025D01*
X82392237Y-134162810D01*
X82570000Y-134188072D01*
X85070000Y-134188072D01*
X85171121Y-134180008D01*
X85342634Y-134126894D01*
X85492559Y-134028100D01*
X85609025Y-133891450D01*
X85682810Y-133727763D01*
X85708072Y-133550000D01*
X85708072Y-132458496D01*
X87012522Y-132458496D01*
X87079254Y-132822091D01*
X87215338Y-133165799D01*
X87415590Y-133476529D01*
X87672382Y-133742446D01*
X87975935Y-133953420D01*
X88314684Y-134101416D01*
X88675729Y-134180797D01*
X89045315Y-134188539D01*
X89409367Y-134124346D01*
X89754017Y-133990666D01*
X90066137Y-133792588D01*
X90333840Y-133537658D01*
X90546929Y-133235586D01*
X90697286Y-132897877D01*
X90779185Y-132537396D01*
X90780286Y-132458496D01*
X92092522Y-132458496D01*
X92159254Y-132822091D01*
X92295338Y-133165799D01*
X92495590Y-133476529D01*
X92752382Y-133742446D01*
X93055935Y-133953420D01*
X93394684Y-134101416D01*
X93755729Y-134180797D01*
X94125315Y-134188539D01*
X94489367Y-134124346D01*
X94834017Y-133990666D01*
X95146137Y-133792588D01*
X95413840Y-133537658D01*
X95626929Y-133235586D01*
X95777286Y-132897877D01*
X95859185Y-132537396D01*
X95865081Y-132115166D01*
X95793279Y-131752539D01*
X95652410Y-131410764D01*
X95447839Y-131102860D01*
X95187358Y-130840555D01*
X94880890Y-130633839D01*
X94540107Y-130490587D01*
X94177990Y-130416255D01*
X93808331Y-130413674D01*
X93445211Y-130482943D01*
X93102461Y-130621423D01*
X92793137Y-130823840D01*
X92529019Y-131082482D01*
X92320169Y-131387500D01*
X92174542Y-131727275D01*
X92097683Y-132088864D01*
X92092522Y-132458496D01*
X90780286Y-132458496D01*
X90785081Y-132115166D01*
X90713279Y-131752539D01*
X90572410Y-131410764D01*
X90367839Y-131102860D01*
X90107358Y-130840555D01*
X89800890Y-130633839D01*
X89460107Y-130490587D01*
X89097990Y-130416255D01*
X88728331Y-130413674D01*
X88365211Y-130482943D01*
X88022461Y-130621423D01*
X87713137Y-130823840D01*
X87449019Y-131082482D01*
X87240169Y-131387500D01*
X87094542Y-131727275D01*
X87017683Y-132088864D01*
X87012522Y-132458496D01*
X85708072Y-132458496D01*
X85708072Y-131050000D01*
X85700008Y-130948879D01*
X85646894Y-130777366D01*
X85548100Y-130627441D01*
X85411450Y-130510975D01*
X85247763Y-130437190D01*
X85070000Y-130411928D01*
X82570000Y-130411928D01*
X82468879Y-130419992D01*
X82297366Y-130473106D01*
X82147441Y-130571900D01*
X82030975Y-130708550D01*
X81957190Y-130872237D01*
X81931928Y-131050000D01*
X78570000Y-131050000D01*
X78570000Y-110687000D01*
X79807857Y-110687000D01*
X79807857Y-114507000D01*
X85292143Y-114507000D01*
X85292143Y-110687000D01*
X79807857Y-110687000D01*
X78570000Y-110687000D01*
X78570000Y-106117942D01*
X81454862Y-106117942D01*
X81533992Y-106549086D01*
X81695357Y-106956649D01*
X81932813Y-107325107D01*
X82237313Y-107640426D01*
X82597260Y-107890596D01*
X82998943Y-108066087D01*
X83427063Y-108160215D01*
X83865312Y-108169395D01*
X84296998Y-108093278D01*
X84705678Y-107934761D01*
X85075785Y-107699884D01*
X85393222Y-107397592D01*
X85645899Y-107039401D01*
X85824190Y-106638952D01*
X85921305Y-106211500D01*
X85928296Y-105710827D01*
X85843154Y-105280830D01*
X85708714Y-104954653D01*
X86550419Y-104954653D01*
X86621006Y-105339253D01*
X86764952Y-105702818D01*
X86976773Y-106031499D01*
X87248401Y-106312779D01*
X87569490Y-106535941D01*
X87927810Y-106692487D01*
X88309712Y-106776454D01*
X88700650Y-106784643D01*
X89085734Y-106716742D01*
X89450295Y-106575339D01*
X89780447Y-106365817D01*
X90063616Y-106096160D01*
X90289015Y-105776636D01*
X90298670Y-105754951D01*
X90476893Y-106031499D01*
X90748521Y-106312779D01*
X91069610Y-106535941D01*
X91427930Y-106692487D01*
X91809832Y-106776454D01*
X92200770Y-106784643D01*
X92585854Y-106716742D01*
X92950415Y-106575339D01*
X93280567Y-106365817D01*
X93563736Y-106096160D01*
X93789135Y-105776636D01*
X93792563Y-105768937D01*
X93961773Y-106031499D01*
X94233401Y-106312779D01*
X94554490Y-106535941D01*
X94912810Y-106692487D01*
X95294712Y-106776454D01*
X95685650Y-106784643D01*
X96070734Y-106716742D01*
X96435295Y-106575339D01*
X96765447Y-106365817D01*
X97048616Y-106096160D01*
X97274015Y-105776636D01*
X97283670Y-105754951D01*
X97461893Y-106031499D01*
X97733521Y-106312779D01*
X98054610Y-106535941D01*
X98412930Y-106692487D01*
X98794832Y-106776454D01*
X99185770Y-106784643D01*
X99570854Y-106716742D01*
X99935415Y-106575339D01*
X100265567Y-106365817D01*
X100525862Y-106117942D01*
X101774862Y-106117942D01*
X101853992Y-106549086D01*
X102015357Y-106956649D01*
X102252813Y-107325107D01*
X102557313Y-107640426D01*
X102917260Y-107890596D01*
X103318943Y-108066087D01*
X103747063Y-108160215D01*
X104185312Y-108169395D01*
X104616998Y-108093278D01*
X105025678Y-107934761D01*
X105395785Y-107699884D01*
X105713222Y-107397592D01*
X105965899Y-107039401D01*
X106144190Y-106638952D01*
X106241305Y-106211500D01*
X106242611Y-106117942D01*
X117268862Y-106117942D01*
X117347992Y-106549086D01*
X117509357Y-106956649D01*
X117746813Y-107325107D01*
X118051313Y-107640426D01*
X118411260Y-107890596D01*
X118812943Y-108066087D01*
X119241063Y-108160215D01*
X119679312Y-108169395D01*
X120110998Y-108093278D01*
X120519678Y-107934761D01*
X120889785Y-107699884D01*
X121207222Y-107397592D01*
X121459899Y-107039401D01*
X121638190Y-106638952D01*
X121735305Y-106211500D01*
X121742296Y-105710827D01*
X121657154Y-105280830D01*
X121522714Y-104954653D01*
X122364419Y-104954653D01*
X122435006Y-105339253D01*
X122578952Y-105702818D01*
X122790773Y-106031499D01*
X123062401Y-106312779D01*
X123383490Y-106535941D01*
X123741810Y-106692487D01*
X124123712Y-106776454D01*
X124514650Y-106784643D01*
X124899734Y-106716742D01*
X125264295Y-106575339D01*
X125594447Y-106365817D01*
X125877616Y-106096160D01*
X126103015Y-105776636D01*
X126112670Y-105754951D01*
X126290893Y-106031499D01*
X126562521Y-106312779D01*
X126883610Y-106535941D01*
X127241930Y-106692487D01*
X127623832Y-106776454D01*
X128014770Y-106784643D01*
X128399854Y-106716742D01*
X128764415Y-106575339D01*
X129094567Y-106365817D01*
X129377736Y-106096160D01*
X129603135Y-105776636D01*
X129606563Y-105768937D01*
X129775773Y-106031499D01*
X130047401Y-106312779D01*
X130368490Y-106535941D01*
X130726810Y-106692487D01*
X131108712Y-106776454D01*
X131499650Y-106784643D01*
X131884734Y-106716742D01*
X132249295Y-106575339D01*
X132579447Y-106365817D01*
X132862616Y-106096160D01*
X133088015Y-105776636D01*
X133097670Y-105754951D01*
X133275893Y-106031499D01*
X133547521Y-106312779D01*
X133868610Y-106535941D01*
X134226930Y-106692487D01*
X134608832Y-106776454D01*
X134999770Y-106784643D01*
X135384854Y-106716742D01*
X135749415Y-106575339D01*
X136079567Y-106365817D01*
X136339862Y-106117942D01*
X137588862Y-106117942D01*
X137667992Y-106549086D01*
X137829357Y-106956649D01*
X138066813Y-107325107D01*
X138371313Y-107640426D01*
X138731260Y-107890596D01*
X139132943Y-108066087D01*
X139561063Y-108160215D01*
X139999312Y-108169395D01*
X140430998Y-108093278D01*
X140839678Y-107934761D01*
X141209785Y-107699884D01*
X141527222Y-107397592D01*
X141779899Y-107039401D01*
X141958190Y-106638952D01*
X142055305Y-106211500D01*
X142062296Y-105710827D01*
X141977154Y-105280830D01*
X141810114Y-104875560D01*
X141567537Y-104510453D01*
X141258664Y-104199416D01*
X140895259Y-103954296D01*
X140491165Y-103784430D01*
X140061772Y-103696289D01*
X139623438Y-103693229D01*
X139192857Y-103775366D01*
X138786430Y-103939573D01*
X138419638Y-104179595D01*
X138106453Y-104486289D01*
X137858802Y-104847974D01*
X137686119Y-105250873D01*
X137594982Y-105679639D01*
X137588862Y-106117942D01*
X136339862Y-106117942D01*
X136362736Y-106096160D01*
X136588135Y-105776636D01*
X136747179Y-105419418D01*
X136833809Y-105038111D01*
X136840046Y-104591488D01*
X136764096Y-104207911D01*
X136615088Y-103846391D01*
X136398698Y-103520699D01*
X136123170Y-103243240D01*
X135798996Y-103024582D01*
X135438525Y-102873054D01*
X135055488Y-102794428D01*
X134664473Y-102791698D01*
X134280375Y-102864968D01*
X133917824Y-103011449D01*
X133590629Y-103225559D01*
X133311253Y-103499144D01*
X133094541Y-103815645D01*
X132898578Y-103520699D01*
X132623050Y-103243240D01*
X132298876Y-103024582D01*
X131938405Y-102873054D01*
X131555368Y-102794428D01*
X131164353Y-102791698D01*
X130780255Y-102864968D01*
X130417704Y-103011449D01*
X130090509Y-103225559D01*
X129811133Y-103499144D01*
X129602155Y-103804349D01*
X129413698Y-103520699D01*
X129138170Y-103243240D01*
X128813996Y-103024582D01*
X128453525Y-102873054D01*
X128070488Y-102794428D01*
X127679473Y-102791698D01*
X127295375Y-102864968D01*
X126932824Y-103011449D01*
X126605629Y-103225559D01*
X126326253Y-103499144D01*
X126109541Y-103815645D01*
X125913578Y-103520699D01*
X125638050Y-103243240D01*
X125313876Y-103024582D01*
X124953405Y-102873054D01*
X124570368Y-102794428D01*
X124179353Y-102791698D01*
X123795255Y-102864968D01*
X123432704Y-103011449D01*
X123105509Y-103225559D01*
X122826133Y-103499144D01*
X122605218Y-103821783D01*
X122451177Y-104181187D01*
X122369878Y-104563667D01*
X122364419Y-104954653D01*
X121522714Y-104954653D01*
X121490114Y-104875560D01*
X121247537Y-104510453D01*
X120938664Y-104199416D01*
X120575259Y-103954296D01*
X120171165Y-103784430D01*
X119741772Y-103696289D01*
X119303438Y-103693229D01*
X118872857Y-103775366D01*
X118466430Y-103939573D01*
X118099638Y-104179595D01*
X117786453Y-104486289D01*
X117538802Y-104847974D01*
X117366119Y-105250873D01*
X117274982Y-105679639D01*
X117268862Y-106117942D01*
X106242611Y-106117942D01*
X106248296Y-105710827D01*
X106163154Y-105280830D01*
X105996114Y-104875560D01*
X105753537Y-104510453D01*
X105444664Y-104199416D01*
X105081259Y-103954296D01*
X104677165Y-103784430D01*
X104247772Y-103696289D01*
X103809438Y-103693229D01*
X103378857Y-103775366D01*
X102972430Y-103939573D01*
X102605638Y-104179595D01*
X102292453Y-104486289D01*
X102044802Y-104847974D01*
X101872119Y-105250873D01*
X101780982Y-105679639D01*
X101774862Y-106117942D01*
X100525862Y-106117942D01*
X100548736Y-106096160D01*
X100774135Y-105776636D01*
X100933179Y-105419418D01*
X101019809Y-105038111D01*
X101026046Y-104591488D01*
X100950096Y-104207911D01*
X100801088Y-103846391D01*
X100584698Y-103520699D01*
X100309170Y-103243240D01*
X99984996Y-103024582D01*
X99624525Y-102873054D01*
X99241488Y-102794428D01*
X98850473Y-102791698D01*
X98466375Y-102864968D01*
X98103824Y-103011449D01*
X97776629Y-103225559D01*
X97497253Y-103499144D01*
X97280541Y-103815645D01*
X97084578Y-103520699D01*
X96809050Y-103243240D01*
X96484876Y-103024582D01*
X96124405Y-102873054D01*
X95741368Y-102794428D01*
X95350353Y-102791698D01*
X94966255Y-102864968D01*
X94603704Y-103011449D01*
X94276509Y-103225559D01*
X93997133Y-103499144D01*
X93788155Y-103804349D01*
X93599698Y-103520699D01*
X93324170Y-103243240D01*
X92999996Y-103024582D01*
X92639525Y-102873054D01*
X92256488Y-102794428D01*
X91865473Y-102791698D01*
X91481375Y-102864968D01*
X91118824Y-103011449D01*
X90791629Y-103225559D01*
X90512253Y-103499144D01*
X90295541Y-103815645D01*
X90099578Y-103520699D01*
X89824050Y-103243240D01*
X89499876Y-103024582D01*
X89139405Y-102873054D01*
X88756368Y-102794428D01*
X88365353Y-102791698D01*
X87981255Y-102864968D01*
X87618704Y-103011449D01*
X87291509Y-103225559D01*
X87012133Y-103499144D01*
X86791218Y-103821783D01*
X86637177Y-104181187D01*
X86555878Y-104563667D01*
X86550419Y-104954653D01*
X85708714Y-104954653D01*
X85676114Y-104875560D01*
X85433537Y-104510453D01*
X85124664Y-104199416D01*
X84761259Y-103954296D01*
X84357165Y-103784430D01*
X83927772Y-103696289D01*
X83489438Y-103693229D01*
X83058857Y-103775366D01*
X82652430Y-103939573D01*
X82285638Y-104179595D01*
X81972453Y-104486289D01*
X81724802Y-104847974D01*
X81552119Y-105250873D01*
X81460982Y-105679639D01*
X81454862Y-106117942D01*
X78570000Y-106117942D01*
X78570000Y-100983271D01*
X110172917Y-100983271D01*
X110229028Y-101288999D01*
X110343454Y-101578006D01*
X110511836Y-101839283D01*
X110727760Y-102062878D01*
X110983001Y-102240276D01*
X111267838Y-102364718D01*
X111571422Y-102431465D01*
X111882188Y-102437975D01*
X112188300Y-102383999D01*
X112478099Y-102271594D01*
X112740545Y-102105040D01*
X112965643Y-101890683D01*
X113144818Y-101636686D01*
X113271245Y-101352724D01*
X113340110Y-101049614D01*
X113345068Y-100694583D01*
X113284693Y-100389668D01*
X113166243Y-100102287D01*
X112994230Y-99843387D01*
X112775205Y-99622827D01*
X112638356Y-99530521D01*
X112680147Y-99409752D01*
X111760000Y-98489605D01*
X110839853Y-99409752D01*
X110881638Y-99530502D01*
X110762028Y-99608773D01*
X110539945Y-99826252D01*
X110364334Y-100082726D01*
X110241883Y-100368425D01*
X110177257Y-100672467D01*
X110172917Y-100983271D01*
X78570000Y-100983271D01*
X78570000Y-98374573D01*
X110168641Y-98374573D01*
X110211816Y-98683791D01*
X110314487Y-98978644D01*
X110400958Y-99140421D01*
X110660248Y-99230147D01*
X111580395Y-98310000D01*
X111939605Y-98310000D01*
X112859752Y-99230147D01*
X113119042Y-99140421D01*
X113254935Y-98859329D01*
X113333379Y-98557127D01*
X113351359Y-98245427D01*
X113308184Y-97936209D01*
X113205513Y-97641356D01*
X113119042Y-97479579D01*
X112859752Y-97389853D01*
X111939605Y-98310000D01*
X111580395Y-98310000D01*
X110660248Y-97389853D01*
X110400958Y-97479579D01*
X110265065Y-97760671D01*
X110186621Y-98062873D01*
X110168641Y-98374573D01*
X78570000Y-98374573D01*
X78570000Y-88283271D01*
X110172917Y-88283271D01*
X110229028Y-88588999D01*
X110343454Y-88878006D01*
X110511836Y-89139283D01*
X110727760Y-89362878D01*
X110808032Y-89418669D01*
X110762028Y-89448773D01*
X110539945Y-89666252D01*
X110364334Y-89922726D01*
X110241883Y-90208425D01*
X110177257Y-90512467D01*
X110172917Y-90823271D01*
X110229028Y-91128999D01*
X110343454Y-91418006D01*
X110511836Y-91679283D01*
X110727760Y-91902878D01*
X110808032Y-91958669D01*
X110762028Y-91988773D01*
X110539945Y-92206252D01*
X110364334Y-92462726D01*
X110241883Y-92748425D01*
X110177257Y-93052467D01*
X110172917Y-93363271D01*
X110229028Y-93668999D01*
X110343454Y-93958006D01*
X110511836Y-94219283D01*
X110727760Y-94442878D01*
X110808032Y-94498669D01*
X110762028Y-94528773D01*
X110539945Y-94746252D01*
X110364334Y-95002726D01*
X110241883Y-95288425D01*
X110177257Y-95592467D01*
X110172917Y-95903271D01*
X110229028Y-96208999D01*
X110343454Y-96498006D01*
X110511836Y-96759283D01*
X110727760Y-96982878D01*
X110881546Y-97089763D01*
X110839853Y-97210248D01*
X111760000Y-98130395D01*
X112680147Y-97210248D01*
X112638473Y-97089817D01*
X112740545Y-97025040D01*
X112965643Y-96810683D01*
X113144818Y-96556686D01*
X113271245Y-96272724D01*
X113340110Y-95969614D01*
X113345068Y-95614583D01*
X113284693Y-95309668D01*
X113166243Y-95022287D01*
X112994230Y-94763387D01*
X112775205Y-94542827D01*
X112714261Y-94501720D01*
X112740545Y-94485040D01*
X112965643Y-94270683D01*
X113144818Y-94016686D01*
X113271245Y-93732724D01*
X113340110Y-93429614D01*
X113345068Y-93074583D01*
X113284693Y-92769668D01*
X113166243Y-92482287D01*
X112994230Y-92223387D01*
X112775205Y-92002827D01*
X112714261Y-91961720D01*
X112740545Y-91945040D01*
X112965643Y-91730683D01*
X113144818Y-91476686D01*
X113271245Y-91192724D01*
X113340110Y-90889614D01*
X113345068Y-90534583D01*
X113284693Y-90229668D01*
X113166243Y-89942287D01*
X112994230Y-89683387D01*
X112775205Y-89462827D01*
X112714261Y-89421720D01*
X112740545Y-89405040D01*
X112965643Y-89190683D01*
X113144818Y-88936686D01*
X113271245Y-88652724D01*
X113340110Y-88349614D01*
X113345068Y-87994583D01*
X113284693Y-87689668D01*
X113166243Y-87402287D01*
X112994230Y-87143387D01*
X112775205Y-86922827D01*
X112517512Y-86749011D01*
X112230965Y-86628558D01*
X111926479Y-86566056D01*
X111615652Y-86563886D01*
X111310324Y-86622130D01*
X111022123Y-86738571D01*
X110762028Y-86908773D01*
X110539945Y-87126252D01*
X110364334Y-87382726D01*
X110241883Y-87668425D01*
X110177257Y-87972467D01*
X110172917Y-88283271D01*
X78570000Y-88283271D01*
X78570000Y-83325142D01*
X83436997Y-83325142D01*
X83490949Y-83619104D01*
X83600971Y-83896988D01*
X83762872Y-84148210D01*
X83970486Y-84363200D01*
X84215904Y-84533770D01*
X84489779Y-84653423D01*
X84781679Y-84717602D01*
X85080486Y-84723861D01*
X85374817Y-84671962D01*
X85653462Y-84563883D01*
X85905808Y-84403739D01*
X86122243Y-84197631D01*
X86233281Y-84040225D01*
X86302872Y-84148210D01*
X86510486Y-84363200D01*
X86755904Y-84533770D01*
X87029779Y-84653423D01*
X87321679Y-84717602D01*
X87620486Y-84723861D01*
X87914817Y-84671962D01*
X88193462Y-84563883D01*
X88445808Y-84403739D01*
X88662243Y-84197631D01*
X88773281Y-84040225D01*
X88842872Y-84148210D01*
X89050486Y-84363200D01*
X89295904Y-84533770D01*
X89569779Y-84653423D01*
X89861679Y-84717602D01*
X90160486Y-84723861D01*
X90454817Y-84671962D01*
X90733462Y-84563883D01*
X90985808Y-84403739D01*
X91202243Y-84197631D01*
X91313281Y-84040225D01*
X91382872Y-84148210D01*
X91590486Y-84363200D01*
X91835904Y-84533770D01*
X92109779Y-84653423D01*
X92401679Y-84717602D01*
X92700486Y-84723861D01*
X92994817Y-84671962D01*
X93273462Y-84563883D01*
X93525808Y-84403739D01*
X93742243Y-84197631D01*
X93853281Y-84040225D01*
X93922872Y-84148210D01*
X94130486Y-84363200D01*
X94375904Y-84533770D01*
X94649779Y-84653423D01*
X94941679Y-84717602D01*
X95240486Y-84723861D01*
X95534817Y-84671962D01*
X95813462Y-84563883D01*
X96065808Y-84403739D01*
X96282243Y-84197631D01*
X96393281Y-84040225D01*
X96462872Y-84148210D01*
X96670486Y-84363200D01*
X96915904Y-84533770D01*
X97189779Y-84653423D01*
X97481679Y-84717602D01*
X97780486Y-84723861D01*
X98074817Y-84671962D01*
X98353462Y-84563883D01*
X98605808Y-84403739D01*
X98763857Y-84253231D01*
X99326374Y-84253231D01*
X99408727Y-84506289D01*
X99679418Y-84636086D01*
X99970230Y-84710580D01*
X100269988Y-84726908D01*
X100567171Y-84684443D01*
X100850359Y-84584816D01*
X100997273Y-84506289D01*
X101079626Y-84253231D01*
X100203000Y-83376605D01*
X99326374Y-84253231D01*
X98763857Y-84253231D01*
X98822243Y-84197631D01*
X98953977Y-84010886D01*
X99146769Y-84073626D01*
X100023395Y-83197000D01*
X100382605Y-83197000D01*
X101259231Y-84073626D01*
X101453965Y-84010253D01*
X101542872Y-84148210D01*
X101750486Y-84363200D01*
X101995904Y-84533770D01*
X102269779Y-84653423D01*
X102561679Y-84717602D01*
X102860486Y-84723861D01*
X103154817Y-84671962D01*
X103433462Y-84563883D01*
X103685808Y-84403739D01*
X103902243Y-84197631D01*
X104074522Y-83953410D01*
X104196084Y-83680377D01*
X104262299Y-83388932D01*
X104263189Y-83325142D01*
X119250997Y-83325142D01*
X119304949Y-83619104D01*
X119414971Y-83896988D01*
X119576872Y-84148210D01*
X119784486Y-84363200D01*
X120029904Y-84533770D01*
X120303779Y-84653423D01*
X120595679Y-84717602D01*
X120894486Y-84723861D01*
X121188817Y-84671962D01*
X121467462Y-84563883D01*
X121719808Y-84403739D01*
X121936243Y-84197631D01*
X122047281Y-84040225D01*
X122116872Y-84148210D01*
X122324486Y-84363200D01*
X122569904Y-84533770D01*
X122843779Y-84653423D01*
X123135679Y-84717602D01*
X123434486Y-84723861D01*
X123728817Y-84671962D01*
X124007462Y-84563883D01*
X124259808Y-84403739D01*
X124476243Y-84197631D01*
X124587281Y-84040225D01*
X124656872Y-84148210D01*
X124864486Y-84363200D01*
X125109904Y-84533770D01*
X125383779Y-84653423D01*
X125675679Y-84717602D01*
X125974486Y-84723861D01*
X126268817Y-84671962D01*
X126547462Y-84563883D01*
X126799808Y-84403739D01*
X127016243Y-84197631D01*
X127127281Y-84040225D01*
X127196872Y-84148210D01*
X127404486Y-84363200D01*
X127649904Y-84533770D01*
X127923779Y-84653423D01*
X128215679Y-84717602D01*
X128514486Y-84723861D01*
X128808817Y-84671962D01*
X129087462Y-84563883D01*
X129339808Y-84403739D01*
X129556243Y-84197631D01*
X129667281Y-84040225D01*
X129736872Y-84148210D01*
X129944486Y-84363200D01*
X130189904Y-84533770D01*
X130463779Y-84653423D01*
X130755679Y-84717602D01*
X131054486Y-84723861D01*
X131348817Y-84671962D01*
X131627462Y-84563883D01*
X131879808Y-84403739D01*
X132096243Y-84197631D01*
X132207281Y-84040225D01*
X132276872Y-84148210D01*
X132484486Y-84363200D01*
X132729904Y-84533770D01*
X133003779Y-84653423D01*
X133295679Y-84717602D01*
X133594486Y-84723861D01*
X133888817Y-84671962D01*
X134167462Y-84563883D01*
X134419808Y-84403739D01*
X134577857Y-84253231D01*
X135140374Y-84253231D01*
X135222727Y-84506289D01*
X135493418Y-84636086D01*
X135784230Y-84710580D01*
X136083988Y-84726908D01*
X136381171Y-84684443D01*
X136664359Y-84584816D01*
X136811273Y-84506289D01*
X136893626Y-84253231D01*
X136017000Y-83376605D01*
X135140374Y-84253231D01*
X134577857Y-84253231D01*
X134636243Y-84197631D01*
X134767977Y-84010886D01*
X134960769Y-84073626D01*
X135837395Y-83197000D01*
X136196605Y-83197000D01*
X137073231Y-84073626D01*
X137267965Y-84010253D01*
X137356872Y-84148210D01*
X137564486Y-84363200D01*
X137809904Y-84533770D01*
X138083779Y-84653423D01*
X138375679Y-84717602D01*
X138674486Y-84723861D01*
X138968817Y-84671962D01*
X139247462Y-84563883D01*
X139499808Y-84403739D01*
X139716243Y-84197631D01*
X139888522Y-83953410D01*
X140010084Y-83680377D01*
X140076299Y-83388932D01*
X140081065Y-83047564D01*
X140023014Y-82754384D01*
X139909123Y-82478063D01*
X139743730Y-82229127D01*
X139533135Y-82017056D01*
X139285359Y-81849929D01*
X139009840Y-81734112D01*
X138717072Y-81674015D01*
X138418208Y-81671929D01*
X138124630Y-81727932D01*
X137847520Y-81839891D01*
X137597435Y-82003542D01*
X137383899Y-82212652D01*
X137266970Y-82383423D01*
X137073231Y-82320374D01*
X136196605Y-83197000D01*
X135837395Y-83197000D01*
X134960769Y-82320374D01*
X134766384Y-82383633D01*
X134663730Y-82229127D01*
X134575987Y-82140769D01*
X135140374Y-82140769D01*
X136017000Y-83017395D01*
X136893626Y-82140769D01*
X136811273Y-81887711D01*
X136540582Y-81757914D01*
X136249770Y-81683420D01*
X135950012Y-81667092D01*
X135652829Y-81709557D01*
X135369641Y-81809184D01*
X135222727Y-81887711D01*
X135140374Y-82140769D01*
X134575987Y-82140769D01*
X134453135Y-82017056D01*
X134205359Y-81849929D01*
X133929840Y-81734112D01*
X133637072Y-81674015D01*
X133338208Y-81671929D01*
X133044630Y-81727932D01*
X132767520Y-81839891D01*
X132517435Y-82003542D01*
X132303899Y-82212652D01*
X132206903Y-82354312D01*
X132123730Y-82229127D01*
X131913135Y-82017056D01*
X131665359Y-81849929D01*
X131389840Y-81734112D01*
X131097072Y-81674015D01*
X130798208Y-81671929D01*
X130504630Y-81727932D01*
X130227520Y-81839891D01*
X129977435Y-82003542D01*
X129763899Y-82212652D01*
X129666903Y-82354312D01*
X129583730Y-82229127D01*
X129373135Y-82017056D01*
X129125359Y-81849929D01*
X128849840Y-81734112D01*
X128557072Y-81674015D01*
X128258208Y-81671929D01*
X127964630Y-81727932D01*
X127687520Y-81839891D01*
X127437435Y-82003542D01*
X127223899Y-82212652D01*
X127126903Y-82354312D01*
X127043730Y-82229127D01*
X126833135Y-82017056D01*
X126585359Y-81849929D01*
X126309840Y-81734112D01*
X126017072Y-81674015D01*
X125718208Y-81671929D01*
X125424630Y-81727932D01*
X125147520Y-81839891D01*
X124897435Y-82003542D01*
X124683899Y-82212652D01*
X124586903Y-82354312D01*
X124503730Y-82229127D01*
X124293135Y-82017056D01*
X124045359Y-81849929D01*
X123769840Y-81734112D01*
X123477072Y-81674015D01*
X123178208Y-81671929D01*
X122884630Y-81727932D01*
X122607520Y-81839891D01*
X122357435Y-82003542D01*
X122143899Y-82212652D01*
X122046903Y-82354312D01*
X121963730Y-82229127D01*
X121753135Y-82017056D01*
X121505359Y-81849929D01*
X121229840Y-81734112D01*
X120937072Y-81674015D01*
X120638208Y-81671929D01*
X120344630Y-81727932D01*
X120067520Y-81839891D01*
X119817435Y-82003542D01*
X119603899Y-82212652D01*
X119435047Y-82459255D01*
X119317309Y-82733959D01*
X119255170Y-83026299D01*
X119250997Y-83325142D01*
X104263189Y-83325142D01*
X104267065Y-83047564D01*
X104209014Y-82754384D01*
X104095123Y-82478063D01*
X103929730Y-82229127D01*
X103719135Y-82017056D01*
X103471359Y-81849929D01*
X103195840Y-81734112D01*
X102903072Y-81674015D01*
X102604208Y-81671929D01*
X102310630Y-81727932D01*
X102033520Y-81839891D01*
X101783435Y-82003542D01*
X101569899Y-82212652D01*
X101452970Y-82383423D01*
X101259231Y-82320374D01*
X100382605Y-83197000D01*
X100023395Y-83197000D01*
X99146769Y-82320374D01*
X98952384Y-82383633D01*
X98849730Y-82229127D01*
X98761987Y-82140769D01*
X99326374Y-82140769D01*
X100203000Y-83017395D01*
X101079626Y-82140769D01*
X100997273Y-81887711D01*
X100726582Y-81757914D01*
X100435770Y-81683420D01*
X100136012Y-81667092D01*
X99838829Y-81709557D01*
X99555641Y-81809184D01*
X99408727Y-81887711D01*
X99326374Y-82140769D01*
X98761987Y-82140769D01*
X98639135Y-82017056D01*
X98391359Y-81849929D01*
X98115840Y-81734112D01*
X97823072Y-81674015D01*
X97524208Y-81671929D01*
X97230630Y-81727932D01*
X96953520Y-81839891D01*
X96703435Y-82003542D01*
X96489899Y-82212652D01*
X96392903Y-82354312D01*
X96309730Y-82229127D01*
X96099135Y-82017056D01*
X95851359Y-81849929D01*
X95575840Y-81734112D01*
X95283072Y-81674015D01*
X94984208Y-81671929D01*
X94690630Y-81727932D01*
X94413520Y-81839891D01*
X94163435Y-82003542D01*
X93949899Y-82212652D01*
X93852903Y-82354312D01*
X93769730Y-82229127D01*
X93559135Y-82017056D01*
X93311359Y-81849929D01*
X93035840Y-81734112D01*
X92743072Y-81674015D01*
X92444208Y-81671929D01*
X92150630Y-81727932D01*
X91873520Y-81839891D01*
X91623435Y-82003542D01*
X91409899Y-82212652D01*
X91312903Y-82354312D01*
X91229730Y-82229127D01*
X91109800Y-82108356D01*
X91109800Y-79129278D01*
X99449278Y-70789800D01*
X113030000Y-70789800D01*
X113116410Y-70781328D01*
X113202878Y-70773763D01*
X113207624Y-70772384D01*
X113212541Y-70771902D01*
X113295627Y-70746816D01*
X113379011Y-70722591D01*
X113383399Y-70720316D01*
X113388130Y-70718888D01*
X113464773Y-70678136D01*
X113541852Y-70638182D01*
X113545715Y-70635099D01*
X113550077Y-70632779D01*
X113617354Y-70577910D01*
X113685195Y-70523753D01*
X113692072Y-70516971D01*
X113692215Y-70516855D01*
X113692324Y-70516723D01*
X113694539Y-70514539D01*
X119584445Y-64624633D01*
X119688862Y-64606221D01*
X119897846Y-64525162D01*
X120087106Y-64405054D01*
X120249432Y-64250473D01*
X120378641Y-64067307D01*
X120469813Y-63862532D01*
X120519473Y-63643949D01*
X120523049Y-63387923D01*
X120479510Y-63168038D01*
X120394092Y-62960798D01*
X120270047Y-62774095D01*
X120112101Y-62615042D01*
X119926269Y-62489697D01*
X119719630Y-62402834D01*
X119500054Y-62357762D01*
X119275906Y-62356197D01*
X119055722Y-62398199D01*
X118847891Y-62482169D01*
X118660327Y-62604907D01*
X118500175Y-62761739D01*
X118373535Y-62946691D01*
X118285232Y-63152719D01*
X118254738Y-63296184D01*
X112640722Y-68910200D01*
X99060000Y-68910200D01*
X98973631Y-68918668D01*
X98887123Y-68926237D01*
X98882377Y-68927616D01*
X98877459Y-68928098D01*
X98794361Y-68953187D01*
X98710989Y-68977409D01*
X98706600Y-68979684D01*
X98701870Y-68981112D01*
X98625266Y-69021843D01*
X98548148Y-69061817D01*
X98544282Y-69064903D01*
X98539923Y-69067221D01*
X98472674Y-69122068D01*
X98404805Y-69176247D01*
X98397928Y-69183029D01*
X98397785Y-69183145D01*
X98397676Y-69183277D01*
X98395461Y-69185461D01*
X89505461Y-78075461D01*
X89450364Y-78142537D01*
X89394558Y-78209044D01*
X89392177Y-78213375D01*
X89389041Y-78217193D01*
X89348028Y-78293683D01*
X89306197Y-78369773D01*
X89304702Y-78374484D01*
X89302367Y-78378840D01*
X89276994Y-78461831D01*
X89250737Y-78544605D01*
X89250186Y-78549520D01*
X89248742Y-78554242D01*
X89239972Y-78640579D01*
X89230292Y-78726878D01*
X89230224Y-78736539D01*
X89230206Y-78736719D01*
X89230222Y-78736886D01*
X89230200Y-78740000D01*
X89230200Y-81907502D01*
X89083435Y-82003542D01*
X88869899Y-82212652D01*
X88772903Y-82354312D01*
X88689730Y-82229127D01*
X88479135Y-82017056D01*
X88442800Y-81992548D01*
X88442800Y-77986278D01*
X104804539Y-61624539D01*
X104859636Y-61557463D01*
X104915442Y-61490956D01*
X104917823Y-61486625D01*
X104920959Y-61482807D01*
X104961972Y-61406317D01*
X105003803Y-61330227D01*
X105005298Y-61325516D01*
X105007633Y-61321160D01*
X105033006Y-61238169D01*
X105059263Y-61155395D01*
X105059814Y-61150480D01*
X105061258Y-61145758D01*
X105070028Y-61059421D01*
X105079708Y-60973122D01*
X105079776Y-60963461D01*
X105079794Y-60963281D01*
X105079778Y-60963114D01*
X105079800Y-60960000D01*
X105079800Y-58336226D01*
X105306137Y-58192588D01*
X105573840Y-57937658D01*
X105786929Y-57635586D01*
X105937286Y-57297877D01*
X106019185Y-56937396D01*
X106025081Y-56515166D01*
X105953279Y-56152539D01*
X105812410Y-55810764D01*
X105607839Y-55502860D01*
X105555347Y-55450000D01*
X107331928Y-55450000D01*
X107331928Y-57950000D01*
X107339992Y-58051121D01*
X107393106Y-58222634D01*
X107491900Y-58372559D01*
X107628550Y-58489025D01*
X107792237Y-58562810D01*
X107970000Y-58588072D01*
X110470000Y-58588072D01*
X110571121Y-58580008D01*
X110742634Y-58526894D01*
X110892559Y-58428100D01*
X111009025Y-58291450D01*
X111082810Y-58127763D01*
X111108072Y-57950000D01*
X111108072Y-56858496D01*
X112412522Y-56858496D01*
X112479254Y-57222091D01*
X112615338Y-57565799D01*
X112815590Y-57876529D01*
X113072382Y-58142446D01*
X113375935Y-58353420D01*
X113714684Y-58501416D01*
X114075729Y-58580797D01*
X114445315Y-58588539D01*
X114809367Y-58524346D01*
X115154017Y-58390666D01*
X115466137Y-58192588D01*
X115733840Y-57937658D01*
X115946929Y-57635586D01*
X116097286Y-57297877D01*
X116179185Y-56937396D01*
X116180286Y-56858496D01*
X117492522Y-56858496D01*
X117559254Y-57222091D01*
X117695338Y-57565799D01*
X117895590Y-57876529D01*
X118152382Y-58142446D01*
X118455935Y-58353420D01*
X118794684Y-58501416D01*
X119155729Y-58580797D01*
X119525315Y-58588539D01*
X119889367Y-58524346D01*
X120234017Y-58390666D01*
X120546137Y-58192588D01*
X120813840Y-57937658D01*
X121026929Y-57635586D01*
X121177286Y-57297877D01*
X121259185Y-56937396D01*
X121265081Y-56515166D01*
X121193279Y-56152539D01*
X121052410Y-55810764D01*
X120847839Y-55502860D01*
X120795347Y-55450000D01*
X122571928Y-55450000D01*
X122571928Y-57950000D01*
X122579992Y-58051121D01*
X122633106Y-58222634D01*
X122731900Y-58372559D01*
X122868550Y-58489025D01*
X123032237Y-58562810D01*
X123210000Y-58588072D01*
X125710000Y-58588072D01*
X125811121Y-58580008D01*
X125982634Y-58526894D01*
X126132559Y-58428100D01*
X126249025Y-58291450D01*
X126322810Y-58127763D01*
X126348072Y-57950000D01*
X126348072Y-56858496D01*
X127652522Y-56858496D01*
X127719254Y-57222091D01*
X127855338Y-57565799D01*
X128055590Y-57876529D01*
X128312382Y-58142446D01*
X128615935Y-58353420D01*
X128954684Y-58501416D01*
X129315729Y-58580797D01*
X129685315Y-58588539D01*
X130049367Y-58524346D01*
X130394017Y-58390666D01*
X130706137Y-58192588D01*
X130894087Y-58013605D01*
X133486000Y-58013605D01*
X133611914Y-58303577D01*
X133944126Y-58469433D01*
X134302312Y-58567290D01*
X134672706Y-58593389D01*
X135041075Y-58546725D01*
X135393262Y-58429094D01*
X135628086Y-58303577D01*
X135754000Y-58013605D01*
X134620000Y-56879605D01*
X133486000Y-58013605D01*
X130894087Y-58013605D01*
X130973840Y-57937658D01*
X131186929Y-57635586D01*
X131337286Y-57297877D01*
X131419185Y-56937396D01*
X131421764Y-56752706D01*
X132726611Y-56752706D01*
X132773275Y-57121075D01*
X132890906Y-57473262D01*
X133016423Y-57708086D01*
X133306395Y-57834000D01*
X134440395Y-56700000D01*
X134799605Y-56700000D01*
X135933605Y-57834000D01*
X136223577Y-57708086D01*
X136389433Y-57375874D01*
X136487290Y-57017688D01*
X136513389Y-56647294D01*
X136466725Y-56278925D01*
X136349094Y-55926738D01*
X136223577Y-55691914D01*
X135933605Y-55566000D01*
X134799605Y-56700000D01*
X134440395Y-56700000D01*
X133306395Y-55566000D01*
X133016423Y-55691914D01*
X132850567Y-56024126D01*
X132752710Y-56382312D01*
X132726611Y-56752706D01*
X131421764Y-56752706D01*
X131425081Y-56515166D01*
X131353279Y-56152539D01*
X131212410Y-55810764D01*
X131007839Y-55502860D01*
X130892184Y-55386395D01*
X133486000Y-55386395D01*
X134620000Y-56520395D01*
X135690395Y-55450000D01*
X137811928Y-55450000D01*
X137811928Y-57950000D01*
X137819992Y-58051121D01*
X137873106Y-58222634D01*
X137971900Y-58372559D01*
X138108550Y-58489025D01*
X138272237Y-58562810D01*
X138450000Y-58588072D01*
X140950000Y-58588072D01*
X141051121Y-58580008D01*
X141222634Y-58526894D01*
X141372559Y-58428100D01*
X141489025Y-58291450D01*
X141562810Y-58127763D01*
X141588072Y-57950000D01*
X141588072Y-55450000D01*
X141580008Y-55348879D01*
X141526894Y-55177366D01*
X141428100Y-55027441D01*
X141291450Y-54910975D01*
X141127763Y-54837190D01*
X140950000Y-54811928D01*
X138450000Y-54811928D01*
X138348879Y-54819992D01*
X138177366Y-54873106D01*
X138027441Y-54971900D01*
X137910975Y-55108550D01*
X137837190Y-55272237D01*
X137811928Y-55450000D01*
X135690395Y-55450000D01*
X135754000Y-55386395D01*
X135628086Y-55096423D01*
X135295874Y-54930567D01*
X134937688Y-54832710D01*
X134567294Y-54806611D01*
X134198925Y-54853275D01*
X133846738Y-54970906D01*
X133611914Y-55096423D01*
X133486000Y-55386395D01*
X130892184Y-55386395D01*
X130747358Y-55240555D01*
X130440890Y-55033839D01*
X130100107Y-54890587D01*
X129737990Y-54816255D01*
X129368331Y-54813674D01*
X129005211Y-54882943D01*
X128662461Y-55021423D01*
X128353137Y-55223840D01*
X128089019Y-55482482D01*
X127880169Y-55787500D01*
X127734542Y-56127275D01*
X127657683Y-56488864D01*
X127652522Y-56858496D01*
X126348072Y-56858496D01*
X126348072Y-55450000D01*
X126340008Y-55348879D01*
X126286894Y-55177366D01*
X126188100Y-55027441D01*
X126051450Y-54910975D01*
X125887763Y-54837190D01*
X125710000Y-54811928D01*
X123210000Y-54811928D01*
X123108879Y-54819992D01*
X122937366Y-54873106D01*
X122787441Y-54971900D01*
X122670975Y-55108550D01*
X122597190Y-55272237D01*
X122571928Y-55450000D01*
X120795347Y-55450000D01*
X120587358Y-55240555D01*
X120280890Y-55033839D01*
X119940107Y-54890587D01*
X119577990Y-54816255D01*
X119208331Y-54813674D01*
X118845211Y-54882943D01*
X118502461Y-55021423D01*
X118193137Y-55223840D01*
X117929019Y-55482482D01*
X117720169Y-55787500D01*
X117574542Y-56127275D01*
X117497683Y-56488864D01*
X117492522Y-56858496D01*
X116180286Y-56858496D01*
X116185081Y-56515166D01*
X116113279Y-56152539D01*
X115972410Y-55810764D01*
X115767839Y-55502860D01*
X115507358Y-55240555D01*
X115200890Y-55033839D01*
X114860107Y-54890587D01*
X114497990Y-54816255D01*
X114128331Y-54813674D01*
X113765211Y-54882943D01*
X113422461Y-55021423D01*
X113113137Y-55223840D01*
X112849019Y-55482482D01*
X112640169Y-55787500D01*
X112494542Y-56127275D01*
X112417683Y-56488864D01*
X112412522Y-56858496D01*
X111108072Y-56858496D01*
X111108072Y-55450000D01*
X111100008Y-55348879D01*
X111046894Y-55177366D01*
X110948100Y-55027441D01*
X110811450Y-54910975D01*
X110647763Y-54837190D01*
X110470000Y-54811928D01*
X107970000Y-54811928D01*
X107868879Y-54819992D01*
X107697366Y-54873106D01*
X107547441Y-54971900D01*
X107430975Y-55108550D01*
X107357190Y-55272237D01*
X107331928Y-55450000D01*
X105555347Y-55450000D01*
X105347358Y-55240555D01*
X105040890Y-55033839D01*
X104700107Y-54890587D01*
X104337990Y-54816255D01*
X103968331Y-54813674D01*
X103605211Y-54882943D01*
X103262461Y-55021423D01*
X102953137Y-55223840D01*
X102689019Y-55482482D01*
X102480169Y-55787500D01*
X102334542Y-56127275D01*
X102257683Y-56488864D01*
X102252522Y-56858496D01*
X102319254Y-57222091D01*
X102455338Y-57565799D01*
X102655590Y-57876529D01*
X102912382Y-58142446D01*
X103200200Y-58342484D01*
X103200200Y-60570722D01*
X86838461Y-76932461D01*
X86783364Y-76999537D01*
X86727558Y-77066044D01*
X86725177Y-77070375D01*
X86722041Y-77074193D01*
X86681028Y-77150683D01*
X86639197Y-77226773D01*
X86637702Y-77231484D01*
X86635367Y-77235840D01*
X86609994Y-77318831D01*
X86583737Y-77401605D01*
X86583186Y-77406520D01*
X86581742Y-77411242D01*
X86572972Y-77497579D01*
X86563292Y-77583878D01*
X86563224Y-77593539D01*
X86563206Y-77593719D01*
X86563222Y-77593886D01*
X86563200Y-77597000D01*
X86563200Y-81990608D01*
X86543435Y-82003542D01*
X86329899Y-82212652D01*
X86232903Y-82354312D01*
X86149730Y-82229127D01*
X85939135Y-82017056D01*
X85902800Y-81992548D01*
X85902800Y-76716278D01*
X99724539Y-62894539D01*
X99779636Y-62827463D01*
X99835442Y-62760956D01*
X99837823Y-62756625D01*
X99840959Y-62752807D01*
X99881972Y-62676317D01*
X99923803Y-62600227D01*
X99925298Y-62595516D01*
X99927633Y-62591160D01*
X99953019Y-62508128D01*
X99979263Y-62425395D01*
X99979814Y-62420485D01*
X99981259Y-62415758D01*
X99990039Y-62329327D01*
X99999708Y-62243122D01*
X99999776Y-62233471D01*
X99999795Y-62233281D01*
X99999778Y-62233104D01*
X99999800Y-62230000D01*
X99999800Y-58336226D01*
X100226137Y-58192588D01*
X100493840Y-57937658D01*
X100706929Y-57635586D01*
X100857286Y-57297877D01*
X100939185Y-56937396D01*
X100945081Y-56515166D01*
X100873279Y-56152539D01*
X100732410Y-55810764D01*
X100527839Y-55502860D01*
X100267358Y-55240555D01*
X99960890Y-55033839D01*
X99620107Y-54890587D01*
X99257990Y-54816255D01*
X98888331Y-54813674D01*
X98525211Y-54882943D01*
X98182461Y-55021423D01*
X97873137Y-55223840D01*
X97609019Y-55482482D01*
X97400169Y-55787500D01*
X97254542Y-56127275D01*
X97177683Y-56488864D01*
X97172522Y-56858496D01*
X97239254Y-57222091D01*
X97375338Y-57565799D01*
X97575590Y-57876529D01*
X97832382Y-58142446D01*
X98120200Y-58342484D01*
X98120200Y-61840722D01*
X84298461Y-75662461D01*
X84243364Y-75729537D01*
X84187558Y-75796044D01*
X84185177Y-75800375D01*
X84182041Y-75804193D01*
X84141028Y-75880683D01*
X84099197Y-75956773D01*
X84097702Y-75961484D01*
X84095367Y-75965840D01*
X84069994Y-76048831D01*
X84043737Y-76131605D01*
X84043186Y-76136520D01*
X84041742Y-76141242D01*
X84032972Y-76227579D01*
X84023292Y-76313878D01*
X84023224Y-76323539D01*
X84023206Y-76323719D01*
X84023222Y-76323886D01*
X84023200Y-76327000D01*
X84023200Y-81990608D01*
X84003435Y-82003542D01*
X83789899Y-82212652D01*
X83621047Y-82459255D01*
X83503309Y-82733959D01*
X83441170Y-83026299D01*
X83436997Y-83325142D01*
X78570000Y-83325142D01*
X78570000Y-58013605D01*
X82686000Y-58013605D01*
X82811914Y-58303577D01*
X83144126Y-58469433D01*
X83502312Y-58567290D01*
X83872706Y-58593389D01*
X84241075Y-58546725D01*
X84593262Y-58429094D01*
X84828086Y-58303577D01*
X84954000Y-58013605D01*
X83820000Y-56879605D01*
X82686000Y-58013605D01*
X78570000Y-58013605D01*
X78570000Y-56752706D01*
X81926611Y-56752706D01*
X81973275Y-57121075D01*
X82090906Y-57473262D01*
X82216423Y-57708086D01*
X82506395Y-57834000D01*
X83640395Y-56700000D01*
X83999605Y-56700000D01*
X85133605Y-57834000D01*
X85423577Y-57708086D01*
X85589433Y-57375874D01*
X85687290Y-57017688D01*
X85698507Y-56858496D01*
X87012522Y-56858496D01*
X87079254Y-57222091D01*
X87215338Y-57565799D01*
X87415590Y-57876529D01*
X87672382Y-58142446D01*
X87975935Y-58353420D01*
X88314684Y-58501416D01*
X88675729Y-58580797D01*
X89045315Y-58588539D01*
X89409367Y-58524346D01*
X89754017Y-58390666D01*
X90066137Y-58192588D01*
X90333840Y-57937658D01*
X90546929Y-57635586D01*
X90697286Y-57297877D01*
X90779185Y-56937396D01*
X90785081Y-56515166D01*
X90713279Y-56152539D01*
X90572410Y-55810764D01*
X90367839Y-55502860D01*
X90315347Y-55450000D01*
X92091928Y-55450000D01*
X92091928Y-57950000D01*
X92099992Y-58051121D01*
X92153106Y-58222634D01*
X92251900Y-58372559D01*
X92388550Y-58489025D01*
X92552237Y-58562810D01*
X92730000Y-58588072D01*
X95230000Y-58588072D01*
X95331121Y-58580008D01*
X95502634Y-58526894D01*
X95652559Y-58428100D01*
X95769025Y-58291450D01*
X95842810Y-58127763D01*
X95868072Y-57950000D01*
X95868072Y-55450000D01*
X95860008Y-55348879D01*
X95806894Y-55177366D01*
X95708100Y-55027441D01*
X95571450Y-54910975D01*
X95407763Y-54837190D01*
X95230000Y-54811928D01*
X92730000Y-54811928D01*
X92628879Y-54819992D01*
X92457366Y-54873106D01*
X92307441Y-54971900D01*
X92190975Y-55108550D01*
X92117190Y-55272237D01*
X92091928Y-55450000D01*
X90315347Y-55450000D01*
X90107358Y-55240555D01*
X89800890Y-55033839D01*
X89460107Y-54890587D01*
X89097990Y-54816255D01*
X88728331Y-54813674D01*
X88365211Y-54882943D01*
X88022461Y-55021423D01*
X87713137Y-55223840D01*
X87449019Y-55482482D01*
X87240169Y-55787500D01*
X87094542Y-56127275D01*
X87017683Y-56488864D01*
X87012522Y-56858496D01*
X85698507Y-56858496D01*
X85713389Y-56647294D01*
X85666725Y-56278925D01*
X85549094Y-55926738D01*
X85423577Y-55691914D01*
X85133605Y-55566000D01*
X83999605Y-56700000D01*
X83640395Y-56700000D01*
X82506395Y-55566000D01*
X82216423Y-55691914D01*
X82050567Y-56024126D01*
X81952710Y-56382312D01*
X81926611Y-56752706D01*
X78570000Y-56752706D01*
X78570000Y-55386395D01*
X82686000Y-55386395D01*
X83820000Y-56520395D01*
X84954000Y-55386395D01*
X84828086Y-55096423D01*
X84495874Y-54930567D01*
X84137688Y-54832710D01*
X83767294Y-54806611D01*
X83398925Y-54853275D01*
X83046738Y-54970906D01*
X82811914Y-55096423D01*
X82686000Y-55386395D01*
X78570000Y-55386395D01*
X78570000Y-51760000D01*
X144950000Y-51760000D01*
X144950000Y-137240000D01*
X144950000Y-137240000D01*
G37*
X144950000Y-137240000D02*
X123300800Y-137240000D01*
X123317000Y-137160000D01*
X123317000Y-133801257D01*
X123535935Y-133953420D01*
X123874684Y-134101416D01*
X124235729Y-134180797D01*
X124605315Y-134188539D01*
X124969367Y-134124346D01*
X125314017Y-133990666D01*
X125626137Y-133792588D01*
X125893840Y-133537658D01*
X126106929Y-133235586D01*
X126257286Y-132897877D01*
X126339185Y-132537396D01*
X126345081Y-132115166D01*
X126273279Y-131752539D01*
X126132410Y-131410764D01*
X125927839Y-131102860D01*
X125875347Y-131050000D01*
X127651928Y-131050000D01*
X127651928Y-133550000D01*
X127659992Y-133651121D01*
X127713106Y-133822634D01*
X127811900Y-133972559D01*
X127948550Y-134089025D01*
X128112237Y-134162810D01*
X128290000Y-134188072D01*
X130790000Y-134188072D01*
X130891121Y-134180008D01*
X131062634Y-134126894D01*
X131212559Y-134028100D01*
X131329025Y-133891450D01*
X131402810Y-133727763D01*
X131428072Y-133550000D01*
X131428072Y-132458496D01*
X132732522Y-132458496D01*
X132799254Y-132822091D01*
X132935338Y-133165799D01*
X133135590Y-133476529D01*
X133392382Y-133742446D01*
X133695935Y-133953420D01*
X134034684Y-134101416D01*
X134395729Y-134180797D01*
X134765315Y-134188539D01*
X135129367Y-134124346D01*
X135474017Y-133990666D01*
X135786137Y-133792588D01*
X136053840Y-133537658D01*
X136266929Y-133235586D01*
X136417286Y-132897877D01*
X136499185Y-132537396D01*
X136500286Y-132458496D01*
X137812522Y-132458496D01*
X137879254Y-132822091D01*
X138015338Y-133165799D01*
X138215590Y-133476529D01*
X138472382Y-133742446D01*
X138775935Y-133953420D01*
X139114684Y-134101416D01*
X139475729Y-134180797D01*
X139845315Y-134188539D01*
X140209367Y-134124346D01*
X140554017Y-133990666D01*
X140866137Y-133792588D01*
X141133840Y-133537658D01*
X141346929Y-133235586D01*
X141497286Y-132897877D01*
X141579185Y-132537396D01*
X141585081Y-132115166D01*
X141513279Y-131752539D01*
X141372410Y-131410764D01*
X141167839Y-131102860D01*
X140907358Y-130840555D01*
X140600890Y-130633839D01*
X140260107Y-130490587D01*
X139897990Y-130416255D01*
X139528331Y-130413674D01*
X139165211Y-130482943D01*
X138822461Y-130621423D01*
X138513137Y-130823840D01*
X138249019Y-131082482D01*
X138040169Y-131387500D01*
X137894542Y-131727275D01*
X137817683Y-132088864D01*
X137812522Y-132458496D01*
X136500286Y-132458496D01*
X136505081Y-132115166D01*
X136433279Y-131752539D01*
X136292410Y-131410764D01*
X136087839Y-131102860D01*
X135827358Y-130840555D01*
X135520890Y-130633839D01*
X135180107Y-130490587D01*
X134817990Y-130416255D01*
X134448331Y-130413674D01*
X134085211Y-130482943D01*
X133742461Y-130621423D01*
X133433137Y-130823840D01*
X133169019Y-131082482D01*
X132960169Y-131387500D01*
X132814542Y-131727275D01*
X132737683Y-132088864D01*
X132732522Y-132458496D01*
X131428072Y-132458496D01*
X131428072Y-131050000D01*
X131420008Y-130948879D01*
X131366894Y-130777366D01*
X131268100Y-130627441D01*
X131131450Y-130510975D01*
X130967763Y-130437190D01*
X130790000Y-130411928D01*
X128290000Y-130411928D01*
X128188879Y-130419992D01*
X128017366Y-130473106D01*
X127867441Y-130571900D01*
X127750975Y-130708550D01*
X127677190Y-130872237D01*
X127651928Y-131050000D01*
X125875347Y-131050000D01*
X125667358Y-130840555D01*
X125360890Y-130633839D01*
X125020107Y-130490587D01*
X124657990Y-130416255D01*
X124288331Y-130413674D01*
X123925211Y-130482943D01*
X123582461Y-130621423D01*
X123317000Y-130795137D01*
X123317000Y-126873000D01*
X123221460Y-126365250D01*
X122921380Y-125898913D01*
X122463511Y-125586064D01*
X121920000Y-125476000D01*
X101600000Y-125476000D01*
X101092250Y-125571540D01*
X100625913Y-125871620D01*
X100313064Y-126329489D01*
X100203000Y-126873000D01*
X100203000Y-130411928D01*
X97810000Y-130411928D01*
X97708879Y-130419992D01*
X97537366Y-130473106D01*
X97387441Y-130571900D01*
X97270975Y-130708550D01*
X97197190Y-130872237D01*
X97171928Y-131050000D01*
X97171928Y-133550000D01*
X97179992Y-133651121D01*
X97233106Y-133822634D01*
X97331900Y-133972559D01*
X97468550Y-134089025D01*
X97632237Y-134162810D01*
X97810000Y-134188072D01*
X100203000Y-134188072D01*
X100203000Y-137160000D01*
X100218053Y-137240000D01*
X78570000Y-137240000D01*
X78570000Y-131050000D01*
X81931928Y-131050000D01*
X81931928Y-133550000D01*
X81939992Y-133651121D01*
X81993106Y-133822634D01*
X82091900Y-133972559D01*
X82228550Y-134089025D01*
X82392237Y-134162810D01*
X82570000Y-134188072D01*
X85070000Y-134188072D01*
X85171121Y-134180008D01*
X85342634Y-134126894D01*
X85492559Y-134028100D01*
X85609025Y-133891450D01*
X85682810Y-133727763D01*
X85708072Y-133550000D01*
X85708072Y-132458496D01*
X87012522Y-132458496D01*
X87079254Y-132822091D01*
X87215338Y-133165799D01*
X87415590Y-133476529D01*
X87672382Y-133742446D01*
X87975935Y-133953420D01*
X88314684Y-134101416D01*
X88675729Y-134180797D01*
X89045315Y-134188539D01*
X89409367Y-134124346D01*
X89754017Y-133990666D01*
X90066137Y-133792588D01*
X90333840Y-133537658D01*
X90546929Y-133235586D01*
X90697286Y-132897877D01*
X90779185Y-132537396D01*
X90780286Y-132458496D01*
X92092522Y-132458496D01*
X92159254Y-132822091D01*
X92295338Y-133165799D01*
X92495590Y-133476529D01*
X92752382Y-133742446D01*
X93055935Y-133953420D01*
X93394684Y-134101416D01*
X93755729Y-134180797D01*
X94125315Y-134188539D01*
X94489367Y-134124346D01*
X94834017Y-133990666D01*
X95146137Y-133792588D01*
X95413840Y-133537658D01*
X95626929Y-133235586D01*
X95777286Y-132897877D01*
X95859185Y-132537396D01*
X95865081Y-132115166D01*
X95793279Y-131752539D01*
X95652410Y-131410764D01*
X95447839Y-131102860D01*
X95187358Y-130840555D01*
X94880890Y-130633839D01*
X94540107Y-130490587D01*
X94177990Y-130416255D01*
X93808331Y-130413674D01*
X93445211Y-130482943D01*
X93102461Y-130621423D01*
X92793137Y-130823840D01*
X92529019Y-131082482D01*
X92320169Y-131387500D01*
X92174542Y-131727275D01*
X92097683Y-132088864D01*
X92092522Y-132458496D01*
X90780286Y-132458496D01*
X90785081Y-132115166D01*
X90713279Y-131752539D01*
X90572410Y-131410764D01*
X90367839Y-131102860D01*
X90107358Y-130840555D01*
X89800890Y-130633839D01*
X89460107Y-130490587D01*
X89097990Y-130416255D01*
X88728331Y-130413674D01*
X88365211Y-130482943D01*
X88022461Y-130621423D01*
X87713137Y-130823840D01*
X87449019Y-131082482D01*
X87240169Y-131387500D01*
X87094542Y-131727275D01*
X87017683Y-132088864D01*
X87012522Y-132458496D01*
X85708072Y-132458496D01*
X85708072Y-131050000D01*
X85700008Y-130948879D01*
X85646894Y-130777366D01*
X85548100Y-130627441D01*
X85411450Y-130510975D01*
X85247763Y-130437190D01*
X85070000Y-130411928D01*
X82570000Y-130411928D01*
X82468879Y-130419992D01*
X82297366Y-130473106D01*
X82147441Y-130571900D01*
X82030975Y-130708550D01*
X81957190Y-130872237D01*
X81931928Y-131050000D01*
X78570000Y-131050000D01*
X78570000Y-110687000D01*
X79807857Y-110687000D01*
X79807857Y-114507000D01*
X85292143Y-114507000D01*
X85292143Y-110687000D01*
X79807857Y-110687000D01*
X78570000Y-110687000D01*
X78570000Y-106117942D01*
X81454862Y-106117942D01*
X81533992Y-106549086D01*
X81695357Y-106956649D01*
X81932813Y-107325107D01*
X82237313Y-107640426D01*
X82597260Y-107890596D01*
X82998943Y-108066087D01*
X83427063Y-108160215D01*
X83865312Y-108169395D01*
X84296998Y-108093278D01*
X84705678Y-107934761D01*
X85075785Y-107699884D01*
X85393222Y-107397592D01*
X85645899Y-107039401D01*
X85824190Y-106638952D01*
X85921305Y-106211500D01*
X85928296Y-105710827D01*
X85843154Y-105280830D01*
X85708714Y-104954653D01*
X86550419Y-104954653D01*
X86621006Y-105339253D01*
X86764952Y-105702818D01*
X86976773Y-106031499D01*
X87248401Y-106312779D01*
X87569490Y-106535941D01*
X87927810Y-106692487D01*
X88309712Y-106776454D01*
X88700650Y-106784643D01*
X89085734Y-106716742D01*
X89450295Y-106575339D01*
X89780447Y-106365817D01*
X90063616Y-106096160D01*
X90289015Y-105776636D01*
X90298670Y-105754951D01*
X90476893Y-106031499D01*
X90748521Y-106312779D01*
X91069610Y-106535941D01*
X91427930Y-106692487D01*
X91809832Y-106776454D01*
X92200770Y-106784643D01*
X92585854Y-106716742D01*
X92950415Y-106575339D01*
X93280567Y-106365817D01*
X93563736Y-106096160D01*
X93789135Y-105776636D01*
X93792563Y-105768937D01*
X93961773Y-106031499D01*
X94233401Y-106312779D01*
X94554490Y-106535941D01*
X94912810Y-106692487D01*
X95294712Y-106776454D01*
X95685650Y-106784643D01*
X96070734Y-106716742D01*
X96435295Y-106575339D01*
X96765447Y-106365817D01*
X97048616Y-106096160D01*
X97274015Y-105776636D01*
X97283670Y-105754951D01*
X97461893Y-106031499D01*
X97733521Y-106312779D01*
X98054610Y-106535941D01*
X98412930Y-106692487D01*
X98794832Y-106776454D01*
X99185770Y-106784643D01*
X99570854Y-106716742D01*
X99935415Y-106575339D01*
X100265567Y-106365817D01*
X100525862Y-106117942D01*
X101774862Y-106117942D01*
X101853992Y-106549086D01*
X102015357Y-106956649D01*
X102252813Y-107325107D01*
X102557313Y-107640426D01*
X102917260Y-107890596D01*
X103318943Y-108066087D01*
X103747063Y-108160215D01*
X104185312Y-108169395D01*
X104616998Y-108093278D01*
X105025678Y-107934761D01*
X105395785Y-107699884D01*
X105713222Y-107397592D01*
X105965899Y-107039401D01*
X106144190Y-106638952D01*
X106241305Y-106211500D01*
X106242611Y-106117942D01*
X117268862Y-106117942D01*
X117347992Y-106549086D01*
X117509357Y-106956649D01*
X117746813Y-107325107D01*
X118051313Y-107640426D01*
X118411260Y-107890596D01*
X118812943Y-108066087D01*
X119241063Y-108160215D01*
X119679312Y-108169395D01*
X120110998Y-108093278D01*
X120519678Y-107934761D01*
X120889785Y-107699884D01*
X121207222Y-107397592D01*
X121459899Y-107039401D01*
X121638190Y-106638952D01*
X121735305Y-106211500D01*
X121742296Y-105710827D01*
X121657154Y-105280830D01*
X121522714Y-104954653D01*
X122364419Y-104954653D01*
X122435006Y-105339253D01*
X122578952Y-105702818D01*
X122790773Y-106031499D01*
X123062401Y-106312779D01*
X123383490Y-106535941D01*
X123741810Y-106692487D01*
X124123712Y-106776454D01*
X124514650Y-106784643D01*
X124899734Y-106716742D01*
X125264295Y-106575339D01*
X125594447Y-106365817D01*
X125877616Y-106096160D01*
X126103015Y-105776636D01*
X126112670Y-105754951D01*
X126290893Y-106031499D01*
X126562521Y-106312779D01*
X126883610Y-106535941D01*
X127241930Y-106692487D01*
X127623832Y-106776454D01*
X128014770Y-106784643D01*
X128399854Y-106716742D01*
X128764415Y-106575339D01*
X129094567Y-106365817D01*
X129377736Y-106096160D01*
X129603135Y-105776636D01*
X129606563Y-105768937D01*
X129775773Y-106031499D01*
X130047401Y-106312779D01*
X130368490Y-106535941D01*
X130726810Y-106692487D01*
X131108712Y-106776454D01*
X131499650Y-106784643D01*
X131884734Y-106716742D01*
X132249295Y-106575339D01*
X132579447Y-106365817D01*
X132862616Y-106096160D01*
X133088015Y-105776636D01*
X133097670Y-105754951D01*
X133275893Y-106031499D01*
X133547521Y-106312779D01*
X133868610Y-106535941D01*
X134226930Y-106692487D01*
X134608832Y-106776454D01*
X134999770Y-106784643D01*
X135384854Y-106716742D01*
X135749415Y-106575339D01*
X136079567Y-106365817D01*
X136339862Y-106117942D01*
X137588862Y-106117942D01*
X137667992Y-106549086D01*
X137829357Y-106956649D01*
X138066813Y-107325107D01*
X138371313Y-107640426D01*
X138731260Y-107890596D01*
X139132943Y-108066087D01*
X139561063Y-108160215D01*
X139999312Y-108169395D01*
X140430998Y-108093278D01*
X140839678Y-107934761D01*
X141209785Y-107699884D01*
X141527222Y-107397592D01*
X141779899Y-107039401D01*
X141958190Y-106638952D01*
X142055305Y-106211500D01*
X142062296Y-105710827D01*
X141977154Y-105280830D01*
X141810114Y-104875560D01*
X141567537Y-104510453D01*
X141258664Y-104199416D01*
X140895259Y-103954296D01*
X140491165Y-103784430D01*
X140061772Y-103696289D01*
X139623438Y-103693229D01*
X139192857Y-103775366D01*
X138786430Y-103939573D01*
X138419638Y-104179595D01*
X138106453Y-104486289D01*
X137858802Y-104847974D01*
X137686119Y-105250873D01*
X137594982Y-105679639D01*
X137588862Y-106117942D01*
X136339862Y-106117942D01*
X136362736Y-106096160D01*
X136588135Y-105776636D01*
X136747179Y-105419418D01*
X136833809Y-105038111D01*
X136840046Y-104591488D01*
X136764096Y-104207911D01*
X136615088Y-103846391D01*
X136398698Y-103520699D01*
X136123170Y-103243240D01*
X135798996Y-103024582D01*
X135438525Y-102873054D01*
X135055488Y-102794428D01*
X134664473Y-102791698D01*
X134280375Y-102864968D01*
X133917824Y-103011449D01*
X133590629Y-103225559D01*
X133311253Y-103499144D01*
X133094541Y-103815645D01*
X132898578Y-103520699D01*
X132623050Y-103243240D01*
X132298876Y-103024582D01*
X131938405Y-102873054D01*
X131555368Y-102794428D01*
X131164353Y-102791698D01*
X130780255Y-102864968D01*
X130417704Y-103011449D01*
X130090509Y-103225559D01*
X129811133Y-103499144D01*
X129602155Y-103804349D01*
X129413698Y-103520699D01*
X129138170Y-103243240D01*
X128813996Y-103024582D01*
X128453525Y-102873054D01*
X128070488Y-102794428D01*
X127679473Y-102791698D01*
X127295375Y-102864968D01*
X126932824Y-103011449D01*
X126605629Y-103225559D01*
X126326253Y-103499144D01*
X126109541Y-103815645D01*
X125913578Y-103520699D01*
X125638050Y-103243240D01*
X125313876Y-103024582D01*
X124953405Y-102873054D01*
X124570368Y-102794428D01*
X124179353Y-102791698D01*
X123795255Y-102864968D01*
X123432704Y-103011449D01*
X123105509Y-103225559D01*
X122826133Y-103499144D01*
X122605218Y-103821783D01*
X122451177Y-104181187D01*
X122369878Y-104563667D01*
X122364419Y-104954653D01*
X121522714Y-104954653D01*
X121490114Y-104875560D01*
X121247537Y-104510453D01*
X120938664Y-104199416D01*
X120575259Y-103954296D01*
X120171165Y-103784430D01*
X119741772Y-103696289D01*
X119303438Y-103693229D01*
X118872857Y-103775366D01*
X118466430Y-103939573D01*
X118099638Y-104179595D01*
X117786453Y-104486289D01*
X117538802Y-104847974D01*
X117366119Y-105250873D01*
X117274982Y-105679639D01*
X117268862Y-106117942D01*
X106242611Y-106117942D01*
X106248296Y-105710827D01*
X106163154Y-105280830D01*
X105996114Y-104875560D01*
X105753537Y-104510453D01*
X105444664Y-104199416D01*
X105081259Y-103954296D01*
X104677165Y-103784430D01*
X104247772Y-103696289D01*
X103809438Y-103693229D01*
X103378857Y-103775366D01*
X102972430Y-103939573D01*
X102605638Y-104179595D01*
X102292453Y-104486289D01*
X102044802Y-104847974D01*
X101872119Y-105250873D01*
X101780982Y-105679639D01*
X101774862Y-106117942D01*
X100525862Y-106117942D01*
X100548736Y-106096160D01*
X100774135Y-105776636D01*
X100933179Y-105419418D01*
X101019809Y-105038111D01*
X101026046Y-104591488D01*
X100950096Y-104207911D01*
X100801088Y-103846391D01*
X100584698Y-103520699D01*
X100309170Y-103243240D01*
X99984996Y-103024582D01*
X99624525Y-102873054D01*
X99241488Y-102794428D01*
X98850473Y-102791698D01*
X98466375Y-102864968D01*
X98103824Y-103011449D01*
X97776629Y-103225559D01*
X97497253Y-103499144D01*
X97280541Y-103815645D01*
X97084578Y-103520699D01*
X96809050Y-103243240D01*
X96484876Y-103024582D01*
X96124405Y-102873054D01*
X95741368Y-102794428D01*
X95350353Y-102791698D01*
X94966255Y-102864968D01*
X94603704Y-103011449D01*
X94276509Y-103225559D01*
X93997133Y-103499144D01*
X93788155Y-103804349D01*
X93599698Y-103520699D01*
X93324170Y-103243240D01*
X92999996Y-103024582D01*
X92639525Y-102873054D01*
X92256488Y-102794428D01*
X91865473Y-102791698D01*
X91481375Y-102864968D01*
X91118824Y-103011449D01*
X90791629Y-103225559D01*
X90512253Y-103499144D01*
X90295541Y-103815645D01*
X90099578Y-103520699D01*
X89824050Y-103243240D01*
X89499876Y-103024582D01*
X89139405Y-102873054D01*
X88756368Y-102794428D01*
X88365353Y-102791698D01*
X87981255Y-102864968D01*
X87618704Y-103011449D01*
X87291509Y-103225559D01*
X87012133Y-103499144D01*
X86791218Y-103821783D01*
X86637177Y-104181187D01*
X86555878Y-104563667D01*
X86550419Y-104954653D01*
X85708714Y-104954653D01*
X85676114Y-104875560D01*
X85433537Y-104510453D01*
X85124664Y-104199416D01*
X84761259Y-103954296D01*
X84357165Y-103784430D01*
X83927772Y-103696289D01*
X83489438Y-103693229D01*
X83058857Y-103775366D01*
X82652430Y-103939573D01*
X82285638Y-104179595D01*
X81972453Y-104486289D01*
X81724802Y-104847974D01*
X81552119Y-105250873D01*
X81460982Y-105679639D01*
X81454862Y-106117942D01*
X78570000Y-106117942D01*
X78570000Y-100983271D01*
X110172917Y-100983271D01*
X110229028Y-101288999D01*
X110343454Y-101578006D01*
X110511836Y-101839283D01*
X110727760Y-102062878D01*
X110983001Y-102240276D01*
X111267838Y-102364718D01*
X111571422Y-102431465D01*
X111882188Y-102437975D01*
X112188300Y-102383999D01*
X112478099Y-102271594D01*
X112740545Y-102105040D01*
X112965643Y-101890683D01*
X113144818Y-101636686D01*
X113271245Y-101352724D01*
X113340110Y-101049614D01*
X113345068Y-100694583D01*
X113284693Y-100389668D01*
X113166243Y-100102287D01*
X112994230Y-99843387D01*
X112775205Y-99622827D01*
X112638356Y-99530521D01*
X112680147Y-99409752D01*
X111760000Y-98489605D01*
X110839853Y-99409752D01*
X110881638Y-99530502D01*
X110762028Y-99608773D01*
X110539945Y-99826252D01*
X110364334Y-100082726D01*
X110241883Y-100368425D01*
X110177257Y-100672467D01*
X110172917Y-100983271D01*
X78570000Y-100983271D01*
X78570000Y-98374573D01*
X110168641Y-98374573D01*
X110211816Y-98683791D01*
X110314487Y-98978644D01*
X110400958Y-99140421D01*
X110660248Y-99230147D01*
X111580395Y-98310000D01*
X111939605Y-98310000D01*
X112859752Y-99230147D01*
X113119042Y-99140421D01*
X113254935Y-98859329D01*
X113333379Y-98557127D01*
X113351359Y-98245427D01*
X113308184Y-97936209D01*
X113205513Y-97641356D01*
X113119042Y-97479579D01*
X112859752Y-97389853D01*
X111939605Y-98310000D01*
X111580395Y-98310000D01*
X110660248Y-97389853D01*
X110400958Y-97479579D01*
X110265065Y-97760671D01*
X110186621Y-98062873D01*
X110168641Y-98374573D01*
X78570000Y-98374573D01*
X78570000Y-88283271D01*
X110172917Y-88283271D01*
X110229028Y-88588999D01*
X110343454Y-88878006D01*
X110511836Y-89139283D01*
X110727760Y-89362878D01*
X110808032Y-89418669D01*
X110762028Y-89448773D01*
X110539945Y-89666252D01*
X110364334Y-89922726D01*
X110241883Y-90208425D01*
X110177257Y-90512467D01*
X110172917Y-90823271D01*
X110229028Y-91128999D01*
X110343454Y-91418006D01*
X110511836Y-91679283D01*
X110727760Y-91902878D01*
X110808032Y-91958669D01*
X110762028Y-91988773D01*
X110539945Y-92206252D01*
X110364334Y-92462726D01*
X110241883Y-92748425D01*
X110177257Y-93052467D01*
X110172917Y-93363271D01*
X110229028Y-93668999D01*
X110343454Y-93958006D01*
X110511836Y-94219283D01*
X110727760Y-94442878D01*
X110808032Y-94498669D01*
X110762028Y-94528773D01*
X110539945Y-94746252D01*
X110364334Y-95002726D01*
X110241883Y-95288425D01*
X110177257Y-95592467D01*
X110172917Y-95903271D01*
X110229028Y-96208999D01*
X110343454Y-96498006D01*
X110511836Y-96759283D01*
X110727760Y-96982878D01*
X110881546Y-97089763D01*
X110839853Y-97210248D01*
X111760000Y-98130395D01*
X112680147Y-97210248D01*
X112638473Y-97089817D01*
X112740545Y-97025040D01*
X112965643Y-96810683D01*
X113144818Y-96556686D01*
X113271245Y-96272724D01*
X113340110Y-95969614D01*
X113345068Y-95614583D01*
X113284693Y-95309668D01*
X113166243Y-95022287D01*
X112994230Y-94763387D01*
X112775205Y-94542827D01*
X112714261Y-94501720D01*
X112740545Y-94485040D01*
X112965643Y-94270683D01*
X113144818Y-94016686D01*
X113271245Y-93732724D01*
X113340110Y-93429614D01*
X113345068Y-93074583D01*
X113284693Y-92769668D01*
X113166243Y-92482287D01*
X112994230Y-92223387D01*
X112775205Y-92002827D01*
X112714261Y-91961720D01*
X112740545Y-91945040D01*
X112965643Y-91730683D01*
X113144818Y-91476686D01*
X113271245Y-91192724D01*
X113340110Y-90889614D01*
X113345068Y-90534583D01*
X113284693Y-90229668D01*
X113166243Y-89942287D01*
X112994230Y-89683387D01*
X112775205Y-89462827D01*
X112714261Y-89421720D01*
X112740545Y-89405040D01*
X112965643Y-89190683D01*
X113144818Y-88936686D01*
X113271245Y-88652724D01*
X113340110Y-88349614D01*
X113345068Y-87994583D01*
X113284693Y-87689668D01*
X113166243Y-87402287D01*
X112994230Y-87143387D01*
X112775205Y-86922827D01*
X112517512Y-86749011D01*
X112230965Y-86628558D01*
X111926479Y-86566056D01*
X111615652Y-86563886D01*
X111310324Y-86622130D01*
X111022123Y-86738571D01*
X110762028Y-86908773D01*
X110539945Y-87126252D01*
X110364334Y-87382726D01*
X110241883Y-87668425D01*
X110177257Y-87972467D01*
X110172917Y-88283271D01*
X78570000Y-88283271D01*
X78570000Y-83325142D01*
X83436997Y-83325142D01*
X83490949Y-83619104D01*
X83600971Y-83896988D01*
X83762872Y-84148210D01*
X83970486Y-84363200D01*
X84215904Y-84533770D01*
X84489779Y-84653423D01*
X84781679Y-84717602D01*
X85080486Y-84723861D01*
X85374817Y-84671962D01*
X85653462Y-84563883D01*
X85905808Y-84403739D01*
X86122243Y-84197631D01*
X86233281Y-84040225D01*
X86302872Y-84148210D01*
X86510486Y-84363200D01*
X86755904Y-84533770D01*
X87029779Y-84653423D01*
X87321679Y-84717602D01*
X87620486Y-84723861D01*
X87914817Y-84671962D01*
X88193462Y-84563883D01*
X88445808Y-84403739D01*
X88662243Y-84197631D01*
X88773281Y-84040225D01*
X88842872Y-84148210D01*
X89050486Y-84363200D01*
X89295904Y-84533770D01*
X89569779Y-84653423D01*
X89861679Y-84717602D01*
X90160486Y-84723861D01*
X90454817Y-84671962D01*
X90733462Y-84563883D01*
X90985808Y-84403739D01*
X91202243Y-84197631D01*
X91313281Y-84040225D01*
X91382872Y-84148210D01*
X91590486Y-84363200D01*
X91835904Y-84533770D01*
X92109779Y-84653423D01*
X92401679Y-84717602D01*
X92700486Y-84723861D01*
X92994817Y-84671962D01*
X93273462Y-84563883D01*
X93525808Y-84403739D01*
X93742243Y-84197631D01*
X93853281Y-84040225D01*
X93922872Y-84148210D01*
X94130486Y-84363200D01*
X94375904Y-84533770D01*
X94649779Y-84653423D01*
X94941679Y-84717602D01*
X95240486Y-84723861D01*
X95534817Y-84671962D01*
X95813462Y-84563883D01*
X96065808Y-84403739D01*
X96282243Y-84197631D01*
X96393281Y-84040225D01*
X96462872Y-84148210D01*
X96670486Y-84363200D01*
X96915904Y-84533770D01*
X97189779Y-84653423D01*
X97481679Y-84717602D01*
X97780486Y-84723861D01*
X98074817Y-84671962D01*
X98353462Y-84563883D01*
X98605808Y-84403739D01*
X98763857Y-84253231D01*
X99326374Y-84253231D01*
X99408727Y-84506289D01*
X99679418Y-84636086D01*
X99970230Y-84710580D01*
X100269988Y-84726908D01*
X100567171Y-84684443D01*
X100850359Y-84584816D01*
X100997273Y-84506289D01*
X101079626Y-84253231D01*
X100203000Y-83376605D01*
X99326374Y-84253231D01*
X98763857Y-84253231D01*
X98822243Y-84197631D01*
X98953977Y-84010886D01*
X99146769Y-84073626D01*
X100023395Y-83197000D01*
X100382605Y-83197000D01*
X101259231Y-84073626D01*
X101453965Y-84010253D01*
X101542872Y-84148210D01*
X101750486Y-84363200D01*
X101995904Y-84533770D01*
X102269779Y-84653423D01*
X102561679Y-84717602D01*
X102860486Y-84723861D01*
X103154817Y-84671962D01*
X103433462Y-84563883D01*
X103685808Y-84403739D01*
X103902243Y-84197631D01*
X104074522Y-83953410D01*
X104196084Y-83680377D01*
X104262299Y-83388932D01*
X104263189Y-83325142D01*
X119250997Y-83325142D01*
X119304949Y-83619104D01*
X119414971Y-83896988D01*
X119576872Y-84148210D01*
X119784486Y-84363200D01*
X120029904Y-84533770D01*
X120303779Y-84653423D01*
X120595679Y-84717602D01*
X120894486Y-84723861D01*
X121188817Y-84671962D01*
X121467462Y-84563883D01*
X121719808Y-84403739D01*
X121936243Y-84197631D01*
X122047281Y-84040225D01*
X122116872Y-84148210D01*
X122324486Y-84363200D01*
X122569904Y-84533770D01*
X122843779Y-84653423D01*
X123135679Y-84717602D01*
X123434486Y-84723861D01*
X123728817Y-84671962D01*
X124007462Y-84563883D01*
X124259808Y-84403739D01*
X124476243Y-84197631D01*
X124587281Y-84040225D01*
X124656872Y-84148210D01*
X124864486Y-84363200D01*
X125109904Y-84533770D01*
X125383779Y-84653423D01*
X125675679Y-84717602D01*
X125974486Y-84723861D01*
X126268817Y-84671962D01*
X126547462Y-84563883D01*
X126799808Y-84403739D01*
X127016243Y-84197631D01*
X127127281Y-84040225D01*
X127196872Y-84148210D01*
X127404486Y-84363200D01*
X127649904Y-84533770D01*
X127923779Y-84653423D01*
X128215679Y-84717602D01*
X128514486Y-84723861D01*
X128808817Y-84671962D01*
X129087462Y-84563883D01*
X129339808Y-84403739D01*
X129556243Y-84197631D01*
X129667281Y-84040225D01*
X129736872Y-84148210D01*
X129944486Y-84363200D01*
X130189904Y-84533770D01*
X130463779Y-84653423D01*
X130755679Y-84717602D01*
X131054486Y-84723861D01*
X131348817Y-84671962D01*
X131627462Y-84563883D01*
X131879808Y-84403739D01*
X132096243Y-84197631D01*
X132207281Y-84040225D01*
X132276872Y-84148210D01*
X132484486Y-84363200D01*
X132729904Y-84533770D01*
X133003779Y-84653423D01*
X133295679Y-84717602D01*
X133594486Y-84723861D01*
X133888817Y-84671962D01*
X134167462Y-84563883D01*
X134419808Y-84403739D01*
X134577857Y-84253231D01*
X135140374Y-84253231D01*
X135222727Y-84506289D01*
X135493418Y-84636086D01*
X135784230Y-84710580D01*
X136083988Y-84726908D01*
X136381171Y-84684443D01*
X136664359Y-84584816D01*
X136811273Y-84506289D01*
X136893626Y-84253231D01*
X136017000Y-83376605D01*
X135140374Y-84253231D01*
X134577857Y-84253231D01*
X134636243Y-84197631D01*
X134767977Y-84010886D01*
X134960769Y-84073626D01*
X135837395Y-83197000D01*
X136196605Y-83197000D01*
X137073231Y-84073626D01*
X137267965Y-84010253D01*
X137356872Y-84148210D01*
X137564486Y-84363200D01*
X137809904Y-84533770D01*
X138083779Y-84653423D01*
X138375679Y-84717602D01*
X138674486Y-84723861D01*
X138968817Y-84671962D01*
X139247462Y-84563883D01*
X139499808Y-84403739D01*
X139716243Y-84197631D01*
X139888522Y-83953410D01*
X140010084Y-83680377D01*
X140076299Y-83388932D01*
X140081065Y-83047564D01*
X140023014Y-82754384D01*
X139909123Y-82478063D01*
X139743730Y-82229127D01*
X139533135Y-82017056D01*
X139285359Y-81849929D01*
X139009840Y-81734112D01*
X138717072Y-81674015D01*
X138418208Y-81671929D01*
X138124630Y-81727932D01*
X137847520Y-81839891D01*
X137597435Y-82003542D01*
X137383899Y-82212652D01*
X137266970Y-82383423D01*
X137073231Y-82320374D01*
X136196605Y-83197000D01*
X135837395Y-83197000D01*
X134960769Y-82320374D01*
X134766384Y-82383633D01*
X134663730Y-82229127D01*
X134575987Y-82140769D01*
X135140374Y-82140769D01*
X136017000Y-83017395D01*
X136893626Y-82140769D01*
X136811273Y-81887711D01*
X136540582Y-81757914D01*
X136249770Y-81683420D01*
X135950012Y-81667092D01*
X135652829Y-81709557D01*
X135369641Y-81809184D01*
X135222727Y-81887711D01*
X135140374Y-82140769D01*
X134575987Y-82140769D01*
X134453135Y-82017056D01*
X134205359Y-81849929D01*
X133929840Y-81734112D01*
X133637072Y-81674015D01*
X133338208Y-81671929D01*
X133044630Y-81727932D01*
X132767520Y-81839891D01*
X132517435Y-82003542D01*
X132303899Y-82212652D01*
X132206903Y-82354312D01*
X132123730Y-82229127D01*
X131913135Y-82017056D01*
X131665359Y-81849929D01*
X131389840Y-81734112D01*
X131097072Y-81674015D01*
X130798208Y-81671929D01*
X130504630Y-81727932D01*
X130227520Y-81839891D01*
X129977435Y-82003542D01*
X129763899Y-82212652D01*
X129666903Y-82354312D01*
X129583730Y-82229127D01*
X129373135Y-82017056D01*
X129125359Y-81849929D01*
X128849840Y-81734112D01*
X128557072Y-81674015D01*
X128258208Y-81671929D01*
X127964630Y-81727932D01*
X127687520Y-81839891D01*
X127437435Y-82003542D01*
X127223899Y-82212652D01*
X127126903Y-82354312D01*
X127043730Y-82229127D01*
X126833135Y-82017056D01*
X126585359Y-81849929D01*
X126309840Y-81734112D01*
X126017072Y-81674015D01*
X125718208Y-81671929D01*
X125424630Y-81727932D01*
X125147520Y-81839891D01*
X124897435Y-82003542D01*
X124683899Y-82212652D01*
X124586903Y-82354312D01*
X124503730Y-82229127D01*
X124293135Y-82017056D01*
X124045359Y-81849929D01*
X123769840Y-81734112D01*
X123477072Y-81674015D01*
X123178208Y-81671929D01*
X122884630Y-81727932D01*
X122607520Y-81839891D01*
X122357435Y-82003542D01*
X122143899Y-82212652D01*
X122046903Y-82354312D01*
X121963730Y-82229127D01*
X121753135Y-82017056D01*
X121505359Y-81849929D01*
X121229840Y-81734112D01*
X120937072Y-81674015D01*
X120638208Y-81671929D01*
X120344630Y-81727932D01*
X120067520Y-81839891D01*
X119817435Y-82003542D01*
X119603899Y-82212652D01*
X119435047Y-82459255D01*
X119317309Y-82733959D01*
X119255170Y-83026299D01*
X119250997Y-83325142D01*
X104263189Y-83325142D01*
X104267065Y-83047564D01*
X104209014Y-82754384D01*
X104095123Y-82478063D01*
X103929730Y-82229127D01*
X103719135Y-82017056D01*
X103471359Y-81849929D01*
X103195840Y-81734112D01*
X102903072Y-81674015D01*
X102604208Y-81671929D01*
X102310630Y-81727932D01*
X102033520Y-81839891D01*
X101783435Y-82003542D01*
X101569899Y-82212652D01*
X101452970Y-82383423D01*
X101259231Y-82320374D01*
X100382605Y-83197000D01*
X100023395Y-83197000D01*
X99146769Y-82320374D01*
X98952384Y-82383633D01*
X98849730Y-82229127D01*
X98761987Y-82140769D01*
X99326374Y-82140769D01*
X100203000Y-83017395D01*
X101079626Y-82140769D01*
X100997273Y-81887711D01*
X100726582Y-81757914D01*
X100435770Y-81683420D01*
X100136012Y-81667092D01*
X99838829Y-81709557D01*
X99555641Y-81809184D01*
X99408727Y-81887711D01*
X99326374Y-82140769D01*
X98761987Y-82140769D01*
X98639135Y-82017056D01*
X98391359Y-81849929D01*
X98115840Y-81734112D01*
X97823072Y-81674015D01*
X97524208Y-81671929D01*
X97230630Y-81727932D01*
X96953520Y-81839891D01*
X96703435Y-82003542D01*
X96489899Y-82212652D01*
X96392903Y-82354312D01*
X96309730Y-82229127D01*
X96099135Y-82017056D01*
X95851359Y-81849929D01*
X95575840Y-81734112D01*
X95283072Y-81674015D01*
X94984208Y-81671929D01*
X94690630Y-81727932D01*
X94413520Y-81839891D01*
X94163435Y-82003542D01*
X93949899Y-82212652D01*
X93852903Y-82354312D01*
X93769730Y-82229127D01*
X93559135Y-82017056D01*
X93311359Y-81849929D01*
X93035840Y-81734112D01*
X92743072Y-81674015D01*
X92444208Y-81671929D01*
X92150630Y-81727932D01*
X91873520Y-81839891D01*
X91623435Y-82003542D01*
X91409899Y-82212652D01*
X91312903Y-82354312D01*
X91229730Y-82229127D01*
X91109800Y-82108356D01*
X91109800Y-79129278D01*
X99449278Y-70789800D01*
X113030000Y-70789800D01*
X113116410Y-70781328D01*
X113202878Y-70773763D01*
X113207624Y-70772384D01*
X113212541Y-70771902D01*
X113295627Y-70746816D01*
X113379011Y-70722591D01*
X113383399Y-70720316D01*
X113388130Y-70718888D01*
X113464773Y-70678136D01*
X113541852Y-70638182D01*
X113545715Y-70635099D01*
X113550077Y-70632779D01*
X113617354Y-70577910D01*
X113685195Y-70523753D01*
X113692072Y-70516971D01*
X113692215Y-70516855D01*
X113692324Y-70516723D01*
X113694539Y-70514539D01*
X119584445Y-64624633D01*
X119688862Y-64606221D01*
X119897846Y-64525162D01*
X120087106Y-64405054D01*
X120249432Y-64250473D01*
X120378641Y-64067307D01*
X120469813Y-63862532D01*
X120519473Y-63643949D01*
X120523049Y-63387923D01*
X120479510Y-63168038D01*
X120394092Y-62960798D01*
X120270047Y-62774095D01*
X120112101Y-62615042D01*
X119926269Y-62489697D01*
X119719630Y-62402834D01*
X119500054Y-62357762D01*
X119275906Y-62356197D01*
X119055722Y-62398199D01*
X118847891Y-62482169D01*
X118660327Y-62604907D01*
X118500175Y-62761739D01*
X118373535Y-62946691D01*
X118285232Y-63152719D01*
X118254738Y-63296184D01*
X112640722Y-68910200D01*
X99060000Y-68910200D01*
X98973631Y-68918668D01*
X98887123Y-68926237D01*
X98882377Y-68927616D01*
X98877459Y-68928098D01*
X98794361Y-68953187D01*
X98710989Y-68977409D01*
X98706600Y-68979684D01*
X98701870Y-68981112D01*
X98625266Y-69021843D01*
X98548148Y-69061817D01*
X98544282Y-69064903D01*
X98539923Y-69067221D01*
X98472674Y-69122068D01*
X98404805Y-69176247D01*
X98397928Y-69183029D01*
X98397785Y-69183145D01*
X98397676Y-69183277D01*
X98395461Y-69185461D01*
X89505461Y-78075461D01*
X89450364Y-78142537D01*
X89394558Y-78209044D01*
X89392177Y-78213375D01*
X89389041Y-78217193D01*
X89348028Y-78293683D01*
X89306197Y-78369773D01*
X89304702Y-78374484D01*
X89302367Y-78378840D01*
X89276994Y-78461831D01*
X89250737Y-78544605D01*
X89250186Y-78549520D01*
X89248742Y-78554242D01*
X89239972Y-78640579D01*
X89230292Y-78726878D01*
X89230224Y-78736539D01*
X89230206Y-78736719D01*
X89230222Y-78736886D01*
X89230200Y-78740000D01*
X89230200Y-81907502D01*
X89083435Y-82003542D01*
X88869899Y-82212652D01*
X88772903Y-82354312D01*
X88689730Y-82229127D01*
X88479135Y-82017056D01*
X88442800Y-81992548D01*
X88442800Y-77986278D01*
X104804539Y-61624539D01*
X104859636Y-61557463D01*
X104915442Y-61490956D01*
X104917823Y-61486625D01*
X104920959Y-61482807D01*
X104961972Y-61406317D01*
X105003803Y-61330227D01*
X105005298Y-61325516D01*
X105007633Y-61321160D01*
X105033006Y-61238169D01*
X105059263Y-61155395D01*
X105059814Y-61150480D01*
X105061258Y-61145758D01*
X105070028Y-61059421D01*
X105079708Y-60973122D01*
X105079776Y-60963461D01*
X105079794Y-60963281D01*
X105079778Y-60963114D01*
X105079800Y-60960000D01*
X105079800Y-58336226D01*
X105306137Y-58192588D01*
X105573840Y-57937658D01*
X105786929Y-57635586D01*
X105937286Y-57297877D01*
X106019185Y-56937396D01*
X106025081Y-56515166D01*
X105953279Y-56152539D01*
X105812410Y-55810764D01*
X105607839Y-55502860D01*
X105555347Y-55450000D01*
X107331928Y-55450000D01*
X107331928Y-57950000D01*
X107339992Y-58051121D01*
X107393106Y-58222634D01*
X107491900Y-58372559D01*
X107628550Y-58489025D01*
X107792237Y-58562810D01*
X107970000Y-58588072D01*
X110470000Y-58588072D01*
X110571121Y-58580008D01*
X110742634Y-58526894D01*
X110892559Y-58428100D01*
X111009025Y-58291450D01*
X111082810Y-58127763D01*
X111108072Y-57950000D01*
X111108072Y-56858496D01*
X112412522Y-56858496D01*
X112479254Y-57222091D01*
X112615338Y-57565799D01*
X112815590Y-57876529D01*
X113072382Y-58142446D01*
X113375935Y-58353420D01*
X113714684Y-58501416D01*
X114075729Y-58580797D01*
X114445315Y-58588539D01*
X114809367Y-58524346D01*
X115154017Y-58390666D01*
X115466137Y-58192588D01*
X115733840Y-57937658D01*
X115946929Y-57635586D01*
X116097286Y-57297877D01*
X116179185Y-56937396D01*
X116180286Y-56858496D01*
X117492522Y-56858496D01*
X117559254Y-57222091D01*
X117695338Y-57565799D01*
X117895590Y-57876529D01*
X118152382Y-58142446D01*
X118455935Y-58353420D01*
X118794684Y-58501416D01*
X119155729Y-58580797D01*
X119525315Y-58588539D01*
X119889367Y-58524346D01*
X120234017Y-58390666D01*
X120546137Y-58192588D01*
X120813840Y-57937658D01*
X121026929Y-57635586D01*
X121177286Y-57297877D01*
X121259185Y-56937396D01*
X121265081Y-56515166D01*
X121193279Y-56152539D01*
X121052410Y-55810764D01*
X120847839Y-55502860D01*
X120795347Y-55450000D01*
X122571928Y-55450000D01*
X122571928Y-57950000D01*
X122579992Y-58051121D01*
X122633106Y-58222634D01*
X122731900Y-58372559D01*
X122868550Y-58489025D01*
X123032237Y-58562810D01*
X123210000Y-58588072D01*
X125710000Y-58588072D01*
X125811121Y-58580008D01*
X125982634Y-58526894D01*
X126132559Y-58428100D01*
X126249025Y-58291450D01*
X126322810Y-58127763D01*
X126348072Y-57950000D01*
X126348072Y-56858496D01*
X127652522Y-56858496D01*
X127719254Y-57222091D01*
X127855338Y-57565799D01*
X128055590Y-57876529D01*
X128312382Y-58142446D01*
X128615935Y-58353420D01*
X128954684Y-58501416D01*
X129315729Y-58580797D01*
X129685315Y-58588539D01*
X130049367Y-58524346D01*
X130394017Y-58390666D01*
X130706137Y-58192588D01*
X130894087Y-58013605D01*
X133486000Y-58013605D01*
X133611914Y-58303577D01*
X133944126Y-58469433D01*
X134302312Y-58567290D01*
X134672706Y-58593389D01*
X135041075Y-58546725D01*
X135393262Y-58429094D01*
X135628086Y-58303577D01*
X135754000Y-58013605D01*
X134620000Y-56879605D01*
X133486000Y-58013605D01*
X130894087Y-58013605D01*
X130973840Y-57937658D01*
X131186929Y-57635586D01*
X131337286Y-57297877D01*
X131419185Y-56937396D01*
X131421764Y-56752706D01*
X132726611Y-56752706D01*
X132773275Y-57121075D01*
X132890906Y-57473262D01*
X133016423Y-57708086D01*
X133306395Y-57834000D01*
X134440395Y-56700000D01*
X134799605Y-56700000D01*
X135933605Y-57834000D01*
X136223577Y-57708086D01*
X136389433Y-57375874D01*
X136487290Y-57017688D01*
X136513389Y-56647294D01*
X136466725Y-56278925D01*
X136349094Y-55926738D01*
X136223577Y-55691914D01*
X135933605Y-55566000D01*
X134799605Y-56700000D01*
X134440395Y-56700000D01*
X133306395Y-55566000D01*
X133016423Y-55691914D01*
X132850567Y-56024126D01*
X132752710Y-56382312D01*
X132726611Y-56752706D01*
X131421764Y-56752706D01*
X131425081Y-56515166D01*
X131353279Y-56152539D01*
X131212410Y-55810764D01*
X131007839Y-55502860D01*
X130892184Y-55386395D01*
X133486000Y-55386395D01*
X134620000Y-56520395D01*
X135690395Y-55450000D01*
X137811928Y-55450000D01*
X137811928Y-57950000D01*
X137819992Y-58051121D01*
X137873106Y-58222634D01*
X137971900Y-58372559D01*
X138108550Y-58489025D01*
X138272237Y-58562810D01*
X138450000Y-58588072D01*
X140950000Y-58588072D01*
X141051121Y-58580008D01*
X141222634Y-58526894D01*
X141372559Y-58428100D01*
X141489025Y-58291450D01*
X141562810Y-58127763D01*
X141588072Y-57950000D01*
X141588072Y-55450000D01*
X141580008Y-55348879D01*
X141526894Y-55177366D01*
X141428100Y-55027441D01*
X141291450Y-54910975D01*
X141127763Y-54837190D01*
X140950000Y-54811928D01*
X138450000Y-54811928D01*
X138348879Y-54819992D01*
X138177366Y-54873106D01*
X138027441Y-54971900D01*
X137910975Y-55108550D01*
X137837190Y-55272237D01*
X137811928Y-55450000D01*
X135690395Y-55450000D01*
X135754000Y-55386395D01*
X135628086Y-55096423D01*
X135295874Y-54930567D01*
X134937688Y-54832710D01*
X134567294Y-54806611D01*
X134198925Y-54853275D01*
X133846738Y-54970906D01*
X133611914Y-55096423D01*
X133486000Y-55386395D01*
X130892184Y-55386395D01*
X130747358Y-55240555D01*
X130440890Y-55033839D01*
X130100107Y-54890587D01*
X129737990Y-54816255D01*
X129368331Y-54813674D01*
X129005211Y-54882943D01*
X128662461Y-55021423D01*
X128353137Y-55223840D01*
X128089019Y-55482482D01*
X127880169Y-55787500D01*
X127734542Y-56127275D01*
X127657683Y-56488864D01*
X127652522Y-56858496D01*
X126348072Y-56858496D01*
X126348072Y-55450000D01*
X126340008Y-55348879D01*
X126286894Y-55177366D01*
X126188100Y-55027441D01*
X126051450Y-54910975D01*
X125887763Y-54837190D01*
X125710000Y-54811928D01*
X123210000Y-54811928D01*
X123108879Y-54819992D01*
X122937366Y-54873106D01*
X122787441Y-54971900D01*
X122670975Y-55108550D01*
X122597190Y-55272237D01*
X122571928Y-55450000D01*
X120795347Y-55450000D01*
X120587358Y-55240555D01*
X120280890Y-55033839D01*
X119940107Y-54890587D01*
X119577990Y-54816255D01*
X119208331Y-54813674D01*
X118845211Y-54882943D01*
X118502461Y-55021423D01*
X118193137Y-55223840D01*
X117929019Y-55482482D01*
X117720169Y-55787500D01*
X117574542Y-56127275D01*
X117497683Y-56488864D01*
X117492522Y-56858496D01*
X116180286Y-56858496D01*
X116185081Y-56515166D01*
X116113279Y-56152539D01*
X115972410Y-55810764D01*
X115767839Y-55502860D01*
X115507358Y-55240555D01*
X115200890Y-55033839D01*
X114860107Y-54890587D01*
X114497990Y-54816255D01*
X114128331Y-54813674D01*
X113765211Y-54882943D01*
X113422461Y-55021423D01*
X113113137Y-55223840D01*
X112849019Y-55482482D01*
X112640169Y-55787500D01*
X112494542Y-56127275D01*
X112417683Y-56488864D01*
X112412522Y-56858496D01*
X111108072Y-56858496D01*
X111108072Y-55450000D01*
X111100008Y-55348879D01*
X111046894Y-55177366D01*
X110948100Y-55027441D01*
X110811450Y-54910975D01*
X110647763Y-54837190D01*
X110470000Y-54811928D01*
X107970000Y-54811928D01*
X107868879Y-54819992D01*
X107697366Y-54873106D01*
X107547441Y-54971900D01*
X107430975Y-55108550D01*
X107357190Y-55272237D01*
X107331928Y-55450000D01*
X105555347Y-55450000D01*
X105347358Y-55240555D01*
X105040890Y-55033839D01*
X104700107Y-54890587D01*
X104337990Y-54816255D01*
X103968331Y-54813674D01*
X103605211Y-54882943D01*
X103262461Y-55021423D01*
X102953137Y-55223840D01*
X102689019Y-55482482D01*
X102480169Y-55787500D01*
X102334542Y-56127275D01*
X102257683Y-56488864D01*
X102252522Y-56858496D01*
X102319254Y-57222091D01*
X102455338Y-57565799D01*
X102655590Y-57876529D01*
X102912382Y-58142446D01*
X103200200Y-58342484D01*
X103200200Y-60570722D01*
X86838461Y-76932461D01*
X86783364Y-76999537D01*
X86727558Y-77066044D01*
X86725177Y-77070375D01*
X86722041Y-77074193D01*
X86681028Y-77150683D01*
X86639197Y-77226773D01*
X86637702Y-77231484D01*
X86635367Y-77235840D01*
X86609994Y-77318831D01*
X86583737Y-77401605D01*
X86583186Y-77406520D01*
X86581742Y-77411242D01*
X86572972Y-77497579D01*
X86563292Y-77583878D01*
X86563224Y-77593539D01*
X86563206Y-77593719D01*
X86563222Y-77593886D01*
X86563200Y-77597000D01*
X86563200Y-81990608D01*
X86543435Y-82003542D01*
X86329899Y-82212652D01*
X86232903Y-82354312D01*
X86149730Y-82229127D01*
X85939135Y-82017056D01*
X85902800Y-81992548D01*
X85902800Y-76716278D01*
X99724539Y-62894539D01*
X99779636Y-62827463D01*
X99835442Y-62760956D01*
X99837823Y-62756625D01*
X99840959Y-62752807D01*
X99881972Y-62676317D01*
X99923803Y-62600227D01*
X99925298Y-62595516D01*
X99927633Y-62591160D01*
X99953019Y-62508128D01*
X99979263Y-62425395D01*
X99979814Y-62420485D01*
X99981259Y-62415758D01*
X99990039Y-62329327D01*
X99999708Y-62243122D01*
X99999776Y-62233471D01*
X99999795Y-62233281D01*
X99999778Y-62233104D01*
X99999800Y-62230000D01*
X99999800Y-58336226D01*
X100226137Y-58192588D01*
X100493840Y-57937658D01*
X100706929Y-57635586D01*
X100857286Y-57297877D01*
X100939185Y-56937396D01*
X100945081Y-56515166D01*
X100873279Y-56152539D01*
X100732410Y-55810764D01*
X100527839Y-55502860D01*
X100267358Y-55240555D01*
X99960890Y-55033839D01*
X99620107Y-54890587D01*
X99257990Y-54816255D01*
X98888331Y-54813674D01*
X98525211Y-54882943D01*
X98182461Y-55021423D01*
X97873137Y-55223840D01*
X97609019Y-55482482D01*
X97400169Y-55787500D01*
X97254542Y-56127275D01*
X97177683Y-56488864D01*
X97172522Y-56858496D01*
X97239254Y-57222091D01*
X97375338Y-57565799D01*
X97575590Y-57876529D01*
X97832382Y-58142446D01*
X98120200Y-58342484D01*
X98120200Y-61840722D01*
X84298461Y-75662461D01*
X84243364Y-75729537D01*
X84187558Y-75796044D01*
X84185177Y-75800375D01*
X84182041Y-75804193D01*
X84141028Y-75880683D01*
X84099197Y-75956773D01*
X84097702Y-75961484D01*
X84095367Y-75965840D01*
X84069994Y-76048831D01*
X84043737Y-76131605D01*
X84043186Y-76136520D01*
X84041742Y-76141242D01*
X84032972Y-76227579D01*
X84023292Y-76313878D01*
X84023224Y-76323539D01*
X84023206Y-76323719D01*
X84023222Y-76323886D01*
X84023200Y-76327000D01*
X84023200Y-81990608D01*
X84003435Y-82003542D01*
X83789899Y-82212652D01*
X83621047Y-82459255D01*
X83503309Y-82733959D01*
X83441170Y-83026299D01*
X83436997Y-83325142D01*
X78570000Y-83325142D01*
X78570000Y-58013605D01*
X82686000Y-58013605D01*
X82811914Y-58303577D01*
X83144126Y-58469433D01*
X83502312Y-58567290D01*
X83872706Y-58593389D01*
X84241075Y-58546725D01*
X84593262Y-58429094D01*
X84828086Y-58303577D01*
X84954000Y-58013605D01*
X83820000Y-56879605D01*
X82686000Y-58013605D01*
X78570000Y-58013605D01*
X78570000Y-56752706D01*
X81926611Y-56752706D01*
X81973275Y-57121075D01*
X82090906Y-57473262D01*
X82216423Y-57708086D01*
X82506395Y-57834000D01*
X83640395Y-56700000D01*
X83999605Y-56700000D01*
X85133605Y-57834000D01*
X85423577Y-57708086D01*
X85589433Y-57375874D01*
X85687290Y-57017688D01*
X85698507Y-56858496D01*
X87012522Y-56858496D01*
X87079254Y-57222091D01*
X87215338Y-57565799D01*
X87415590Y-57876529D01*
X87672382Y-58142446D01*
X87975935Y-58353420D01*
X88314684Y-58501416D01*
X88675729Y-58580797D01*
X89045315Y-58588539D01*
X89409367Y-58524346D01*
X89754017Y-58390666D01*
X90066137Y-58192588D01*
X90333840Y-57937658D01*
X90546929Y-57635586D01*
X90697286Y-57297877D01*
X90779185Y-56937396D01*
X90785081Y-56515166D01*
X90713279Y-56152539D01*
X90572410Y-55810764D01*
X90367839Y-55502860D01*
X90315347Y-55450000D01*
X92091928Y-55450000D01*
X92091928Y-57950000D01*
X92099992Y-58051121D01*
X92153106Y-58222634D01*
X92251900Y-58372559D01*
X92388550Y-58489025D01*
X92552237Y-58562810D01*
X92730000Y-58588072D01*
X95230000Y-58588072D01*
X95331121Y-58580008D01*
X95502634Y-58526894D01*
X95652559Y-58428100D01*
X95769025Y-58291450D01*
X95842810Y-58127763D01*
X95868072Y-57950000D01*
X95868072Y-55450000D01*
X95860008Y-55348879D01*
X95806894Y-55177366D01*
X95708100Y-55027441D01*
X95571450Y-54910975D01*
X95407763Y-54837190D01*
X95230000Y-54811928D01*
X92730000Y-54811928D01*
X92628879Y-54819992D01*
X92457366Y-54873106D01*
X92307441Y-54971900D01*
X92190975Y-55108550D01*
X92117190Y-55272237D01*
X92091928Y-55450000D01*
X90315347Y-55450000D01*
X90107358Y-55240555D01*
X89800890Y-55033839D01*
X89460107Y-54890587D01*
X89097990Y-54816255D01*
X88728331Y-54813674D01*
X88365211Y-54882943D01*
X88022461Y-55021423D01*
X87713137Y-55223840D01*
X87449019Y-55482482D01*
X87240169Y-55787500D01*
X87094542Y-56127275D01*
X87017683Y-56488864D01*
X87012522Y-56858496D01*
X85698507Y-56858496D01*
X85713389Y-56647294D01*
X85666725Y-56278925D01*
X85549094Y-55926738D01*
X85423577Y-55691914D01*
X85133605Y-55566000D01*
X83999605Y-56700000D01*
X83640395Y-56700000D01*
X82506395Y-55566000D01*
X82216423Y-55691914D01*
X82050567Y-56024126D01*
X81952710Y-56382312D01*
X81926611Y-56752706D01*
X78570000Y-56752706D01*
X78570000Y-55386395D01*
X82686000Y-55386395D01*
X83820000Y-56520395D01*
X84954000Y-55386395D01*
X84828086Y-55096423D01*
X84495874Y-54930567D01*
X84137688Y-54832710D01*
X83767294Y-54806611D01*
X83398925Y-54853275D01*
X83046738Y-54970906D01*
X82811914Y-55096423D01*
X82686000Y-55386395D01*
X78570000Y-55386395D01*
X78570000Y-51760000D01*
X144950000Y-51760000D01*
X144950000Y-137240000D01*
G36*
X121793000Y-136478000D02*
X101727000Y-136478000D01*
X101727000Y-133633320D01*
X102986285Y-133633320D01*
X103115533Y-133926123D01*
X103815806Y-134194388D01*
X104565435Y-134174250D01*
X105164467Y-133926123D01*
X105293715Y-133633320D01*
X108066285Y-133633320D01*
X108195533Y-133926123D01*
X108895806Y-134194388D01*
X109645435Y-134174250D01*
X110244467Y-133926123D01*
X110373715Y-133633320D01*
X109220000Y-132479605D01*
X108066285Y-133633320D01*
X105293715Y-133633320D01*
X104140000Y-132479605D01*
X102986285Y-133633320D01*
X101727000Y-133633320D01*
X101727000Y-133586384D01*
X101734368Y-133550000D01*
X101734368Y-131975806D01*
X102245612Y-131975806D01*
X102265750Y-132725435D01*
X102513877Y-133324467D01*
X102806680Y-133453715D01*
X103960395Y-132300000D01*
X104319605Y-132300000D01*
X105473320Y-133453715D01*
X105766123Y-133324467D01*
X106034388Y-132624194D01*
X106016970Y-131975806D01*
X107325612Y-131975806D01*
X107345750Y-132725435D01*
X107593877Y-133324467D01*
X107886680Y-133453715D01*
X109040395Y-132300000D01*
X109399605Y-132300000D01*
X110553320Y-133453715D01*
X110846123Y-133324467D01*
X111114388Y-132624194D01*
X111113356Y-132585750D01*
X112415000Y-132585750D01*
X112415000Y-133676310D01*
X112511673Y-133909699D01*
X112690302Y-134088327D01*
X112923691Y-134185000D01*
X114014250Y-134185000D01*
X114173000Y-134026250D01*
X114173000Y-132427000D01*
X114427000Y-132427000D01*
X114427000Y-134026250D01*
X114585750Y-134185000D01*
X115676309Y-134185000D01*
X115909698Y-134088327D01*
X116088327Y-133909699D01*
X116185000Y-133676310D01*
X116185000Y-133633320D01*
X118226285Y-133633320D01*
X118355533Y-133926123D01*
X119055806Y-134194388D01*
X119805435Y-134174250D01*
X120404467Y-133926123D01*
X120533715Y-133633320D01*
X119380000Y-132479605D01*
X118226285Y-133633320D01*
X116185000Y-133633320D01*
X116185000Y-132585750D01*
X116026250Y-132427000D01*
X114427000Y-132427000D01*
X114173000Y-132427000D01*
X112573750Y-132427000D01*
X112415000Y-132585750D01*
X111113356Y-132585750D01*
X111094250Y-131874565D01*
X110846123Y-131275533D01*
X110553320Y-131146285D01*
X109399605Y-132300000D01*
X109040395Y-132300000D01*
X107886680Y-131146285D01*
X107593877Y-131275533D01*
X107325612Y-131975806D01*
X106016970Y-131975806D01*
X106014250Y-131874565D01*
X105766123Y-131275533D01*
X105473320Y-131146285D01*
X104319605Y-132300000D01*
X103960395Y-132300000D01*
X102806680Y-131146285D01*
X102513877Y-131275533D01*
X102245612Y-131975806D01*
X101734368Y-131975806D01*
X101734368Y-131050000D01*
X101727000Y-131010842D01*
X101727000Y-130966680D01*
X102986285Y-130966680D01*
X104140000Y-132120395D01*
X105293715Y-130966680D01*
X108066285Y-130966680D01*
X109220000Y-132120395D01*
X110373715Y-130966680D01*
X110354739Y-130923690D01*
X112415000Y-130923690D01*
X112415000Y-132014250D01*
X112573750Y-132173000D01*
X114173000Y-132173000D01*
X114173000Y-130573750D01*
X114427000Y-130573750D01*
X114427000Y-132173000D01*
X116026250Y-132173000D01*
X116185000Y-132014250D01*
X116185000Y-131975806D01*
X117485612Y-131975806D01*
X117505750Y-132725435D01*
X117753877Y-133324467D01*
X118046680Y-133453715D01*
X119200395Y-132300000D01*
X119559605Y-132300000D01*
X120713320Y-133453715D01*
X121006123Y-133324467D01*
X121274388Y-132624194D01*
X121254250Y-131874565D01*
X121006123Y-131275533D01*
X120713320Y-131146285D01*
X119559605Y-132300000D01*
X119200395Y-132300000D01*
X118046680Y-131146285D01*
X117753877Y-131275533D01*
X117485612Y-131975806D01*
X116185000Y-131975806D01*
X116185000Y-130966680D01*
X118226285Y-130966680D01*
X119380000Y-132120395D01*
X120533715Y-130966680D01*
X120404467Y-130673877D01*
X119704194Y-130405612D01*
X118954565Y-130425750D01*
X118355533Y-130673877D01*
X118226285Y-130966680D01*
X116185000Y-130966680D01*
X116185000Y-130923690D01*
X116088327Y-130690301D01*
X115909698Y-130511673D01*
X115676309Y-130415000D01*
X114585750Y-130415000D01*
X114427000Y-130573750D01*
X114173000Y-130573750D01*
X114014250Y-130415000D01*
X112923691Y-130415000D01*
X112690302Y-130511673D01*
X112511673Y-130690301D01*
X112415000Y-130923690D01*
X110354739Y-130923690D01*
X110244467Y-130673877D01*
X109544194Y-130405612D01*
X108794565Y-130425750D01*
X108195533Y-130673877D01*
X108066285Y-130966680D01*
X105293715Y-130966680D01*
X105164467Y-130673877D01*
X104464194Y-130405612D01*
X103714565Y-130425750D01*
X103115533Y-130673877D01*
X102986285Y-130966680D01*
X101727000Y-130966680D01*
X101727000Y-127000000D01*
X121793000Y-127000000D01*
X121793000Y-136478000D01*
X121793000Y-136478000D01*
G37*
X121793000Y-136478000D02*
X101727000Y-136478000D01*
X101727000Y-133633320D01*
X102986285Y-133633320D01*
X103115533Y-133926123D01*
X103815806Y-134194388D01*
X104565435Y-134174250D01*
X105164467Y-133926123D01*
X105293715Y-133633320D01*
X108066285Y-133633320D01*
X108195533Y-133926123D01*
X108895806Y-134194388D01*
X109645435Y-134174250D01*
X110244467Y-133926123D01*
X110373715Y-133633320D01*
X109220000Y-132479605D01*
X108066285Y-133633320D01*
X105293715Y-133633320D01*
X104140000Y-132479605D01*
X102986285Y-133633320D01*
X101727000Y-133633320D01*
X101727000Y-133586384D01*
X101734368Y-133550000D01*
X101734368Y-131975806D01*
X102245612Y-131975806D01*
X102265750Y-132725435D01*
X102513877Y-133324467D01*
X102806680Y-133453715D01*
X103960395Y-132300000D01*
X104319605Y-132300000D01*
X105473320Y-133453715D01*
X105766123Y-133324467D01*
X106034388Y-132624194D01*
X106016970Y-131975806D01*
X107325612Y-131975806D01*
X107345750Y-132725435D01*
X107593877Y-133324467D01*
X107886680Y-133453715D01*
X109040395Y-132300000D01*
X109399605Y-132300000D01*
X110553320Y-133453715D01*
X110846123Y-133324467D01*
X111114388Y-132624194D01*
X111113356Y-132585750D01*
X112415000Y-132585750D01*
X112415000Y-133676310D01*
X112511673Y-133909699D01*
X112690302Y-134088327D01*
X112923691Y-134185000D01*
X114014250Y-134185000D01*
X114173000Y-134026250D01*
X114173000Y-132427000D01*
X114427000Y-132427000D01*
X114427000Y-134026250D01*
X114585750Y-134185000D01*
X115676309Y-134185000D01*
X115909698Y-134088327D01*
X116088327Y-133909699D01*
X116185000Y-133676310D01*
X116185000Y-133633320D01*
X118226285Y-133633320D01*
X118355533Y-133926123D01*
X119055806Y-134194388D01*
X119805435Y-134174250D01*
X120404467Y-133926123D01*
X120533715Y-133633320D01*
X119380000Y-132479605D01*
X118226285Y-133633320D01*
X116185000Y-133633320D01*
X116185000Y-132585750D01*
X116026250Y-132427000D01*
X114427000Y-132427000D01*
X114173000Y-132427000D01*
X112573750Y-132427000D01*
X112415000Y-132585750D01*
X111113356Y-132585750D01*
X111094250Y-131874565D01*
X110846123Y-131275533D01*
X110553320Y-131146285D01*
X109399605Y-132300000D01*
X109040395Y-132300000D01*
X107886680Y-131146285D01*
X107593877Y-131275533D01*
X107325612Y-131975806D01*
X106016970Y-131975806D01*
X106014250Y-131874565D01*
X105766123Y-131275533D01*
X105473320Y-131146285D01*
X104319605Y-132300000D01*
X103960395Y-132300000D01*
X102806680Y-131146285D01*
X102513877Y-131275533D01*
X102245612Y-131975806D01*
X101734368Y-131975806D01*
X101734368Y-131050000D01*
X101727000Y-131010842D01*
X101727000Y-130966680D01*
X102986285Y-130966680D01*
X104140000Y-132120395D01*
X105293715Y-130966680D01*
X108066285Y-130966680D01*
X109220000Y-132120395D01*
X110373715Y-130966680D01*
X110354739Y-130923690D01*
X112415000Y-130923690D01*
X112415000Y-132014250D01*
X112573750Y-132173000D01*
X114173000Y-132173000D01*
X114173000Y-130573750D01*
X114427000Y-130573750D01*
X114427000Y-132173000D01*
X116026250Y-132173000D01*
X116185000Y-132014250D01*
X116185000Y-131975806D01*
X117485612Y-131975806D01*
X117505750Y-132725435D01*
X117753877Y-133324467D01*
X118046680Y-133453715D01*
X119200395Y-132300000D01*
X119559605Y-132300000D01*
X120713320Y-133453715D01*
X121006123Y-133324467D01*
X121274388Y-132624194D01*
X121254250Y-131874565D01*
X121006123Y-131275533D01*
X120713320Y-131146285D01*
X119559605Y-132300000D01*
X119200395Y-132300000D01*
X118046680Y-131146285D01*
X117753877Y-131275533D01*
X117485612Y-131975806D01*
X116185000Y-131975806D01*
X116185000Y-130966680D01*
X118226285Y-130966680D01*
X119380000Y-132120395D01*
X120533715Y-130966680D01*
X120404467Y-130673877D01*
X119704194Y-130405612D01*
X118954565Y-130425750D01*
X118355533Y-130673877D01*
X118226285Y-130966680D01*
X116185000Y-130966680D01*
X116185000Y-130923690D01*
X116088327Y-130690301D01*
X115909698Y-130511673D01*
X115676309Y-130415000D01*
X114585750Y-130415000D01*
X114427000Y-130573750D01*
X114173000Y-130573750D01*
X114014250Y-130415000D01*
X112923691Y-130415000D01*
X112690302Y-130511673D01*
X112511673Y-130690301D01*
X112415000Y-130923690D01*
X110354739Y-130923690D01*
X110244467Y-130673877D01*
X109544194Y-130405612D01*
X108794565Y-130425750D01*
X108195533Y-130673877D01*
X108066285Y-130966680D01*
X105293715Y-130966680D01*
X105164467Y-130673877D01*
X104464194Y-130405612D01*
X103714565Y-130425750D01*
X103115533Y-130673877D01*
X102986285Y-130966680D01*
X101727000Y-130966680D01*
X101727000Y-127000000D01*
X121793000Y-127000000D01*
X121793000Y-136478000D01*
M02*
