G04 #@! TF.FileFunction,Legend,Bot*
%FSLAX46Y46*%
G04 Gerber Fmt 4.6, Leading zero omitted, Abs format (unit mm)*
G04 Created by KiCad (PCBNEW 4.0.6) date 06/30/17 08:52:43*
%MOMM*%
%LPD*%
G01*
G04 APERTURE LIST*
%ADD10C,0.100000*%
%ADD11C,0.200000*%
%ADD12C,0.300000*%
G04 APERTURE END LIST*
D10*
D11*
X130810000Y-136156000D02*
X121920000Y-136156000D01*
X167640000Y-135902000D02*
X158750000Y-135902000D01*
X121920000Y-136156000D02*
X121920000Y-134378000D01*
X167640000Y-135902000D02*
X167640000Y-134378000D01*
D12*
X158029999Y-136580571D02*
X158029999Y-135080571D01*
X157458571Y-135080571D01*
X157315713Y-135152000D01*
X157244285Y-135223429D01*
X157172856Y-135366286D01*
X157172856Y-135580571D01*
X157244285Y-135723429D01*
X157315713Y-135794857D01*
X157458571Y-135866286D01*
X158029999Y-135866286D01*
X156529999Y-136580571D02*
X156529999Y-135580571D01*
X156529999Y-135866286D02*
X156458571Y-135723429D01*
X156387142Y-135652000D01*
X156244285Y-135580571D01*
X156101428Y-135580571D01*
X155387142Y-136580571D02*
X155530000Y-136509143D01*
X155601428Y-136437714D01*
X155672857Y-136294857D01*
X155672857Y-135866286D01*
X155601428Y-135723429D01*
X155530000Y-135652000D01*
X155387142Y-135580571D01*
X155172857Y-135580571D01*
X155030000Y-135652000D01*
X154958571Y-135723429D01*
X154887142Y-135866286D01*
X154887142Y-136294857D01*
X154958571Y-136437714D01*
X155030000Y-136509143D01*
X155172857Y-136580571D01*
X155387142Y-136580571D01*
X154458571Y-135580571D02*
X153887142Y-135580571D01*
X154244285Y-135080571D02*
X154244285Y-136366286D01*
X154172857Y-136509143D01*
X154029999Y-136580571D01*
X153887142Y-136580571D01*
X152815714Y-136509143D02*
X152958571Y-136580571D01*
X153244285Y-136580571D01*
X153387142Y-136509143D01*
X153458571Y-136366286D01*
X153458571Y-135794857D01*
X153387142Y-135652000D01*
X153244285Y-135580571D01*
X152958571Y-135580571D01*
X152815714Y-135652000D01*
X152744285Y-135794857D01*
X152744285Y-135937714D01*
X153458571Y-136080571D01*
X151458571Y-136509143D02*
X151601428Y-136580571D01*
X151887142Y-136580571D01*
X152030000Y-136509143D01*
X152101428Y-136437714D01*
X152172857Y-136294857D01*
X152172857Y-135866286D01*
X152101428Y-135723429D01*
X152030000Y-135652000D01*
X151887142Y-135580571D01*
X151601428Y-135580571D01*
X151458571Y-135652000D01*
X151030000Y-135580571D02*
X150458571Y-135580571D01*
X150815714Y-135080571D02*
X150815714Y-136366286D01*
X150744286Y-136509143D01*
X150601428Y-136580571D01*
X150458571Y-136580571D01*
X149958571Y-136580571D02*
X149958571Y-135580571D01*
X149958571Y-135080571D02*
X150030000Y-135152000D01*
X149958571Y-135223429D01*
X149887143Y-135152000D01*
X149958571Y-135080571D01*
X149958571Y-135223429D01*
X149387142Y-135580571D02*
X149029999Y-136580571D01*
X148672857Y-135580571D01*
X147530000Y-136509143D02*
X147672857Y-136580571D01*
X147958571Y-136580571D01*
X148101428Y-136509143D01*
X148172857Y-136366286D01*
X148172857Y-135794857D01*
X148101428Y-135652000D01*
X147958571Y-135580571D01*
X147672857Y-135580571D01*
X147530000Y-135652000D01*
X147458571Y-135794857D01*
X147458571Y-135937714D01*
X148172857Y-136080571D01*
X145672857Y-135794857D02*
X145172857Y-135794857D01*
X144958571Y-136580571D02*
X145672857Y-136580571D01*
X145672857Y-135080571D01*
X144958571Y-135080571D01*
X143672857Y-136580571D02*
X143672857Y-135794857D01*
X143744286Y-135652000D01*
X143887143Y-135580571D01*
X144172857Y-135580571D01*
X144315714Y-135652000D01*
X143672857Y-136509143D02*
X143815714Y-136580571D01*
X144172857Y-136580571D01*
X144315714Y-136509143D01*
X144387143Y-136366286D01*
X144387143Y-136223429D01*
X144315714Y-136080571D01*
X144172857Y-136009143D01*
X143815714Y-136009143D01*
X143672857Y-135937714D01*
X142958571Y-136580571D02*
X142958571Y-135580571D01*
X142958571Y-135866286D02*
X142887143Y-135723429D01*
X142815714Y-135652000D01*
X142672857Y-135580571D01*
X142530000Y-135580571D01*
X142244286Y-135580571D02*
X141672857Y-135580571D01*
X142030000Y-135080571D02*
X142030000Y-136366286D01*
X141958572Y-136509143D01*
X141815714Y-136580571D01*
X141672857Y-136580571D01*
X141172857Y-136580571D02*
X141172857Y-135080571D01*
X140530000Y-136580571D02*
X140530000Y-135794857D01*
X140601429Y-135652000D01*
X140744286Y-135580571D01*
X140958571Y-135580571D01*
X141101429Y-135652000D01*
X141172857Y-135723429D01*
X137887143Y-135152000D02*
X138030000Y-135080571D01*
X138244286Y-135080571D01*
X138458571Y-135152000D01*
X138601429Y-135294857D01*
X138672857Y-135437714D01*
X138744286Y-135723429D01*
X138744286Y-135937714D01*
X138672857Y-136223429D01*
X138601429Y-136366286D01*
X138458571Y-136509143D01*
X138244286Y-136580571D01*
X138101429Y-136580571D01*
X137887143Y-136509143D01*
X137815714Y-136437714D01*
X137815714Y-135937714D01*
X138101429Y-135937714D01*
X137172857Y-136580571D02*
X137172857Y-135580571D01*
X137172857Y-135866286D02*
X137101429Y-135723429D01*
X137030000Y-135652000D01*
X136887143Y-135580571D01*
X136744286Y-135580571D01*
X136030000Y-136580571D02*
X136172858Y-136509143D01*
X136244286Y-136437714D01*
X136315715Y-136294857D01*
X136315715Y-135866286D01*
X136244286Y-135723429D01*
X136172858Y-135652000D01*
X136030000Y-135580571D01*
X135815715Y-135580571D01*
X135672858Y-135652000D01*
X135601429Y-135723429D01*
X135530000Y-135866286D01*
X135530000Y-136294857D01*
X135601429Y-136437714D01*
X135672858Y-136509143D01*
X135815715Y-136580571D01*
X136030000Y-136580571D01*
X134244286Y-135580571D02*
X134244286Y-136580571D01*
X134887143Y-135580571D02*
X134887143Y-136366286D01*
X134815715Y-136509143D01*
X134672857Y-136580571D01*
X134458572Y-136580571D01*
X134315715Y-136509143D01*
X134244286Y-136437714D01*
X133530000Y-135580571D02*
X133530000Y-136580571D01*
X133530000Y-135723429D02*
X133458572Y-135652000D01*
X133315714Y-135580571D01*
X133101429Y-135580571D01*
X132958572Y-135652000D01*
X132887143Y-135794857D01*
X132887143Y-136580571D01*
X131530000Y-136580571D02*
X131530000Y-135080571D01*
X131530000Y-136509143D02*
X131672857Y-136580571D01*
X131958571Y-136580571D01*
X132101429Y-136509143D01*
X132172857Y-136437714D01*
X132244286Y-136294857D01*
X132244286Y-135866286D01*
X132172857Y-135723429D01*
X132101429Y-135652000D01*
X131958571Y-135580571D01*
X131672857Y-135580571D01*
X131530000Y-135652000D01*
X147998571Y-116805143D02*
X146498571Y-116805143D01*
X146498571Y-117162286D01*
X146570000Y-117376571D01*
X146712857Y-117519429D01*
X146855714Y-117590857D01*
X147141429Y-117662286D01*
X147355714Y-117662286D01*
X147641429Y-117590857D01*
X147784286Y-117519429D01*
X147927143Y-117376571D01*
X147998571Y-117162286D01*
X147998571Y-116805143D01*
X147998571Y-118305143D02*
X146998571Y-118305143D01*
X146498571Y-118305143D02*
X146570000Y-118233714D01*
X146641429Y-118305143D01*
X146570000Y-118376571D01*
X146498571Y-118305143D01*
X146641429Y-118305143D01*
X146998571Y-119662286D02*
X148212857Y-119662286D01*
X148355714Y-119590857D01*
X148427143Y-119519429D01*
X148498571Y-119376572D01*
X148498571Y-119162286D01*
X148427143Y-119019429D01*
X147927143Y-119662286D02*
X147998571Y-119519429D01*
X147998571Y-119233715D01*
X147927143Y-119090857D01*
X147855714Y-119019429D01*
X147712857Y-118948000D01*
X147284286Y-118948000D01*
X147141429Y-119019429D01*
X147070000Y-119090857D01*
X146998571Y-119233715D01*
X146998571Y-119519429D01*
X147070000Y-119662286D01*
X147998571Y-120376572D02*
X146998571Y-120376572D01*
X146498571Y-120376572D02*
X146570000Y-120305143D01*
X146641429Y-120376572D01*
X146570000Y-120448000D01*
X146498571Y-120376572D01*
X146641429Y-120376572D01*
X146998571Y-120876572D02*
X146998571Y-121448001D01*
X146498571Y-121090858D02*
X147784286Y-121090858D01*
X147927143Y-121162286D01*
X147998571Y-121305144D01*
X147998571Y-121448001D01*
X147998571Y-122590858D02*
X147212857Y-122590858D01*
X147070000Y-122519429D01*
X146998571Y-122376572D01*
X146998571Y-122090858D01*
X147070000Y-121948001D01*
X147927143Y-122590858D02*
X147998571Y-122448001D01*
X147998571Y-122090858D01*
X147927143Y-121948001D01*
X147784286Y-121876572D01*
X147641429Y-121876572D01*
X147498571Y-121948001D01*
X147427143Y-122090858D01*
X147427143Y-122448001D01*
X147355714Y-122590858D01*
X147998571Y-123519430D02*
X147927143Y-123376572D01*
X147784286Y-123305144D01*
X146498571Y-123305144D01*
X146570000Y-126019429D02*
X146498571Y-125876572D01*
X146498571Y-125662286D01*
X146570000Y-125448001D01*
X146712857Y-125305143D01*
X146855714Y-125233715D01*
X147141429Y-125162286D01*
X147355714Y-125162286D01*
X147641429Y-125233715D01*
X147784286Y-125305143D01*
X147927143Y-125448001D01*
X147998571Y-125662286D01*
X147998571Y-125805143D01*
X147927143Y-126019429D01*
X147855714Y-126090858D01*
X147355714Y-126090858D01*
X147355714Y-125805143D01*
X147998571Y-126733715D02*
X146498571Y-126733715D01*
X147998571Y-127590858D01*
X146498571Y-127590858D01*
X147998571Y-128305144D02*
X146498571Y-128305144D01*
X146498571Y-128662287D01*
X146570000Y-128876572D01*
X146712857Y-129019430D01*
X146855714Y-129090858D01*
X147141429Y-129162287D01*
X147355714Y-129162287D01*
X147641429Y-129090858D01*
X147784286Y-129019430D01*
X147927143Y-128876572D01*
X147998571Y-128662287D01*
X147998571Y-128305144D01*
X142347143Y-125083429D02*
X142347143Y-126226286D01*
X142918571Y-125654857D02*
X141775714Y-125654857D01*
X141418571Y-127654858D02*
X141418571Y-126940572D01*
X142132857Y-126869143D01*
X142061429Y-126940572D01*
X141990000Y-127083429D01*
X141990000Y-127440572D01*
X142061429Y-127583429D01*
X142132857Y-127654858D01*
X142275714Y-127726286D01*
X142632857Y-127726286D01*
X142775714Y-127654858D01*
X142847143Y-127583429D01*
X142918571Y-127440572D01*
X142918571Y-127083429D01*
X142847143Y-126940572D01*
X142775714Y-126869143D01*
X141418571Y-128154857D02*
X142918571Y-128654857D01*
X141418571Y-129154857D01*
X137695714Y-112626287D02*
X137767143Y-112554858D01*
X137838571Y-112340572D01*
X137838571Y-112197715D01*
X137767143Y-111983430D01*
X137624286Y-111840572D01*
X137481429Y-111769144D01*
X137195714Y-111697715D01*
X136981429Y-111697715D01*
X136695714Y-111769144D01*
X136552857Y-111840572D01*
X136410000Y-111983430D01*
X136338571Y-112197715D01*
X136338571Y-112340572D01*
X136410000Y-112554858D01*
X136481429Y-112626287D01*
X136838571Y-113912001D02*
X137838571Y-113912001D01*
X136838571Y-113269144D02*
X137624286Y-113269144D01*
X137767143Y-113340572D01*
X137838571Y-113483430D01*
X137838571Y-113697715D01*
X137767143Y-113840572D01*
X137695714Y-113912001D01*
X137838571Y-114626287D02*
X136838571Y-114626287D01*
X137124286Y-114626287D02*
X136981429Y-114697715D01*
X136910000Y-114769144D01*
X136838571Y-114912001D01*
X136838571Y-115054858D01*
X137838571Y-115554858D02*
X136838571Y-115554858D01*
X137124286Y-115554858D02*
X136981429Y-115626286D01*
X136910000Y-115697715D01*
X136838571Y-115840572D01*
X136838571Y-115983429D01*
X137767143Y-117054857D02*
X137838571Y-116912000D01*
X137838571Y-116626286D01*
X137767143Y-116483429D01*
X137624286Y-116412000D01*
X137052857Y-116412000D01*
X136910000Y-116483429D01*
X136838571Y-116626286D01*
X136838571Y-116912000D01*
X136910000Y-117054857D01*
X137052857Y-117126286D01*
X137195714Y-117126286D01*
X137338571Y-116412000D01*
X136838571Y-117769143D02*
X137838571Y-117769143D01*
X136981429Y-117769143D02*
X136910000Y-117840571D01*
X136838571Y-117983429D01*
X136838571Y-118197714D01*
X136910000Y-118340571D01*
X137052857Y-118412000D01*
X137838571Y-118412000D01*
X136838571Y-118912000D02*
X136838571Y-119483429D01*
X136338571Y-119126286D02*
X137624286Y-119126286D01*
X137767143Y-119197714D01*
X137838571Y-119340572D01*
X137838571Y-119483429D01*
X137767143Y-121054857D02*
X137838571Y-121269143D01*
X137838571Y-121626286D01*
X137767143Y-121769143D01*
X137695714Y-121840572D01*
X137552857Y-121912000D01*
X137410000Y-121912000D01*
X137267143Y-121840572D01*
X137195714Y-121769143D01*
X137124286Y-121626286D01*
X137052857Y-121340572D01*
X136981429Y-121197714D01*
X136910000Y-121126286D01*
X136767143Y-121054857D01*
X136624286Y-121054857D01*
X136481429Y-121126286D01*
X136410000Y-121197714D01*
X136338571Y-121340572D01*
X136338571Y-121697714D01*
X136410000Y-121912000D01*
X137767143Y-123126285D02*
X137838571Y-122983428D01*
X137838571Y-122697714D01*
X137767143Y-122554857D01*
X137624286Y-122483428D01*
X137052857Y-122483428D01*
X136910000Y-122554857D01*
X136838571Y-122697714D01*
X136838571Y-122983428D01*
X136910000Y-123126285D01*
X137052857Y-123197714D01*
X137195714Y-123197714D01*
X137338571Y-122483428D01*
X136838571Y-123840571D02*
X137838571Y-123840571D01*
X136981429Y-123840571D02*
X136910000Y-123911999D01*
X136838571Y-124054857D01*
X136838571Y-124269142D01*
X136910000Y-124411999D01*
X137052857Y-124483428D01*
X137838571Y-124483428D01*
X137767143Y-125126285D02*
X137838571Y-125269142D01*
X137838571Y-125554857D01*
X137767143Y-125697714D01*
X137624286Y-125769142D01*
X137552857Y-125769142D01*
X137410000Y-125697714D01*
X137338571Y-125554857D01*
X137338571Y-125340571D01*
X137267143Y-125197714D01*
X137124286Y-125126285D01*
X137052857Y-125126285D01*
X136910000Y-125197714D01*
X136838571Y-125340571D01*
X136838571Y-125554857D01*
X136910000Y-125697714D01*
X137767143Y-126983428D02*
X137838571Y-126840571D01*
X137838571Y-126554857D01*
X137767143Y-126412000D01*
X137624286Y-126340571D01*
X137052857Y-126340571D01*
X136910000Y-126412000D01*
X136838571Y-126554857D01*
X136838571Y-126840571D01*
X136910000Y-126983428D01*
X137052857Y-127054857D01*
X137195714Y-127054857D01*
X137338571Y-126340571D01*
X137838571Y-129626285D02*
X137838571Y-128769142D01*
X137838571Y-129197714D02*
X136338571Y-129197714D01*
X136552857Y-129054857D01*
X136695714Y-128911999D01*
X136767143Y-128769142D01*
X152935714Y-112372287D02*
X153007143Y-112300858D01*
X153078571Y-112086572D01*
X153078571Y-111943715D01*
X153007143Y-111729430D01*
X152864286Y-111586572D01*
X152721429Y-111515144D01*
X152435714Y-111443715D01*
X152221429Y-111443715D01*
X151935714Y-111515144D01*
X151792857Y-111586572D01*
X151650000Y-111729430D01*
X151578571Y-111943715D01*
X151578571Y-112086572D01*
X151650000Y-112300858D01*
X151721429Y-112372287D01*
X152078571Y-113658001D02*
X153078571Y-113658001D01*
X152078571Y-113015144D02*
X152864286Y-113015144D01*
X153007143Y-113086572D01*
X153078571Y-113229430D01*
X153078571Y-113443715D01*
X153007143Y-113586572D01*
X152935714Y-113658001D01*
X153078571Y-114372287D02*
X152078571Y-114372287D01*
X152364286Y-114372287D02*
X152221429Y-114443715D01*
X152150000Y-114515144D01*
X152078571Y-114658001D01*
X152078571Y-114800858D01*
X153078571Y-115300858D02*
X152078571Y-115300858D01*
X152364286Y-115300858D02*
X152221429Y-115372286D01*
X152150000Y-115443715D01*
X152078571Y-115586572D01*
X152078571Y-115729429D01*
X153007143Y-116800857D02*
X153078571Y-116658000D01*
X153078571Y-116372286D01*
X153007143Y-116229429D01*
X152864286Y-116158000D01*
X152292857Y-116158000D01*
X152150000Y-116229429D01*
X152078571Y-116372286D01*
X152078571Y-116658000D01*
X152150000Y-116800857D01*
X152292857Y-116872286D01*
X152435714Y-116872286D01*
X152578571Y-116158000D01*
X152078571Y-117515143D02*
X153078571Y-117515143D01*
X152221429Y-117515143D02*
X152150000Y-117586571D01*
X152078571Y-117729429D01*
X152078571Y-117943714D01*
X152150000Y-118086571D01*
X152292857Y-118158000D01*
X153078571Y-118158000D01*
X152078571Y-118658000D02*
X152078571Y-119229429D01*
X151578571Y-118872286D02*
X152864286Y-118872286D01*
X153007143Y-118943714D01*
X153078571Y-119086572D01*
X153078571Y-119229429D01*
X153007143Y-120800857D02*
X153078571Y-121015143D01*
X153078571Y-121372286D01*
X153007143Y-121515143D01*
X152935714Y-121586572D01*
X152792857Y-121658000D01*
X152650000Y-121658000D01*
X152507143Y-121586572D01*
X152435714Y-121515143D01*
X152364286Y-121372286D01*
X152292857Y-121086572D01*
X152221429Y-120943714D01*
X152150000Y-120872286D01*
X152007143Y-120800857D01*
X151864286Y-120800857D01*
X151721429Y-120872286D01*
X151650000Y-120943714D01*
X151578571Y-121086572D01*
X151578571Y-121443714D01*
X151650000Y-121658000D01*
X153007143Y-122872285D02*
X153078571Y-122729428D01*
X153078571Y-122443714D01*
X153007143Y-122300857D01*
X152864286Y-122229428D01*
X152292857Y-122229428D01*
X152150000Y-122300857D01*
X152078571Y-122443714D01*
X152078571Y-122729428D01*
X152150000Y-122872285D01*
X152292857Y-122943714D01*
X152435714Y-122943714D01*
X152578571Y-122229428D01*
X152078571Y-123586571D02*
X153078571Y-123586571D01*
X152221429Y-123586571D02*
X152150000Y-123657999D01*
X152078571Y-123800857D01*
X152078571Y-124015142D01*
X152150000Y-124157999D01*
X152292857Y-124229428D01*
X153078571Y-124229428D01*
X153007143Y-124872285D02*
X153078571Y-125015142D01*
X153078571Y-125300857D01*
X153007143Y-125443714D01*
X152864286Y-125515142D01*
X152792857Y-125515142D01*
X152650000Y-125443714D01*
X152578571Y-125300857D01*
X152578571Y-125086571D01*
X152507143Y-124943714D01*
X152364286Y-124872285D01*
X152292857Y-124872285D01*
X152150000Y-124943714D01*
X152078571Y-125086571D01*
X152078571Y-125300857D01*
X152150000Y-125443714D01*
X153007143Y-126729428D02*
X153078571Y-126586571D01*
X153078571Y-126300857D01*
X153007143Y-126158000D01*
X152864286Y-126086571D01*
X152292857Y-126086571D01*
X152150000Y-126158000D01*
X152078571Y-126300857D01*
X152078571Y-126586571D01*
X152150000Y-126729428D01*
X152292857Y-126800857D01*
X152435714Y-126800857D01*
X152578571Y-126086571D01*
X151721429Y-128515142D02*
X151650000Y-128586571D01*
X151578571Y-128729428D01*
X151578571Y-129086571D01*
X151650000Y-129229428D01*
X151721429Y-129300857D01*
X151864286Y-129372285D01*
X152007143Y-129372285D01*
X152221429Y-129300857D01*
X153078571Y-128443714D01*
X153078571Y-129372285D01*
X158015714Y-121408572D02*
X158087143Y-121337143D01*
X158158571Y-121122857D01*
X158158571Y-120980000D01*
X158087143Y-120765715D01*
X157944286Y-120622857D01*
X157801429Y-120551429D01*
X157515714Y-120480000D01*
X157301429Y-120480000D01*
X157015714Y-120551429D01*
X156872857Y-120622857D01*
X156730000Y-120765715D01*
X156658571Y-120980000D01*
X156658571Y-121122857D01*
X156730000Y-121337143D01*
X156801429Y-121408572D01*
X158158571Y-122265715D02*
X158087143Y-122122857D01*
X158015714Y-122051429D01*
X157872857Y-121980000D01*
X157444286Y-121980000D01*
X157301429Y-122051429D01*
X157230000Y-122122857D01*
X157158571Y-122265715D01*
X157158571Y-122480000D01*
X157230000Y-122622857D01*
X157301429Y-122694286D01*
X157444286Y-122765715D01*
X157872857Y-122765715D01*
X158015714Y-122694286D01*
X158087143Y-122622857D01*
X158158571Y-122480000D01*
X158158571Y-122265715D01*
X157158571Y-123408572D02*
X158158571Y-123408572D01*
X157301429Y-123408572D02*
X157230000Y-123480000D01*
X157158571Y-123622858D01*
X157158571Y-123837143D01*
X157230000Y-123980000D01*
X157372857Y-124051429D01*
X158158571Y-124051429D01*
X157158571Y-124551429D02*
X157158571Y-125122858D01*
X156658571Y-124765715D02*
X157944286Y-124765715D01*
X158087143Y-124837143D01*
X158158571Y-124980001D01*
X158158571Y-125122858D01*
X158158571Y-125622858D02*
X157158571Y-125622858D01*
X157444286Y-125622858D02*
X157301429Y-125694286D01*
X157230000Y-125765715D01*
X157158571Y-125908572D01*
X157158571Y-126051429D01*
X158158571Y-126765715D02*
X158087143Y-126622857D01*
X158015714Y-126551429D01*
X157872857Y-126480000D01*
X157444286Y-126480000D01*
X157301429Y-126551429D01*
X157230000Y-126622857D01*
X157158571Y-126765715D01*
X157158571Y-126980000D01*
X157230000Y-127122857D01*
X157301429Y-127194286D01*
X157444286Y-127265715D01*
X157872857Y-127265715D01*
X158015714Y-127194286D01*
X158087143Y-127122857D01*
X158158571Y-126980000D01*
X158158571Y-126765715D01*
X158158571Y-128122858D02*
X158087143Y-127980000D01*
X157944286Y-127908572D01*
X156658571Y-127908572D01*
X156801429Y-128622857D02*
X156730000Y-128694286D01*
X156658571Y-128837143D01*
X156658571Y-129194286D01*
X156730000Y-129337143D01*
X156801429Y-129408572D01*
X156944286Y-129480000D01*
X157087143Y-129480000D01*
X157301429Y-129408572D01*
X158158571Y-128551429D01*
X158158571Y-129480000D01*
X132615714Y-121408572D02*
X132687143Y-121337143D01*
X132758571Y-121122857D01*
X132758571Y-120980000D01*
X132687143Y-120765715D01*
X132544286Y-120622857D01*
X132401429Y-120551429D01*
X132115714Y-120480000D01*
X131901429Y-120480000D01*
X131615714Y-120551429D01*
X131472857Y-120622857D01*
X131330000Y-120765715D01*
X131258571Y-120980000D01*
X131258571Y-121122857D01*
X131330000Y-121337143D01*
X131401429Y-121408572D01*
X132758571Y-122265715D02*
X132687143Y-122122857D01*
X132615714Y-122051429D01*
X132472857Y-121980000D01*
X132044286Y-121980000D01*
X131901429Y-122051429D01*
X131830000Y-122122857D01*
X131758571Y-122265715D01*
X131758571Y-122480000D01*
X131830000Y-122622857D01*
X131901429Y-122694286D01*
X132044286Y-122765715D01*
X132472857Y-122765715D01*
X132615714Y-122694286D01*
X132687143Y-122622857D01*
X132758571Y-122480000D01*
X132758571Y-122265715D01*
X131758571Y-123408572D02*
X132758571Y-123408572D01*
X131901429Y-123408572D02*
X131830000Y-123480000D01*
X131758571Y-123622858D01*
X131758571Y-123837143D01*
X131830000Y-123980000D01*
X131972857Y-124051429D01*
X132758571Y-124051429D01*
X131758571Y-124551429D02*
X131758571Y-125122858D01*
X131258571Y-124765715D02*
X132544286Y-124765715D01*
X132687143Y-124837143D01*
X132758571Y-124980001D01*
X132758571Y-125122858D01*
X132758571Y-125622858D02*
X131758571Y-125622858D01*
X132044286Y-125622858D02*
X131901429Y-125694286D01*
X131830000Y-125765715D01*
X131758571Y-125908572D01*
X131758571Y-126051429D01*
X132758571Y-126765715D02*
X132687143Y-126622857D01*
X132615714Y-126551429D01*
X132472857Y-126480000D01*
X132044286Y-126480000D01*
X131901429Y-126551429D01*
X131830000Y-126622857D01*
X131758571Y-126765715D01*
X131758571Y-126980000D01*
X131830000Y-127122857D01*
X131901429Y-127194286D01*
X132044286Y-127265715D01*
X132472857Y-127265715D01*
X132615714Y-127194286D01*
X132687143Y-127122857D01*
X132758571Y-126980000D01*
X132758571Y-126765715D01*
X132758571Y-128122858D02*
X132687143Y-127980000D01*
X132544286Y-127908572D01*
X131258571Y-127908572D01*
X132758571Y-129480000D02*
X132758571Y-128622857D01*
X132758571Y-129051429D02*
X131258571Y-129051429D01*
X131472857Y-128908572D01*
X131615714Y-128765714D01*
X131687143Y-128622857D01*
X140378571Y-59778858D02*
X138878571Y-59778858D01*
X138878571Y-60350286D01*
X138950000Y-60493144D01*
X139021429Y-60564572D01*
X139164286Y-60636001D01*
X139378571Y-60636001D01*
X139521429Y-60564572D01*
X139592857Y-60493144D01*
X139664286Y-60350286D01*
X139664286Y-59778858D01*
X140378571Y-61278858D02*
X139378571Y-61278858D01*
X139664286Y-61278858D02*
X139521429Y-61350286D01*
X139450000Y-61421715D01*
X139378571Y-61564572D01*
X139378571Y-61707429D01*
X140378571Y-62421715D02*
X140307143Y-62278857D01*
X140235714Y-62207429D01*
X140092857Y-62136000D01*
X139664286Y-62136000D01*
X139521429Y-62207429D01*
X139450000Y-62278857D01*
X139378571Y-62421715D01*
X139378571Y-62636000D01*
X139450000Y-62778857D01*
X139521429Y-62850286D01*
X139664286Y-62921715D01*
X140092857Y-62921715D01*
X140235714Y-62850286D01*
X140307143Y-62778857D01*
X140378571Y-62636000D01*
X140378571Y-62421715D01*
X139378571Y-63350286D02*
X139378571Y-63921715D01*
X138878571Y-63564572D02*
X140164286Y-63564572D01*
X140307143Y-63636000D01*
X140378571Y-63778858D01*
X140378571Y-63921715D01*
X140307143Y-64993143D02*
X140378571Y-64850286D01*
X140378571Y-64564572D01*
X140307143Y-64421715D01*
X140164286Y-64350286D01*
X139592857Y-64350286D01*
X139450000Y-64421715D01*
X139378571Y-64564572D01*
X139378571Y-64850286D01*
X139450000Y-64993143D01*
X139592857Y-65064572D01*
X139735714Y-65064572D01*
X139878571Y-64350286D01*
X140307143Y-66350286D02*
X140378571Y-66207429D01*
X140378571Y-65921715D01*
X140307143Y-65778857D01*
X140235714Y-65707429D01*
X140092857Y-65636000D01*
X139664286Y-65636000D01*
X139521429Y-65707429D01*
X139450000Y-65778857D01*
X139378571Y-65921715D01*
X139378571Y-66207429D01*
X139450000Y-66350286D01*
X139378571Y-66778857D02*
X139378571Y-67350286D01*
X138878571Y-66993143D02*
X140164286Y-66993143D01*
X140307143Y-67064571D01*
X140378571Y-67207429D01*
X140378571Y-67350286D01*
X140378571Y-67850286D02*
X139378571Y-67850286D01*
X138878571Y-67850286D02*
X138950000Y-67778857D01*
X139021429Y-67850286D01*
X138950000Y-67921714D01*
X138878571Y-67850286D01*
X139021429Y-67850286D01*
X139378571Y-68421715D02*
X140378571Y-68778858D01*
X139378571Y-69136000D01*
X140307143Y-70278857D02*
X140378571Y-70136000D01*
X140378571Y-69850286D01*
X140307143Y-69707429D01*
X140164286Y-69636000D01*
X139592857Y-69636000D01*
X139450000Y-69707429D01*
X139378571Y-69850286D01*
X139378571Y-70136000D01*
X139450000Y-70278857D01*
X139592857Y-70350286D01*
X139735714Y-70350286D01*
X139878571Y-69636000D01*
X139592857Y-72136000D02*
X139592857Y-72636000D01*
X140378571Y-72850286D02*
X140378571Y-72136000D01*
X138878571Y-72136000D01*
X138878571Y-72850286D01*
X140378571Y-74136000D02*
X139592857Y-74136000D01*
X139450000Y-74064571D01*
X139378571Y-73921714D01*
X139378571Y-73636000D01*
X139450000Y-73493143D01*
X140307143Y-74136000D02*
X140378571Y-73993143D01*
X140378571Y-73636000D01*
X140307143Y-73493143D01*
X140164286Y-73421714D01*
X140021429Y-73421714D01*
X139878571Y-73493143D01*
X139807143Y-73636000D01*
X139807143Y-73993143D01*
X139735714Y-74136000D01*
X140378571Y-74850286D02*
X139378571Y-74850286D01*
X139664286Y-74850286D02*
X139521429Y-74921714D01*
X139450000Y-74993143D01*
X139378571Y-75136000D01*
X139378571Y-75278857D01*
X139378571Y-75564571D02*
X139378571Y-76136000D01*
X138878571Y-75778857D02*
X140164286Y-75778857D01*
X140307143Y-75850285D01*
X140378571Y-75993143D01*
X140378571Y-76136000D01*
X140378571Y-76636000D02*
X138878571Y-76636000D01*
X140378571Y-77278857D02*
X139592857Y-77278857D01*
X139450000Y-77207428D01*
X139378571Y-77064571D01*
X139378571Y-76850286D01*
X139450000Y-76707428D01*
X139521429Y-76636000D01*
X138950000Y-79921714D02*
X138878571Y-79778857D01*
X138878571Y-79564571D01*
X138950000Y-79350286D01*
X139092857Y-79207428D01*
X139235714Y-79136000D01*
X139521429Y-79064571D01*
X139735714Y-79064571D01*
X140021429Y-79136000D01*
X140164286Y-79207428D01*
X140307143Y-79350286D01*
X140378571Y-79564571D01*
X140378571Y-79707428D01*
X140307143Y-79921714D01*
X140235714Y-79993143D01*
X139735714Y-79993143D01*
X139735714Y-79707428D01*
X140378571Y-80636000D02*
X138878571Y-80636000D01*
X140378571Y-81493143D01*
X138878571Y-81493143D01*
X140378571Y-82207429D02*
X138878571Y-82207429D01*
X138878571Y-82564572D01*
X138950000Y-82778857D01*
X139092857Y-82921715D01*
X139235714Y-82993143D01*
X139521429Y-83064572D01*
X139735714Y-83064572D01*
X140021429Y-82993143D01*
X140164286Y-82921715D01*
X140307143Y-82778857D01*
X140378571Y-82564572D01*
X140378571Y-82207429D01*
X145458571Y-59826000D02*
X143958571Y-59826000D01*
X143958571Y-60397428D01*
X144030000Y-60540286D01*
X144101429Y-60611714D01*
X144244286Y-60683143D01*
X144458571Y-60683143D01*
X144601429Y-60611714D01*
X144672857Y-60540286D01*
X144744286Y-60397428D01*
X144744286Y-59826000D01*
X143958571Y-61183143D02*
X145458571Y-61540286D01*
X144387143Y-61826000D01*
X145458571Y-62111714D01*
X143958571Y-62468857D01*
X145458571Y-63897429D02*
X144744286Y-63397429D01*
X145458571Y-63040286D02*
X143958571Y-63040286D01*
X143958571Y-63611714D01*
X144030000Y-63754572D01*
X144101429Y-63826000D01*
X144244286Y-63897429D01*
X144458571Y-63897429D01*
X144601429Y-63826000D01*
X144672857Y-63754572D01*
X144744286Y-63611714D01*
X144744286Y-63040286D01*
X145387143Y-65611714D02*
X145458571Y-65826000D01*
X145458571Y-66183143D01*
X145387143Y-66326000D01*
X145315714Y-66397429D01*
X145172857Y-66468857D01*
X145030000Y-66468857D01*
X144887143Y-66397429D01*
X144815714Y-66326000D01*
X144744286Y-66183143D01*
X144672857Y-65897429D01*
X144601429Y-65754571D01*
X144530000Y-65683143D01*
X144387143Y-65611714D01*
X144244286Y-65611714D01*
X144101429Y-65683143D01*
X144030000Y-65754571D01*
X143958571Y-65897429D01*
X143958571Y-66254571D01*
X144030000Y-66468857D01*
X143958571Y-67111714D02*
X145172857Y-67111714D01*
X145315714Y-67183142D01*
X145387143Y-67254571D01*
X145458571Y-67397428D01*
X145458571Y-67683142D01*
X145387143Y-67826000D01*
X145315714Y-67897428D01*
X145172857Y-67968857D01*
X143958571Y-67968857D01*
X145458571Y-68683143D02*
X143958571Y-68683143D01*
X143958571Y-69254571D01*
X144030000Y-69397429D01*
X144101429Y-69468857D01*
X144244286Y-69540286D01*
X144458571Y-69540286D01*
X144601429Y-69468857D01*
X144672857Y-69397429D01*
X144744286Y-69254571D01*
X144744286Y-68683143D01*
X145458571Y-70183143D02*
X143958571Y-70183143D01*
X143958571Y-70754571D01*
X144030000Y-70897429D01*
X144101429Y-70968857D01*
X144244286Y-71040286D01*
X144458571Y-71040286D01*
X144601429Y-70968857D01*
X144672857Y-70897429D01*
X144744286Y-70754571D01*
X144744286Y-70183143D01*
X145458571Y-72397429D02*
X145458571Y-71683143D01*
X143958571Y-71683143D01*
X144744286Y-73183143D02*
X145458571Y-73183143D01*
X143958571Y-72683143D02*
X144744286Y-73183143D01*
X143958571Y-73683143D01*
X144887143Y-74183143D02*
X144887143Y-75326000D01*
X150538571Y-60080000D02*
X149038571Y-60080000D01*
X149038571Y-60651428D01*
X149110000Y-60794286D01*
X149181429Y-60865714D01*
X149324286Y-60937143D01*
X149538571Y-60937143D01*
X149681429Y-60865714D01*
X149752857Y-60794286D01*
X149824286Y-60651428D01*
X149824286Y-60080000D01*
X149038571Y-61437143D02*
X150538571Y-61794286D01*
X149467143Y-62080000D01*
X150538571Y-62365714D01*
X149038571Y-62722857D01*
X150538571Y-64151429D02*
X149824286Y-63651429D01*
X150538571Y-63294286D02*
X149038571Y-63294286D01*
X149038571Y-63865714D01*
X149110000Y-64008572D01*
X149181429Y-64080000D01*
X149324286Y-64151429D01*
X149538571Y-64151429D01*
X149681429Y-64080000D01*
X149752857Y-64008572D01*
X149824286Y-63865714D01*
X149824286Y-63294286D01*
X150467143Y-65865714D02*
X150538571Y-66080000D01*
X150538571Y-66437143D01*
X150467143Y-66580000D01*
X150395714Y-66651429D01*
X150252857Y-66722857D01*
X150110000Y-66722857D01*
X149967143Y-66651429D01*
X149895714Y-66580000D01*
X149824286Y-66437143D01*
X149752857Y-66151429D01*
X149681429Y-66008571D01*
X149610000Y-65937143D01*
X149467143Y-65865714D01*
X149324286Y-65865714D01*
X149181429Y-65937143D01*
X149110000Y-66008571D01*
X149038571Y-66151429D01*
X149038571Y-66508571D01*
X149110000Y-66722857D01*
X149038571Y-67365714D02*
X150252857Y-67365714D01*
X150395714Y-67437142D01*
X150467143Y-67508571D01*
X150538571Y-67651428D01*
X150538571Y-67937142D01*
X150467143Y-68080000D01*
X150395714Y-68151428D01*
X150252857Y-68222857D01*
X149038571Y-68222857D01*
X150538571Y-68937143D02*
X149038571Y-68937143D01*
X149038571Y-69508571D01*
X149110000Y-69651429D01*
X149181429Y-69722857D01*
X149324286Y-69794286D01*
X149538571Y-69794286D01*
X149681429Y-69722857D01*
X149752857Y-69651429D01*
X149824286Y-69508571D01*
X149824286Y-68937143D01*
X150538571Y-70437143D02*
X149038571Y-70437143D01*
X149038571Y-71008571D01*
X149110000Y-71151429D01*
X149181429Y-71222857D01*
X149324286Y-71294286D01*
X149538571Y-71294286D01*
X149681429Y-71222857D01*
X149752857Y-71151429D01*
X149824286Y-71008571D01*
X149824286Y-70437143D01*
X150538571Y-72651429D02*
X150538571Y-71937143D01*
X149038571Y-71937143D01*
X149824286Y-73437143D02*
X150538571Y-73437143D01*
X149038571Y-72937143D02*
X149824286Y-73437143D01*
X149038571Y-73937143D01*
X149967143Y-74437143D02*
X149967143Y-75580000D01*
X150538571Y-75008571D02*
X149395714Y-75008571D01*
D11*
X172720000Y-124980000D02*
X172720000Y-130568000D01*
X171196000Y-124980000D02*
X172720000Y-124980000D01*
X162560000Y-124980000D02*
X163830000Y-124980000D01*
X162560000Y-130568000D02*
X162560000Y-124980000D01*
D12*
X164401428Y-129659143D02*
X163258571Y-129659143D01*
X172021428Y-129405143D02*
X170878571Y-129405143D01*
X171450000Y-129976571D02*
X171450000Y-128833714D01*
X170068571Y-125658571D02*
X170782857Y-125658571D01*
X170782857Y-124158571D01*
X169282857Y-124158571D02*
X168997143Y-124158571D01*
X168854285Y-124230000D01*
X168711428Y-124372857D01*
X168640000Y-124658571D01*
X168640000Y-125158571D01*
X168711428Y-125444286D01*
X168854285Y-125587143D01*
X168997143Y-125658571D01*
X169282857Y-125658571D01*
X169425714Y-125587143D01*
X169568571Y-125444286D01*
X169640000Y-125158571D01*
X169640000Y-124658571D01*
X169568571Y-124372857D01*
X169425714Y-124230000D01*
X169282857Y-124158571D01*
X168068571Y-125230000D02*
X167354285Y-125230000D01*
X168211428Y-125658571D02*
X167711428Y-124158571D01*
X167211428Y-125658571D01*
X166711428Y-125658571D02*
X166711428Y-124158571D01*
X166354285Y-124158571D01*
X166140000Y-124230000D01*
X165997142Y-124372857D01*
X165925714Y-124515714D01*
X165854285Y-124801429D01*
X165854285Y-125015714D01*
X165925714Y-125301429D01*
X165997142Y-125444286D01*
X166140000Y-125587143D01*
X166354285Y-125658571D01*
X166711428Y-125658571D01*
X165282857Y-124301429D02*
X165211428Y-124230000D01*
X165068571Y-124158571D01*
X164711428Y-124158571D01*
X164568571Y-124230000D01*
X164497142Y-124301429D01*
X164425714Y-124444286D01*
X164425714Y-124587143D01*
X164497142Y-124801429D01*
X165354285Y-125658571D01*
X164425714Y-125658571D01*
X126301428Y-129151143D02*
X125158571Y-129151143D01*
X118681428Y-129151143D02*
X117538571Y-129151143D01*
X118110000Y-129722571D02*
X118110000Y-128579714D01*
D11*
X125476000Y-124726000D02*
X127000000Y-124726000D01*
X116840000Y-124980000D02*
X118364000Y-124980000D01*
D12*
X124348571Y-125658571D02*
X125062857Y-125658571D01*
X125062857Y-124158571D01*
X123562857Y-124158571D02*
X123277143Y-124158571D01*
X123134285Y-124230000D01*
X122991428Y-124372857D01*
X122920000Y-124658571D01*
X122920000Y-125158571D01*
X122991428Y-125444286D01*
X123134285Y-125587143D01*
X123277143Y-125658571D01*
X123562857Y-125658571D01*
X123705714Y-125587143D01*
X123848571Y-125444286D01*
X123920000Y-125158571D01*
X123920000Y-124658571D01*
X123848571Y-124372857D01*
X123705714Y-124230000D01*
X123562857Y-124158571D01*
X122348571Y-125230000D02*
X121634285Y-125230000D01*
X122491428Y-125658571D02*
X121991428Y-124158571D01*
X121491428Y-125658571D01*
X120991428Y-125658571D02*
X120991428Y-124158571D01*
X120634285Y-124158571D01*
X120420000Y-124230000D01*
X120277142Y-124372857D01*
X120205714Y-124515714D01*
X120134285Y-124801429D01*
X120134285Y-125015714D01*
X120205714Y-125301429D01*
X120277142Y-125444286D01*
X120420000Y-125587143D01*
X120634285Y-125658571D01*
X120991428Y-125658571D01*
X118705714Y-125658571D02*
X119562857Y-125658571D01*
X119134285Y-125658571D02*
X119134285Y-124158571D01*
X119277142Y-124372857D01*
X119420000Y-124515714D01*
X119562857Y-124587143D01*
D11*
X127000000Y-130568000D02*
X127000000Y-124726000D01*
X116840000Y-130568000D02*
X116840000Y-124980000D01*
M02*
