M48
;DRILL file {KiCad 4.0.6} date 06/30/17 08:32:18
;FORMAT={-:-/ absolute / inch / decimal}
FMAT,2
INCH,TZ
T1C0.039
T2C0.039
T3C0.043
T4C0.051
T5C0.067
T6C0.070
T7C0.079
T8C0.098
%
G90
G05
M72
T1
X4.9Y-4.2205
X5.Y-4.2205
X5.1Y-4.2205
X6.3Y-4.2205
X6.4Y-4.2205
X6.5Y-4.2205
T2
X4.8Y-3.4205
X4.9Y-3.4205
X5.Y-3.4205
X5.1Y-3.4205
X5.2Y-3.4205
X6.2Y-3.4205
X6.3Y-3.4205
X6.4Y-3.4205
X6.5Y-3.4205
X6.6Y-3.4205
T3
X4.6Y-4.7705
X5.Y-4.7705
X6.4Y-4.7705
X6.8Y-4.7705
T4
X4.6Y-5.2087
X4.8Y-5.2087
X5.Y-5.2087
X5.2Y-5.2087
X5.4Y-5.2087
X5.5Y-2.2323
X5.6Y-5.2087
X5.7Y-2.2323
X5.8Y-5.2087
X5.9Y-2.2323
X6.Y-5.2087
X6.2Y-5.2087
X6.4Y-5.2087
X6.6Y-5.2087
X6.8Y-5.2087
T5
X4.93Y-2.8365
X5.068Y-2.8365
X6.33Y-2.8365
X6.468Y-2.8365
T6
X4.71Y-2.1654
X4.71Y-2.2994
X5.1Y-2.1654
X5.1Y-2.2994
X6.3Y-2.1652
X6.3Y-2.2992
X6.69Y-2.1652
X6.69Y-2.2992
T7
X4.75Y-4.0394
X5.25Y-4.0394
X6.15Y-4.0394
X6.65Y-4.0394
T8
X4.65Y-2.7945
X4.65Y-3.4205
X5.35Y-2.7945
X5.35Y-3.4205
X6.05Y-2.7945
X6.05Y-3.4205
X6.75Y-2.7945
X6.75Y-3.4205
T0
M30
