G04 #@! TF.FileFunction,Copper,L2,Bot,Signal*
%FSLAX46Y46*%
G04 Gerber Fmt 4.6, Leading zero omitted, Abs format (unit mm)*
G04 Created by KiCad (PCBNEW 4.0.6) date 06/30/17 08:32:14*
%MOMM*%
%LPD*%
G01*
G04 APERTURE LIST*
%ADD10C,0.100000*%
%ADD11C,0.304800*%
%ADD12R,2.500000X2.500000*%
%ADD13C,2.500000*%
%ADD14R,1.800000X1.800000*%
%ADD15O,1.800000X1.800000*%
%ADD16C,2.921000*%
%ADD17C,3.200000*%
%ADD18C,3.200400*%
%ADD19C,1.778000*%
%ADD20C,2.717800*%
%ADD21C,1.625600*%
%ADD22C,2.362200*%
%ADD23C,0.609600*%
%ADD24C,2.540000*%
%ADD25C,0.812800*%
%ADD26C,0.254000*%
G04 APERTURE END LIST*
D10*
D11*
X112369600Y-101183829D02*
X112311543Y-101067715D01*
X112311543Y-100893544D01*
X112369600Y-100719372D01*
X112485714Y-100603258D01*
X112601829Y-100545201D01*
X112834057Y-100487144D01*
X113008229Y-100487144D01*
X113240457Y-100545201D01*
X113356571Y-100603258D01*
X113472686Y-100719372D01*
X113530743Y-100893544D01*
X113530743Y-101009658D01*
X113472686Y-101183829D01*
X113414629Y-101241886D01*
X113008229Y-101241886D01*
X113008229Y-101009658D01*
X112311543Y-101590229D02*
X112311543Y-102286915D01*
X113530743Y-101938572D02*
X112311543Y-101938572D01*
X113414629Y-103390000D02*
X113472686Y-103331943D01*
X113530743Y-103157772D01*
X113530743Y-103041658D01*
X113472686Y-102867486D01*
X113356571Y-102751372D01*
X113240457Y-102693315D01*
X113008229Y-102635258D01*
X112834057Y-102635258D01*
X112601829Y-102693315D01*
X112485714Y-102751372D01*
X112369600Y-102867486D01*
X112311543Y-103041658D01*
X112311543Y-103157772D01*
X112369600Y-103331943D01*
X112427657Y-103390000D01*
X113646857Y-103622229D02*
X113646857Y-104551143D01*
X112311543Y-105073657D02*
X112311543Y-105189772D01*
X112369600Y-105305886D01*
X112427657Y-105363943D01*
X112543771Y-105422000D01*
X112776000Y-105480057D01*
X113066286Y-105480057D01*
X113298514Y-105422000D01*
X113414629Y-105363943D01*
X113472686Y-105305886D01*
X113530743Y-105189772D01*
X113530743Y-105073657D01*
X113472686Y-104957543D01*
X113414629Y-104899486D01*
X113298514Y-104841429D01*
X113066286Y-104783372D01*
X112776000Y-104783372D01*
X112543771Y-104841429D01*
X112427657Y-104899486D01*
X112369600Y-104957543D01*
X112311543Y-105073657D01*
X112311543Y-105886457D02*
X112311543Y-106641200D01*
X112776000Y-106234800D01*
X112776000Y-106408972D01*
X112834057Y-106525086D01*
X112892114Y-106583143D01*
X113008229Y-106641200D01*
X113298514Y-106641200D01*
X113414629Y-106583143D01*
X113472686Y-106525086D01*
X113530743Y-106408972D01*
X113530743Y-106060629D01*
X113472686Y-105944515D01*
X113414629Y-105886457D01*
X113646857Y-106873429D02*
X113646857Y-107802343D01*
X113530743Y-108092629D02*
X112311543Y-108092629D01*
X112892114Y-108092629D02*
X112892114Y-108789314D01*
X113530743Y-108789314D02*
X112311543Y-108789314D01*
X112311543Y-109195714D02*
X112311543Y-109892400D01*
X113530743Y-109544057D02*
X112311543Y-109544057D01*
X113530743Y-110995485D02*
X112950171Y-110589085D01*
X113530743Y-110298800D02*
X112311543Y-110298800D01*
X112311543Y-110763257D01*
X112369600Y-110879371D01*
X112427657Y-110937428D01*
X112543771Y-110995485D01*
X112717943Y-110995485D01*
X112834057Y-110937428D01*
X112892114Y-110879371D01*
X112950171Y-110763257D01*
X112950171Y-110298800D01*
X113646857Y-111227714D02*
X113646857Y-112156628D01*
X113530743Y-113143599D02*
X112950171Y-112737199D01*
X113530743Y-112446914D02*
X112311543Y-112446914D01*
X112311543Y-112911371D01*
X112369600Y-113027485D01*
X112427657Y-113085542D01*
X112543771Y-113143599D01*
X112717943Y-113143599D01*
X112834057Y-113085542D01*
X112892114Y-113027485D01*
X112950171Y-112911371D01*
X112950171Y-112446914D01*
X112892114Y-113666114D02*
X112892114Y-114072514D01*
X113530743Y-114246685D02*
X113530743Y-113666114D01*
X112311543Y-113666114D01*
X112311543Y-114246685D01*
X112311543Y-114595028D02*
X113530743Y-115001428D01*
X112311543Y-115407828D01*
X113530743Y-116452857D02*
X113530743Y-115756172D01*
X113530743Y-116104514D02*
X112311543Y-116104514D01*
X112485714Y-115988400D01*
X112601829Y-115872286D01*
X112659886Y-115756172D01*
X114445143Y-103767371D02*
X114445143Y-104522114D01*
X114909600Y-104115714D01*
X114909600Y-104289886D01*
X114967657Y-104406000D01*
X115025714Y-104464057D01*
X115141829Y-104522114D01*
X115432114Y-104522114D01*
X115548229Y-104464057D01*
X115606286Y-104406000D01*
X115664343Y-104289886D01*
X115664343Y-103941543D01*
X115606286Y-103825429D01*
X115548229Y-103767371D01*
X115664343Y-105218800D02*
X115606286Y-105102686D01*
X115548229Y-105044629D01*
X115432114Y-104986572D01*
X115083771Y-104986572D01*
X114967657Y-105044629D01*
X114909600Y-105102686D01*
X114851543Y-105218800D01*
X114851543Y-105392972D01*
X114909600Y-105509086D01*
X114967657Y-105567143D01*
X115083771Y-105625200D01*
X115432114Y-105625200D01*
X115548229Y-105567143D01*
X115606286Y-105509086D01*
X115664343Y-105392972D01*
X115664343Y-105218800D01*
X114851543Y-106031600D02*
X114851543Y-106670229D01*
X115664343Y-106031600D01*
X115664343Y-106670229D01*
X114387086Y-108934457D02*
X115954629Y-107889428D01*
X115664343Y-110908399D02*
X115664343Y-110211714D01*
X115664343Y-110560056D02*
X114445143Y-110560056D01*
X114619314Y-110443942D01*
X114735429Y-110327828D01*
X114793486Y-110211714D01*
X114445143Y-111663142D02*
X114445143Y-111779257D01*
X114503200Y-111895371D01*
X114561257Y-111953428D01*
X114677371Y-112011485D01*
X114909600Y-112069542D01*
X115199886Y-112069542D01*
X115432114Y-112011485D01*
X115548229Y-111953428D01*
X115606286Y-111895371D01*
X115664343Y-111779257D01*
X115664343Y-111663142D01*
X115606286Y-111547028D01*
X115548229Y-111488971D01*
X115432114Y-111430914D01*
X115199886Y-111372857D01*
X114909600Y-111372857D01*
X114677371Y-111430914D01*
X114561257Y-111488971D01*
X114503200Y-111547028D01*
X114445143Y-111663142D01*
X115316000Y-112534000D02*
X115316000Y-113114571D01*
X115664343Y-112417885D02*
X114445143Y-112824285D01*
X115664343Y-113230685D01*
X112942914Y-52415830D02*
X113000971Y-52590001D01*
X113059029Y-52648058D01*
X113175143Y-52706115D01*
X113349314Y-52706115D01*
X113465429Y-52648058D01*
X113523486Y-52590001D01*
X113581543Y-52473887D01*
X113581543Y-52009430D01*
X112362343Y-52009430D01*
X112362343Y-52415830D01*
X112420400Y-52531944D01*
X112478457Y-52590001D01*
X112594571Y-52648058D01*
X112710686Y-52648058D01*
X112826800Y-52590001D01*
X112884857Y-52531944D01*
X112942914Y-52415830D01*
X112942914Y-52009430D01*
X112362343Y-53460858D02*
X112362343Y-53693087D01*
X112420400Y-53809201D01*
X112536514Y-53925315D01*
X112768743Y-53983373D01*
X113175143Y-53983373D01*
X113407371Y-53925315D01*
X113523486Y-53809201D01*
X113581543Y-53693087D01*
X113581543Y-53460858D01*
X113523486Y-53344744D01*
X113407371Y-53228630D01*
X113175143Y-53170573D01*
X112768743Y-53170573D01*
X112536514Y-53228630D01*
X112420400Y-53344744D01*
X112362343Y-53460858D01*
X112362343Y-54331715D02*
X112362343Y-55028401D01*
X113581543Y-54680058D02*
X112362343Y-54680058D01*
X113581543Y-56363715D02*
X112362343Y-56363715D01*
X112362343Y-56654000D01*
X112420400Y-56828172D01*
X112536514Y-56944286D01*
X112652629Y-57002343D01*
X112884857Y-57060400D01*
X113059029Y-57060400D01*
X113291257Y-57002343D01*
X113407371Y-56944286D01*
X113523486Y-56828172D01*
X113581543Y-56654000D01*
X113581543Y-56363715D01*
X113465429Y-57582915D02*
X113523486Y-57640972D01*
X113581543Y-57582915D01*
X113523486Y-57524858D01*
X113465429Y-57582915D01*
X113581543Y-57582915D01*
X112420400Y-58802114D02*
X112362343Y-58686000D01*
X112362343Y-58511829D01*
X112420400Y-58337657D01*
X112536514Y-58221543D01*
X112652629Y-58163486D01*
X112884857Y-58105429D01*
X113059029Y-58105429D01*
X113291257Y-58163486D01*
X113407371Y-58221543D01*
X113523486Y-58337657D01*
X113581543Y-58511829D01*
X113581543Y-58627943D01*
X113523486Y-58802114D01*
X113465429Y-58860171D01*
X113059029Y-58860171D01*
X113059029Y-58627943D01*
X113581543Y-59382686D02*
X112362343Y-59382686D01*
X113581543Y-60079371D01*
X112362343Y-60079371D01*
X113581543Y-60659943D02*
X112362343Y-60659943D01*
X112362343Y-60950228D01*
X112420400Y-61124400D01*
X112536514Y-61240514D01*
X112652629Y-61298571D01*
X112884857Y-61356628D01*
X113059029Y-61356628D01*
X113291257Y-61298571D01*
X113407371Y-61240514D01*
X113523486Y-61124400D01*
X113581543Y-60950228D01*
X113581543Y-60659943D01*
D12*
X132080000Y-132300000D03*
D13*
X137160000Y-132300000D03*
X142240000Y-132300000D03*
D12*
X147320000Y-132300000D03*
D13*
X152400000Y-132300000D03*
X157480000Y-132300000D03*
D12*
X149860000Y-56700000D03*
D13*
X144780000Y-56700000D03*
X139700000Y-56700000D03*
D12*
X116840000Y-132300000D03*
D13*
X121920000Y-132300000D03*
X127000000Y-132300000D03*
D12*
X162560000Y-132300000D03*
D13*
X167640000Y-132300000D03*
X172720000Y-132300000D03*
D14*
X124460000Y-107200000D03*
D15*
X127000000Y-107200000D03*
X129540000Y-107200000D03*
D14*
X160020000Y-107200000D03*
D15*
X162560000Y-107200000D03*
X165100000Y-107200000D03*
D16*
X129540000Y-55000000D03*
X119634000Y-55000000D03*
X129540000Y-58403600D03*
X119634000Y-58403600D03*
X160020000Y-58400000D03*
X169926000Y-58400000D03*
X160020000Y-54996400D03*
X169926000Y-54996400D03*
D17*
X120650000Y-102600000D03*
X133350000Y-102600000D03*
X156210000Y-102600000D03*
X168910000Y-102600000D03*
D12*
X116840000Y-121170000D03*
D13*
X127000000Y-121170000D03*
D12*
X172720000Y-121170000D03*
D13*
X162560000Y-121170000D03*
D18*
X135890000Y-86880000D03*
X135890000Y-70979600D03*
X118110000Y-70979600D03*
D19*
X121920000Y-86880000D03*
X124460000Y-86880000D03*
X127000000Y-86880000D03*
X129540000Y-86880000D03*
X132080000Y-86880000D03*
D20*
X128727200Y-72046400D03*
X125222000Y-72046400D03*
D18*
X118110000Y-86880000D03*
X171450000Y-86880000D03*
X171450000Y-70979600D03*
X153670000Y-70979600D03*
D19*
X157480000Y-86880000D03*
X160020000Y-86880000D03*
X162560000Y-86880000D03*
X165100000Y-86880000D03*
X167640000Y-86880000D03*
D20*
X164287200Y-72046400D03*
X160782000Y-72046400D03*
D18*
X153670000Y-86880000D03*
D21*
X127000000Y-107200000D02*
X127000000Y-109740000D01*
D22*
X127000000Y-109740000D02*
X127000000Y-121170000D01*
X127000000Y-132300000D02*
X127000000Y-121170000D01*
D21*
X162560000Y-107200000D02*
X162560000Y-109740000D01*
D22*
X162560000Y-109740000D02*
X162560000Y-121170000D01*
X162560000Y-132300000D02*
X162560000Y-121170000D01*
D23*
X132080000Y-86880000D02*
X132080000Y-85610000D01*
X132080000Y-85610000D02*
X134620000Y-83070000D01*
X134620000Y-83070000D02*
X137160000Y-83070000D01*
X137160000Y-83070000D02*
X139700000Y-85610000D01*
X139700000Y-85610000D02*
X139700000Y-129760000D01*
X139700000Y-129760000D02*
X137160000Y-132300000D01*
X167640000Y-86880000D02*
X167640000Y-91325000D01*
X167640000Y-91325000D02*
X165735000Y-93230000D01*
X165735000Y-93230000D02*
X154305000Y-93230000D01*
X154305000Y-93230000D02*
X152400000Y-95135000D01*
X152400000Y-95135000D02*
X152400000Y-132300000D01*
D21*
X129540000Y-105295000D02*
X129540000Y-107200000D01*
D22*
X129540000Y-98310000D02*
X129540000Y-105295000D01*
X127000000Y-95770000D02*
X129540000Y-98310000D01*
X117475000Y-95770000D02*
X127000000Y-95770000D01*
X142240000Y-64020000D02*
X144780000Y-61480000D01*
X142240000Y-64020000D02*
X137460000Y-64020000D01*
X114300000Y-88150000D02*
X114300000Y-92595000D01*
X114300000Y-92595000D02*
X117475000Y-95770000D01*
X116840000Y-64020000D02*
X137460000Y-64020000D01*
X114300000Y-66560000D02*
X116840000Y-64020000D01*
X114300000Y-88150000D02*
X114300000Y-66560000D01*
D21*
X165100000Y-107200000D02*
X167640000Y-107200000D01*
D22*
X167640000Y-107200000D02*
X171450000Y-107200000D01*
X152100000Y-64020000D02*
X147320000Y-64020000D01*
X147320000Y-64020000D02*
X144780000Y-61480000D01*
X172720000Y-64020000D02*
X152100000Y-64020000D01*
X175260000Y-66560000D02*
X172720000Y-64020000D01*
X175260000Y-103390000D02*
X175260000Y-66560000D01*
X171450000Y-107200000D02*
X175260000Y-103390000D01*
D24*
X144780000Y-56700000D02*
X144780000Y-61480000D01*
D21*
X144780000Y-56700000D02*
X145080000Y-56700000D01*
D25*
X142240000Y-132300000D02*
X142240000Y-79260000D01*
X121920000Y-86880000D02*
X121920000Y-81800000D01*
X157480000Y-81800000D02*
X157480000Y-86880000D01*
X154940000Y-79260000D02*
X157480000Y-81800000D01*
X124460000Y-79260000D02*
X142240000Y-79260000D01*
X142240000Y-79260000D02*
X154940000Y-79260000D01*
X121920000Y-81800000D02*
X124460000Y-79260000D01*
D26*
G36*
X177970000Y-137240000D02*
X111590000Y-137240000D01*
X111590000Y-131050000D01*
X114951928Y-131050000D01*
X114951928Y-133550000D01*
X114959992Y-133651121D01*
X115013106Y-133822634D01*
X115111900Y-133972559D01*
X115248550Y-134089025D01*
X115412237Y-134162810D01*
X115590000Y-134188072D01*
X118090000Y-134188072D01*
X118191121Y-134180008D01*
X118362634Y-134126894D01*
X118512559Y-134028100D01*
X118629025Y-133891450D01*
X118702810Y-133727763D01*
X118728072Y-133550000D01*
X118728072Y-132458496D01*
X120032522Y-132458496D01*
X120099254Y-132822091D01*
X120235338Y-133165799D01*
X120435590Y-133476529D01*
X120692382Y-133742446D01*
X120995935Y-133953420D01*
X121334684Y-134101416D01*
X121695729Y-134180797D01*
X122065315Y-134188539D01*
X122429367Y-134124346D01*
X122774017Y-133990666D01*
X123086137Y-133792588D01*
X123353840Y-133537658D01*
X123566929Y-133235586D01*
X123717286Y-132897877D01*
X123799185Y-132537396D01*
X123805081Y-132115166D01*
X123733279Y-131752539D01*
X123592410Y-131410764D01*
X123387839Y-131102860D01*
X123127358Y-130840555D01*
X122820890Y-130633839D01*
X122480107Y-130490587D01*
X122117990Y-130416255D01*
X121748331Y-130413674D01*
X121385211Y-130482943D01*
X121042461Y-130621423D01*
X120733137Y-130823840D01*
X120469019Y-131082482D01*
X120260169Y-131387500D01*
X120114542Y-131727275D01*
X120037683Y-132088864D01*
X120032522Y-132458496D01*
X118728072Y-132458496D01*
X118728072Y-131050000D01*
X118720008Y-130948879D01*
X118666894Y-130777366D01*
X118568100Y-130627441D01*
X118431450Y-130510975D01*
X118267763Y-130437190D01*
X118090000Y-130411928D01*
X115590000Y-130411928D01*
X115488879Y-130419992D01*
X115317366Y-130473106D01*
X115167441Y-130571900D01*
X115050975Y-130708550D01*
X114977190Y-130872237D01*
X114951928Y-131050000D01*
X111590000Y-131050000D01*
X111590000Y-119920000D01*
X114951928Y-119920000D01*
X114951928Y-122420000D01*
X114959992Y-122521121D01*
X115013106Y-122692634D01*
X115111900Y-122842559D01*
X115248550Y-122959025D01*
X115412237Y-123032810D01*
X115590000Y-123058072D01*
X118090000Y-123058072D01*
X118191121Y-123050008D01*
X118362634Y-122996894D01*
X118512559Y-122898100D01*
X118629025Y-122761450D01*
X118702810Y-122597763D01*
X118728072Y-122420000D01*
X118728072Y-119920000D01*
X118720008Y-119818879D01*
X118666894Y-119647366D01*
X118568100Y-119497441D01*
X118431450Y-119380975D01*
X118267763Y-119307190D01*
X118090000Y-119281928D01*
X115590000Y-119281928D01*
X115488879Y-119289992D01*
X115317366Y-119343106D01*
X115167441Y-119441900D01*
X115050975Y-119578550D01*
X114977190Y-119742237D01*
X114951928Y-119920000D01*
X111590000Y-119920000D01*
X111590000Y-117320085D01*
X116875560Y-117320085D01*
X116875560Y-102787925D01*
X118412062Y-102787925D01*
X118491185Y-103219030D01*
X118652536Y-103626557D01*
X118889970Y-103994982D01*
X119194443Y-104310273D01*
X119554358Y-104560421D01*
X119956005Y-104735896D01*
X120384087Y-104830016D01*
X120822297Y-104839195D01*
X121253944Y-104763084D01*
X121662587Y-104604582D01*
X122032661Y-104369726D01*
X122350070Y-104067461D01*
X122602724Y-103709302D01*
X122780999Y-103308889D01*
X122878105Y-102881475D01*
X122885096Y-102380847D01*
X122799962Y-101950888D01*
X122632936Y-101545654D01*
X122390381Y-101180580D01*
X122081536Y-100869571D01*
X121718164Y-100624473D01*
X121314105Y-100454622D01*
X120884751Y-100366489D01*
X120446456Y-100363429D01*
X120015914Y-100445559D01*
X119609523Y-100609752D01*
X119242764Y-100849752D01*
X118929607Y-101156419D01*
X118681978Y-101518071D01*
X118509311Y-101920933D01*
X118418182Y-102349662D01*
X118412062Y-102787925D01*
X116875560Y-102787925D01*
X116875560Y-99619914D01*
X111590000Y-99619914D01*
X111590000Y-66560000D01*
X112483900Y-66560000D01*
X112483900Y-92595000D01*
X112500269Y-92761941D01*
X112514891Y-92929074D01*
X112517555Y-92938243D01*
X112518487Y-92947749D01*
X112566979Y-93108363D01*
X112613777Y-93269441D01*
X112618172Y-93277919D01*
X112620932Y-93287062D01*
X112699696Y-93435195D01*
X112776891Y-93584119D01*
X112782849Y-93591582D01*
X112787332Y-93600014D01*
X112893340Y-93729992D01*
X112998018Y-93861121D01*
X113011132Y-93874420D01*
X113011349Y-93874686D01*
X113011596Y-93874890D01*
X113015823Y-93879177D01*
X116190823Y-97054177D01*
X116320453Y-97160656D01*
X116448963Y-97268489D01*
X116457332Y-97273090D01*
X116464711Y-97279151D01*
X116612538Y-97358415D01*
X116759562Y-97439242D01*
X116768666Y-97442130D01*
X116777081Y-97446642D01*
X116937480Y-97495681D01*
X117097412Y-97546414D01*
X117106904Y-97547479D01*
X117116034Y-97550270D01*
X117282860Y-97567215D01*
X117449643Y-97585923D01*
X117468320Y-97586053D01*
X117468661Y-97586088D01*
X117468979Y-97586058D01*
X117475000Y-97586100D01*
X126247746Y-97586100D01*
X127723900Y-99062253D01*
X127723900Y-105295000D01*
X127758487Y-105647749D01*
X127838794Y-105913738D01*
X127612128Y-105789127D01*
X127326571Y-105698543D01*
X127028859Y-105665150D01*
X127007427Y-105665000D01*
X126992573Y-105665000D01*
X126694423Y-105694234D01*
X126407630Y-105780822D01*
X126143117Y-105921466D01*
X125952295Y-106077097D01*
X125936894Y-106027366D01*
X125838100Y-105877441D01*
X125701450Y-105760975D01*
X125537763Y-105687190D01*
X125360000Y-105661928D01*
X123560000Y-105661928D01*
X123458879Y-105669992D01*
X123287366Y-105723106D01*
X123137441Y-105821900D01*
X123020975Y-105958550D01*
X122947190Y-106122237D01*
X122921928Y-106300000D01*
X122921928Y-108100000D01*
X122929992Y-108201121D01*
X122983106Y-108372634D01*
X123081900Y-108522559D01*
X123218550Y-108639025D01*
X123382237Y-108712810D01*
X123560000Y-108738072D01*
X125360000Y-108738072D01*
X125461121Y-108730008D01*
X125499168Y-108718226D01*
X125330758Y-109024562D01*
X125223586Y-109362412D01*
X125184077Y-109714643D01*
X125183900Y-109740000D01*
X125183900Y-120647341D01*
X125117683Y-120958864D01*
X125112522Y-121328496D01*
X125179254Y-121692091D01*
X125183900Y-121703825D01*
X125183900Y-131777341D01*
X125117683Y-132088864D01*
X125112522Y-132458496D01*
X125179254Y-132822091D01*
X125315338Y-133165799D01*
X125515590Y-133476529D01*
X125772382Y-133742446D01*
X126075935Y-133953420D01*
X126414684Y-134101416D01*
X126775729Y-134180797D01*
X127145315Y-134188539D01*
X127509367Y-134124346D01*
X127854017Y-133990666D01*
X128166137Y-133792588D01*
X128433840Y-133537658D01*
X128646929Y-133235586D01*
X128797286Y-132897877D01*
X128879185Y-132537396D01*
X128885081Y-132115166D01*
X128816100Y-131766786D01*
X128816100Y-131050000D01*
X130191928Y-131050000D01*
X130191928Y-133550000D01*
X130199992Y-133651121D01*
X130253106Y-133822634D01*
X130351900Y-133972559D01*
X130488550Y-134089025D01*
X130652237Y-134162810D01*
X130830000Y-134188072D01*
X133330000Y-134188072D01*
X133431121Y-134180008D01*
X133602634Y-134126894D01*
X133752559Y-134028100D01*
X133869025Y-133891450D01*
X133942810Y-133727763D01*
X133968072Y-133550000D01*
X133968072Y-131050000D01*
X133960008Y-130948879D01*
X133906894Y-130777366D01*
X133808100Y-130627441D01*
X133671450Y-130510975D01*
X133507763Y-130437190D01*
X133330000Y-130411928D01*
X130830000Y-130411928D01*
X130728879Y-130419992D01*
X130557366Y-130473106D01*
X130407441Y-130571900D01*
X130290975Y-130708550D01*
X130217190Y-130872237D01*
X130191928Y-131050000D01*
X128816100Y-131050000D01*
X128816100Y-121685067D01*
X128879185Y-121407396D01*
X128885081Y-120985166D01*
X128816100Y-120636786D01*
X128816100Y-109740000D01*
X128781513Y-109387251D01*
X128679068Y-109047938D01*
X128512668Y-108734986D01*
X128447800Y-108655450D01*
X128447800Y-108284004D01*
X128665349Y-108466549D01*
X128927872Y-108610873D01*
X129213429Y-108701457D01*
X129511141Y-108734850D01*
X129532573Y-108735000D01*
X129547427Y-108735000D01*
X129845577Y-108705766D01*
X130132370Y-108619178D01*
X130396883Y-108478534D01*
X130629041Y-108289191D01*
X130820000Y-108058361D01*
X130962487Y-107794836D01*
X131051075Y-107508655D01*
X131082390Y-107210716D01*
X131055238Y-106912370D01*
X130987800Y-106683236D01*
X130987800Y-106381446D01*
X131038489Y-106321037D01*
X131209242Y-106010438D01*
X131316414Y-105672588D01*
X131355923Y-105320357D01*
X131356100Y-105295000D01*
X131356100Y-103632087D01*
X131589970Y-103994982D01*
X131894443Y-104310273D01*
X132254358Y-104560421D01*
X132656005Y-104735896D01*
X133084087Y-104830016D01*
X133522297Y-104839195D01*
X133953944Y-104763084D01*
X134362587Y-104604582D01*
X134732661Y-104369726D01*
X135050070Y-104067461D01*
X135302724Y-103709302D01*
X135480999Y-103308889D01*
X135578105Y-102881475D01*
X135585096Y-102380847D01*
X135499962Y-101950888D01*
X135332936Y-101545654D01*
X135090381Y-101180580D01*
X134781536Y-100869571D01*
X134418164Y-100624473D01*
X134014105Y-100454622D01*
X133584751Y-100366489D01*
X133146456Y-100363429D01*
X132715914Y-100445559D01*
X132309523Y-100609752D01*
X131942764Y-100849752D01*
X131629607Y-101156419D01*
X131381978Y-101518071D01*
X131356100Y-101578449D01*
X131356100Y-98310000D01*
X131339732Y-98143063D01*
X131325109Y-97975926D01*
X131322445Y-97966756D01*
X131321513Y-97957251D01*
X131273025Y-97796650D01*
X131226223Y-97635558D01*
X131221828Y-97627079D01*
X131219068Y-97617938D01*
X131140325Y-97469844D01*
X131063109Y-97320880D01*
X131057150Y-97313415D01*
X131052668Y-97304986D01*
X130946673Y-97175023D01*
X130841981Y-97043878D01*
X130828872Y-97030585D01*
X130828651Y-97030314D01*
X130828400Y-97030107D01*
X130824176Y-97025823D01*
X128284177Y-94485823D01*
X128154547Y-94379344D01*
X128026037Y-94271511D01*
X128017668Y-94266910D01*
X128010289Y-94260849D01*
X127862462Y-94181585D01*
X127715438Y-94100758D01*
X127706334Y-94097870D01*
X127697919Y-94093358D01*
X127537520Y-94044319D01*
X127377588Y-93993586D01*
X127368096Y-93992521D01*
X127358966Y-93989730D01*
X127192095Y-93972780D01*
X127025357Y-93954077D01*
X127006690Y-93953947D01*
X127006339Y-93953911D01*
X127006011Y-93953942D01*
X127000000Y-93953900D01*
X118227254Y-93953900D01*
X116116100Y-91842746D01*
X116116100Y-87912457D01*
X116349813Y-88275107D01*
X116654313Y-88590426D01*
X117014260Y-88840596D01*
X117415943Y-89016087D01*
X117844063Y-89110215D01*
X118282312Y-89119395D01*
X118713998Y-89043278D01*
X119122678Y-88884761D01*
X119492785Y-88649884D01*
X119810222Y-88347592D01*
X120062899Y-87989401D01*
X120241190Y-87588952D01*
X120338305Y-87161500D01*
X120340446Y-87008142D01*
X120393997Y-87008142D01*
X120447949Y-87302104D01*
X120557971Y-87579988D01*
X120719872Y-87831210D01*
X120927486Y-88046200D01*
X121172904Y-88216770D01*
X121446779Y-88336423D01*
X121738679Y-88400602D01*
X122037486Y-88406861D01*
X122331817Y-88354962D01*
X122610462Y-88246883D01*
X122862808Y-88086739D01*
X123020857Y-87936231D01*
X123583374Y-87936231D01*
X123665727Y-88189289D01*
X123936418Y-88319086D01*
X124227230Y-88393580D01*
X124526988Y-88409908D01*
X124824171Y-88367443D01*
X125107359Y-88267816D01*
X125254273Y-88189289D01*
X125336626Y-87936231D01*
X124460000Y-87059605D01*
X123583374Y-87936231D01*
X123020857Y-87936231D01*
X123079243Y-87880631D01*
X123210977Y-87693886D01*
X123403769Y-87756626D01*
X124280395Y-86880000D01*
X124639605Y-86880000D01*
X125516231Y-87756626D01*
X125710965Y-87693253D01*
X125799872Y-87831210D01*
X126007486Y-88046200D01*
X126252904Y-88216770D01*
X126526779Y-88336423D01*
X126818679Y-88400602D01*
X127117486Y-88406861D01*
X127411817Y-88354962D01*
X127690462Y-88246883D01*
X127942808Y-88086739D01*
X128159243Y-87880631D01*
X128270281Y-87723225D01*
X128339872Y-87831210D01*
X128547486Y-88046200D01*
X128792904Y-88216770D01*
X129066779Y-88336423D01*
X129358679Y-88400602D01*
X129657486Y-88406861D01*
X129951817Y-88354962D01*
X130230462Y-88246883D01*
X130482808Y-88086739D01*
X130699243Y-87880631D01*
X130810281Y-87723225D01*
X130879872Y-87831210D01*
X131087486Y-88046200D01*
X131332904Y-88216770D01*
X131606779Y-88336423D01*
X131898679Y-88400602D01*
X132197486Y-88406861D01*
X132491817Y-88354962D01*
X132770462Y-88246883D01*
X133022808Y-88086739D01*
X133239243Y-87880631D01*
X133411522Y-87636410D01*
X133533084Y-87363377D01*
X133599299Y-87071932D01*
X133599354Y-87067942D01*
X133651862Y-87067942D01*
X133730992Y-87499086D01*
X133892357Y-87906649D01*
X134129813Y-88275107D01*
X134434313Y-88590426D01*
X134794260Y-88840596D01*
X135195943Y-89016087D01*
X135624063Y-89110215D01*
X136062312Y-89119395D01*
X136493998Y-89043278D01*
X136902678Y-88884761D01*
X137272785Y-88649884D01*
X137590222Y-88347592D01*
X137842899Y-87989401D01*
X138021190Y-87588952D01*
X138118305Y-87161500D01*
X138125296Y-86660827D01*
X138040154Y-86230830D01*
X137873114Y-85825560D01*
X137630537Y-85460453D01*
X137321664Y-85149416D01*
X136958259Y-84904296D01*
X136554165Y-84734430D01*
X136124772Y-84646289D01*
X135686438Y-84643229D01*
X135255857Y-84725366D01*
X134849430Y-84889573D01*
X134482638Y-85129595D01*
X134169453Y-85436289D01*
X133921802Y-85797974D01*
X133749119Y-86200873D01*
X133657982Y-86629639D01*
X133651862Y-87067942D01*
X133599354Y-87067942D01*
X133604065Y-86730564D01*
X133546014Y-86437384D01*
X133432123Y-86161063D01*
X133266730Y-85912127D01*
X133187119Y-85831959D01*
X135009278Y-84009800D01*
X136770722Y-84009800D01*
X138760200Y-85999278D01*
X138760200Y-129370722D01*
X137653921Y-130477001D01*
X137357990Y-130416255D01*
X136988331Y-130413674D01*
X136625211Y-130482943D01*
X136282461Y-130621423D01*
X135973137Y-130823840D01*
X135709019Y-131082482D01*
X135500169Y-131387500D01*
X135354542Y-131727275D01*
X135277683Y-132088864D01*
X135272522Y-132458496D01*
X135339254Y-132822091D01*
X135475338Y-133165799D01*
X135675590Y-133476529D01*
X135932382Y-133742446D01*
X136235935Y-133953420D01*
X136574684Y-134101416D01*
X136935729Y-134180797D01*
X137305315Y-134188539D01*
X137669367Y-134124346D01*
X138014017Y-133990666D01*
X138326137Y-133792588D01*
X138593840Y-133537658D01*
X138806929Y-133235586D01*
X138957286Y-132897877D01*
X139039185Y-132537396D01*
X139045081Y-132115166D01*
X138983735Y-131805343D01*
X140364539Y-130424539D01*
X140419636Y-130357463D01*
X140475442Y-130290956D01*
X140477823Y-130286625D01*
X140480959Y-130282807D01*
X140521963Y-130206334D01*
X140563803Y-130130227D01*
X140565298Y-130125514D01*
X140567632Y-130121161D01*
X140592999Y-130038188D01*
X140619263Y-129955395D01*
X140619814Y-129950482D01*
X140621258Y-129945759D01*
X140630029Y-129859416D01*
X140639708Y-129773122D01*
X140639776Y-129763461D01*
X140639794Y-129763281D01*
X140639778Y-129763114D01*
X140639800Y-129760000D01*
X140639800Y-85610000D01*
X140631328Y-85523594D01*
X140623763Y-85437122D01*
X140622384Y-85432376D01*
X140621902Y-85427459D01*
X140596816Y-85344373D01*
X140572591Y-85260989D01*
X140570316Y-85256601D01*
X140568888Y-85251870D01*
X140528136Y-85175227D01*
X140488182Y-85098148D01*
X140485099Y-85094285D01*
X140482779Y-85089923D01*
X140427905Y-85022640D01*
X140373752Y-84954804D01*
X140366971Y-84947928D01*
X140366855Y-84947785D01*
X140366723Y-84947676D01*
X140364539Y-84945461D01*
X137824539Y-82405461D01*
X137757463Y-82350364D01*
X137690956Y-82294558D01*
X137686625Y-82292177D01*
X137682807Y-82289041D01*
X137606317Y-82248028D01*
X137530227Y-82206197D01*
X137525516Y-82204702D01*
X137521160Y-82202367D01*
X137438169Y-82176994D01*
X137355395Y-82150737D01*
X137350480Y-82150186D01*
X137345758Y-82148742D01*
X137259421Y-82139972D01*
X137173122Y-82130292D01*
X137163461Y-82130224D01*
X137163281Y-82130206D01*
X137163114Y-82130222D01*
X137160000Y-82130200D01*
X134620000Y-82130200D01*
X134533594Y-82138672D01*
X134447122Y-82146237D01*
X134442376Y-82147616D01*
X134437459Y-82148098D01*
X134354373Y-82173184D01*
X134270989Y-82197409D01*
X134266601Y-82199684D01*
X134261870Y-82201112D01*
X134185227Y-82241864D01*
X134108148Y-82281818D01*
X134104285Y-82284901D01*
X134099923Y-82287221D01*
X134032640Y-82342095D01*
X133964804Y-82396248D01*
X133957928Y-82403029D01*
X133957785Y-82403145D01*
X133957676Y-82403277D01*
X133955461Y-82405461D01*
X131415461Y-84945461D01*
X131360364Y-85012537D01*
X131304558Y-85079044D01*
X131302177Y-85083375D01*
X131299041Y-85087193D01*
X131258028Y-85163683D01*
X131216197Y-85239773D01*
X131214702Y-85244484D01*
X131212367Y-85248840D01*
X131186994Y-85331831D01*
X131160737Y-85414605D01*
X131160186Y-85419520D01*
X131158742Y-85424242D01*
X131149972Y-85510579D01*
X131140292Y-85596878D01*
X131140224Y-85606539D01*
X131140206Y-85606719D01*
X131140222Y-85606886D01*
X131140200Y-85610000D01*
X131140200Y-85673608D01*
X131120435Y-85686542D01*
X130906899Y-85895652D01*
X130809903Y-86037312D01*
X130726730Y-85912127D01*
X130516135Y-85700056D01*
X130268359Y-85532929D01*
X129992840Y-85417112D01*
X129700072Y-85357015D01*
X129401208Y-85354929D01*
X129107630Y-85410932D01*
X128830520Y-85522891D01*
X128580435Y-85686542D01*
X128366899Y-85895652D01*
X128269903Y-86037312D01*
X128186730Y-85912127D01*
X127976135Y-85700056D01*
X127728359Y-85532929D01*
X127452840Y-85417112D01*
X127160072Y-85357015D01*
X126861208Y-85354929D01*
X126567630Y-85410932D01*
X126290520Y-85522891D01*
X126040435Y-85686542D01*
X125826899Y-85895652D01*
X125709970Y-86066423D01*
X125516231Y-86003374D01*
X124639605Y-86880000D01*
X124280395Y-86880000D01*
X123403769Y-86003374D01*
X123209384Y-86066633D01*
X123106730Y-85912127D01*
X123018988Y-85823769D01*
X123583374Y-85823769D01*
X124460000Y-86700395D01*
X125336626Y-85823769D01*
X125254273Y-85570711D01*
X124983582Y-85440914D01*
X124692770Y-85366420D01*
X124393012Y-85350092D01*
X124095829Y-85392557D01*
X123812641Y-85492184D01*
X123665727Y-85570711D01*
X123583374Y-85823769D01*
X123018988Y-85823769D01*
X122961400Y-85765778D01*
X122961400Y-82231362D01*
X124891362Y-80301400D01*
X141198600Y-80301400D01*
X141198600Y-130728651D01*
X141053137Y-130823840D01*
X140789019Y-131082482D01*
X140580169Y-131387500D01*
X140434542Y-131727275D01*
X140357683Y-132088864D01*
X140352522Y-132458496D01*
X140419254Y-132822091D01*
X140555338Y-133165799D01*
X140755590Y-133476529D01*
X141012382Y-133742446D01*
X141315935Y-133953420D01*
X141654684Y-134101416D01*
X142015729Y-134180797D01*
X142385315Y-134188539D01*
X142749367Y-134124346D01*
X143094017Y-133990666D01*
X143406137Y-133792588D01*
X143673840Y-133537658D01*
X143886929Y-133235586D01*
X144037286Y-132897877D01*
X144108199Y-132585750D01*
X145435000Y-132585750D01*
X145435000Y-133612542D01*
X145459403Y-133735223D01*
X145507270Y-133850785D01*
X145576763Y-133954789D01*
X145665211Y-134043237D01*
X145769215Y-134112730D01*
X145884777Y-134160597D01*
X146007458Y-134185000D01*
X147034250Y-134185000D01*
X147193000Y-134026250D01*
X147193000Y-132427000D01*
X147447000Y-132427000D01*
X147447000Y-134026250D01*
X147605750Y-134185000D01*
X148632542Y-134185000D01*
X148755223Y-134160597D01*
X148870785Y-134112730D01*
X148974789Y-134043237D01*
X149063237Y-133954789D01*
X149132730Y-133850785D01*
X149180597Y-133735223D01*
X149205000Y-133612542D01*
X149205000Y-132585750D01*
X149077746Y-132458496D01*
X150512522Y-132458496D01*
X150579254Y-132822091D01*
X150715338Y-133165799D01*
X150915590Y-133476529D01*
X151172382Y-133742446D01*
X151475935Y-133953420D01*
X151814684Y-134101416D01*
X152175729Y-134180797D01*
X152545315Y-134188539D01*
X152909367Y-134124346D01*
X153254017Y-133990666D01*
X153566137Y-133792588D01*
X153833840Y-133537658D01*
X154046929Y-133235586D01*
X154197286Y-132897877D01*
X154279185Y-132537396D01*
X154280286Y-132458496D01*
X155592522Y-132458496D01*
X155659254Y-132822091D01*
X155795338Y-133165799D01*
X155995590Y-133476529D01*
X156252382Y-133742446D01*
X156555935Y-133953420D01*
X156894684Y-134101416D01*
X157255729Y-134180797D01*
X157625315Y-134188539D01*
X157989367Y-134124346D01*
X158334017Y-133990666D01*
X158646137Y-133792588D01*
X158913840Y-133537658D01*
X159126929Y-133235586D01*
X159277286Y-132897877D01*
X159359185Y-132537396D01*
X159365081Y-132115166D01*
X159293279Y-131752539D01*
X159152410Y-131410764D01*
X158947839Y-131102860D01*
X158687358Y-130840555D01*
X158380890Y-130633839D01*
X158040107Y-130490587D01*
X157677990Y-130416255D01*
X157308331Y-130413674D01*
X156945211Y-130482943D01*
X156602461Y-130621423D01*
X156293137Y-130823840D01*
X156029019Y-131082482D01*
X155820169Y-131387500D01*
X155674542Y-131727275D01*
X155597683Y-132088864D01*
X155592522Y-132458496D01*
X154280286Y-132458496D01*
X154285081Y-132115166D01*
X154213279Y-131752539D01*
X154072410Y-131410764D01*
X153867839Y-131102860D01*
X153607358Y-130840555D01*
X153339800Y-130660084D01*
X153339800Y-102787925D01*
X153972062Y-102787925D01*
X154051185Y-103219030D01*
X154212536Y-103626557D01*
X154449970Y-103994982D01*
X154754443Y-104310273D01*
X155114358Y-104560421D01*
X155516005Y-104735896D01*
X155944087Y-104830016D01*
X156382297Y-104839195D01*
X156813944Y-104763084D01*
X157222587Y-104604582D01*
X157592661Y-104369726D01*
X157910070Y-104067461D01*
X158162724Y-103709302D01*
X158340999Y-103308889D01*
X158438105Y-102881475D01*
X158439411Y-102787925D01*
X166672062Y-102787925D01*
X166751185Y-103219030D01*
X166912536Y-103626557D01*
X167149970Y-103994982D01*
X167454443Y-104310273D01*
X167814358Y-104560421D01*
X168216005Y-104735896D01*
X168644087Y-104830016D01*
X169082297Y-104839195D01*
X169513944Y-104763084D01*
X169922587Y-104604582D01*
X170292661Y-104369726D01*
X170610070Y-104067461D01*
X170862724Y-103709302D01*
X171040999Y-103308889D01*
X171138105Y-102881475D01*
X171145096Y-102380847D01*
X171059962Y-101950888D01*
X170892936Y-101545654D01*
X170650381Y-101180580D01*
X170341536Y-100869571D01*
X169978164Y-100624473D01*
X169574105Y-100454622D01*
X169144751Y-100366489D01*
X168706456Y-100363429D01*
X168275914Y-100445559D01*
X167869523Y-100609752D01*
X167502764Y-100849752D01*
X167189607Y-101156419D01*
X166941978Y-101518071D01*
X166769311Y-101920933D01*
X166678182Y-102349662D01*
X166672062Y-102787925D01*
X158439411Y-102787925D01*
X158445096Y-102380847D01*
X158359962Y-101950888D01*
X158192936Y-101545654D01*
X157950381Y-101180580D01*
X157641536Y-100869571D01*
X157278164Y-100624473D01*
X156874105Y-100454622D01*
X156444751Y-100366489D01*
X156006456Y-100363429D01*
X155575914Y-100445559D01*
X155169523Y-100609752D01*
X154802764Y-100849752D01*
X154489607Y-101156419D01*
X154241978Y-101518071D01*
X154069311Y-101920933D01*
X153978182Y-102349662D01*
X153972062Y-102787925D01*
X153339800Y-102787925D01*
X153339800Y-95524278D01*
X154694278Y-94169800D01*
X165735000Y-94169800D01*
X165821410Y-94161328D01*
X165907878Y-94153763D01*
X165912624Y-94152384D01*
X165917541Y-94151902D01*
X166000627Y-94126816D01*
X166084011Y-94102591D01*
X166088399Y-94100316D01*
X166093130Y-94098888D01*
X166169773Y-94058136D01*
X166246852Y-94018182D01*
X166250715Y-94015099D01*
X166255077Y-94012779D01*
X166322354Y-93957910D01*
X166390195Y-93903753D01*
X166397072Y-93896971D01*
X166397215Y-93896855D01*
X166397324Y-93896723D01*
X166399539Y-93894539D01*
X168304539Y-91989539D01*
X168359636Y-91922463D01*
X168415442Y-91855956D01*
X168417823Y-91851625D01*
X168420959Y-91847807D01*
X168461972Y-91771317D01*
X168503803Y-91695227D01*
X168505298Y-91690516D01*
X168507633Y-91686160D01*
X168533006Y-91603169D01*
X168559263Y-91520395D01*
X168559814Y-91515480D01*
X168561258Y-91510758D01*
X168570033Y-91424376D01*
X168579708Y-91338122D01*
X168579776Y-91328471D01*
X168579795Y-91328281D01*
X168579778Y-91328104D01*
X168579800Y-91325000D01*
X168579800Y-88088648D01*
X168582808Y-88086739D01*
X168799243Y-87880631D01*
X168971522Y-87636410D01*
X169093084Y-87363377D01*
X169159299Y-87071932D01*
X169164065Y-86730564D01*
X169106014Y-86437384D01*
X168992123Y-86161063D01*
X168826730Y-85912127D01*
X168616135Y-85700056D01*
X168368359Y-85532929D01*
X168092840Y-85417112D01*
X167800072Y-85357015D01*
X167501208Y-85354929D01*
X167207630Y-85410932D01*
X166930520Y-85522891D01*
X166680435Y-85686542D01*
X166466899Y-85895652D01*
X166369903Y-86037312D01*
X166286730Y-85912127D01*
X166076135Y-85700056D01*
X165828359Y-85532929D01*
X165552840Y-85417112D01*
X165260072Y-85357015D01*
X164961208Y-85354929D01*
X164667630Y-85410932D01*
X164390520Y-85522891D01*
X164140435Y-85686542D01*
X163926899Y-85895652D01*
X163829903Y-86037312D01*
X163746730Y-85912127D01*
X163536135Y-85700056D01*
X163288359Y-85532929D01*
X163012840Y-85417112D01*
X162720072Y-85357015D01*
X162421208Y-85354929D01*
X162127630Y-85410932D01*
X161850520Y-85522891D01*
X161600435Y-85686542D01*
X161386899Y-85895652D01*
X161269970Y-86066423D01*
X161076231Y-86003374D01*
X160199605Y-86880000D01*
X161076231Y-87756626D01*
X161270965Y-87693253D01*
X161359872Y-87831210D01*
X161567486Y-88046200D01*
X161812904Y-88216770D01*
X162086779Y-88336423D01*
X162378679Y-88400602D01*
X162677486Y-88406861D01*
X162971817Y-88354962D01*
X163250462Y-88246883D01*
X163502808Y-88086739D01*
X163719243Y-87880631D01*
X163830281Y-87723225D01*
X163899872Y-87831210D01*
X164107486Y-88046200D01*
X164352904Y-88216770D01*
X164626779Y-88336423D01*
X164918679Y-88400602D01*
X165217486Y-88406861D01*
X165511817Y-88354962D01*
X165790462Y-88246883D01*
X166042808Y-88086739D01*
X166259243Y-87880631D01*
X166370281Y-87723225D01*
X166439872Y-87831210D01*
X166647486Y-88046200D01*
X166700200Y-88082837D01*
X166700200Y-90935722D01*
X165345722Y-92290200D01*
X154305000Y-92290200D01*
X154218635Y-92298668D01*
X154132122Y-92306237D01*
X154127376Y-92307616D01*
X154122459Y-92308098D01*
X154039373Y-92333184D01*
X153955989Y-92357409D01*
X153951601Y-92359684D01*
X153946870Y-92361112D01*
X153870227Y-92401864D01*
X153793148Y-92441818D01*
X153789285Y-92444901D01*
X153784923Y-92447221D01*
X153717646Y-92502090D01*
X153649805Y-92556247D01*
X153642928Y-92563029D01*
X153642785Y-92563145D01*
X153642676Y-92563277D01*
X153640461Y-92565461D01*
X151735461Y-94470461D01*
X151680364Y-94537537D01*
X151624558Y-94604044D01*
X151622177Y-94608375D01*
X151619041Y-94612193D01*
X151578028Y-94688683D01*
X151536197Y-94764773D01*
X151534702Y-94769484D01*
X151532367Y-94773840D01*
X151506994Y-94856831D01*
X151480737Y-94939605D01*
X151480186Y-94944520D01*
X151478742Y-94949242D01*
X151469972Y-95035579D01*
X151460292Y-95121878D01*
X151460224Y-95131539D01*
X151460206Y-95131719D01*
X151460222Y-95131886D01*
X151460200Y-95135000D01*
X151460200Y-130662166D01*
X151213137Y-130823840D01*
X150949019Y-131082482D01*
X150740169Y-131387500D01*
X150594542Y-131727275D01*
X150517683Y-132088864D01*
X150512522Y-132458496D01*
X149077746Y-132458496D01*
X149046250Y-132427000D01*
X147447000Y-132427000D01*
X147193000Y-132427000D01*
X145593750Y-132427000D01*
X145435000Y-132585750D01*
X144108199Y-132585750D01*
X144119185Y-132537396D01*
X144125081Y-132115166D01*
X144053279Y-131752539D01*
X143912410Y-131410764D01*
X143707839Y-131102860D01*
X143593240Y-130987458D01*
X145435000Y-130987458D01*
X145435000Y-132014250D01*
X145593750Y-132173000D01*
X147193000Y-132173000D01*
X147193000Y-130573750D01*
X147447000Y-130573750D01*
X147447000Y-132173000D01*
X149046250Y-132173000D01*
X149205000Y-132014250D01*
X149205000Y-130987458D01*
X149180597Y-130864777D01*
X149132730Y-130749215D01*
X149063237Y-130645211D01*
X148974789Y-130556763D01*
X148870785Y-130487270D01*
X148755223Y-130439403D01*
X148632542Y-130415000D01*
X147605750Y-130415000D01*
X147447000Y-130573750D01*
X147193000Y-130573750D01*
X147034250Y-130415000D01*
X146007458Y-130415000D01*
X145884777Y-130439403D01*
X145769215Y-130487270D01*
X145665211Y-130556763D01*
X145576763Y-130645211D01*
X145507270Y-130749215D01*
X145459403Y-130864777D01*
X145435000Y-130987458D01*
X143593240Y-130987458D01*
X143447358Y-130840555D01*
X143281400Y-130728615D01*
X143281400Y-87067942D01*
X151431862Y-87067942D01*
X151510992Y-87499086D01*
X151672357Y-87906649D01*
X151909813Y-88275107D01*
X152214313Y-88590426D01*
X152574260Y-88840596D01*
X152975943Y-89016087D01*
X153404063Y-89110215D01*
X153842312Y-89119395D01*
X154273998Y-89043278D01*
X154682678Y-88884761D01*
X155052785Y-88649884D01*
X155370222Y-88347592D01*
X155622899Y-87989401D01*
X155801190Y-87588952D01*
X155898305Y-87161500D01*
X155905296Y-86660827D01*
X155820154Y-86230830D01*
X155653114Y-85825560D01*
X155410537Y-85460453D01*
X155101664Y-85149416D01*
X154738259Y-84904296D01*
X154334165Y-84734430D01*
X153904772Y-84646289D01*
X153466438Y-84643229D01*
X153035857Y-84725366D01*
X152629430Y-84889573D01*
X152262638Y-85129595D01*
X151949453Y-85436289D01*
X151701802Y-85797974D01*
X151529119Y-86200873D01*
X151437982Y-86629639D01*
X151431862Y-87067942D01*
X143281400Y-87067942D01*
X143281400Y-80301400D01*
X154508638Y-80301400D01*
X156438600Y-82231362D01*
X156438600Y-85766681D01*
X156306899Y-85895652D01*
X156138047Y-86142255D01*
X156020309Y-86416959D01*
X155958170Y-86709299D01*
X155953997Y-87008142D01*
X156007949Y-87302104D01*
X156117971Y-87579988D01*
X156279872Y-87831210D01*
X156487486Y-88046200D01*
X156732904Y-88216770D01*
X157006779Y-88336423D01*
X157298679Y-88400602D01*
X157597486Y-88406861D01*
X157891817Y-88354962D01*
X158170462Y-88246883D01*
X158422808Y-88086739D01*
X158580857Y-87936231D01*
X159143374Y-87936231D01*
X159225727Y-88189289D01*
X159496418Y-88319086D01*
X159787230Y-88393580D01*
X160086988Y-88409908D01*
X160384171Y-88367443D01*
X160667359Y-88267816D01*
X160814273Y-88189289D01*
X160896626Y-87936231D01*
X160020000Y-87059605D01*
X159143374Y-87936231D01*
X158580857Y-87936231D01*
X158639243Y-87880631D01*
X158770977Y-87693886D01*
X158963769Y-87756626D01*
X159840395Y-86880000D01*
X158963769Y-86003374D01*
X158769384Y-86066633D01*
X158666730Y-85912127D01*
X158578988Y-85823769D01*
X159143374Y-85823769D01*
X160020000Y-86700395D01*
X160896626Y-85823769D01*
X160814273Y-85570711D01*
X160543582Y-85440914D01*
X160252770Y-85366420D01*
X159953012Y-85350092D01*
X159655829Y-85392557D01*
X159372641Y-85492184D01*
X159225727Y-85570711D01*
X159143374Y-85823769D01*
X158578988Y-85823769D01*
X158521400Y-85765778D01*
X158521400Y-81800000D01*
X158512008Y-81704216D01*
X158503629Y-81608433D01*
X158502101Y-81603175D01*
X158501567Y-81597724D01*
X158473761Y-81505628D01*
X158446925Y-81413257D01*
X158444405Y-81408395D01*
X158442822Y-81403153D01*
X158397667Y-81318228D01*
X158353391Y-81232812D01*
X158349974Y-81228532D01*
X158347404Y-81223698D01*
X158286601Y-81149147D01*
X158226590Y-81073972D01*
X158219075Y-81066351D01*
X158218947Y-81066194D01*
X158218801Y-81066074D01*
X158216381Y-81063619D01*
X155676381Y-78523619D01*
X155602028Y-78462544D01*
X155528357Y-78400727D01*
X155523560Y-78398090D01*
X155519326Y-78394612D01*
X155434546Y-78349154D01*
X155350251Y-78302812D01*
X155345029Y-78301155D01*
X155340205Y-78298569D01*
X155248259Y-78270458D01*
X155156519Y-78241357D01*
X155151074Y-78240746D01*
X155145840Y-78239146D01*
X155050121Y-78229423D01*
X154954540Y-78218702D01*
X154943841Y-78218627D01*
X154943635Y-78218606D01*
X154943443Y-78218624D01*
X154940000Y-78218600D01*
X124460000Y-78218600D01*
X124364216Y-78227992D01*
X124268433Y-78236371D01*
X124263175Y-78237899D01*
X124257724Y-78238433D01*
X124165628Y-78266239D01*
X124073257Y-78293075D01*
X124068395Y-78295595D01*
X124063153Y-78297178D01*
X123978228Y-78342333D01*
X123892812Y-78386609D01*
X123888532Y-78390026D01*
X123883698Y-78392596D01*
X123809147Y-78453399D01*
X123733972Y-78513410D01*
X123726351Y-78520925D01*
X123726194Y-78521053D01*
X123726074Y-78521199D01*
X123723619Y-78523619D01*
X121183619Y-81063619D01*
X121122544Y-81137972D01*
X121060727Y-81211643D01*
X121058090Y-81216440D01*
X121054612Y-81220674D01*
X121009154Y-81305454D01*
X120962812Y-81389749D01*
X120961155Y-81394971D01*
X120958569Y-81399795D01*
X120930458Y-81491741D01*
X120901357Y-81583481D01*
X120900746Y-81588926D01*
X120899146Y-81594160D01*
X120889423Y-81689879D01*
X120878702Y-81785460D01*
X120878627Y-81796159D01*
X120878606Y-81796365D01*
X120878624Y-81796557D01*
X120878600Y-81800000D01*
X120878600Y-85766681D01*
X120746899Y-85895652D01*
X120578047Y-86142255D01*
X120460309Y-86416959D01*
X120398170Y-86709299D01*
X120393997Y-87008142D01*
X120340446Y-87008142D01*
X120345296Y-86660827D01*
X120260154Y-86230830D01*
X120093114Y-85825560D01*
X119850537Y-85460453D01*
X119541664Y-85149416D01*
X119178259Y-84904296D01*
X118774165Y-84734430D01*
X118344772Y-84646289D01*
X117906438Y-84643229D01*
X117475857Y-84725366D01*
X117069430Y-84889573D01*
X116702638Y-85129595D01*
X116389453Y-85436289D01*
X116141802Y-85797974D01*
X116116100Y-85857941D01*
X116116100Y-72012057D01*
X116349813Y-72374707D01*
X116654313Y-72690026D01*
X117014260Y-72940196D01*
X117415943Y-73115687D01*
X117844063Y-73209815D01*
X118282312Y-73218995D01*
X118713998Y-73142878D01*
X119122678Y-72984361D01*
X119492785Y-72749484D01*
X119810222Y-72447192D01*
X119974684Y-72214053D01*
X123225479Y-72214053D01*
X123296066Y-72598653D01*
X123440012Y-72962218D01*
X123651833Y-73290899D01*
X123923461Y-73572179D01*
X124244550Y-73795341D01*
X124602870Y-73951887D01*
X124984772Y-74035854D01*
X125375710Y-74044043D01*
X125760794Y-73976142D01*
X126125355Y-73834739D01*
X126455507Y-73625217D01*
X126738676Y-73355560D01*
X126964075Y-73036036D01*
X126975805Y-73009689D01*
X127157033Y-73290899D01*
X127428661Y-73572179D01*
X127749750Y-73795341D01*
X128108070Y-73951887D01*
X128489972Y-74035854D01*
X128880910Y-74044043D01*
X129265994Y-73976142D01*
X129630555Y-73834739D01*
X129960707Y-73625217D01*
X130243876Y-73355560D01*
X130469275Y-73036036D01*
X130628319Y-72678818D01*
X130714949Y-72297511D01*
X130721186Y-71850888D01*
X130645236Y-71467311D01*
X130521680Y-71167542D01*
X133651862Y-71167542D01*
X133730992Y-71598686D01*
X133892357Y-72006249D01*
X134129813Y-72374707D01*
X134434313Y-72690026D01*
X134794260Y-72940196D01*
X135195943Y-73115687D01*
X135624063Y-73209815D01*
X136062312Y-73218995D01*
X136493998Y-73142878D01*
X136902678Y-72984361D01*
X137272785Y-72749484D01*
X137590222Y-72447192D01*
X137842899Y-72089001D01*
X138021190Y-71688552D01*
X138118305Y-71261100D01*
X138119611Y-71167542D01*
X151431862Y-71167542D01*
X151510992Y-71598686D01*
X151672357Y-72006249D01*
X151909813Y-72374707D01*
X152214313Y-72690026D01*
X152574260Y-72940196D01*
X152975943Y-73115687D01*
X153404063Y-73209815D01*
X153842312Y-73218995D01*
X154273998Y-73142878D01*
X154682678Y-72984361D01*
X155052785Y-72749484D01*
X155370222Y-72447192D01*
X155534684Y-72214053D01*
X158785479Y-72214053D01*
X158856066Y-72598653D01*
X159000012Y-72962218D01*
X159211833Y-73290899D01*
X159483461Y-73572179D01*
X159804550Y-73795341D01*
X160162870Y-73951887D01*
X160544772Y-74035854D01*
X160935710Y-74044043D01*
X161320794Y-73976142D01*
X161685355Y-73834739D01*
X162015507Y-73625217D01*
X162298676Y-73355560D01*
X162524075Y-73036036D01*
X162535805Y-73009689D01*
X162717033Y-73290899D01*
X162988661Y-73572179D01*
X163309750Y-73795341D01*
X163668070Y-73951887D01*
X164049972Y-74035854D01*
X164440910Y-74044043D01*
X164825994Y-73976142D01*
X165190555Y-73834739D01*
X165520707Y-73625217D01*
X165803876Y-73355560D01*
X166029275Y-73036036D01*
X166188319Y-72678818D01*
X166274949Y-72297511D01*
X166281186Y-71850888D01*
X166205236Y-71467311D01*
X166056228Y-71105791D01*
X165839838Y-70780099D01*
X165564310Y-70502640D01*
X165240136Y-70283982D01*
X164879665Y-70132454D01*
X164496628Y-70053828D01*
X164105613Y-70051098D01*
X163721515Y-70124368D01*
X163358964Y-70270849D01*
X163031769Y-70484959D01*
X162752393Y-70758544D01*
X162533102Y-71078811D01*
X162334638Y-70780099D01*
X162059110Y-70502640D01*
X161734936Y-70283982D01*
X161374465Y-70132454D01*
X160991428Y-70053828D01*
X160600413Y-70051098D01*
X160216315Y-70124368D01*
X159853764Y-70270849D01*
X159526569Y-70484959D01*
X159247193Y-70758544D01*
X159026278Y-71081183D01*
X158872237Y-71440587D01*
X158790938Y-71823067D01*
X158785479Y-72214053D01*
X155534684Y-72214053D01*
X155622899Y-72089001D01*
X155801190Y-71688552D01*
X155898305Y-71261100D01*
X155905296Y-70760427D01*
X155820154Y-70330430D01*
X155653114Y-69925160D01*
X155410537Y-69560053D01*
X155101664Y-69249016D01*
X154738259Y-69003896D01*
X154334165Y-68834030D01*
X153904772Y-68745889D01*
X153466438Y-68742829D01*
X153035857Y-68824966D01*
X152629430Y-68989173D01*
X152262638Y-69229195D01*
X151949453Y-69535889D01*
X151701802Y-69897574D01*
X151529119Y-70300473D01*
X151437982Y-70729239D01*
X151431862Y-71167542D01*
X138119611Y-71167542D01*
X138125296Y-70760427D01*
X138040154Y-70330430D01*
X137873114Y-69925160D01*
X137630537Y-69560053D01*
X137321664Y-69249016D01*
X136958259Y-69003896D01*
X136554165Y-68834030D01*
X136124772Y-68745889D01*
X135686438Y-68742829D01*
X135255857Y-68824966D01*
X134849430Y-68989173D01*
X134482638Y-69229195D01*
X134169453Y-69535889D01*
X133921802Y-69897574D01*
X133749119Y-70300473D01*
X133657982Y-70729239D01*
X133651862Y-71167542D01*
X130521680Y-71167542D01*
X130496228Y-71105791D01*
X130279838Y-70780099D01*
X130004310Y-70502640D01*
X129680136Y-70283982D01*
X129319665Y-70132454D01*
X128936628Y-70053828D01*
X128545613Y-70051098D01*
X128161515Y-70124368D01*
X127798964Y-70270849D01*
X127471769Y-70484959D01*
X127192393Y-70758544D01*
X126973102Y-71078811D01*
X126774638Y-70780099D01*
X126499110Y-70502640D01*
X126174936Y-70283982D01*
X125814465Y-70132454D01*
X125431428Y-70053828D01*
X125040413Y-70051098D01*
X124656315Y-70124368D01*
X124293764Y-70270849D01*
X123966569Y-70484959D01*
X123687193Y-70758544D01*
X123466278Y-71081183D01*
X123312237Y-71440587D01*
X123230938Y-71823067D01*
X123225479Y-72214053D01*
X119974684Y-72214053D01*
X120062899Y-72089001D01*
X120241190Y-71688552D01*
X120338305Y-71261100D01*
X120345296Y-70760427D01*
X120260154Y-70330430D01*
X120093114Y-69925160D01*
X119850537Y-69560053D01*
X119541664Y-69249016D01*
X119178259Y-69003896D01*
X118774165Y-68834030D01*
X118344772Y-68745889D01*
X117906438Y-68742829D01*
X117475857Y-68824966D01*
X117069430Y-68989173D01*
X116702638Y-69229195D01*
X116389453Y-69535889D01*
X116141802Y-69897574D01*
X116116100Y-69957541D01*
X116116100Y-67312254D01*
X117592253Y-65836100D01*
X142240000Y-65836100D01*
X142406941Y-65819731D01*
X142574074Y-65805109D01*
X142583243Y-65802445D01*
X142592749Y-65801513D01*
X142753363Y-65753021D01*
X142914441Y-65706223D01*
X142922919Y-65701828D01*
X142932062Y-65699068D01*
X143080195Y-65620304D01*
X143229119Y-65543109D01*
X143236582Y-65537151D01*
X143245014Y-65532668D01*
X143374992Y-65426660D01*
X143506121Y-65321982D01*
X143519420Y-65308868D01*
X143519686Y-65308651D01*
X143519890Y-65308404D01*
X143524177Y-65304177D01*
X144780000Y-64048353D01*
X146035823Y-65304176D01*
X146165423Y-65410631D01*
X146293963Y-65518489D01*
X146302332Y-65523090D01*
X146309711Y-65529151D01*
X146457538Y-65608415D01*
X146604562Y-65689242D01*
X146613666Y-65692130D01*
X146622081Y-65696642D01*
X146782480Y-65745681D01*
X146942412Y-65796414D01*
X146951904Y-65797479D01*
X146961034Y-65800270D01*
X147127865Y-65817216D01*
X147294643Y-65835923D01*
X147313319Y-65836053D01*
X147313660Y-65836088D01*
X147313978Y-65836058D01*
X147320000Y-65836100D01*
X171967746Y-65836100D01*
X173443900Y-67312253D01*
X173443900Y-69951329D01*
X173433114Y-69925160D01*
X173190537Y-69560053D01*
X172881664Y-69249016D01*
X172518259Y-69003896D01*
X172114165Y-68834030D01*
X171684772Y-68745889D01*
X171246438Y-68742829D01*
X170815857Y-68824966D01*
X170409430Y-68989173D01*
X170042638Y-69229195D01*
X169729453Y-69535889D01*
X169481802Y-69897574D01*
X169309119Y-70300473D01*
X169217982Y-70729239D01*
X169211862Y-71167542D01*
X169290992Y-71598686D01*
X169452357Y-72006249D01*
X169689813Y-72374707D01*
X169994313Y-72690026D01*
X170354260Y-72940196D01*
X170755943Y-73115687D01*
X171184063Y-73209815D01*
X171622312Y-73218995D01*
X172053998Y-73142878D01*
X172462678Y-72984361D01*
X172832785Y-72749484D01*
X173150222Y-72447192D01*
X173402899Y-72089001D01*
X173443900Y-71996911D01*
X173443900Y-85851729D01*
X173433114Y-85825560D01*
X173190537Y-85460453D01*
X172881664Y-85149416D01*
X172518259Y-84904296D01*
X172114165Y-84734430D01*
X171684772Y-84646289D01*
X171246438Y-84643229D01*
X170815857Y-84725366D01*
X170409430Y-84889573D01*
X170042638Y-85129595D01*
X169729453Y-85436289D01*
X169481802Y-85797974D01*
X169309119Y-86200873D01*
X169217982Y-86629639D01*
X169211862Y-87067942D01*
X169290992Y-87499086D01*
X169452357Y-87906649D01*
X169689813Y-88275107D01*
X169994313Y-88590426D01*
X170354260Y-88840596D01*
X170755943Y-89016087D01*
X171184063Y-89110215D01*
X171622312Y-89119395D01*
X172053998Y-89043278D01*
X172462678Y-88884761D01*
X172832785Y-88649884D01*
X173150222Y-88347592D01*
X173402899Y-87989401D01*
X173443900Y-87897311D01*
X173443900Y-102637747D01*
X170697746Y-105383900D01*
X167640000Y-105383900D01*
X167287251Y-105418487D01*
X166947938Y-105520932D01*
X166634986Y-105687332D01*
X166555450Y-105752200D01*
X165595719Y-105752200D01*
X165426571Y-105698543D01*
X165128859Y-105665150D01*
X165107427Y-105665000D01*
X165092573Y-105665000D01*
X164794423Y-105694234D01*
X164507630Y-105780822D01*
X164243117Y-105921466D01*
X164010959Y-106110809D01*
X163828878Y-106330907D01*
X163664143Y-106126017D01*
X163434651Y-105933451D01*
X163172128Y-105789127D01*
X162886571Y-105698543D01*
X162588859Y-105665150D01*
X162567427Y-105665000D01*
X162552573Y-105665000D01*
X162254423Y-105694234D01*
X161967630Y-105780822D01*
X161703117Y-105921466D01*
X161512295Y-106077097D01*
X161496894Y-106027366D01*
X161398100Y-105877441D01*
X161261450Y-105760975D01*
X161097763Y-105687190D01*
X160920000Y-105661928D01*
X159120000Y-105661928D01*
X159018879Y-105669992D01*
X158847366Y-105723106D01*
X158697441Y-105821900D01*
X158580975Y-105958550D01*
X158507190Y-106122237D01*
X158481928Y-106300000D01*
X158481928Y-108100000D01*
X158489992Y-108201121D01*
X158543106Y-108372634D01*
X158641900Y-108522559D01*
X158778550Y-108639025D01*
X158942237Y-108712810D01*
X159120000Y-108738072D01*
X160920000Y-108738072D01*
X161021121Y-108730008D01*
X161059168Y-108718226D01*
X160890758Y-109024562D01*
X160783586Y-109362412D01*
X160744077Y-109714643D01*
X160743900Y-109740000D01*
X160743900Y-120647341D01*
X160677683Y-120958864D01*
X160672522Y-121328496D01*
X160739254Y-121692091D01*
X160743900Y-121703825D01*
X160743900Y-130768614D01*
X160697190Y-130872237D01*
X160671928Y-131050000D01*
X160671928Y-133550000D01*
X160679992Y-133651121D01*
X160733106Y-133822634D01*
X160831900Y-133972559D01*
X160968550Y-134089025D01*
X161132237Y-134162810D01*
X161310000Y-134188072D01*
X163810000Y-134188072D01*
X163911121Y-134180008D01*
X164082634Y-134126894D01*
X164232559Y-134028100D01*
X164349025Y-133891450D01*
X164422810Y-133727763D01*
X164448072Y-133550000D01*
X164448072Y-132458496D01*
X165752522Y-132458496D01*
X165819254Y-132822091D01*
X165955338Y-133165799D01*
X166155590Y-133476529D01*
X166412382Y-133742446D01*
X166715935Y-133953420D01*
X167054684Y-134101416D01*
X167415729Y-134180797D01*
X167785315Y-134188539D01*
X168149367Y-134124346D01*
X168494017Y-133990666D01*
X168806137Y-133792588D01*
X169073840Y-133537658D01*
X169286929Y-133235586D01*
X169437286Y-132897877D01*
X169519185Y-132537396D01*
X169520286Y-132458496D01*
X170832522Y-132458496D01*
X170899254Y-132822091D01*
X171035338Y-133165799D01*
X171235590Y-133476529D01*
X171492382Y-133742446D01*
X171795935Y-133953420D01*
X172134684Y-134101416D01*
X172495729Y-134180797D01*
X172865315Y-134188539D01*
X173229367Y-134124346D01*
X173574017Y-133990666D01*
X173886137Y-133792588D01*
X174153840Y-133537658D01*
X174366929Y-133235586D01*
X174517286Y-132897877D01*
X174599185Y-132537396D01*
X174605081Y-132115166D01*
X174533279Y-131752539D01*
X174392410Y-131410764D01*
X174187839Y-131102860D01*
X173927358Y-130840555D01*
X173620890Y-130633839D01*
X173280107Y-130490587D01*
X172917990Y-130416255D01*
X172548331Y-130413674D01*
X172185211Y-130482943D01*
X171842461Y-130621423D01*
X171533137Y-130823840D01*
X171269019Y-131082482D01*
X171060169Y-131387500D01*
X170914542Y-131727275D01*
X170837683Y-132088864D01*
X170832522Y-132458496D01*
X169520286Y-132458496D01*
X169525081Y-132115166D01*
X169453279Y-131752539D01*
X169312410Y-131410764D01*
X169107839Y-131102860D01*
X168847358Y-130840555D01*
X168540890Y-130633839D01*
X168200107Y-130490587D01*
X167837990Y-130416255D01*
X167468331Y-130413674D01*
X167105211Y-130482943D01*
X166762461Y-130621423D01*
X166453137Y-130823840D01*
X166189019Y-131082482D01*
X165980169Y-131387500D01*
X165834542Y-131727275D01*
X165757683Y-132088864D01*
X165752522Y-132458496D01*
X164448072Y-132458496D01*
X164448072Y-131050000D01*
X164440008Y-130948879D01*
X164386894Y-130777366D01*
X164376100Y-130760986D01*
X164376100Y-121685067D01*
X164439185Y-121407396D01*
X164445081Y-120985166D01*
X164376100Y-120636786D01*
X164376100Y-119920000D01*
X170831928Y-119920000D01*
X170831928Y-122420000D01*
X170839992Y-122521121D01*
X170893106Y-122692634D01*
X170991900Y-122842559D01*
X171128550Y-122959025D01*
X171292237Y-123032810D01*
X171470000Y-123058072D01*
X173970000Y-123058072D01*
X174071121Y-123050008D01*
X174242634Y-122996894D01*
X174392559Y-122898100D01*
X174509025Y-122761450D01*
X174582810Y-122597763D01*
X174608072Y-122420000D01*
X174608072Y-119920000D01*
X174600008Y-119818879D01*
X174546894Y-119647366D01*
X174448100Y-119497441D01*
X174311450Y-119380975D01*
X174147763Y-119307190D01*
X173970000Y-119281928D01*
X171470000Y-119281928D01*
X171368879Y-119289992D01*
X171197366Y-119343106D01*
X171047441Y-119441900D01*
X170930975Y-119578550D01*
X170857190Y-119742237D01*
X170831928Y-119920000D01*
X164376100Y-119920000D01*
X164376100Y-109740000D01*
X164341513Y-109387251D01*
X164239068Y-109047938D01*
X164072668Y-108734986D01*
X164007800Y-108655450D01*
X164007800Y-108284004D01*
X164225349Y-108466549D01*
X164487872Y-108610873D01*
X164773429Y-108701457D01*
X165071141Y-108734850D01*
X165092573Y-108735000D01*
X165107427Y-108735000D01*
X165405577Y-108705766D01*
X165597569Y-108647800D01*
X166553554Y-108647800D01*
X166613963Y-108698489D01*
X166924562Y-108869242D01*
X167262412Y-108976414D01*
X167614643Y-109015923D01*
X167640000Y-109016100D01*
X171450000Y-109016100D01*
X171616941Y-108999731D01*
X171784074Y-108985109D01*
X171793243Y-108982445D01*
X171802749Y-108981513D01*
X171963363Y-108933021D01*
X172124441Y-108886223D01*
X172132919Y-108881828D01*
X172142062Y-108879068D01*
X172290195Y-108800304D01*
X172439119Y-108723109D01*
X172446582Y-108717151D01*
X172455014Y-108712668D01*
X172584992Y-108606660D01*
X172716121Y-108501982D01*
X172729420Y-108488868D01*
X172729686Y-108488651D01*
X172729890Y-108488404D01*
X172734177Y-108484177D01*
X176544177Y-104674176D01*
X176650617Y-104544594D01*
X176758489Y-104416037D01*
X176763092Y-104407665D01*
X176769151Y-104400288D01*
X176848393Y-104252502D01*
X176929242Y-104105438D01*
X176932131Y-104096331D01*
X176936642Y-104087918D01*
X176985672Y-103927547D01*
X177036414Y-103767588D01*
X177037479Y-103758094D01*
X177040270Y-103748965D01*
X177057220Y-103582100D01*
X177075923Y-103415357D01*
X177076053Y-103396690D01*
X177076089Y-103396339D01*
X177076058Y-103396011D01*
X177076100Y-103390000D01*
X177076100Y-66560000D01*
X177059732Y-66393063D01*
X177045109Y-66225926D01*
X177042445Y-66216756D01*
X177041513Y-66207251D01*
X176993025Y-66046650D01*
X176946223Y-65885558D01*
X176941828Y-65877079D01*
X176939068Y-65867938D01*
X176860325Y-65719844D01*
X176783109Y-65570880D01*
X176777150Y-65563415D01*
X176772668Y-65554986D01*
X176666673Y-65425023D01*
X176561981Y-65293878D01*
X176548872Y-65280585D01*
X176548651Y-65280314D01*
X176548400Y-65280107D01*
X176544176Y-65275823D01*
X174004177Y-62735823D01*
X173874547Y-62629344D01*
X173746037Y-62521511D01*
X173737668Y-62516910D01*
X173730289Y-62510849D01*
X173582462Y-62431585D01*
X173435438Y-62350758D01*
X173426334Y-62347870D01*
X173417919Y-62343358D01*
X173257520Y-62294319D01*
X173097588Y-62243586D01*
X173088096Y-62242521D01*
X173078966Y-62239730D01*
X172912095Y-62222780D01*
X172745357Y-62204077D01*
X172726690Y-62203947D01*
X172726339Y-62203911D01*
X172726011Y-62203942D01*
X172720000Y-62203900D01*
X148072253Y-62203900D01*
X146685000Y-60816646D01*
X146685000Y-56700000D01*
X146648720Y-56329984D01*
X146541260Y-55974061D01*
X146366715Y-55645789D01*
X146207034Y-55450000D01*
X147971928Y-55450000D01*
X147971928Y-57950000D01*
X147979992Y-58051121D01*
X148033106Y-58222634D01*
X148131900Y-58372559D01*
X148268550Y-58489025D01*
X148432237Y-58562810D01*
X148610000Y-58588072D01*
X151110000Y-58588072D01*
X151211121Y-58580008D01*
X151382634Y-58526894D01*
X151532559Y-58428100D01*
X151649025Y-58291450D01*
X151722810Y-58127763D01*
X151748072Y-57950000D01*
X151748072Y-55450000D01*
X151740008Y-55348879D01*
X151686894Y-55177366D01*
X151683751Y-55172595D01*
X157921746Y-55172595D01*
X157995930Y-55576793D01*
X158147210Y-55958883D01*
X158369824Y-56304313D01*
X158655293Y-56599925D01*
X158795147Y-56697126D01*
X158700599Y-56758996D01*
X158406987Y-57046521D01*
X158174814Y-57385601D01*
X158012925Y-57763318D01*
X157927484Y-58165287D01*
X157921746Y-58576195D01*
X157995930Y-58980393D01*
X158147210Y-59362483D01*
X158369824Y-59707913D01*
X158655293Y-60003525D01*
X158992744Y-60238059D01*
X159369322Y-60402582D01*
X159770684Y-60490827D01*
X160181543Y-60499433D01*
X160586248Y-60428073D01*
X160969385Y-60279464D01*
X161316361Y-60059266D01*
X161613958Y-59775868D01*
X161850842Y-59440063D01*
X162017990Y-59064643D01*
X162109035Y-58663907D01*
X162115590Y-58194526D01*
X162035769Y-57791403D01*
X161879169Y-57411462D01*
X161651753Y-57069174D01*
X161362185Y-56777577D01*
X161246847Y-56699781D01*
X161316361Y-56655666D01*
X161613958Y-56372268D01*
X161850842Y-56036463D01*
X162017990Y-55661043D01*
X162109035Y-55260307D01*
X162110259Y-55172595D01*
X167827746Y-55172595D01*
X167901930Y-55576793D01*
X168053210Y-55958883D01*
X168275824Y-56304313D01*
X168561293Y-56599925D01*
X168701147Y-56697126D01*
X168606599Y-56758996D01*
X168312987Y-57046521D01*
X168080814Y-57385601D01*
X167918925Y-57763318D01*
X167833484Y-58165287D01*
X167827746Y-58576195D01*
X167901930Y-58980393D01*
X168053210Y-59362483D01*
X168275824Y-59707913D01*
X168561293Y-60003525D01*
X168898744Y-60238059D01*
X169275322Y-60402582D01*
X169676684Y-60490827D01*
X170087543Y-60499433D01*
X170492248Y-60428073D01*
X170875385Y-60279464D01*
X171222361Y-60059266D01*
X171519958Y-59775868D01*
X171756842Y-59440063D01*
X171923990Y-59064643D01*
X172015035Y-58663907D01*
X172021590Y-58194526D01*
X171941769Y-57791403D01*
X171785169Y-57411462D01*
X171557753Y-57069174D01*
X171268185Y-56777577D01*
X171152847Y-56699781D01*
X171222361Y-56655666D01*
X171519958Y-56372268D01*
X171756842Y-56036463D01*
X171923990Y-55661043D01*
X172015035Y-55260307D01*
X172021590Y-54790926D01*
X171941769Y-54387803D01*
X171785169Y-54007862D01*
X171557753Y-53665574D01*
X171268185Y-53373977D01*
X170927493Y-53144178D01*
X170548654Y-52984929D01*
X170146099Y-52902296D01*
X169735161Y-52899427D01*
X169331491Y-52976431D01*
X168950466Y-53130375D01*
X168606599Y-53355396D01*
X168312987Y-53642921D01*
X168080814Y-53982001D01*
X167918925Y-54359718D01*
X167833484Y-54761687D01*
X167827746Y-55172595D01*
X162110259Y-55172595D01*
X162115590Y-54790926D01*
X162035769Y-54387803D01*
X161879169Y-54007862D01*
X161651753Y-53665574D01*
X161362185Y-53373977D01*
X161021493Y-53144178D01*
X160642654Y-52984929D01*
X160240099Y-52902296D01*
X159829161Y-52899427D01*
X159425491Y-52976431D01*
X159044466Y-53130375D01*
X158700599Y-53355396D01*
X158406987Y-53642921D01*
X158174814Y-53982001D01*
X158012925Y-54359718D01*
X157927484Y-54761687D01*
X157921746Y-55172595D01*
X151683751Y-55172595D01*
X151588100Y-55027441D01*
X151451450Y-54910975D01*
X151287763Y-54837190D01*
X151110000Y-54811928D01*
X148610000Y-54811928D01*
X148508879Y-54819992D01*
X148337366Y-54873106D01*
X148187441Y-54971900D01*
X148070975Y-55108550D01*
X147997190Y-55272237D01*
X147971928Y-55450000D01*
X146207034Y-55450000D01*
X146131732Y-55357672D01*
X145845262Y-55120683D01*
X145518217Y-54943851D01*
X145163053Y-54833909D01*
X144793299Y-54795046D01*
X144423039Y-54828743D01*
X144066374Y-54933715D01*
X143736892Y-55105964D01*
X143447141Y-55338930D01*
X143208159Y-55623738D01*
X143029047Y-55949541D01*
X142916629Y-56303928D01*
X142875186Y-56673402D01*
X142875000Y-56700000D01*
X142875000Y-60816647D01*
X141487746Y-62203900D01*
X116840000Y-62203900D01*
X116673063Y-62220268D01*
X116505926Y-62234891D01*
X116496756Y-62237555D01*
X116487251Y-62238487D01*
X116326650Y-62286975D01*
X116165558Y-62333777D01*
X116157079Y-62338172D01*
X116147938Y-62340932D01*
X115999844Y-62419675D01*
X115850880Y-62496891D01*
X115843415Y-62502850D01*
X115834986Y-62507332D01*
X115705023Y-62613327D01*
X115573878Y-62718019D01*
X115560585Y-62731128D01*
X115560314Y-62731349D01*
X115560107Y-62731600D01*
X115555823Y-62735824D01*
X113015823Y-65275823D01*
X112909344Y-65405453D01*
X112801511Y-65533963D01*
X112796910Y-65542332D01*
X112790849Y-65549711D01*
X112711585Y-65697538D01*
X112630758Y-65844562D01*
X112627870Y-65853666D01*
X112623358Y-65862081D01*
X112574319Y-66022480D01*
X112523586Y-66182412D01*
X112522521Y-66191904D01*
X112519730Y-66201034D01*
X112502780Y-66367905D01*
X112484077Y-66534643D01*
X112483947Y-66553310D01*
X112483911Y-66553661D01*
X112483942Y-66553989D01*
X112483900Y-66560000D01*
X111590000Y-66560000D01*
X111590000Y-62223856D01*
X114792760Y-62223856D01*
X114792760Y-55176195D01*
X117535746Y-55176195D01*
X117609930Y-55580393D01*
X117761210Y-55962483D01*
X117983824Y-56307913D01*
X118269293Y-56603525D01*
X118409147Y-56700726D01*
X118314599Y-56762596D01*
X118020987Y-57050121D01*
X117788814Y-57389201D01*
X117626925Y-57766918D01*
X117541484Y-58168887D01*
X117535746Y-58579795D01*
X117609930Y-58983993D01*
X117761210Y-59366083D01*
X117983824Y-59711513D01*
X118269293Y-60007125D01*
X118606744Y-60241659D01*
X118983322Y-60406182D01*
X119384684Y-60494427D01*
X119795543Y-60503033D01*
X120200248Y-60431673D01*
X120583385Y-60283064D01*
X120930361Y-60062866D01*
X121227958Y-59779468D01*
X121464842Y-59443663D01*
X121631990Y-59068243D01*
X121723035Y-58667507D01*
X121729590Y-58198126D01*
X121649769Y-57795003D01*
X121493169Y-57415062D01*
X121265753Y-57072774D01*
X120976185Y-56781177D01*
X120860847Y-56703381D01*
X120930361Y-56659266D01*
X121227958Y-56375868D01*
X121464842Y-56040063D01*
X121631990Y-55664643D01*
X121723035Y-55263907D01*
X121724259Y-55176195D01*
X127441746Y-55176195D01*
X127515930Y-55580393D01*
X127667210Y-55962483D01*
X127889824Y-56307913D01*
X128175293Y-56603525D01*
X128315147Y-56700726D01*
X128220599Y-56762596D01*
X127926987Y-57050121D01*
X127694814Y-57389201D01*
X127532925Y-57766918D01*
X127447484Y-58168887D01*
X127441746Y-58579795D01*
X127515930Y-58983993D01*
X127667210Y-59366083D01*
X127889824Y-59711513D01*
X128175293Y-60007125D01*
X128512744Y-60241659D01*
X128889322Y-60406182D01*
X129290684Y-60494427D01*
X129701543Y-60503033D01*
X130106248Y-60431673D01*
X130489385Y-60283064D01*
X130836361Y-60062866D01*
X131133958Y-59779468D01*
X131370842Y-59443663D01*
X131537990Y-59068243D01*
X131629035Y-58667507D01*
X131635590Y-58198126D01*
X131555769Y-57795003D01*
X131399169Y-57415062D01*
X131171753Y-57072774D01*
X130958966Y-56858496D01*
X137812522Y-56858496D01*
X137879254Y-57222091D01*
X138015338Y-57565799D01*
X138215590Y-57876529D01*
X138472382Y-58142446D01*
X138775935Y-58353420D01*
X139114684Y-58501416D01*
X139475729Y-58580797D01*
X139845315Y-58588539D01*
X140209367Y-58524346D01*
X140554017Y-58390666D01*
X140866137Y-58192588D01*
X141133840Y-57937658D01*
X141346929Y-57635586D01*
X141497286Y-57297877D01*
X141579185Y-56937396D01*
X141585081Y-56515166D01*
X141513279Y-56152539D01*
X141372410Y-55810764D01*
X141167839Y-55502860D01*
X140907358Y-55240555D01*
X140600890Y-55033839D01*
X140260107Y-54890587D01*
X139897990Y-54816255D01*
X139528331Y-54813674D01*
X139165211Y-54882943D01*
X138822461Y-55021423D01*
X138513137Y-55223840D01*
X138249019Y-55482482D01*
X138040169Y-55787500D01*
X137894542Y-56127275D01*
X137817683Y-56488864D01*
X137812522Y-56858496D01*
X130958966Y-56858496D01*
X130882185Y-56781177D01*
X130766847Y-56703381D01*
X130836361Y-56659266D01*
X131133958Y-56375868D01*
X131370842Y-56040063D01*
X131537990Y-55664643D01*
X131629035Y-55263907D01*
X131635590Y-54794526D01*
X131555769Y-54391403D01*
X131399169Y-54011462D01*
X131171753Y-53669174D01*
X130882185Y-53377577D01*
X130541493Y-53147778D01*
X130162654Y-52988529D01*
X129760099Y-52905896D01*
X129349161Y-52903027D01*
X128945491Y-52980031D01*
X128564466Y-53133975D01*
X128220599Y-53358996D01*
X127926987Y-53646521D01*
X127694814Y-53985601D01*
X127532925Y-54363318D01*
X127447484Y-54765287D01*
X127441746Y-55176195D01*
X121724259Y-55176195D01*
X121729590Y-54794526D01*
X121649769Y-54391403D01*
X121493169Y-54011462D01*
X121265753Y-53669174D01*
X120976185Y-53377577D01*
X120635493Y-53147778D01*
X120256654Y-52988529D01*
X119854099Y-52905896D01*
X119443161Y-52903027D01*
X119039491Y-52980031D01*
X118658466Y-53133975D01*
X118314599Y-53358996D01*
X118020987Y-53646521D01*
X117788814Y-53985601D01*
X117626925Y-54363318D01*
X117541484Y-54765287D01*
X117535746Y-55176195D01*
X114792760Y-55176195D01*
X114792760Y-51760000D01*
X177970000Y-51760000D01*
X177970000Y-137240000D01*
X177970000Y-137240000D01*
G37*
X177970000Y-137240000D02*
X111590000Y-137240000D01*
X111590000Y-131050000D01*
X114951928Y-131050000D01*
X114951928Y-133550000D01*
X114959992Y-133651121D01*
X115013106Y-133822634D01*
X115111900Y-133972559D01*
X115248550Y-134089025D01*
X115412237Y-134162810D01*
X115590000Y-134188072D01*
X118090000Y-134188072D01*
X118191121Y-134180008D01*
X118362634Y-134126894D01*
X118512559Y-134028100D01*
X118629025Y-133891450D01*
X118702810Y-133727763D01*
X118728072Y-133550000D01*
X118728072Y-132458496D01*
X120032522Y-132458496D01*
X120099254Y-132822091D01*
X120235338Y-133165799D01*
X120435590Y-133476529D01*
X120692382Y-133742446D01*
X120995935Y-133953420D01*
X121334684Y-134101416D01*
X121695729Y-134180797D01*
X122065315Y-134188539D01*
X122429367Y-134124346D01*
X122774017Y-133990666D01*
X123086137Y-133792588D01*
X123353840Y-133537658D01*
X123566929Y-133235586D01*
X123717286Y-132897877D01*
X123799185Y-132537396D01*
X123805081Y-132115166D01*
X123733279Y-131752539D01*
X123592410Y-131410764D01*
X123387839Y-131102860D01*
X123127358Y-130840555D01*
X122820890Y-130633839D01*
X122480107Y-130490587D01*
X122117990Y-130416255D01*
X121748331Y-130413674D01*
X121385211Y-130482943D01*
X121042461Y-130621423D01*
X120733137Y-130823840D01*
X120469019Y-131082482D01*
X120260169Y-131387500D01*
X120114542Y-131727275D01*
X120037683Y-132088864D01*
X120032522Y-132458496D01*
X118728072Y-132458496D01*
X118728072Y-131050000D01*
X118720008Y-130948879D01*
X118666894Y-130777366D01*
X118568100Y-130627441D01*
X118431450Y-130510975D01*
X118267763Y-130437190D01*
X118090000Y-130411928D01*
X115590000Y-130411928D01*
X115488879Y-130419992D01*
X115317366Y-130473106D01*
X115167441Y-130571900D01*
X115050975Y-130708550D01*
X114977190Y-130872237D01*
X114951928Y-131050000D01*
X111590000Y-131050000D01*
X111590000Y-119920000D01*
X114951928Y-119920000D01*
X114951928Y-122420000D01*
X114959992Y-122521121D01*
X115013106Y-122692634D01*
X115111900Y-122842559D01*
X115248550Y-122959025D01*
X115412237Y-123032810D01*
X115590000Y-123058072D01*
X118090000Y-123058072D01*
X118191121Y-123050008D01*
X118362634Y-122996894D01*
X118512559Y-122898100D01*
X118629025Y-122761450D01*
X118702810Y-122597763D01*
X118728072Y-122420000D01*
X118728072Y-119920000D01*
X118720008Y-119818879D01*
X118666894Y-119647366D01*
X118568100Y-119497441D01*
X118431450Y-119380975D01*
X118267763Y-119307190D01*
X118090000Y-119281928D01*
X115590000Y-119281928D01*
X115488879Y-119289992D01*
X115317366Y-119343106D01*
X115167441Y-119441900D01*
X115050975Y-119578550D01*
X114977190Y-119742237D01*
X114951928Y-119920000D01*
X111590000Y-119920000D01*
X111590000Y-117320085D01*
X116875560Y-117320085D01*
X116875560Y-102787925D01*
X118412062Y-102787925D01*
X118491185Y-103219030D01*
X118652536Y-103626557D01*
X118889970Y-103994982D01*
X119194443Y-104310273D01*
X119554358Y-104560421D01*
X119956005Y-104735896D01*
X120384087Y-104830016D01*
X120822297Y-104839195D01*
X121253944Y-104763084D01*
X121662587Y-104604582D01*
X122032661Y-104369726D01*
X122350070Y-104067461D01*
X122602724Y-103709302D01*
X122780999Y-103308889D01*
X122878105Y-102881475D01*
X122885096Y-102380847D01*
X122799962Y-101950888D01*
X122632936Y-101545654D01*
X122390381Y-101180580D01*
X122081536Y-100869571D01*
X121718164Y-100624473D01*
X121314105Y-100454622D01*
X120884751Y-100366489D01*
X120446456Y-100363429D01*
X120015914Y-100445559D01*
X119609523Y-100609752D01*
X119242764Y-100849752D01*
X118929607Y-101156419D01*
X118681978Y-101518071D01*
X118509311Y-101920933D01*
X118418182Y-102349662D01*
X118412062Y-102787925D01*
X116875560Y-102787925D01*
X116875560Y-99619914D01*
X111590000Y-99619914D01*
X111590000Y-66560000D01*
X112483900Y-66560000D01*
X112483900Y-92595000D01*
X112500269Y-92761941D01*
X112514891Y-92929074D01*
X112517555Y-92938243D01*
X112518487Y-92947749D01*
X112566979Y-93108363D01*
X112613777Y-93269441D01*
X112618172Y-93277919D01*
X112620932Y-93287062D01*
X112699696Y-93435195D01*
X112776891Y-93584119D01*
X112782849Y-93591582D01*
X112787332Y-93600014D01*
X112893340Y-93729992D01*
X112998018Y-93861121D01*
X113011132Y-93874420D01*
X113011349Y-93874686D01*
X113011596Y-93874890D01*
X113015823Y-93879177D01*
X116190823Y-97054177D01*
X116320453Y-97160656D01*
X116448963Y-97268489D01*
X116457332Y-97273090D01*
X116464711Y-97279151D01*
X116612538Y-97358415D01*
X116759562Y-97439242D01*
X116768666Y-97442130D01*
X116777081Y-97446642D01*
X116937480Y-97495681D01*
X117097412Y-97546414D01*
X117106904Y-97547479D01*
X117116034Y-97550270D01*
X117282860Y-97567215D01*
X117449643Y-97585923D01*
X117468320Y-97586053D01*
X117468661Y-97586088D01*
X117468979Y-97586058D01*
X117475000Y-97586100D01*
X126247746Y-97586100D01*
X127723900Y-99062253D01*
X127723900Y-105295000D01*
X127758487Y-105647749D01*
X127838794Y-105913738D01*
X127612128Y-105789127D01*
X127326571Y-105698543D01*
X127028859Y-105665150D01*
X127007427Y-105665000D01*
X126992573Y-105665000D01*
X126694423Y-105694234D01*
X126407630Y-105780822D01*
X126143117Y-105921466D01*
X125952295Y-106077097D01*
X125936894Y-106027366D01*
X125838100Y-105877441D01*
X125701450Y-105760975D01*
X125537763Y-105687190D01*
X125360000Y-105661928D01*
X123560000Y-105661928D01*
X123458879Y-105669992D01*
X123287366Y-105723106D01*
X123137441Y-105821900D01*
X123020975Y-105958550D01*
X122947190Y-106122237D01*
X122921928Y-106300000D01*
X122921928Y-108100000D01*
X122929992Y-108201121D01*
X122983106Y-108372634D01*
X123081900Y-108522559D01*
X123218550Y-108639025D01*
X123382237Y-108712810D01*
X123560000Y-108738072D01*
X125360000Y-108738072D01*
X125461121Y-108730008D01*
X125499168Y-108718226D01*
X125330758Y-109024562D01*
X125223586Y-109362412D01*
X125184077Y-109714643D01*
X125183900Y-109740000D01*
X125183900Y-120647341D01*
X125117683Y-120958864D01*
X125112522Y-121328496D01*
X125179254Y-121692091D01*
X125183900Y-121703825D01*
X125183900Y-131777341D01*
X125117683Y-132088864D01*
X125112522Y-132458496D01*
X125179254Y-132822091D01*
X125315338Y-133165799D01*
X125515590Y-133476529D01*
X125772382Y-133742446D01*
X126075935Y-133953420D01*
X126414684Y-134101416D01*
X126775729Y-134180797D01*
X127145315Y-134188539D01*
X127509367Y-134124346D01*
X127854017Y-133990666D01*
X128166137Y-133792588D01*
X128433840Y-133537658D01*
X128646929Y-133235586D01*
X128797286Y-132897877D01*
X128879185Y-132537396D01*
X128885081Y-132115166D01*
X128816100Y-131766786D01*
X128816100Y-131050000D01*
X130191928Y-131050000D01*
X130191928Y-133550000D01*
X130199992Y-133651121D01*
X130253106Y-133822634D01*
X130351900Y-133972559D01*
X130488550Y-134089025D01*
X130652237Y-134162810D01*
X130830000Y-134188072D01*
X133330000Y-134188072D01*
X133431121Y-134180008D01*
X133602634Y-134126894D01*
X133752559Y-134028100D01*
X133869025Y-133891450D01*
X133942810Y-133727763D01*
X133968072Y-133550000D01*
X133968072Y-131050000D01*
X133960008Y-130948879D01*
X133906894Y-130777366D01*
X133808100Y-130627441D01*
X133671450Y-130510975D01*
X133507763Y-130437190D01*
X133330000Y-130411928D01*
X130830000Y-130411928D01*
X130728879Y-130419992D01*
X130557366Y-130473106D01*
X130407441Y-130571900D01*
X130290975Y-130708550D01*
X130217190Y-130872237D01*
X130191928Y-131050000D01*
X128816100Y-131050000D01*
X128816100Y-121685067D01*
X128879185Y-121407396D01*
X128885081Y-120985166D01*
X128816100Y-120636786D01*
X128816100Y-109740000D01*
X128781513Y-109387251D01*
X128679068Y-109047938D01*
X128512668Y-108734986D01*
X128447800Y-108655450D01*
X128447800Y-108284004D01*
X128665349Y-108466549D01*
X128927872Y-108610873D01*
X129213429Y-108701457D01*
X129511141Y-108734850D01*
X129532573Y-108735000D01*
X129547427Y-108735000D01*
X129845577Y-108705766D01*
X130132370Y-108619178D01*
X130396883Y-108478534D01*
X130629041Y-108289191D01*
X130820000Y-108058361D01*
X130962487Y-107794836D01*
X131051075Y-107508655D01*
X131082390Y-107210716D01*
X131055238Y-106912370D01*
X130987800Y-106683236D01*
X130987800Y-106381446D01*
X131038489Y-106321037D01*
X131209242Y-106010438D01*
X131316414Y-105672588D01*
X131355923Y-105320357D01*
X131356100Y-105295000D01*
X131356100Y-103632087D01*
X131589970Y-103994982D01*
X131894443Y-104310273D01*
X132254358Y-104560421D01*
X132656005Y-104735896D01*
X133084087Y-104830016D01*
X133522297Y-104839195D01*
X133953944Y-104763084D01*
X134362587Y-104604582D01*
X134732661Y-104369726D01*
X135050070Y-104067461D01*
X135302724Y-103709302D01*
X135480999Y-103308889D01*
X135578105Y-102881475D01*
X135585096Y-102380847D01*
X135499962Y-101950888D01*
X135332936Y-101545654D01*
X135090381Y-101180580D01*
X134781536Y-100869571D01*
X134418164Y-100624473D01*
X134014105Y-100454622D01*
X133584751Y-100366489D01*
X133146456Y-100363429D01*
X132715914Y-100445559D01*
X132309523Y-100609752D01*
X131942764Y-100849752D01*
X131629607Y-101156419D01*
X131381978Y-101518071D01*
X131356100Y-101578449D01*
X131356100Y-98310000D01*
X131339732Y-98143063D01*
X131325109Y-97975926D01*
X131322445Y-97966756D01*
X131321513Y-97957251D01*
X131273025Y-97796650D01*
X131226223Y-97635558D01*
X131221828Y-97627079D01*
X131219068Y-97617938D01*
X131140325Y-97469844D01*
X131063109Y-97320880D01*
X131057150Y-97313415D01*
X131052668Y-97304986D01*
X130946673Y-97175023D01*
X130841981Y-97043878D01*
X130828872Y-97030585D01*
X130828651Y-97030314D01*
X130828400Y-97030107D01*
X130824176Y-97025823D01*
X128284177Y-94485823D01*
X128154547Y-94379344D01*
X128026037Y-94271511D01*
X128017668Y-94266910D01*
X128010289Y-94260849D01*
X127862462Y-94181585D01*
X127715438Y-94100758D01*
X127706334Y-94097870D01*
X127697919Y-94093358D01*
X127537520Y-94044319D01*
X127377588Y-93993586D01*
X127368096Y-93992521D01*
X127358966Y-93989730D01*
X127192095Y-93972780D01*
X127025357Y-93954077D01*
X127006690Y-93953947D01*
X127006339Y-93953911D01*
X127006011Y-93953942D01*
X127000000Y-93953900D01*
X118227254Y-93953900D01*
X116116100Y-91842746D01*
X116116100Y-87912457D01*
X116349813Y-88275107D01*
X116654313Y-88590426D01*
X117014260Y-88840596D01*
X117415943Y-89016087D01*
X117844063Y-89110215D01*
X118282312Y-89119395D01*
X118713998Y-89043278D01*
X119122678Y-88884761D01*
X119492785Y-88649884D01*
X119810222Y-88347592D01*
X120062899Y-87989401D01*
X120241190Y-87588952D01*
X120338305Y-87161500D01*
X120340446Y-87008142D01*
X120393997Y-87008142D01*
X120447949Y-87302104D01*
X120557971Y-87579988D01*
X120719872Y-87831210D01*
X120927486Y-88046200D01*
X121172904Y-88216770D01*
X121446779Y-88336423D01*
X121738679Y-88400602D01*
X122037486Y-88406861D01*
X122331817Y-88354962D01*
X122610462Y-88246883D01*
X122862808Y-88086739D01*
X123020857Y-87936231D01*
X123583374Y-87936231D01*
X123665727Y-88189289D01*
X123936418Y-88319086D01*
X124227230Y-88393580D01*
X124526988Y-88409908D01*
X124824171Y-88367443D01*
X125107359Y-88267816D01*
X125254273Y-88189289D01*
X125336626Y-87936231D01*
X124460000Y-87059605D01*
X123583374Y-87936231D01*
X123020857Y-87936231D01*
X123079243Y-87880631D01*
X123210977Y-87693886D01*
X123403769Y-87756626D01*
X124280395Y-86880000D01*
X124639605Y-86880000D01*
X125516231Y-87756626D01*
X125710965Y-87693253D01*
X125799872Y-87831210D01*
X126007486Y-88046200D01*
X126252904Y-88216770D01*
X126526779Y-88336423D01*
X126818679Y-88400602D01*
X127117486Y-88406861D01*
X127411817Y-88354962D01*
X127690462Y-88246883D01*
X127942808Y-88086739D01*
X128159243Y-87880631D01*
X128270281Y-87723225D01*
X128339872Y-87831210D01*
X128547486Y-88046200D01*
X128792904Y-88216770D01*
X129066779Y-88336423D01*
X129358679Y-88400602D01*
X129657486Y-88406861D01*
X129951817Y-88354962D01*
X130230462Y-88246883D01*
X130482808Y-88086739D01*
X130699243Y-87880631D01*
X130810281Y-87723225D01*
X130879872Y-87831210D01*
X131087486Y-88046200D01*
X131332904Y-88216770D01*
X131606779Y-88336423D01*
X131898679Y-88400602D01*
X132197486Y-88406861D01*
X132491817Y-88354962D01*
X132770462Y-88246883D01*
X133022808Y-88086739D01*
X133239243Y-87880631D01*
X133411522Y-87636410D01*
X133533084Y-87363377D01*
X133599299Y-87071932D01*
X133599354Y-87067942D01*
X133651862Y-87067942D01*
X133730992Y-87499086D01*
X133892357Y-87906649D01*
X134129813Y-88275107D01*
X134434313Y-88590426D01*
X134794260Y-88840596D01*
X135195943Y-89016087D01*
X135624063Y-89110215D01*
X136062312Y-89119395D01*
X136493998Y-89043278D01*
X136902678Y-88884761D01*
X137272785Y-88649884D01*
X137590222Y-88347592D01*
X137842899Y-87989401D01*
X138021190Y-87588952D01*
X138118305Y-87161500D01*
X138125296Y-86660827D01*
X138040154Y-86230830D01*
X137873114Y-85825560D01*
X137630537Y-85460453D01*
X137321664Y-85149416D01*
X136958259Y-84904296D01*
X136554165Y-84734430D01*
X136124772Y-84646289D01*
X135686438Y-84643229D01*
X135255857Y-84725366D01*
X134849430Y-84889573D01*
X134482638Y-85129595D01*
X134169453Y-85436289D01*
X133921802Y-85797974D01*
X133749119Y-86200873D01*
X133657982Y-86629639D01*
X133651862Y-87067942D01*
X133599354Y-87067942D01*
X133604065Y-86730564D01*
X133546014Y-86437384D01*
X133432123Y-86161063D01*
X133266730Y-85912127D01*
X133187119Y-85831959D01*
X135009278Y-84009800D01*
X136770722Y-84009800D01*
X138760200Y-85999278D01*
X138760200Y-129370722D01*
X137653921Y-130477001D01*
X137357990Y-130416255D01*
X136988331Y-130413674D01*
X136625211Y-130482943D01*
X136282461Y-130621423D01*
X135973137Y-130823840D01*
X135709019Y-131082482D01*
X135500169Y-131387500D01*
X135354542Y-131727275D01*
X135277683Y-132088864D01*
X135272522Y-132458496D01*
X135339254Y-132822091D01*
X135475338Y-133165799D01*
X135675590Y-133476529D01*
X135932382Y-133742446D01*
X136235935Y-133953420D01*
X136574684Y-134101416D01*
X136935729Y-134180797D01*
X137305315Y-134188539D01*
X137669367Y-134124346D01*
X138014017Y-133990666D01*
X138326137Y-133792588D01*
X138593840Y-133537658D01*
X138806929Y-133235586D01*
X138957286Y-132897877D01*
X139039185Y-132537396D01*
X139045081Y-132115166D01*
X138983735Y-131805343D01*
X140364539Y-130424539D01*
X140419636Y-130357463D01*
X140475442Y-130290956D01*
X140477823Y-130286625D01*
X140480959Y-130282807D01*
X140521963Y-130206334D01*
X140563803Y-130130227D01*
X140565298Y-130125514D01*
X140567632Y-130121161D01*
X140592999Y-130038188D01*
X140619263Y-129955395D01*
X140619814Y-129950482D01*
X140621258Y-129945759D01*
X140630029Y-129859416D01*
X140639708Y-129773122D01*
X140639776Y-129763461D01*
X140639794Y-129763281D01*
X140639778Y-129763114D01*
X140639800Y-129760000D01*
X140639800Y-85610000D01*
X140631328Y-85523594D01*
X140623763Y-85437122D01*
X140622384Y-85432376D01*
X140621902Y-85427459D01*
X140596816Y-85344373D01*
X140572591Y-85260989D01*
X140570316Y-85256601D01*
X140568888Y-85251870D01*
X140528136Y-85175227D01*
X140488182Y-85098148D01*
X140485099Y-85094285D01*
X140482779Y-85089923D01*
X140427905Y-85022640D01*
X140373752Y-84954804D01*
X140366971Y-84947928D01*
X140366855Y-84947785D01*
X140366723Y-84947676D01*
X140364539Y-84945461D01*
X137824539Y-82405461D01*
X137757463Y-82350364D01*
X137690956Y-82294558D01*
X137686625Y-82292177D01*
X137682807Y-82289041D01*
X137606317Y-82248028D01*
X137530227Y-82206197D01*
X137525516Y-82204702D01*
X137521160Y-82202367D01*
X137438169Y-82176994D01*
X137355395Y-82150737D01*
X137350480Y-82150186D01*
X137345758Y-82148742D01*
X137259421Y-82139972D01*
X137173122Y-82130292D01*
X137163461Y-82130224D01*
X137163281Y-82130206D01*
X137163114Y-82130222D01*
X137160000Y-82130200D01*
X134620000Y-82130200D01*
X134533594Y-82138672D01*
X134447122Y-82146237D01*
X134442376Y-82147616D01*
X134437459Y-82148098D01*
X134354373Y-82173184D01*
X134270989Y-82197409D01*
X134266601Y-82199684D01*
X134261870Y-82201112D01*
X134185227Y-82241864D01*
X134108148Y-82281818D01*
X134104285Y-82284901D01*
X134099923Y-82287221D01*
X134032640Y-82342095D01*
X133964804Y-82396248D01*
X133957928Y-82403029D01*
X133957785Y-82403145D01*
X133957676Y-82403277D01*
X133955461Y-82405461D01*
X131415461Y-84945461D01*
X131360364Y-85012537D01*
X131304558Y-85079044D01*
X131302177Y-85083375D01*
X131299041Y-85087193D01*
X131258028Y-85163683D01*
X131216197Y-85239773D01*
X131214702Y-85244484D01*
X131212367Y-85248840D01*
X131186994Y-85331831D01*
X131160737Y-85414605D01*
X131160186Y-85419520D01*
X131158742Y-85424242D01*
X131149972Y-85510579D01*
X131140292Y-85596878D01*
X131140224Y-85606539D01*
X131140206Y-85606719D01*
X131140222Y-85606886D01*
X131140200Y-85610000D01*
X131140200Y-85673608D01*
X131120435Y-85686542D01*
X130906899Y-85895652D01*
X130809903Y-86037312D01*
X130726730Y-85912127D01*
X130516135Y-85700056D01*
X130268359Y-85532929D01*
X129992840Y-85417112D01*
X129700072Y-85357015D01*
X129401208Y-85354929D01*
X129107630Y-85410932D01*
X128830520Y-85522891D01*
X128580435Y-85686542D01*
X128366899Y-85895652D01*
X128269903Y-86037312D01*
X128186730Y-85912127D01*
X127976135Y-85700056D01*
X127728359Y-85532929D01*
X127452840Y-85417112D01*
X127160072Y-85357015D01*
X126861208Y-85354929D01*
X126567630Y-85410932D01*
X126290520Y-85522891D01*
X126040435Y-85686542D01*
X125826899Y-85895652D01*
X125709970Y-86066423D01*
X125516231Y-86003374D01*
X124639605Y-86880000D01*
X124280395Y-86880000D01*
X123403769Y-86003374D01*
X123209384Y-86066633D01*
X123106730Y-85912127D01*
X123018988Y-85823769D01*
X123583374Y-85823769D01*
X124460000Y-86700395D01*
X125336626Y-85823769D01*
X125254273Y-85570711D01*
X124983582Y-85440914D01*
X124692770Y-85366420D01*
X124393012Y-85350092D01*
X124095829Y-85392557D01*
X123812641Y-85492184D01*
X123665727Y-85570711D01*
X123583374Y-85823769D01*
X123018988Y-85823769D01*
X122961400Y-85765778D01*
X122961400Y-82231362D01*
X124891362Y-80301400D01*
X141198600Y-80301400D01*
X141198600Y-130728651D01*
X141053137Y-130823840D01*
X140789019Y-131082482D01*
X140580169Y-131387500D01*
X140434542Y-131727275D01*
X140357683Y-132088864D01*
X140352522Y-132458496D01*
X140419254Y-132822091D01*
X140555338Y-133165799D01*
X140755590Y-133476529D01*
X141012382Y-133742446D01*
X141315935Y-133953420D01*
X141654684Y-134101416D01*
X142015729Y-134180797D01*
X142385315Y-134188539D01*
X142749367Y-134124346D01*
X143094017Y-133990666D01*
X143406137Y-133792588D01*
X143673840Y-133537658D01*
X143886929Y-133235586D01*
X144037286Y-132897877D01*
X144108199Y-132585750D01*
X145435000Y-132585750D01*
X145435000Y-133612542D01*
X145459403Y-133735223D01*
X145507270Y-133850785D01*
X145576763Y-133954789D01*
X145665211Y-134043237D01*
X145769215Y-134112730D01*
X145884777Y-134160597D01*
X146007458Y-134185000D01*
X147034250Y-134185000D01*
X147193000Y-134026250D01*
X147193000Y-132427000D01*
X147447000Y-132427000D01*
X147447000Y-134026250D01*
X147605750Y-134185000D01*
X148632542Y-134185000D01*
X148755223Y-134160597D01*
X148870785Y-134112730D01*
X148974789Y-134043237D01*
X149063237Y-133954789D01*
X149132730Y-133850785D01*
X149180597Y-133735223D01*
X149205000Y-133612542D01*
X149205000Y-132585750D01*
X149077746Y-132458496D01*
X150512522Y-132458496D01*
X150579254Y-132822091D01*
X150715338Y-133165799D01*
X150915590Y-133476529D01*
X151172382Y-133742446D01*
X151475935Y-133953420D01*
X151814684Y-134101416D01*
X152175729Y-134180797D01*
X152545315Y-134188539D01*
X152909367Y-134124346D01*
X153254017Y-133990666D01*
X153566137Y-133792588D01*
X153833840Y-133537658D01*
X154046929Y-133235586D01*
X154197286Y-132897877D01*
X154279185Y-132537396D01*
X154280286Y-132458496D01*
X155592522Y-132458496D01*
X155659254Y-132822091D01*
X155795338Y-133165799D01*
X155995590Y-133476529D01*
X156252382Y-133742446D01*
X156555935Y-133953420D01*
X156894684Y-134101416D01*
X157255729Y-134180797D01*
X157625315Y-134188539D01*
X157989367Y-134124346D01*
X158334017Y-133990666D01*
X158646137Y-133792588D01*
X158913840Y-133537658D01*
X159126929Y-133235586D01*
X159277286Y-132897877D01*
X159359185Y-132537396D01*
X159365081Y-132115166D01*
X159293279Y-131752539D01*
X159152410Y-131410764D01*
X158947839Y-131102860D01*
X158687358Y-130840555D01*
X158380890Y-130633839D01*
X158040107Y-130490587D01*
X157677990Y-130416255D01*
X157308331Y-130413674D01*
X156945211Y-130482943D01*
X156602461Y-130621423D01*
X156293137Y-130823840D01*
X156029019Y-131082482D01*
X155820169Y-131387500D01*
X155674542Y-131727275D01*
X155597683Y-132088864D01*
X155592522Y-132458496D01*
X154280286Y-132458496D01*
X154285081Y-132115166D01*
X154213279Y-131752539D01*
X154072410Y-131410764D01*
X153867839Y-131102860D01*
X153607358Y-130840555D01*
X153339800Y-130660084D01*
X153339800Y-102787925D01*
X153972062Y-102787925D01*
X154051185Y-103219030D01*
X154212536Y-103626557D01*
X154449970Y-103994982D01*
X154754443Y-104310273D01*
X155114358Y-104560421D01*
X155516005Y-104735896D01*
X155944087Y-104830016D01*
X156382297Y-104839195D01*
X156813944Y-104763084D01*
X157222587Y-104604582D01*
X157592661Y-104369726D01*
X157910070Y-104067461D01*
X158162724Y-103709302D01*
X158340999Y-103308889D01*
X158438105Y-102881475D01*
X158439411Y-102787925D01*
X166672062Y-102787925D01*
X166751185Y-103219030D01*
X166912536Y-103626557D01*
X167149970Y-103994982D01*
X167454443Y-104310273D01*
X167814358Y-104560421D01*
X168216005Y-104735896D01*
X168644087Y-104830016D01*
X169082297Y-104839195D01*
X169513944Y-104763084D01*
X169922587Y-104604582D01*
X170292661Y-104369726D01*
X170610070Y-104067461D01*
X170862724Y-103709302D01*
X171040999Y-103308889D01*
X171138105Y-102881475D01*
X171145096Y-102380847D01*
X171059962Y-101950888D01*
X170892936Y-101545654D01*
X170650381Y-101180580D01*
X170341536Y-100869571D01*
X169978164Y-100624473D01*
X169574105Y-100454622D01*
X169144751Y-100366489D01*
X168706456Y-100363429D01*
X168275914Y-100445559D01*
X167869523Y-100609752D01*
X167502764Y-100849752D01*
X167189607Y-101156419D01*
X166941978Y-101518071D01*
X166769311Y-101920933D01*
X166678182Y-102349662D01*
X166672062Y-102787925D01*
X158439411Y-102787925D01*
X158445096Y-102380847D01*
X158359962Y-101950888D01*
X158192936Y-101545654D01*
X157950381Y-101180580D01*
X157641536Y-100869571D01*
X157278164Y-100624473D01*
X156874105Y-100454622D01*
X156444751Y-100366489D01*
X156006456Y-100363429D01*
X155575914Y-100445559D01*
X155169523Y-100609752D01*
X154802764Y-100849752D01*
X154489607Y-101156419D01*
X154241978Y-101518071D01*
X154069311Y-101920933D01*
X153978182Y-102349662D01*
X153972062Y-102787925D01*
X153339800Y-102787925D01*
X153339800Y-95524278D01*
X154694278Y-94169800D01*
X165735000Y-94169800D01*
X165821410Y-94161328D01*
X165907878Y-94153763D01*
X165912624Y-94152384D01*
X165917541Y-94151902D01*
X166000627Y-94126816D01*
X166084011Y-94102591D01*
X166088399Y-94100316D01*
X166093130Y-94098888D01*
X166169773Y-94058136D01*
X166246852Y-94018182D01*
X166250715Y-94015099D01*
X166255077Y-94012779D01*
X166322354Y-93957910D01*
X166390195Y-93903753D01*
X166397072Y-93896971D01*
X166397215Y-93896855D01*
X166397324Y-93896723D01*
X166399539Y-93894539D01*
X168304539Y-91989539D01*
X168359636Y-91922463D01*
X168415442Y-91855956D01*
X168417823Y-91851625D01*
X168420959Y-91847807D01*
X168461972Y-91771317D01*
X168503803Y-91695227D01*
X168505298Y-91690516D01*
X168507633Y-91686160D01*
X168533006Y-91603169D01*
X168559263Y-91520395D01*
X168559814Y-91515480D01*
X168561258Y-91510758D01*
X168570033Y-91424376D01*
X168579708Y-91338122D01*
X168579776Y-91328471D01*
X168579795Y-91328281D01*
X168579778Y-91328104D01*
X168579800Y-91325000D01*
X168579800Y-88088648D01*
X168582808Y-88086739D01*
X168799243Y-87880631D01*
X168971522Y-87636410D01*
X169093084Y-87363377D01*
X169159299Y-87071932D01*
X169164065Y-86730564D01*
X169106014Y-86437384D01*
X168992123Y-86161063D01*
X168826730Y-85912127D01*
X168616135Y-85700056D01*
X168368359Y-85532929D01*
X168092840Y-85417112D01*
X167800072Y-85357015D01*
X167501208Y-85354929D01*
X167207630Y-85410932D01*
X166930520Y-85522891D01*
X166680435Y-85686542D01*
X166466899Y-85895652D01*
X166369903Y-86037312D01*
X166286730Y-85912127D01*
X166076135Y-85700056D01*
X165828359Y-85532929D01*
X165552840Y-85417112D01*
X165260072Y-85357015D01*
X164961208Y-85354929D01*
X164667630Y-85410932D01*
X164390520Y-85522891D01*
X164140435Y-85686542D01*
X163926899Y-85895652D01*
X163829903Y-86037312D01*
X163746730Y-85912127D01*
X163536135Y-85700056D01*
X163288359Y-85532929D01*
X163012840Y-85417112D01*
X162720072Y-85357015D01*
X162421208Y-85354929D01*
X162127630Y-85410932D01*
X161850520Y-85522891D01*
X161600435Y-85686542D01*
X161386899Y-85895652D01*
X161269970Y-86066423D01*
X161076231Y-86003374D01*
X160199605Y-86880000D01*
X161076231Y-87756626D01*
X161270965Y-87693253D01*
X161359872Y-87831210D01*
X161567486Y-88046200D01*
X161812904Y-88216770D01*
X162086779Y-88336423D01*
X162378679Y-88400602D01*
X162677486Y-88406861D01*
X162971817Y-88354962D01*
X163250462Y-88246883D01*
X163502808Y-88086739D01*
X163719243Y-87880631D01*
X163830281Y-87723225D01*
X163899872Y-87831210D01*
X164107486Y-88046200D01*
X164352904Y-88216770D01*
X164626779Y-88336423D01*
X164918679Y-88400602D01*
X165217486Y-88406861D01*
X165511817Y-88354962D01*
X165790462Y-88246883D01*
X166042808Y-88086739D01*
X166259243Y-87880631D01*
X166370281Y-87723225D01*
X166439872Y-87831210D01*
X166647486Y-88046200D01*
X166700200Y-88082837D01*
X166700200Y-90935722D01*
X165345722Y-92290200D01*
X154305000Y-92290200D01*
X154218635Y-92298668D01*
X154132122Y-92306237D01*
X154127376Y-92307616D01*
X154122459Y-92308098D01*
X154039373Y-92333184D01*
X153955989Y-92357409D01*
X153951601Y-92359684D01*
X153946870Y-92361112D01*
X153870227Y-92401864D01*
X153793148Y-92441818D01*
X153789285Y-92444901D01*
X153784923Y-92447221D01*
X153717646Y-92502090D01*
X153649805Y-92556247D01*
X153642928Y-92563029D01*
X153642785Y-92563145D01*
X153642676Y-92563277D01*
X153640461Y-92565461D01*
X151735461Y-94470461D01*
X151680364Y-94537537D01*
X151624558Y-94604044D01*
X151622177Y-94608375D01*
X151619041Y-94612193D01*
X151578028Y-94688683D01*
X151536197Y-94764773D01*
X151534702Y-94769484D01*
X151532367Y-94773840D01*
X151506994Y-94856831D01*
X151480737Y-94939605D01*
X151480186Y-94944520D01*
X151478742Y-94949242D01*
X151469972Y-95035579D01*
X151460292Y-95121878D01*
X151460224Y-95131539D01*
X151460206Y-95131719D01*
X151460222Y-95131886D01*
X151460200Y-95135000D01*
X151460200Y-130662166D01*
X151213137Y-130823840D01*
X150949019Y-131082482D01*
X150740169Y-131387500D01*
X150594542Y-131727275D01*
X150517683Y-132088864D01*
X150512522Y-132458496D01*
X149077746Y-132458496D01*
X149046250Y-132427000D01*
X147447000Y-132427000D01*
X147193000Y-132427000D01*
X145593750Y-132427000D01*
X145435000Y-132585750D01*
X144108199Y-132585750D01*
X144119185Y-132537396D01*
X144125081Y-132115166D01*
X144053279Y-131752539D01*
X143912410Y-131410764D01*
X143707839Y-131102860D01*
X143593240Y-130987458D01*
X145435000Y-130987458D01*
X145435000Y-132014250D01*
X145593750Y-132173000D01*
X147193000Y-132173000D01*
X147193000Y-130573750D01*
X147447000Y-130573750D01*
X147447000Y-132173000D01*
X149046250Y-132173000D01*
X149205000Y-132014250D01*
X149205000Y-130987458D01*
X149180597Y-130864777D01*
X149132730Y-130749215D01*
X149063237Y-130645211D01*
X148974789Y-130556763D01*
X148870785Y-130487270D01*
X148755223Y-130439403D01*
X148632542Y-130415000D01*
X147605750Y-130415000D01*
X147447000Y-130573750D01*
X147193000Y-130573750D01*
X147034250Y-130415000D01*
X146007458Y-130415000D01*
X145884777Y-130439403D01*
X145769215Y-130487270D01*
X145665211Y-130556763D01*
X145576763Y-130645211D01*
X145507270Y-130749215D01*
X145459403Y-130864777D01*
X145435000Y-130987458D01*
X143593240Y-130987458D01*
X143447358Y-130840555D01*
X143281400Y-130728615D01*
X143281400Y-87067942D01*
X151431862Y-87067942D01*
X151510992Y-87499086D01*
X151672357Y-87906649D01*
X151909813Y-88275107D01*
X152214313Y-88590426D01*
X152574260Y-88840596D01*
X152975943Y-89016087D01*
X153404063Y-89110215D01*
X153842312Y-89119395D01*
X154273998Y-89043278D01*
X154682678Y-88884761D01*
X155052785Y-88649884D01*
X155370222Y-88347592D01*
X155622899Y-87989401D01*
X155801190Y-87588952D01*
X155898305Y-87161500D01*
X155905296Y-86660827D01*
X155820154Y-86230830D01*
X155653114Y-85825560D01*
X155410537Y-85460453D01*
X155101664Y-85149416D01*
X154738259Y-84904296D01*
X154334165Y-84734430D01*
X153904772Y-84646289D01*
X153466438Y-84643229D01*
X153035857Y-84725366D01*
X152629430Y-84889573D01*
X152262638Y-85129595D01*
X151949453Y-85436289D01*
X151701802Y-85797974D01*
X151529119Y-86200873D01*
X151437982Y-86629639D01*
X151431862Y-87067942D01*
X143281400Y-87067942D01*
X143281400Y-80301400D01*
X154508638Y-80301400D01*
X156438600Y-82231362D01*
X156438600Y-85766681D01*
X156306899Y-85895652D01*
X156138047Y-86142255D01*
X156020309Y-86416959D01*
X155958170Y-86709299D01*
X155953997Y-87008142D01*
X156007949Y-87302104D01*
X156117971Y-87579988D01*
X156279872Y-87831210D01*
X156487486Y-88046200D01*
X156732904Y-88216770D01*
X157006779Y-88336423D01*
X157298679Y-88400602D01*
X157597486Y-88406861D01*
X157891817Y-88354962D01*
X158170462Y-88246883D01*
X158422808Y-88086739D01*
X158580857Y-87936231D01*
X159143374Y-87936231D01*
X159225727Y-88189289D01*
X159496418Y-88319086D01*
X159787230Y-88393580D01*
X160086988Y-88409908D01*
X160384171Y-88367443D01*
X160667359Y-88267816D01*
X160814273Y-88189289D01*
X160896626Y-87936231D01*
X160020000Y-87059605D01*
X159143374Y-87936231D01*
X158580857Y-87936231D01*
X158639243Y-87880631D01*
X158770977Y-87693886D01*
X158963769Y-87756626D01*
X159840395Y-86880000D01*
X158963769Y-86003374D01*
X158769384Y-86066633D01*
X158666730Y-85912127D01*
X158578988Y-85823769D01*
X159143374Y-85823769D01*
X160020000Y-86700395D01*
X160896626Y-85823769D01*
X160814273Y-85570711D01*
X160543582Y-85440914D01*
X160252770Y-85366420D01*
X159953012Y-85350092D01*
X159655829Y-85392557D01*
X159372641Y-85492184D01*
X159225727Y-85570711D01*
X159143374Y-85823769D01*
X158578988Y-85823769D01*
X158521400Y-85765778D01*
X158521400Y-81800000D01*
X158512008Y-81704216D01*
X158503629Y-81608433D01*
X158502101Y-81603175D01*
X158501567Y-81597724D01*
X158473761Y-81505628D01*
X158446925Y-81413257D01*
X158444405Y-81408395D01*
X158442822Y-81403153D01*
X158397667Y-81318228D01*
X158353391Y-81232812D01*
X158349974Y-81228532D01*
X158347404Y-81223698D01*
X158286601Y-81149147D01*
X158226590Y-81073972D01*
X158219075Y-81066351D01*
X158218947Y-81066194D01*
X158218801Y-81066074D01*
X158216381Y-81063619D01*
X155676381Y-78523619D01*
X155602028Y-78462544D01*
X155528357Y-78400727D01*
X155523560Y-78398090D01*
X155519326Y-78394612D01*
X155434546Y-78349154D01*
X155350251Y-78302812D01*
X155345029Y-78301155D01*
X155340205Y-78298569D01*
X155248259Y-78270458D01*
X155156519Y-78241357D01*
X155151074Y-78240746D01*
X155145840Y-78239146D01*
X155050121Y-78229423D01*
X154954540Y-78218702D01*
X154943841Y-78218627D01*
X154943635Y-78218606D01*
X154943443Y-78218624D01*
X154940000Y-78218600D01*
X124460000Y-78218600D01*
X124364216Y-78227992D01*
X124268433Y-78236371D01*
X124263175Y-78237899D01*
X124257724Y-78238433D01*
X124165628Y-78266239D01*
X124073257Y-78293075D01*
X124068395Y-78295595D01*
X124063153Y-78297178D01*
X123978228Y-78342333D01*
X123892812Y-78386609D01*
X123888532Y-78390026D01*
X123883698Y-78392596D01*
X123809147Y-78453399D01*
X123733972Y-78513410D01*
X123726351Y-78520925D01*
X123726194Y-78521053D01*
X123726074Y-78521199D01*
X123723619Y-78523619D01*
X121183619Y-81063619D01*
X121122544Y-81137972D01*
X121060727Y-81211643D01*
X121058090Y-81216440D01*
X121054612Y-81220674D01*
X121009154Y-81305454D01*
X120962812Y-81389749D01*
X120961155Y-81394971D01*
X120958569Y-81399795D01*
X120930458Y-81491741D01*
X120901357Y-81583481D01*
X120900746Y-81588926D01*
X120899146Y-81594160D01*
X120889423Y-81689879D01*
X120878702Y-81785460D01*
X120878627Y-81796159D01*
X120878606Y-81796365D01*
X120878624Y-81796557D01*
X120878600Y-81800000D01*
X120878600Y-85766681D01*
X120746899Y-85895652D01*
X120578047Y-86142255D01*
X120460309Y-86416959D01*
X120398170Y-86709299D01*
X120393997Y-87008142D01*
X120340446Y-87008142D01*
X120345296Y-86660827D01*
X120260154Y-86230830D01*
X120093114Y-85825560D01*
X119850537Y-85460453D01*
X119541664Y-85149416D01*
X119178259Y-84904296D01*
X118774165Y-84734430D01*
X118344772Y-84646289D01*
X117906438Y-84643229D01*
X117475857Y-84725366D01*
X117069430Y-84889573D01*
X116702638Y-85129595D01*
X116389453Y-85436289D01*
X116141802Y-85797974D01*
X116116100Y-85857941D01*
X116116100Y-72012057D01*
X116349813Y-72374707D01*
X116654313Y-72690026D01*
X117014260Y-72940196D01*
X117415943Y-73115687D01*
X117844063Y-73209815D01*
X118282312Y-73218995D01*
X118713998Y-73142878D01*
X119122678Y-72984361D01*
X119492785Y-72749484D01*
X119810222Y-72447192D01*
X119974684Y-72214053D01*
X123225479Y-72214053D01*
X123296066Y-72598653D01*
X123440012Y-72962218D01*
X123651833Y-73290899D01*
X123923461Y-73572179D01*
X124244550Y-73795341D01*
X124602870Y-73951887D01*
X124984772Y-74035854D01*
X125375710Y-74044043D01*
X125760794Y-73976142D01*
X126125355Y-73834739D01*
X126455507Y-73625217D01*
X126738676Y-73355560D01*
X126964075Y-73036036D01*
X126975805Y-73009689D01*
X127157033Y-73290899D01*
X127428661Y-73572179D01*
X127749750Y-73795341D01*
X128108070Y-73951887D01*
X128489972Y-74035854D01*
X128880910Y-74044043D01*
X129265994Y-73976142D01*
X129630555Y-73834739D01*
X129960707Y-73625217D01*
X130243876Y-73355560D01*
X130469275Y-73036036D01*
X130628319Y-72678818D01*
X130714949Y-72297511D01*
X130721186Y-71850888D01*
X130645236Y-71467311D01*
X130521680Y-71167542D01*
X133651862Y-71167542D01*
X133730992Y-71598686D01*
X133892357Y-72006249D01*
X134129813Y-72374707D01*
X134434313Y-72690026D01*
X134794260Y-72940196D01*
X135195943Y-73115687D01*
X135624063Y-73209815D01*
X136062312Y-73218995D01*
X136493998Y-73142878D01*
X136902678Y-72984361D01*
X137272785Y-72749484D01*
X137590222Y-72447192D01*
X137842899Y-72089001D01*
X138021190Y-71688552D01*
X138118305Y-71261100D01*
X138119611Y-71167542D01*
X151431862Y-71167542D01*
X151510992Y-71598686D01*
X151672357Y-72006249D01*
X151909813Y-72374707D01*
X152214313Y-72690026D01*
X152574260Y-72940196D01*
X152975943Y-73115687D01*
X153404063Y-73209815D01*
X153842312Y-73218995D01*
X154273998Y-73142878D01*
X154682678Y-72984361D01*
X155052785Y-72749484D01*
X155370222Y-72447192D01*
X155534684Y-72214053D01*
X158785479Y-72214053D01*
X158856066Y-72598653D01*
X159000012Y-72962218D01*
X159211833Y-73290899D01*
X159483461Y-73572179D01*
X159804550Y-73795341D01*
X160162870Y-73951887D01*
X160544772Y-74035854D01*
X160935710Y-74044043D01*
X161320794Y-73976142D01*
X161685355Y-73834739D01*
X162015507Y-73625217D01*
X162298676Y-73355560D01*
X162524075Y-73036036D01*
X162535805Y-73009689D01*
X162717033Y-73290899D01*
X162988661Y-73572179D01*
X163309750Y-73795341D01*
X163668070Y-73951887D01*
X164049972Y-74035854D01*
X164440910Y-74044043D01*
X164825994Y-73976142D01*
X165190555Y-73834739D01*
X165520707Y-73625217D01*
X165803876Y-73355560D01*
X166029275Y-73036036D01*
X166188319Y-72678818D01*
X166274949Y-72297511D01*
X166281186Y-71850888D01*
X166205236Y-71467311D01*
X166056228Y-71105791D01*
X165839838Y-70780099D01*
X165564310Y-70502640D01*
X165240136Y-70283982D01*
X164879665Y-70132454D01*
X164496628Y-70053828D01*
X164105613Y-70051098D01*
X163721515Y-70124368D01*
X163358964Y-70270849D01*
X163031769Y-70484959D01*
X162752393Y-70758544D01*
X162533102Y-71078811D01*
X162334638Y-70780099D01*
X162059110Y-70502640D01*
X161734936Y-70283982D01*
X161374465Y-70132454D01*
X160991428Y-70053828D01*
X160600413Y-70051098D01*
X160216315Y-70124368D01*
X159853764Y-70270849D01*
X159526569Y-70484959D01*
X159247193Y-70758544D01*
X159026278Y-71081183D01*
X158872237Y-71440587D01*
X158790938Y-71823067D01*
X158785479Y-72214053D01*
X155534684Y-72214053D01*
X155622899Y-72089001D01*
X155801190Y-71688552D01*
X155898305Y-71261100D01*
X155905296Y-70760427D01*
X155820154Y-70330430D01*
X155653114Y-69925160D01*
X155410537Y-69560053D01*
X155101664Y-69249016D01*
X154738259Y-69003896D01*
X154334165Y-68834030D01*
X153904772Y-68745889D01*
X153466438Y-68742829D01*
X153035857Y-68824966D01*
X152629430Y-68989173D01*
X152262638Y-69229195D01*
X151949453Y-69535889D01*
X151701802Y-69897574D01*
X151529119Y-70300473D01*
X151437982Y-70729239D01*
X151431862Y-71167542D01*
X138119611Y-71167542D01*
X138125296Y-70760427D01*
X138040154Y-70330430D01*
X137873114Y-69925160D01*
X137630537Y-69560053D01*
X137321664Y-69249016D01*
X136958259Y-69003896D01*
X136554165Y-68834030D01*
X136124772Y-68745889D01*
X135686438Y-68742829D01*
X135255857Y-68824966D01*
X134849430Y-68989173D01*
X134482638Y-69229195D01*
X134169453Y-69535889D01*
X133921802Y-69897574D01*
X133749119Y-70300473D01*
X133657982Y-70729239D01*
X133651862Y-71167542D01*
X130521680Y-71167542D01*
X130496228Y-71105791D01*
X130279838Y-70780099D01*
X130004310Y-70502640D01*
X129680136Y-70283982D01*
X129319665Y-70132454D01*
X128936628Y-70053828D01*
X128545613Y-70051098D01*
X128161515Y-70124368D01*
X127798964Y-70270849D01*
X127471769Y-70484959D01*
X127192393Y-70758544D01*
X126973102Y-71078811D01*
X126774638Y-70780099D01*
X126499110Y-70502640D01*
X126174936Y-70283982D01*
X125814465Y-70132454D01*
X125431428Y-70053828D01*
X125040413Y-70051098D01*
X124656315Y-70124368D01*
X124293764Y-70270849D01*
X123966569Y-70484959D01*
X123687193Y-70758544D01*
X123466278Y-71081183D01*
X123312237Y-71440587D01*
X123230938Y-71823067D01*
X123225479Y-72214053D01*
X119974684Y-72214053D01*
X120062899Y-72089001D01*
X120241190Y-71688552D01*
X120338305Y-71261100D01*
X120345296Y-70760427D01*
X120260154Y-70330430D01*
X120093114Y-69925160D01*
X119850537Y-69560053D01*
X119541664Y-69249016D01*
X119178259Y-69003896D01*
X118774165Y-68834030D01*
X118344772Y-68745889D01*
X117906438Y-68742829D01*
X117475857Y-68824966D01*
X117069430Y-68989173D01*
X116702638Y-69229195D01*
X116389453Y-69535889D01*
X116141802Y-69897574D01*
X116116100Y-69957541D01*
X116116100Y-67312254D01*
X117592253Y-65836100D01*
X142240000Y-65836100D01*
X142406941Y-65819731D01*
X142574074Y-65805109D01*
X142583243Y-65802445D01*
X142592749Y-65801513D01*
X142753363Y-65753021D01*
X142914441Y-65706223D01*
X142922919Y-65701828D01*
X142932062Y-65699068D01*
X143080195Y-65620304D01*
X143229119Y-65543109D01*
X143236582Y-65537151D01*
X143245014Y-65532668D01*
X143374992Y-65426660D01*
X143506121Y-65321982D01*
X143519420Y-65308868D01*
X143519686Y-65308651D01*
X143519890Y-65308404D01*
X143524177Y-65304177D01*
X144780000Y-64048353D01*
X146035823Y-65304176D01*
X146165423Y-65410631D01*
X146293963Y-65518489D01*
X146302332Y-65523090D01*
X146309711Y-65529151D01*
X146457538Y-65608415D01*
X146604562Y-65689242D01*
X146613666Y-65692130D01*
X146622081Y-65696642D01*
X146782480Y-65745681D01*
X146942412Y-65796414D01*
X146951904Y-65797479D01*
X146961034Y-65800270D01*
X147127865Y-65817216D01*
X147294643Y-65835923D01*
X147313319Y-65836053D01*
X147313660Y-65836088D01*
X147313978Y-65836058D01*
X147320000Y-65836100D01*
X171967746Y-65836100D01*
X173443900Y-67312253D01*
X173443900Y-69951329D01*
X173433114Y-69925160D01*
X173190537Y-69560053D01*
X172881664Y-69249016D01*
X172518259Y-69003896D01*
X172114165Y-68834030D01*
X171684772Y-68745889D01*
X171246438Y-68742829D01*
X170815857Y-68824966D01*
X170409430Y-68989173D01*
X170042638Y-69229195D01*
X169729453Y-69535889D01*
X169481802Y-69897574D01*
X169309119Y-70300473D01*
X169217982Y-70729239D01*
X169211862Y-71167542D01*
X169290992Y-71598686D01*
X169452357Y-72006249D01*
X169689813Y-72374707D01*
X169994313Y-72690026D01*
X170354260Y-72940196D01*
X170755943Y-73115687D01*
X171184063Y-73209815D01*
X171622312Y-73218995D01*
X172053998Y-73142878D01*
X172462678Y-72984361D01*
X172832785Y-72749484D01*
X173150222Y-72447192D01*
X173402899Y-72089001D01*
X173443900Y-71996911D01*
X173443900Y-85851729D01*
X173433114Y-85825560D01*
X173190537Y-85460453D01*
X172881664Y-85149416D01*
X172518259Y-84904296D01*
X172114165Y-84734430D01*
X171684772Y-84646289D01*
X171246438Y-84643229D01*
X170815857Y-84725366D01*
X170409430Y-84889573D01*
X170042638Y-85129595D01*
X169729453Y-85436289D01*
X169481802Y-85797974D01*
X169309119Y-86200873D01*
X169217982Y-86629639D01*
X169211862Y-87067942D01*
X169290992Y-87499086D01*
X169452357Y-87906649D01*
X169689813Y-88275107D01*
X169994313Y-88590426D01*
X170354260Y-88840596D01*
X170755943Y-89016087D01*
X171184063Y-89110215D01*
X171622312Y-89119395D01*
X172053998Y-89043278D01*
X172462678Y-88884761D01*
X172832785Y-88649884D01*
X173150222Y-88347592D01*
X173402899Y-87989401D01*
X173443900Y-87897311D01*
X173443900Y-102637747D01*
X170697746Y-105383900D01*
X167640000Y-105383900D01*
X167287251Y-105418487D01*
X166947938Y-105520932D01*
X166634986Y-105687332D01*
X166555450Y-105752200D01*
X165595719Y-105752200D01*
X165426571Y-105698543D01*
X165128859Y-105665150D01*
X165107427Y-105665000D01*
X165092573Y-105665000D01*
X164794423Y-105694234D01*
X164507630Y-105780822D01*
X164243117Y-105921466D01*
X164010959Y-106110809D01*
X163828878Y-106330907D01*
X163664143Y-106126017D01*
X163434651Y-105933451D01*
X163172128Y-105789127D01*
X162886571Y-105698543D01*
X162588859Y-105665150D01*
X162567427Y-105665000D01*
X162552573Y-105665000D01*
X162254423Y-105694234D01*
X161967630Y-105780822D01*
X161703117Y-105921466D01*
X161512295Y-106077097D01*
X161496894Y-106027366D01*
X161398100Y-105877441D01*
X161261450Y-105760975D01*
X161097763Y-105687190D01*
X160920000Y-105661928D01*
X159120000Y-105661928D01*
X159018879Y-105669992D01*
X158847366Y-105723106D01*
X158697441Y-105821900D01*
X158580975Y-105958550D01*
X158507190Y-106122237D01*
X158481928Y-106300000D01*
X158481928Y-108100000D01*
X158489992Y-108201121D01*
X158543106Y-108372634D01*
X158641900Y-108522559D01*
X158778550Y-108639025D01*
X158942237Y-108712810D01*
X159120000Y-108738072D01*
X160920000Y-108738072D01*
X161021121Y-108730008D01*
X161059168Y-108718226D01*
X160890758Y-109024562D01*
X160783586Y-109362412D01*
X160744077Y-109714643D01*
X160743900Y-109740000D01*
X160743900Y-120647341D01*
X160677683Y-120958864D01*
X160672522Y-121328496D01*
X160739254Y-121692091D01*
X160743900Y-121703825D01*
X160743900Y-130768614D01*
X160697190Y-130872237D01*
X160671928Y-131050000D01*
X160671928Y-133550000D01*
X160679992Y-133651121D01*
X160733106Y-133822634D01*
X160831900Y-133972559D01*
X160968550Y-134089025D01*
X161132237Y-134162810D01*
X161310000Y-134188072D01*
X163810000Y-134188072D01*
X163911121Y-134180008D01*
X164082634Y-134126894D01*
X164232559Y-134028100D01*
X164349025Y-133891450D01*
X164422810Y-133727763D01*
X164448072Y-133550000D01*
X164448072Y-132458496D01*
X165752522Y-132458496D01*
X165819254Y-132822091D01*
X165955338Y-133165799D01*
X166155590Y-133476529D01*
X166412382Y-133742446D01*
X166715935Y-133953420D01*
X167054684Y-134101416D01*
X167415729Y-134180797D01*
X167785315Y-134188539D01*
X168149367Y-134124346D01*
X168494017Y-133990666D01*
X168806137Y-133792588D01*
X169073840Y-133537658D01*
X169286929Y-133235586D01*
X169437286Y-132897877D01*
X169519185Y-132537396D01*
X169520286Y-132458496D01*
X170832522Y-132458496D01*
X170899254Y-132822091D01*
X171035338Y-133165799D01*
X171235590Y-133476529D01*
X171492382Y-133742446D01*
X171795935Y-133953420D01*
X172134684Y-134101416D01*
X172495729Y-134180797D01*
X172865315Y-134188539D01*
X173229367Y-134124346D01*
X173574017Y-133990666D01*
X173886137Y-133792588D01*
X174153840Y-133537658D01*
X174366929Y-133235586D01*
X174517286Y-132897877D01*
X174599185Y-132537396D01*
X174605081Y-132115166D01*
X174533279Y-131752539D01*
X174392410Y-131410764D01*
X174187839Y-131102860D01*
X173927358Y-130840555D01*
X173620890Y-130633839D01*
X173280107Y-130490587D01*
X172917990Y-130416255D01*
X172548331Y-130413674D01*
X172185211Y-130482943D01*
X171842461Y-130621423D01*
X171533137Y-130823840D01*
X171269019Y-131082482D01*
X171060169Y-131387500D01*
X170914542Y-131727275D01*
X170837683Y-132088864D01*
X170832522Y-132458496D01*
X169520286Y-132458496D01*
X169525081Y-132115166D01*
X169453279Y-131752539D01*
X169312410Y-131410764D01*
X169107839Y-131102860D01*
X168847358Y-130840555D01*
X168540890Y-130633839D01*
X168200107Y-130490587D01*
X167837990Y-130416255D01*
X167468331Y-130413674D01*
X167105211Y-130482943D01*
X166762461Y-130621423D01*
X166453137Y-130823840D01*
X166189019Y-131082482D01*
X165980169Y-131387500D01*
X165834542Y-131727275D01*
X165757683Y-132088864D01*
X165752522Y-132458496D01*
X164448072Y-132458496D01*
X164448072Y-131050000D01*
X164440008Y-130948879D01*
X164386894Y-130777366D01*
X164376100Y-130760986D01*
X164376100Y-121685067D01*
X164439185Y-121407396D01*
X164445081Y-120985166D01*
X164376100Y-120636786D01*
X164376100Y-119920000D01*
X170831928Y-119920000D01*
X170831928Y-122420000D01*
X170839992Y-122521121D01*
X170893106Y-122692634D01*
X170991900Y-122842559D01*
X171128550Y-122959025D01*
X171292237Y-123032810D01*
X171470000Y-123058072D01*
X173970000Y-123058072D01*
X174071121Y-123050008D01*
X174242634Y-122996894D01*
X174392559Y-122898100D01*
X174509025Y-122761450D01*
X174582810Y-122597763D01*
X174608072Y-122420000D01*
X174608072Y-119920000D01*
X174600008Y-119818879D01*
X174546894Y-119647366D01*
X174448100Y-119497441D01*
X174311450Y-119380975D01*
X174147763Y-119307190D01*
X173970000Y-119281928D01*
X171470000Y-119281928D01*
X171368879Y-119289992D01*
X171197366Y-119343106D01*
X171047441Y-119441900D01*
X170930975Y-119578550D01*
X170857190Y-119742237D01*
X170831928Y-119920000D01*
X164376100Y-119920000D01*
X164376100Y-109740000D01*
X164341513Y-109387251D01*
X164239068Y-109047938D01*
X164072668Y-108734986D01*
X164007800Y-108655450D01*
X164007800Y-108284004D01*
X164225349Y-108466549D01*
X164487872Y-108610873D01*
X164773429Y-108701457D01*
X165071141Y-108734850D01*
X165092573Y-108735000D01*
X165107427Y-108735000D01*
X165405577Y-108705766D01*
X165597569Y-108647800D01*
X166553554Y-108647800D01*
X166613963Y-108698489D01*
X166924562Y-108869242D01*
X167262412Y-108976414D01*
X167614643Y-109015923D01*
X167640000Y-109016100D01*
X171450000Y-109016100D01*
X171616941Y-108999731D01*
X171784074Y-108985109D01*
X171793243Y-108982445D01*
X171802749Y-108981513D01*
X171963363Y-108933021D01*
X172124441Y-108886223D01*
X172132919Y-108881828D01*
X172142062Y-108879068D01*
X172290195Y-108800304D01*
X172439119Y-108723109D01*
X172446582Y-108717151D01*
X172455014Y-108712668D01*
X172584992Y-108606660D01*
X172716121Y-108501982D01*
X172729420Y-108488868D01*
X172729686Y-108488651D01*
X172729890Y-108488404D01*
X172734177Y-108484177D01*
X176544177Y-104674176D01*
X176650617Y-104544594D01*
X176758489Y-104416037D01*
X176763092Y-104407665D01*
X176769151Y-104400288D01*
X176848393Y-104252502D01*
X176929242Y-104105438D01*
X176932131Y-104096331D01*
X176936642Y-104087918D01*
X176985672Y-103927547D01*
X177036414Y-103767588D01*
X177037479Y-103758094D01*
X177040270Y-103748965D01*
X177057220Y-103582100D01*
X177075923Y-103415357D01*
X177076053Y-103396690D01*
X177076089Y-103396339D01*
X177076058Y-103396011D01*
X177076100Y-103390000D01*
X177076100Y-66560000D01*
X177059732Y-66393063D01*
X177045109Y-66225926D01*
X177042445Y-66216756D01*
X177041513Y-66207251D01*
X176993025Y-66046650D01*
X176946223Y-65885558D01*
X176941828Y-65877079D01*
X176939068Y-65867938D01*
X176860325Y-65719844D01*
X176783109Y-65570880D01*
X176777150Y-65563415D01*
X176772668Y-65554986D01*
X176666673Y-65425023D01*
X176561981Y-65293878D01*
X176548872Y-65280585D01*
X176548651Y-65280314D01*
X176548400Y-65280107D01*
X176544176Y-65275823D01*
X174004177Y-62735823D01*
X173874547Y-62629344D01*
X173746037Y-62521511D01*
X173737668Y-62516910D01*
X173730289Y-62510849D01*
X173582462Y-62431585D01*
X173435438Y-62350758D01*
X173426334Y-62347870D01*
X173417919Y-62343358D01*
X173257520Y-62294319D01*
X173097588Y-62243586D01*
X173088096Y-62242521D01*
X173078966Y-62239730D01*
X172912095Y-62222780D01*
X172745357Y-62204077D01*
X172726690Y-62203947D01*
X172726339Y-62203911D01*
X172726011Y-62203942D01*
X172720000Y-62203900D01*
X148072253Y-62203900D01*
X146685000Y-60816646D01*
X146685000Y-56700000D01*
X146648720Y-56329984D01*
X146541260Y-55974061D01*
X146366715Y-55645789D01*
X146207034Y-55450000D01*
X147971928Y-55450000D01*
X147971928Y-57950000D01*
X147979992Y-58051121D01*
X148033106Y-58222634D01*
X148131900Y-58372559D01*
X148268550Y-58489025D01*
X148432237Y-58562810D01*
X148610000Y-58588072D01*
X151110000Y-58588072D01*
X151211121Y-58580008D01*
X151382634Y-58526894D01*
X151532559Y-58428100D01*
X151649025Y-58291450D01*
X151722810Y-58127763D01*
X151748072Y-57950000D01*
X151748072Y-55450000D01*
X151740008Y-55348879D01*
X151686894Y-55177366D01*
X151683751Y-55172595D01*
X157921746Y-55172595D01*
X157995930Y-55576793D01*
X158147210Y-55958883D01*
X158369824Y-56304313D01*
X158655293Y-56599925D01*
X158795147Y-56697126D01*
X158700599Y-56758996D01*
X158406987Y-57046521D01*
X158174814Y-57385601D01*
X158012925Y-57763318D01*
X157927484Y-58165287D01*
X157921746Y-58576195D01*
X157995930Y-58980393D01*
X158147210Y-59362483D01*
X158369824Y-59707913D01*
X158655293Y-60003525D01*
X158992744Y-60238059D01*
X159369322Y-60402582D01*
X159770684Y-60490827D01*
X160181543Y-60499433D01*
X160586248Y-60428073D01*
X160969385Y-60279464D01*
X161316361Y-60059266D01*
X161613958Y-59775868D01*
X161850842Y-59440063D01*
X162017990Y-59064643D01*
X162109035Y-58663907D01*
X162115590Y-58194526D01*
X162035769Y-57791403D01*
X161879169Y-57411462D01*
X161651753Y-57069174D01*
X161362185Y-56777577D01*
X161246847Y-56699781D01*
X161316361Y-56655666D01*
X161613958Y-56372268D01*
X161850842Y-56036463D01*
X162017990Y-55661043D01*
X162109035Y-55260307D01*
X162110259Y-55172595D01*
X167827746Y-55172595D01*
X167901930Y-55576793D01*
X168053210Y-55958883D01*
X168275824Y-56304313D01*
X168561293Y-56599925D01*
X168701147Y-56697126D01*
X168606599Y-56758996D01*
X168312987Y-57046521D01*
X168080814Y-57385601D01*
X167918925Y-57763318D01*
X167833484Y-58165287D01*
X167827746Y-58576195D01*
X167901930Y-58980393D01*
X168053210Y-59362483D01*
X168275824Y-59707913D01*
X168561293Y-60003525D01*
X168898744Y-60238059D01*
X169275322Y-60402582D01*
X169676684Y-60490827D01*
X170087543Y-60499433D01*
X170492248Y-60428073D01*
X170875385Y-60279464D01*
X171222361Y-60059266D01*
X171519958Y-59775868D01*
X171756842Y-59440063D01*
X171923990Y-59064643D01*
X172015035Y-58663907D01*
X172021590Y-58194526D01*
X171941769Y-57791403D01*
X171785169Y-57411462D01*
X171557753Y-57069174D01*
X171268185Y-56777577D01*
X171152847Y-56699781D01*
X171222361Y-56655666D01*
X171519958Y-56372268D01*
X171756842Y-56036463D01*
X171923990Y-55661043D01*
X172015035Y-55260307D01*
X172021590Y-54790926D01*
X171941769Y-54387803D01*
X171785169Y-54007862D01*
X171557753Y-53665574D01*
X171268185Y-53373977D01*
X170927493Y-53144178D01*
X170548654Y-52984929D01*
X170146099Y-52902296D01*
X169735161Y-52899427D01*
X169331491Y-52976431D01*
X168950466Y-53130375D01*
X168606599Y-53355396D01*
X168312987Y-53642921D01*
X168080814Y-53982001D01*
X167918925Y-54359718D01*
X167833484Y-54761687D01*
X167827746Y-55172595D01*
X162110259Y-55172595D01*
X162115590Y-54790926D01*
X162035769Y-54387803D01*
X161879169Y-54007862D01*
X161651753Y-53665574D01*
X161362185Y-53373977D01*
X161021493Y-53144178D01*
X160642654Y-52984929D01*
X160240099Y-52902296D01*
X159829161Y-52899427D01*
X159425491Y-52976431D01*
X159044466Y-53130375D01*
X158700599Y-53355396D01*
X158406987Y-53642921D01*
X158174814Y-53982001D01*
X158012925Y-54359718D01*
X157927484Y-54761687D01*
X157921746Y-55172595D01*
X151683751Y-55172595D01*
X151588100Y-55027441D01*
X151451450Y-54910975D01*
X151287763Y-54837190D01*
X151110000Y-54811928D01*
X148610000Y-54811928D01*
X148508879Y-54819992D01*
X148337366Y-54873106D01*
X148187441Y-54971900D01*
X148070975Y-55108550D01*
X147997190Y-55272237D01*
X147971928Y-55450000D01*
X146207034Y-55450000D01*
X146131732Y-55357672D01*
X145845262Y-55120683D01*
X145518217Y-54943851D01*
X145163053Y-54833909D01*
X144793299Y-54795046D01*
X144423039Y-54828743D01*
X144066374Y-54933715D01*
X143736892Y-55105964D01*
X143447141Y-55338930D01*
X143208159Y-55623738D01*
X143029047Y-55949541D01*
X142916629Y-56303928D01*
X142875186Y-56673402D01*
X142875000Y-56700000D01*
X142875000Y-60816647D01*
X141487746Y-62203900D01*
X116840000Y-62203900D01*
X116673063Y-62220268D01*
X116505926Y-62234891D01*
X116496756Y-62237555D01*
X116487251Y-62238487D01*
X116326650Y-62286975D01*
X116165558Y-62333777D01*
X116157079Y-62338172D01*
X116147938Y-62340932D01*
X115999844Y-62419675D01*
X115850880Y-62496891D01*
X115843415Y-62502850D01*
X115834986Y-62507332D01*
X115705023Y-62613327D01*
X115573878Y-62718019D01*
X115560585Y-62731128D01*
X115560314Y-62731349D01*
X115560107Y-62731600D01*
X115555823Y-62735824D01*
X113015823Y-65275823D01*
X112909344Y-65405453D01*
X112801511Y-65533963D01*
X112796910Y-65542332D01*
X112790849Y-65549711D01*
X112711585Y-65697538D01*
X112630758Y-65844562D01*
X112627870Y-65853666D01*
X112623358Y-65862081D01*
X112574319Y-66022480D01*
X112523586Y-66182412D01*
X112522521Y-66191904D01*
X112519730Y-66201034D01*
X112502780Y-66367905D01*
X112484077Y-66534643D01*
X112483947Y-66553310D01*
X112483911Y-66553661D01*
X112483942Y-66553989D01*
X112483900Y-66560000D01*
X111590000Y-66560000D01*
X111590000Y-62223856D01*
X114792760Y-62223856D01*
X114792760Y-55176195D01*
X117535746Y-55176195D01*
X117609930Y-55580393D01*
X117761210Y-55962483D01*
X117983824Y-56307913D01*
X118269293Y-56603525D01*
X118409147Y-56700726D01*
X118314599Y-56762596D01*
X118020987Y-57050121D01*
X117788814Y-57389201D01*
X117626925Y-57766918D01*
X117541484Y-58168887D01*
X117535746Y-58579795D01*
X117609930Y-58983993D01*
X117761210Y-59366083D01*
X117983824Y-59711513D01*
X118269293Y-60007125D01*
X118606744Y-60241659D01*
X118983322Y-60406182D01*
X119384684Y-60494427D01*
X119795543Y-60503033D01*
X120200248Y-60431673D01*
X120583385Y-60283064D01*
X120930361Y-60062866D01*
X121227958Y-59779468D01*
X121464842Y-59443663D01*
X121631990Y-59068243D01*
X121723035Y-58667507D01*
X121729590Y-58198126D01*
X121649769Y-57795003D01*
X121493169Y-57415062D01*
X121265753Y-57072774D01*
X120976185Y-56781177D01*
X120860847Y-56703381D01*
X120930361Y-56659266D01*
X121227958Y-56375868D01*
X121464842Y-56040063D01*
X121631990Y-55664643D01*
X121723035Y-55263907D01*
X121724259Y-55176195D01*
X127441746Y-55176195D01*
X127515930Y-55580393D01*
X127667210Y-55962483D01*
X127889824Y-56307913D01*
X128175293Y-56603525D01*
X128315147Y-56700726D01*
X128220599Y-56762596D01*
X127926987Y-57050121D01*
X127694814Y-57389201D01*
X127532925Y-57766918D01*
X127447484Y-58168887D01*
X127441746Y-58579795D01*
X127515930Y-58983993D01*
X127667210Y-59366083D01*
X127889824Y-59711513D01*
X128175293Y-60007125D01*
X128512744Y-60241659D01*
X128889322Y-60406182D01*
X129290684Y-60494427D01*
X129701543Y-60503033D01*
X130106248Y-60431673D01*
X130489385Y-60283064D01*
X130836361Y-60062866D01*
X131133958Y-59779468D01*
X131370842Y-59443663D01*
X131537990Y-59068243D01*
X131629035Y-58667507D01*
X131635590Y-58198126D01*
X131555769Y-57795003D01*
X131399169Y-57415062D01*
X131171753Y-57072774D01*
X130958966Y-56858496D01*
X137812522Y-56858496D01*
X137879254Y-57222091D01*
X138015338Y-57565799D01*
X138215590Y-57876529D01*
X138472382Y-58142446D01*
X138775935Y-58353420D01*
X139114684Y-58501416D01*
X139475729Y-58580797D01*
X139845315Y-58588539D01*
X140209367Y-58524346D01*
X140554017Y-58390666D01*
X140866137Y-58192588D01*
X141133840Y-57937658D01*
X141346929Y-57635586D01*
X141497286Y-57297877D01*
X141579185Y-56937396D01*
X141585081Y-56515166D01*
X141513279Y-56152539D01*
X141372410Y-55810764D01*
X141167839Y-55502860D01*
X140907358Y-55240555D01*
X140600890Y-55033839D01*
X140260107Y-54890587D01*
X139897990Y-54816255D01*
X139528331Y-54813674D01*
X139165211Y-54882943D01*
X138822461Y-55021423D01*
X138513137Y-55223840D01*
X138249019Y-55482482D01*
X138040169Y-55787500D01*
X137894542Y-56127275D01*
X137817683Y-56488864D01*
X137812522Y-56858496D01*
X130958966Y-56858496D01*
X130882185Y-56781177D01*
X130766847Y-56703381D01*
X130836361Y-56659266D01*
X131133958Y-56375868D01*
X131370842Y-56040063D01*
X131537990Y-55664643D01*
X131629035Y-55263907D01*
X131635590Y-54794526D01*
X131555769Y-54391403D01*
X131399169Y-54011462D01*
X131171753Y-53669174D01*
X130882185Y-53377577D01*
X130541493Y-53147778D01*
X130162654Y-52988529D01*
X129760099Y-52905896D01*
X129349161Y-52903027D01*
X128945491Y-52980031D01*
X128564466Y-53133975D01*
X128220599Y-53358996D01*
X127926987Y-53646521D01*
X127694814Y-53985601D01*
X127532925Y-54363318D01*
X127447484Y-54765287D01*
X127441746Y-55176195D01*
X121724259Y-55176195D01*
X121729590Y-54794526D01*
X121649769Y-54391403D01*
X121493169Y-54011462D01*
X121265753Y-53669174D01*
X120976185Y-53377577D01*
X120635493Y-53147778D01*
X120256654Y-52988529D01*
X119854099Y-52905896D01*
X119443161Y-52903027D01*
X119039491Y-52980031D01*
X118658466Y-53133975D01*
X118314599Y-53358996D01*
X118020987Y-53646521D01*
X117788814Y-53985601D01*
X117626925Y-54363318D01*
X117541484Y-54765287D01*
X117535746Y-55176195D01*
X114792760Y-55176195D01*
X114792760Y-51760000D01*
X177970000Y-51760000D01*
X177970000Y-137240000D01*
M02*
