G04 #@! TF.FileFunction,Copper,L1,Top,Signal*
%FSLAX46Y46*%
G04 Gerber Fmt 4.6, Leading zero omitted, Abs format (unit mm)*
G04 Created by KiCad (PCBNEW 4.0.6) date 06/30/17 08:32:14*
%MOMM*%
%LPD*%
G01*
G04 APERTURE LIST*
%ADD10C,0.100000*%
%ADD11C,0.304800*%
%ADD12R,2.500000X2.500000*%
%ADD13C,2.500000*%
%ADD14R,1.800000X1.800000*%
%ADD15O,1.800000X1.800000*%
%ADD16R,1.300000X1.400000*%
%ADD17C,2.921000*%
%ADD18C,3.200000*%
%ADD19C,3.200400*%
%ADD20C,1.778000*%
%ADD21C,2.717800*%
%ADD22C,2.362200*%
%ADD23C,1.625600*%
%ADD24C,0.609600*%
%ADD25C,0.254000*%
G04 APERTURE END LIST*
D10*
D11*
X177197657Y-52045715D02*
X177197657Y-52742401D01*
X175978457Y-52394058D02*
X177197657Y-52394058D01*
X177197657Y-53381029D02*
X177197657Y-53613258D01*
X177139600Y-53729372D01*
X177023486Y-53845486D01*
X176791257Y-53903544D01*
X176384857Y-53903544D01*
X176152629Y-53845486D01*
X176036514Y-53729372D01*
X175978457Y-53613258D01*
X175978457Y-53381029D01*
X176036514Y-53264915D01*
X176152629Y-53148801D01*
X176384857Y-53090744D01*
X176791257Y-53090744D01*
X177023486Y-53148801D01*
X177139600Y-53264915D01*
X177197657Y-53381029D01*
X175978457Y-54426058D02*
X177197657Y-54426058D01*
X177197657Y-54890515D01*
X177139600Y-55006629D01*
X177081543Y-55064686D01*
X176965429Y-55122743D01*
X176791257Y-55122743D01*
X176675143Y-55064686D01*
X176617086Y-55006629D01*
X176559029Y-54890515D01*
X176559029Y-54426058D01*
X175978457Y-56574172D02*
X177197657Y-56574172D01*
X177197657Y-57038629D01*
X177139600Y-57154743D01*
X177081543Y-57212800D01*
X176965429Y-57270857D01*
X176791257Y-57270857D01*
X176675143Y-57212800D01*
X176617086Y-57154743D01*
X176559029Y-57038629D01*
X176559029Y-56574172D01*
X176617086Y-57793372D02*
X176617086Y-58199772D01*
X175978457Y-58373943D02*
X175978457Y-57793372D01*
X177197657Y-57793372D01*
X177197657Y-58373943D01*
X176094571Y-58896458D02*
X176036514Y-58954515D01*
X175978457Y-58896458D01*
X176036514Y-58838401D01*
X176094571Y-58896458D01*
X175978457Y-58896458D01*
X177139600Y-60115657D02*
X177197657Y-59999543D01*
X177197657Y-59825372D01*
X177139600Y-59651200D01*
X177023486Y-59535086D01*
X176907371Y-59477029D01*
X176675143Y-59418972D01*
X176500971Y-59418972D01*
X176268743Y-59477029D01*
X176152629Y-59535086D01*
X176036514Y-59651200D01*
X175978457Y-59825372D01*
X175978457Y-59941486D01*
X176036514Y-60115657D01*
X176094571Y-60173714D01*
X176500971Y-60173714D01*
X176500971Y-59941486D01*
X175978457Y-60696229D02*
X177197657Y-60696229D01*
X175978457Y-61392914D01*
X177197657Y-61392914D01*
X175978457Y-61973486D02*
X177197657Y-61973486D01*
X177197657Y-62263771D01*
X177139600Y-62437943D01*
X177023486Y-62554057D01*
X176907371Y-62612114D01*
X176675143Y-62670171D01*
X176500971Y-62670171D01*
X176268743Y-62612114D01*
X176152629Y-62554057D01*
X176036514Y-62437943D01*
X175978457Y-62263771D01*
X175978457Y-61973486D01*
D12*
X132080000Y-132300000D03*
D13*
X137160000Y-132300000D03*
X142240000Y-132300000D03*
D12*
X147320000Y-132300000D03*
D13*
X152400000Y-132300000D03*
X157480000Y-132300000D03*
D12*
X149860000Y-56700000D03*
D13*
X144780000Y-56700000D03*
X139700000Y-56700000D03*
D12*
X116840000Y-132300000D03*
D13*
X121920000Y-132300000D03*
X127000000Y-132300000D03*
D12*
X162560000Y-132300000D03*
D13*
X167640000Y-132300000D03*
X172720000Y-132300000D03*
D14*
X124460000Y-107200000D03*
D15*
X127000000Y-107200000D03*
X129540000Y-107200000D03*
D14*
X160020000Y-107200000D03*
D15*
X162560000Y-107200000D03*
X165100000Y-107200000D03*
D16*
X126930000Y-116090000D03*
X124530000Y-116090000D03*
X124530000Y-113550000D03*
X126930000Y-113550000D03*
X162490000Y-116090000D03*
X160090000Y-116090000D03*
X160090000Y-113550000D03*
X162490000Y-113550000D03*
D17*
X129540000Y-55000000D03*
X119634000Y-55000000D03*
X129540000Y-58403600D03*
X119634000Y-58403600D03*
X160020000Y-58400000D03*
X169926000Y-58400000D03*
X160020000Y-54996400D03*
X169926000Y-54996400D03*
D18*
X120650000Y-102600000D03*
X133350000Y-102600000D03*
X156210000Y-102600000D03*
X168910000Y-102600000D03*
D12*
X116840000Y-121170000D03*
D13*
X127000000Y-121170000D03*
D12*
X172720000Y-121170000D03*
D13*
X162560000Y-121170000D03*
D19*
X135890000Y-86880000D03*
X135890000Y-70979600D03*
X118110000Y-70979600D03*
D20*
X121920000Y-86880000D03*
X124460000Y-86880000D03*
X127000000Y-86880000D03*
X129540000Y-86880000D03*
X132080000Y-86880000D03*
D21*
X128727200Y-72046400D03*
X125222000Y-72046400D03*
D19*
X118110000Y-86880000D03*
X171450000Y-86880000D03*
X171450000Y-70979600D03*
X153670000Y-70979600D03*
D20*
X157480000Y-86880000D03*
X160020000Y-86880000D03*
X162560000Y-86880000D03*
X165100000Y-86880000D03*
X167640000Y-86880000D03*
D21*
X164287200Y-72046400D03*
X160782000Y-72046400D03*
D19*
X153670000Y-86880000D03*
D22*
X114300000Y-102120000D02*
X127000000Y-89420000D01*
D23*
X127000000Y-89420000D02*
X127000000Y-86880000D01*
D22*
X125222000Y-72046400D02*
X114300000Y-82968400D01*
X114300000Y-82968400D02*
X114300000Y-102120000D01*
X114300000Y-117360000D02*
X116840000Y-121170000D01*
X114300000Y-102120000D02*
X114300000Y-117360000D01*
X116840000Y-132300000D02*
X116840000Y-121170000D01*
X175260000Y-83070000D02*
X172720000Y-80530000D01*
X172720000Y-80530000D02*
X166370000Y-80530000D01*
X166370000Y-80530000D02*
X160782000Y-74942000D01*
X160782000Y-74942000D02*
X160782000Y-72046400D01*
X175260000Y-96475556D02*
X175260000Y-84340000D01*
X175260000Y-84340000D02*
X175260000Y-83070000D01*
D23*
X162560000Y-86880000D02*
X162560000Y-89420000D01*
D22*
X162560000Y-89420000D02*
X175260000Y-96475556D01*
X175260000Y-117360000D02*
X175260000Y-96475556D01*
X175260000Y-117360000D02*
X172720000Y-121170000D01*
X172720000Y-132300000D02*
X172720000Y-121170000D01*
D24*
X126930000Y-116090000D02*
X129540000Y-116090000D01*
X129540000Y-116090000D02*
X132080000Y-118630000D01*
X132080000Y-118630000D02*
X132080000Y-132300000D01*
X162490000Y-116090000D02*
X162490000Y-117290000D01*
X157480000Y-119900000D02*
X157480000Y-132300000D01*
X158750000Y-118630000D02*
X157480000Y-119900000D01*
X161150000Y-118630000D02*
X158750000Y-118630000D01*
X162490000Y-117290000D02*
X161150000Y-118630000D01*
D22*
X160020000Y-58400000D02*
X160020000Y-54996400D01*
X129540000Y-58403600D02*
X129540000Y-55000000D01*
X129540000Y-55000000D02*
X133480000Y-55000000D01*
X133480000Y-55000000D02*
X133350000Y-55130000D01*
D23*
X129540000Y-58403600D02*
X130076400Y-58403600D01*
D22*
X130076400Y-58403600D02*
X133350000Y-55130000D01*
X133350000Y-55130000D02*
X135382000Y-53098000D01*
X146258000Y-53098000D02*
X149860000Y-56700000D01*
X135382000Y-53098000D02*
X146258000Y-53098000D01*
X149860000Y-56700000D02*
X158316400Y-56700000D01*
X158316400Y-56700000D02*
X160020000Y-54996400D01*
D23*
X160020000Y-58400000D02*
X160016400Y-58400000D01*
D22*
X160016400Y-58400000D02*
X158316400Y-56700000D01*
D24*
X165100000Y-107200000D02*
X165100000Y-110940000D01*
X165100000Y-110940000D02*
X162490000Y-113550000D01*
X129540000Y-107200000D02*
X129540000Y-110940000D01*
X129540000Y-110940000D02*
X126930000Y-113550000D01*
D22*
X119634000Y-58403600D02*
X119634000Y-55000000D01*
D23*
X129540000Y-86880000D02*
X129540000Y-84340000D01*
D22*
X132080000Y-81800000D02*
X132080000Y-67449000D01*
X132080000Y-67449000D02*
X128724200Y-64093200D01*
X128724200Y-64093200D02*
X128727200Y-64093200D01*
X129540000Y-84340000D02*
X132080000Y-81800000D01*
D23*
X119634000Y-58403600D02*
X120170400Y-58940000D01*
D22*
X120170400Y-58940000D02*
X123574000Y-58940000D01*
X119634000Y-55000000D02*
X123574000Y-58940000D01*
X123574000Y-58940000D02*
X128727200Y-64093200D01*
X128727200Y-64093200D02*
X128727200Y-72046400D01*
X169926000Y-58400000D02*
X169926000Y-54996400D01*
X169926000Y-54996400D02*
X165982400Y-58940000D01*
X157480000Y-67830000D02*
X164287200Y-60635200D01*
D23*
X165100000Y-86880000D02*
X165100000Y-84340000D01*
D22*
X157480000Y-76720000D02*
X157480000Y-67830000D01*
X165100000Y-84340000D02*
X157480000Y-76720000D01*
D23*
X164287200Y-61022800D02*
X164287200Y-60635200D01*
X169926000Y-58400000D02*
X169386000Y-58940000D01*
D22*
X169386000Y-58940000D02*
X165982400Y-58940000D01*
X165982400Y-58940000D02*
X164287200Y-60635200D01*
X164287200Y-60635200D02*
X164287200Y-72046400D01*
D24*
X124530000Y-113550000D02*
X124530000Y-107270000D01*
X124530000Y-107270000D02*
X124460000Y-107200000D01*
X124530000Y-116090000D02*
X124530000Y-113550000D01*
X160090000Y-116090000D02*
X160090000Y-113550000D01*
X160090000Y-113550000D02*
X160090000Y-107270000D01*
D11*
X160090000Y-107270000D02*
X160020000Y-107200000D01*
X159950000Y-113690000D02*
X160090000Y-113550000D01*
D25*
G36*
X134097823Y-51813823D02*
X132727746Y-53183900D01*
X130630640Y-53183900D01*
X129958649Y-52904865D01*
X129125008Y-52904137D01*
X128354545Y-53222486D01*
X127764558Y-53811445D01*
X127444865Y-54581351D01*
X127444137Y-55414992D01*
X127723900Y-56092070D01*
X127723900Y-57312960D01*
X127444865Y-57984951D01*
X127444137Y-58818592D01*
X127762486Y-59589055D01*
X128351445Y-60179042D01*
X129121351Y-60498735D01*
X129954992Y-60499463D01*
X130725455Y-60181114D01*
X130934381Y-59972552D01*
X131360577Y-59687777D01*
X133015033Y-58033320D01*
X138546285Y-58033320D01*
X138675533Y-58326123D01*
X139375806Y-58594388D01*
X140125435Y-58574250D01*
X140724467Y-58326123D01*
X140853715Y-58033320D01*
X139700000Y-56879605D01*
X138546285Y-58033320D01*
X133015033Y-58033320D01*
X134634174Y-56414179D01*
X134634177Y-56414177D01*
X134672548Y-56375806D01*
X137805612Y-56375806D01*
X137825750Y-57125435D01*
X138073877Y-57724467D01*
X138366680Y-57853715D01*
X139520395Y-56700000D01*
X139879605Y-56700000D01*
X141033320Y-57853715D01*
X141326123Y-57724467D01*
X141594388Y-57024194D01*
X141574250Y-56274565D01*
X141326123Y-55675533D01*
X141033320Y-55546285D01*
X139879605Y-56700000D01*
X139520395Y-56700000D01*
X138366680Y-55546285D01*
X138073877Y-55675533D01*
X137805612Y-56375806D01*
X134672548Y-56375806D01*
X136134254Y-54914100D01*
X139061269Y-54914100D01*
X138675533Y-55073877D01*
X138546285Y-55366680D01*
X139700000Y-56520395D01*
X140853715Y-55366680D01*
X140724467Y-55073877D01*
X140307389Y-54914100D01*
X144166065Y-54914100D01*
X143713628Y-55101043D01*
X143182907Y-55630839D01*
X142895328Y-56323405D01*
X142894674Y-57073305D01*
X143181043Y-57766372D01*
X143710839Y-58297093D01*
X144403405Y-58584672D01*
X145153305Y-58585326D01*
X145846372Y-58298957D01*
X146377093Y-57769161D01*
X146664672Y-57076595D01*
X146665326Y-56326695D01*
X146487170Y-55895523D01*
X147962560Y-57370913D01*
X147962560Y-57950000D01*
X148006838Y-58185317D01*
X148145910Y-58401441D01*
X148358110Y-58546431D01*
X148610000Y-58597440D01*
X151110000Y-58597440D01*
X151345317Y-58553162D01*
X151402913Y-58516100D01*
X157564146Y-58516100D01*
X157967159Y-58919113D01*
X158242486Y-59585455D01*
X158831445Y-60175442D01*
X159601351Y-60495135D01*
X160434992Y-60495863D01*
X161205455Y-60177514D01*
X161795442Y-59588555D01*
X162115135Y-58818649D01*
X162115863Y-57985008D01*
X161836100Y-57307930D01*
X161836100Y-56087040D01*
X162115135Y-55415049D01*
X162115863Y-54581408D01*
X161797514Y-53810945D01*
X161208555Y-53220958D01*
X160438649Y-52901265D01*
X159605008Y-52900537D01*
X158834545Y-53218886D01*
X158244558Y-53807845D01*
X157963614Y-54484432D01*
X157564146Y-54883900D01*
X151406281Y-54883900D01*
X151361890Y-54853569D01*
X151110000Y-54802560D01*
X150530913Y-54802560D01*
X147542177Y-51813823D01*
X147461625Y-51760000D01*
X174767240Y-51760000D01*
X174767240Y-63537400D01*
X177970000Y-63537400D01*
X177970000Y-137240000D01*
X111590000Y-137240000D01*
X111590000Y-82968400D01*
X112483899Y-82968400D01*
X112483900Y-82968405D01*
X112483900Y-102119995D01*
X112483899Y-102120000D01*
X112483900Y-102120005D01*
X112483900Y-117360000D01*
X112518612Y-117534510D01*
X112518426Y-117712441D01*
X112587063Y-117878637D01*
X112622142Y-118054991D01*
X112720994Y-118202934D01*
X112788913Y-118367391D01*
X114942560Y-121597862D01*
X114942560Y-122420000D01*
X114986838Y-122655317D01*
X115023900Y-122712913D01*
X115023900Y-130753719D01*
X114993569Y-130798110D01*
X114942560Y-131050000D01*
X114942560Y-133550000D01*
X114986838Y-133785317D01*
X115125910Y-134001441D01*
X115338110Y-134146431D01*
X115590000Y-134197440D01*
X118090000Y-134197440D01*
X118325317Y-134153162D01*
X118541441Y-134014090D01*
X118686431Y-133801890D01*
X118720567Y-133633320D01*
X120766285Y-133633320D01*
X120895533Y-133926123D01*
X121595806Y-134194388D01*
X122345435Y-134174250D01*
X122944467Y-133926123D01*
X123073715Y-133633320D01*
X121920000Y-132479605D01*
X120766285Y-133633320D01*
X118720567Y-133633320D01*
X118737440Y-133550000D01*
X118737440Y-131975806D01*
X120025612Y-131975806D01*
X120045750Y-132725435D01*
X120293877Y-133324467D01*
X120586680Y-133453715D01*
X121740395Y-132300000D01*
X122099605Y-132300000D01*
X123253320Y-133453715D01*
X123546123Y-133324467D01*
X123795574Y-132673305D01*
X125114674Y-132673305D01*
X125401043Y-133366372D01*
X125930839Y-133897093D01*
X126623405Y-134184672D01*
X127373305Y-134185326D01*
X128066372Y-133898957D01*
X128597093Y-133369161D01*
X128884672Y-132676595D01*
X128885326Y-131926695D01*
X128598957Y-131233628D01*
X128069161Y-130702907D01*
X127376595Y-130415328D01*
X126626695Y-130414674D01*
X125933628Y-130701043D01*
X125402907Y-131230839D01*
X125115328Y-131923405D01*
X125114674Y-132673305D01*
X123795574Y-132673305D01*
X123814388Y-132624194D01*
X123794250Y-131874565D01*
X123546123Y-131275533D01*
X123253320Y-131146285D01*
X122099605Y-132300000D01*
X121740395Y-132300000D01*
X120586680Y-131146285D01*
X120293877Y-131275533D01*
X120025612Y-131975806D01*
X118737440Y-131975806D01*
X118737440Y-131050000D01*
X118721763Y-130966680D01*
X120766285Y-130966680D01*
X121920000Y-132120395D01*
X123073715Y-130966680D01*
X122944467Y-130673877D01*
X122244194Y-130405612D01*
X121494565Y-130425750D01*
X120895533Y-130673877D01*
X120766285Y-130966680D01*
X118721763Y-130966680D01*
X118693162Y-130814683D01*
X118656100Y-130757087D01*
X118656100Y-122716281D01*
X118686431Y-122671890D01*
X118737440Y-122420000D01*
X118737440Y-121543305D01*
X125114674Y-121543305D01*
X125401043Y-122236372D01*
X125930839Y-122767093D01*
X126623405Y-123054672D01*
X127373305Y-123055326D01*
X128066372Y-122768957D01*
X128597093Y-122239161D01*
X128884672Y-121546595D01*
X128885326Y-120796695D01*
X128598957Y-120103628D01*
X128069161Y-119572907D01*
X127376595Y-119285328D01*
X126626695Y-119284674D01*
X125933628Y-119571043D01*
X125402907Y-120100839D01*
X125115328Y-120793405D01*
X125114674Y-121543305D01*
X118737440Y-121543305D01*
X118737440Y-119920000D01*
X118693162Y-119684683D01*
X118554090Y-119468559D01*
X118341890Y-119323569D01*
X118090000Y-119272560D01*
X117757720Y-119272560D01*
X116116100Y-116810129D01*
X116116100Y-106300000D01*
X122912560Y-106300000D01*
X122912560Y-108100000D01*
X122956838Y-108335317D01*
X123095910Y-108551441D01*
X123308110Y-108696431D01*
X123560000Y-108747440D01*
X123590200Y-108747440D01*
X123590200Y-112281897D01*
X123428559Y-112385910D01*
X123283569Y-112598110D01*
X123232560Y-112850000D01*
X123232560Y-114250000D01*
X123276838Y-114485317D01*
X123415910Y-114701441D01*
X123590200Y-114820528D01*
X123590200Y-114821897D01*
X123428559Y-114925910D01*
X123283569Y-115138110D01*
X123232560Y-115390000D01*
X123232560Y-116790000D01*
X123276838Y-117025317D01*
X123415910Y-117241441D01*
X123628110Y-117386431D01*
X123880000Y-117437440D01*
X125180000Y-117437440D01*
X125415317Y-117393162D01*
X125631441Y-117254090D01*
X125730633Y-117108917D01*
X125815910Y-117241441D01*
X126028110Y-117386431D01*
X126280000Y-117437440D01*
X127580000Y-117437440D01*
X127815317Y-117393162D01*
X128031441Y-117254090D01*
X128176431Y-117041890D01*
X128178879Y-117029800D01*
X129150722Y-117029800D01*
X131140200Y-119019278D01*
X131140200Y-130402560D01*
X130830000Y-130402560D01*
X130594683Y-130446838D01*
X130378559Y-130585910D01*
X130233569Y-130798110D01*
X130182560Y-131050000D01*
X130182560Y-133550000D01*
X130226838Y-133785317D01*
X130365910Y-134001441D01*
X130578110Y-134146431D01*
X130830000Y-134197440D01*
X133330000Y-134197440D01*
X133565317Y-134153162D01*
X133781441Y-134014090D01*
X133926431Y-133801890D01*
X133977440Y-133550000D01*
X133977440Y-132673305D01*
X135274674Y-132673305D01*
X135561043Y-133366372D01*
X136090839Y-133897093D01*
X136783405Y-134184672D01*
X137533305Y-134185326D01*
X138226372Y-133898957D01*
X138757093Y-133369161D01*
X139044672Y-132676595D01*
X139044674Y-132673305D01*
X140354674Y-132673305D01*
X140641043Y-133366372D01*
X141170839Y-133897093D01*
X141863405Y-134184672D01*
X142613305Y-134185326D01*
X143306372Y-133898957D01*
X143837093Y-133369161D01*
X144124672Y-132676595D01*
X144125326Y-131926695D01*
X143838957Y-131233628D01*
X143655650Y-131050000D01*
X145422560Y-131050000D01*
X145422560Y-133550000D01*
X145466838Y-133785317D01*
X145605910Y-134001441D01*
X145818110Y-134146431D01*
X146070000Y-134197440D01*
X148570000Y-134197440D01*
X148805317Y-134153162D01*
X149021441Y-134014090D01*
X149166431Y-133801890D01*
X149217440Y-133550000D01*
X149217440Y-132673305D01*
X150514674Y-132673305D01*
X150801043Y-133366372D01*
X151330839Y-133897093D01*
X152023405Y-134184672D01*
X152773305Y-134185326D01*
X153466372Y-133898957D01*
X153997093Y-133369161D01*
X154284672Y-132676595D01*
X154284674Y-132673305D01*
X155594674Y-132673305D01*
X155881043Y-133366372D01*
X156410839Y-133897093D01*
X157103405Y-134184672D01*
X157853305Y-134185326D01*
X158546372Y-133898957D01*
X159077093Y-133369161D01*
X159364672Y-132676595D01*
X159365326Y-131926695D01*
X159078957Y-131233628D01*
X158895650Y-131050000D01*
X160662560Y-131050000D01*
X160662560Y-133550000D01*
X160706838Y-133785317D01*
X160845910Y-134001441D01*
X161058110Y-134146431D01*
X161310000Y-134197440D01*
X163810000Y-134197440D01*
X164045317Y-134153162D01*
X164261441Y-134014090D01*
X164406431Y-133801890D01*
X164440567Y-133633320D01*
X166486285Y-133633320D01*
X166615533Y-133926123D01*
X167315806Y-134194388D01*
X168065435Y-134174250D01*
X168664467Y-133926123D01*
X168793715Y-133633320D01*
X167640000Y-132479605D01*
X166486285Y-133633320D01*
X164440567Y-133633320D01*
X164457440Y-133550000D01*
X164457440Y-131975806D01*
X165745612Y-131975806D01*
X165765750Y-132725435D01*
X166013877Y-133324467D01*
X166306680Y-133453715D01*
X167460395Y-132300000D01*
X167819605Y-132300000D01*
X168973320Y-133453715D01*
X169266123Y-133324467D01*
X169534388Y-132624194D01*
X169514250Y-131874565D01*
X169266123Y-131275533D01*
X168973320Y-131146285D01*
X167819605Y-132300000D01*
X167460395Y-132300000D01*
X166306680Y-131146285D01*
X166013877Y-131275533D01*
X165745612Y-131975806D01*
X164457440Y-131975806D01*
X164457440Y-131050000D01*
X164441763Y-130966680D01*
X166486285Y-130966680D01*
X167640000Y-132120395D01*
X168793715Y-130966680D01*
X168664467Y-130673877D01*
X167964194Y-130405612D01*
X167214565Y-130425750D01*
X166615533Y-130673877D01*
X166486285Y-130966680D01*
X164441763Y-130966680D01*
X164413162Y-130814683D01*
X164274090Y-130598559D01*
X164061890Y-130453569D01*
X163810000Y-130402560D01*
X161310000Y-130402560D01*
X161074683Y-130446838D01*
X160858559Y-130585910D01*
X160713569Y-130798110D01*
X160662560Y-131050000D01*
X158895650Y-131050000D01*
X158549161Y-130702907D01*
X158419800Y-130649192D01*
X158419800Y-121543305D01*
X160674674Y-121543305D01*
X160961043Y-122236372D01*
X161490839Y-122767093D01*
X162183405Y-123054672D01*
X162933305Y-123055326D01*
X163626372Y-122768957D01*
X164157093Y-122239161D01*
X164444672Y-121546595D01*
X164445326Y-120796695D01*
X164158957Y-120103628D01*
X163629161Y-119572907D01*
X162936595Y-119285328D01*
X162186695Y-119284674D01*
X161493628Y-119571043D01*
X160962907Y-120100839D01*
X160675328Y-120793405D01*
X160674674Y-121543305D01*
X158419800Y-121543305D01*
X158419800Y-120289278D01*
X159139278Y-119569800D01*
X161150000Y-119569800D01*
X161509646Y-119498262D01*
X161814539Y-119294539D01*
X163154539Y-117954539D01*
X163358262Y-117649646D01*
X163414265Y-117368100D01*
X163591441Y-117254090D01*
X163736431Y-117041890D01*
X163787440Y-116790000D01*
X163787440Y-115390000D01*
X163743162Y-115154683D01*
X163604090Y-114938559D01*
X163428768Y-114818767D01*
X163591441Y-114714090D01*
X163736431Y-114501890D01*
X163787440Y-114250000D01*
X163787440Y-113581638D01*
X165764539Y-111604539D01*
X165968262Y-111299646D01*
X166039800Y-110940000D01*
X166039800Y-108402795D01*
X166215481Y-108285409D01*
X166548227Y-107787419D01*
X166665072Y-107200000D01*
X166548227Y-106612581D01*
X166215481Y-106114591D01*
X165717491Y-105781845D01*
X165130072Y-105665000D01*
X165069928Y-105665000D01*
X164482509Y-105781845D01*
X163984519Y-106114591D01*
X163830000Y-106345845D01*
X163675481Y-106114591D01*
X163177491Y-105781845D01*
X162590072Y-105665000D01*
X162529928Y-105665000D01*
X161942509Y-105781845D01*
X161521974Y-106062837D01*
X161384090Y-105848559D01*
X161171890Y-105703569D01*
X160920000Y-105652560D01*
X159120000Y-105652560D01*
X158884683Y-105696838D01*
X158668559Y-105835910D01*
X158523569Y-106048110D01*
X158472560Y-106300000D01*
X158472560Y-108100000D01*
X158516838Y-108335317D01*
X158655910Y-108551441D01*
X158868110Y-108696431D01*
X159120000Y-108747440D01*
X159150200Y-108747440D01*
X159150200Y-112281897D01*
X158988559Y-112385910D01*
X158843569Y-112598110D01*
X158792560Y-112850000D01*
X158792560Y-114250000D01*
X158836838Y-114485317D01*
X158975910Y-114701441D01*
X159150200Y-114820528D01*
X159150200Y-114821897D01*
X158988559Y-114925910D01*
X158843569Y-115138110D01*
X158792560Y-115390000D01*
X158792560Y-116790000D01*
X158836838Y-117025317D01*
X158975910Y-117241441D01*
X159188110Y-117386431D01*
X159440000Y-117437440D01*
X160740000Y-117437440D01*
X160975317Y-117393162D01*
X161191441Y-117254090D01*
X161290633Y-117108917D01*
X161310747Y-117140175D01*
X160760722Y-117690200D01*
X158750000Y-117690200D01*
X158390354Y-117761738D01*
X158085461Y-117965461D01*
X156815461Y-119235461D01*
X156611738Y-119540354D01*
X156540200Y-119900000D01*
X156540200Y-130648745D01*
X156413628Y-130701043D01*
X155882907Y-131230839D01*
X155595328Y-131923405D01*
X155594674Y-132673305D01*
X154284674Y-132673305D01*
X154285326Y-131926695D01*
X153998957Y-131233628D01*
X153469161Y-130702907D01*
X152776595Y-130415328D01*
X152026695Y-130414674D01*
X151333628Y-130701043D01*
X150802907Y-131230839D01*
X150515328Y-131923405D01*
X150514674Y-132673305D01*
X149217440Y-132673305D01*
X149217440Y-131050000D01*
X149173162Y-130814683D01*
X149034090Y-130598559D01*
X148821890Y-130453569D01*
X148570000Y-130402560D01*
X146070000Y-130402560D01*
X145834683Y-130446838D01*
X145618559Y-130585910D01*
X145473569Y-130798110D01*
X145422560Y-131050000D01*
X143655650Y-131050000D01*
X143309161Y-130702907D01*
X142616595Y-130415328D01*
X141866695Y-130414674D01*
X141173628Y-130701043D01*
X140642907Y-131230839D01*
X140355328Y-131923405D01*
X140354674Y-132673305D01*
X139044674Y-132673305D01*
X139045326Y-131926695D01*
X138758957Y-131233628D01*
X138229161Y-130702907D01*
X137536595Y-130415328D01*
X136786695Y-130414674D01*
X136093628Y-130701043D01*
X135562907Y-131230839D01*
X135275328Y-131923405D01*
X135274674Y-132673305D01*
X133977440Y-132673305D01*
X133977440Y-131050000D01*
X133933162Y-130814683D01*
X133794090Y-130598559D01*
X133581890Y-130453569D01*
X133330000Y-130402560D01*
X133019800Y-130402560D01*
X133019800Y-118630000D01*
X132948262Y-118270354D01*
X132744539Y-117965461D01*
X130204539Y-115425461D01*
X129899646Y-115221738D01*
X129540000Y-115150200D01*
X128180277Y-115150200D01*
X128044090Y-114938559D01*
X127868768Y-114818767D01*
X128031441Y-114714090D01*
X128176431Y-114501890D01*
X128227440Y-114250000D01*
X128227440Y-113581638D01*
X130204539Y-111604539D01*
X130408262Y-111299646D01*
X130479800Y-110940000D01*
X130479800Y-108402795D01*
X130655481Y-108285409D01*
X130988227Y-107787419D01*
X131105072Y-107200000D01*
X130988227Y-106612581D01*
X130655481Y-106114591D01*
X130157491Y-105781845D01*
X129570072Y-105665000D01*
X129509928Y-105665000D01*
X128922509Y-105781845D01*
X128424519Y-106114591D01*
X128270000Y-106345845D01*
X128115481Y-106114591D01*
X127617491Y-105781845D01*
X127030072Y-105665000D01*
X126969928Y-105665000D01*
X126382509Y-105781845D01*
X125961974Y-106062837D01*
X125824090Y-105848559D01*
X125611890Y-105703569D01*
X125360000Y-105652560D01*
X123560000Y-105652560D01*
X123324683Y-105696838D01*
X123108559Y-105835910D01*
X122963569Y-106048110D01*
X122912560Y-106300000D01*
X116116100Y-106300000D01*
X116116100Y-103042619D01*
X118414613Y-103042619D01*
X118754155Y-103864372D01*
X119382321Y-104493636D01*
X120203481Y-104834611D01*
X121092619Y-104835387D01*
X121914372Y-104495845D01*
X122543636Y-103867679D01*
X122884611Y-103046519D01*
X122884614Y-103042619D01*
X131114613Y-103042619D01*
X131454155Y-103864372D01*
X132082321Y-104493636D01*
X132903481Y-104834611D01*
X133792619Y-104835387D01*
X134614372Y-104495845D01*
X135243636Y-103867679D01*
X135584611Y-103046519D01*
X135584614Y-103042619D01*
X153974613Y-103042619D01*
X154314155Y-103864372D01*
X154942321Y-104493636D01*
X155763481Y-104834611D01*
X156652619Y-104835387D01*
X157474372Y-104495845D01*
X158103636Y-103867679D01*
X158444611Y-103046519D01*
X158444614Y-103042619D01*
X166674613Y-103042619D01*
X167014155Y-103864372D01*
X167642321Y-104493636D01*
X168463481Y-104834611D01*
X169352619Y-104835387D01*
X170174372Y-104495845D01*
X170803636Y-103867679D01*
X171144611Y-103046519D01*
X171145387Y-102157381D01*
X170805845Y-101335628D01*
X170177679Y-100706364D01*
X169356519Y-100365389D01*
X168467381Y-100364613D01*
X167645628Y-100704155D01*
X167016364Y-101332321D01*
X166675389Y-102153481D01*
X166674613Y-103042619D01*
X158444614Y-103042619D01*
X158445387Y-102157381D01*
X158105845Y-101335628D01*
X157477679Y-100706364D01*
X156656519Y-100365389D01*
X155767381Y-100364613D01*
X154945628Y-100704155D01*
X154316364Y-101332321D01*
X153975389Y-102153481D01*
X153974613Y-103042619D01*
X135584614Y-103042619D01*
X135585387Y-102157381D01*
X135245845Y-101335628D01*
X134617679Y-100706364D01*
X133796519Y-100365389D01*
X132907381Y-100364613D01*
X132085628Y-100704155D01*
X131456364Y-101332321D01*
X131115389Y-102153481D01*
X131114613Y-103042619D01*
X122884614Y-103042619D01*
X122885387Y-102157381D01*
X122545845Y-101335628D01*
X121917679Y-100706364D01*
X121096519Y-100365389D01*
X120207381Y-100364613D01*
X119385628Y-100704155D01*
X118756364Y-101332321D01*
X118415389Y-102153481D01*
X118414613Y-103042619D01*
X116116100Y-103042619D01*
X116116100Y-102872254D01*
X128284176Y-90704177D01*
X128677857Y-90114992D01*
X128816100Y-89420000D01*
X128677857Y-88725008D01*
X128447800Y-88380704D01*
X128447800Y-87943037D01*
X128675596Y-88171231D01*
X129235528Y-88403735D01*
X129841812Y-88404264D01*
X130402149Y-88172738D01*
X130810336Y-87765263D01*
X131215596Y-88171231D01*
X131775528Y-88403735D01*
X132381812Y-88404264D01*
X132942149Y-88172738D01*
X133371231Y-87744404D01*
X133546355Y-87322658D01*
X133654413Y-87322658D01*
X133993985Y-88144485D01*
X134622208Y-88773805D01*
X135443441Y-89114811D01*
X136332658Y-89115587D01*
X137154485Y-88776015D01*
X137783805Y-88147792D01*
X138124811Y-87326559D01*
X138124814Y-87322658D01*
X151434413Y-87322658D01*
X151773985Y-88144485D01*
X152402208Y-88773805D01*
X153223441Y-89114811D01*
X154112658Y-89115587D01*
X154934485Y-88776015D01*
X155563805Y-88147792D01*
X155904811Y-87326559D01*
X155905587Y-86437342D01*
X155566015Y-85615515D01*
X154937792Y-84986195D01*
X154116559Y-84645189D01*
X153227342Y-84644413D01*
X152405515Y-84983985D01*
X151776195Y-85612208D01*
X151435189Y-86433441D01*
X151434413Y-87322658D01*
X138124814Y-87322658D01*
X138125587Y-86437342D01*
X137786015Y-85615515D01*
X137157792Y-84986195D01*
X136336559Y-84645189D01*
X135447342Y-84644413D01*
X134625515Y-84983985D01*
X133996195Y-85612208D01*
X133655189Y-86433441D01*
X133654413Y-87322658D01*
X133546355Y-87322658D01*
X133603735Y-87184472D01*
X133604264Y-86578188D01*
X133372738Y-86017851D01*
X132944404Y-85588769D01*
X132384472Y-85356265D01*
X131778188Y-85355736D01*
X131217851Y-85587262D01*
X130987800Y-85816912D01*
X130987800Y-85460554D01*
X133364174Y-83084179D01*
X133364177Y-83084177D01*
X133757858Y-82494991D01*
X133896100Y-81800000D01*
X133896100Y-72007185D01*
X133993985Y-72244085D01*
X134622208Y-72873405D01*
X135443441Y-73214411D01*
X136332658Y-73215187D01*
X137154485Y-72875615D01*
X137783805Y-72247392D01*
X138124811Y-71426159D01*
X138124814Y-71422258D01*
X151434413Y-71422258D01*
X151773985Y-72244085D01*
X152402208Y-72873405D01*
X153223441Y-73214411D01*
X154112658Y-73215187D01*
X154934485Y-72875615D01*
X155563805Y-72247392D01*
X155663900Y-72006337D01*
X155663900Y-76719995D01*
X155663899Y-76720000D01*
X155802142Y-77414992D01*
X156195823Y-78004177D01*
X163652200Y-85460553D01*
X163652200Y-85816963D01*
X163424404Y-85588769D01*
X162864472Y-85356265D01*
X162258188Y-85355736D01*
X161697851Y-85587262D01*
X161289664Y-85994737D01*
X160884404Y-85588769D01*
X160324472Y-85356265D01*
X159718188Y-85355736D01*
X159157851Y-85587262D01*
X158749664Y-85994737D01*
X158344404Y-85588769D01*
X157784472Y-85356265D01*
X157178188Y-85355736D01*
X156617851Y-85587262D01*
X156188769Y-86015596D01*
X155956265Y-86575528D01*
X155955736Y-87181812D01*
X156187262Y-87742149D01*
X156615596Y-88171231D01*
X157175528Y-88403735D01*
X157781812Y-88404264D01*
X158342149Y-88172738D01*
X158750336Y-87765263D01*
X159155596Y-88171231D01*
X159715528Y-88403735D01*
X160321812Y-88404264D01*
X160882149Y-88172738D01*
X161112200Y-87943088D01*
X161112200Y-88373255D01*
X160972443Y-88538024D01*
X160755771Y-89212692D01*
X160813776Y-89918921D01*
X161137629Y-90549194D01*
X161678024Y-91007557D01*
X173443900Y-97544155D01*
X173443900Y-116810129D01*
X171802279Y-119272560D01*
X171470000Y-119272560D01*
X171234683Y-119316838D01*
X171018559Y-119455910D01*
X170873569Y-119668110D01*
X170822560Y-119920000D01*
X170822560Y-122420000D01*
X170866838Y-122655317D01*
X170903900Y-122712913D01*
X170903900Y-131758266D01*
X170835328Y-131923405D01*
X170834674Y-132673305D01*
X171121043Y-133366372D01*
X171650839Y-133897093D01*
X172343405Y-134184672D01*
X173093305Y-134185326D01*
X173786372Y-133898957D01*
X174317093Y-133369161D01*
X174604672Y-132676595D01*
X174605326Y-131926695D01*
X174536100Y-131759155D01*
X174536100Y-122716281D01*
X174566431Y-122671890D01*
X174617440Y-122420000D01*
X174617440Y-121597861D01*
X176771086Y-118367391D01*
X176839004Y-118202936D01*
X176937858Y-118054991D01*
X176972937Y-117878636D01*
X177041574Y-117712441D01*
X177041388Y-117534510D01*
X177076100Y-117360000D01*
X177076100Y-83070000D01*
X176937858Y-82375009D01*
X176544177Y-81785823D01*
X176544174Y-81785821D01*
X174004177Y-79245823D01*
X173414992Y-78852142D01*
X172720000Y-78713899D01*
X172719995Y-78713900D01*
X167122253Y-78713900D01*
X162598100Y-74189746D01*
X162598100Y-73176614D01*
X163156272Y-73735761D01*
X163888849Y-74039953D01*
X164682071Y-74040646D01*
X165415178Y-73737732D01*
X165976561Y-73177328D01*
X166280753Y-72444751D01*
X166281446Y-71651529D01*
X166186714Y-71422258D01*
X169214413Y-71422258D01*
X169553985Y-72244085D01*
X170182208Y-72873405D01*
X171003441Y-73214411D01*
X171892658Y-73215187D01*
X172714485Y-72875615D01*
X173343805Y-72247392D01*
X173684811Y-71426159D01*
X173685587Y-70536942D01*
X173346015Y-69715115D01*
X172717792Y-69085795D01*
X171896559Y-68744789D01*
X171007342Y-68744013D01*
X170185515Y-69083585D01*
X169556195Y-69711808D01*
X169215189Y-70533041D01*
X169214413Y-71422258D01*
X166186714Y-71422258D01*
X166103300Y-71220383D01*
X166103300Y-61387454D01*
X166734654Y-60756100D01*
X169386000Y-60756100D01*
X170080991Y-60617858D01*
X170263671Y-60495795D01*
X170340992Y-60495863D01*
X171111455Y-60177514D01*
X171701442Y-59588555D01*
X172021135Y-58818649D01*
X172021863Y-57985008D01*
X171742100Y-57307930D01*
X171742100Y-56087040D01*
X172021135Y-55415049D01*
X172021863Y-54581408D01*
X171703514Y-53810945D01*
X171114555Y-53220958D01*
X170344649Y-52901265D01*
X169511008Y-52900537D01*
X168740545Y-53218886D01*
X168150558Y-53807845D01*
X167869614Y-54484433D01*
X164698223Y-57655823D01*
X163003023Y-59351023D01*
X162988825Y-59372272D01*
X162967981Y-59387050D01*
X156160780Y-66581850D01*
X155985289Y-66860909D01*
X155802142Y-67135009D01*
X155797157Y-67160071D01*
X155783554Y-67181702D01*
X155728213Y-67506677D01*
X155663900Y-67830000D01*
X155663900Y-69952015D01*
X155566015Y-69715115D01*
X154937792Y-69085795D01*
X154116559Y-68744789D01*
X153227342Y-68744013D01*
X152405515Y-69083585D01*
X151776195Y-69711808D01*
X151435189Y-70533041D01*
X151434413Y-71422258D01*
X138124814Y-71422258D01*
X138125587Y-70536942D01*
X137786015Y-69715115D01*
X137157792Y-69085795D01*
X136336559Y-68744789D01*
X135447342Y-68744013D01*
X134625515Y-69083585D01*
X133996195Y-69711808D01*
X133896100Y-69952863D01*
X133896100Y-67449005D01*
X133896101Y-67449000D01*
X133757858Y-66754008D01*
X133364177Y-66164823D01*
X130017418Y-62818064D01*
X130011377Y-62809023D01*
X130011374Y-62809021D01*
X124858177Y-57655823D01*
X124858174Y-57655821D01*
X121689376Y-54487022D01*
X121411514Y-53814545D01*
X120822555Y-53224558D01*
X120052649Y-52904865D01*
X119219008Y-52904137D01*
X118448545Y-53222486D01*
X117858558Y-53811445D01*
X117538865Y-54581351D01*
X117538137Y-55414992D01*
X117817900Y-56092070D01*
X117817900Y-57312960D01*
X117538865Y-57984951D01*
X117538137Y-58818592D01*
X117856486Y-59589055D01*
X118445445Y-60179042D01*
X119215351Y-60498735D01*
X119297236Y-60498807D01*
X119475409Y-60617858D01*
X120170400Y-60756100D01*
X122821746Y-60756100D01*
X126911100Y-64845453D01*
X126911100Y-70916186D01*
X126352928Y-70357039D01*
X125620351Y-70052847D01*
X124827129Y-70052154D01*
X124094022Y-70355068D01*
X123532639Y-70915472D01*
X123353742Y-71346305D01*
X113015823Y-81684223D01*
X112622142Y-82273408D01*
X112483899Y-82968400D01*
X111590000Y-82968400D01*
X111590000Y-71422258D01*
X115874413Y-71422258D01*
X116213985Y-72244085D01*
X116842208Y-72873405D01*
X117663441Y-73214411D01*
X118552658Y-73215187D01*
X119374485Y-72875615D01*
X120003805Y-72247392D01*
X120344811Y-71426159D01*
X120345587Y-70536942D01*
X120006015Y-69715115D01*
X119377792Y-69085795D01*
X118556559Y-68744789D01*
X117667342Y-68744013D01*
X116845515Y-69083585D01*
X116216195Y-69711808D01*
X115875189Y-70533041D01*
X115874413Y-71422258D01*
X111590000Y-71422258D01*
X111590000Y-51760000D01*
X134178375Y-51760000D01*
X134097823Y-51813823D01*
X134097823Y-51813823D01*
G37*
X134097823Y-51813823D02*
X132727746Y-53183900D01*
X130630640Y-53183900D01*
X129958649Y-52904865D01*
X129125008Y-52904137D01*
X128354545Y-53222486D01*
X127764558Y-53811445D01*
X127444865Y-54581351D01*
X127444137Y-55414992D01*
X127723900Y-56092070D01*
X127723900Y-57312960D01*
X127444865Y-57984951D01*
X127444137Y-58818592D01*
X127762486Y-59589055D01*
X128351445Y-60179042D01*
X129121351Y-60498735D01*
X129954992Y-60499463D01*
X130725455Y-60181114D01*
X130934381Y-59972552D01*
X131360577Y-59687777D01*
X133015033Y-58033320D01*
X138546285Y-58033320D01*
X138675533Y-58326123D01*
X139375806Y-58594388D01*
X140125435Y-58574250D01*
X140724467Y-58326123D01*
X140853715Y-58033320D01*
X139700000Y-56879605D01*
X138546285Y-58033320D01*
X133015033Y-58033320D01*
X134634174Y-56414179D01*
X134634177Y-56414177D01*
X134672548Y-56375806D01*
X137805612Y-56375806D01*
X137825750Y-57125435D01*
X138073877Y-57724467D01*
X138366680Y-57853715D01*
X139520395Y-56700000D01*
X139879605Y-56700000D01*
X141033320Y-57853715D01*
X141326123Y-57724467D01*
X141594388Y-57024194D01*
X141574250Y-56274565D01*
X141326123Y-55675533D01*
X141033320Y-55546285D01*
X139879605Y-56700000D01*
X139520395Y-56700000D01*
X138366680Y-55546285D01*
X138073877Y-55675533D01*
X137805612Y-56375806D01*
X134672548Y-56375806D01*
X136134254Y-54914100D01*
X139061269Y-54914100D01*
X138675533Y-55073877D01*
X138546285Y-55366680D01*
X139700000Y-56520395D01*
X140853715Y-55366680D01*
X140724467Y-55073877D01*
X140307389Y-54914100D01*
X144166065Y-54914100D01*
X143713628Y-55101043D01*
X143182907Y-55630839D01*
X142895328Y-56323405D01*
X142894674Y-57073305D01*
X143181043Y-57766372D01*
X143710839Y-58297093D01*
X144403405Y-58584672D01*
X145153305Y-58585326D01*
X145846372Y-58298957D01*
X146377093Y-57769161D01*
X146664672Y-57076595D01*
X146665326Y-56326695D01*
X146487170Y-55895523D01*
X147962560Y-57370913D01*
X147962560Y-57950000D01*
X148006838Y-58185317D01*
X148145910Y-58401441D01*
X148358110Y-58546431D01*
X148610000Y-58597440D01*
X151110000Y-58597440D01*
X151345317Y-58553162D01*
X151402913Y-58516100D01*
X157564146Y-58516100D01*
X157967159Y-58919113D01*
X158242486Y-59585455D01*
X158831445Y-60175442D01*
X159601351Y-60495135D01*
X160434992Y-60495863D01*
X161205455Y-60177514D01*
X161795442Y-59588555D01*
X162115135Y-58818649D01*
X162115863Y-57985008D01*
X161836100Y-57307930D01*
X161836100Y-56087040D01*
X162115135Y-55415049D01*
X162115863Y-54581408D01*
X161797514Y-53810945D01*
X161208555Y-53220958D01*
X160438649Y-52901265D01*
X159605008Y-52900537D01*
X158834545Y-53218886D01*
X158244558Y-53807845D01*
X157963614Y-54484432D01*
X157564146Y-54883900D01*
X151406281Y-54883900D01*
X151361890Y-54853569D01*
X151110000Y-54802560D01*
X150530913Y-54802560D01*
X147542177Y-51813823D01*
X147461625Y-51760000D01*
X174767240Y-51760000D01*
X174767240Y-63537400D01*
X177970000Y-63537400D01*
X177970000Y-137240000D01*
X111590000Y-137240000D01*
X111590000Y-82968400D01*
X112483899Y-82968400D01*
X112483900Y-82968405D01*
X112483900Y-102119995D01*
X112483899Y-102120000D01*
X112483900Y-102120005D01*
X112483900Y-117360000D01*
X112518612Y-117534510D01*
X112518426Y-117712441D01*
X112587063Y-117878637D01*
X112622142Y-118054991D01*
X112720994Y-118202934D01*
X112788913Y-118367391D01*
X114942560Y-121597862D01*
X114942560Y-122420000D01*
X114986838Y-122655317D01*
X115023900Y-122712913D01*
X115023900Y-130753719D01*
X114993569Y-130798110D01*
X114942560Y-131050000D01*
X114942560Y-133550000D01*
X114986838Y-133785317D01*
X115125910Y-134001441D01*
X115338110Y-134146431D01*
X115590000Y-134197440D01*
X118090000Y-134197440D01*
X118325317Y-134153162D01*
X118541441Y-134014090D01*
X118686431Y-133801890D01*
X118720567Y-133633320D01*
X120766285Y-133633320D01*
X120895533Y-133926123D01*
X121595806Y-134194388D01*
X122345435Y-134174250D01*
X122944467Y-133926123D01*
X123073715Y-133633320D01*
X121920000Y-132479605D01*
X120766285Y-133633320D01*
X118720567Y-133633320D01*
X118737440Y-133550000D01*
X118737440Y-131975806D01*
X120025612Y-131975806D01*
X120045750Y-132725435D01*
X120293877Y-133324467D01*
X120586680Y-133453715D01*
X121740395Y-132300000D01*
X122099605Y-132300000D01*
X123253320Y-133453715D01*
X123546123Y-133324467D01*
X123795574Y-132673305D01*
X125114674Y-132673305D01*
X125401043Y-133366372D01*
X125930839Y-133897093D01*
X126623405Y-134184672D01*
X127373305Y-134185326D01*
X128066372Y-133898957D01*
X128597093Y-133369161D01*
X128884672Y-132676595D01*
X128885326Y-131926695D01*
X128598957Y-131233628D01*
X128069161Y-130702907D01*
X127376595Y-130415328D01*
X126626695Y-130414674D01*
X125933628Y-130701043D01*
X125402907Y-131230839D01*
X125115328Y-131923405D01*
X125114674Y-132673305D01*
X123795574Y-132673305D01*
X123814388Y-132624194D01*
X123794250Y-131874565D01*
X123546123Y-131275533D01*
X123253320Y-131146285D01*
X122099605Y-132300000D01*
X121740395Y-132300000D01*
X120586680Y-131146285D01*
X120293877Y-131275533D01*
X120025612Y-131975806D01*
X118737440Y-131975806D01*
X118737440Y-131050000D01*
X118721763Y-130966680D01*
X120766285Y-130966680D01*
X121920000Y-132120395D01*
X123073715Y-130966680D01*
X122944467Y-130673877D01*
X122244194Y-130405612D01*
X121494565Y-130425750D01*
X120895533Y-130673877D01*
X120766285Y-130966680D01*
X118721763Y-130966680D01*
X118693162Y-130814683D01*
X118656100Y-130757087D01*
X118656100Y-122716281D01*
X118686431Y-122671890D01*
X118737440Y-122420000D01*
X118737440Y-121543305D01*
X125114674Y-121543305D01*
X125401043Y-122236372D01*
X125930839Y-122767093D01*
X126623405Y-123054672D01*
X127373305Y-123055326D01*
X128066372Y-122768957D01*
X128597093Y-122239161D01*
X128884672Y-121546595D01*
X128885326Y-120796695D01*
X128598957Y-120103628D01*
X128069161Y-119572907D01*
X127376595Y-119285328D01*
X126626695Y-119284674D01*
X125933628Y-119571043D01*
X125402907Y-120100839D01*
X125115328Y-120793405D01*
X125114674Y-121543305D01*
X118737440Y-121543305D01*
X118737440Y-119920000D01*
X118693162Y-119684683D01*
X118554090Y-119468559D01*
X118341890Y-119323569D01*
X118090000Y-119272560D01*
X117757720Y-119272560D01*
X116116100Y-116810129D01*
X116116100Y-106300000D01*
X122912560Y-106300000D01*
X122912560Y-108100000D01*
X122956838Y-108335317D01*
X123095910Y-108551441D01*
X123308110Y-108696431D01*
X123560000Y-108747440D01*
X123590200Y-108747440D01*
X123590200Y-112281897D01*
X123428559Y-112385910D01*
X123283569Y-112598110D01*
X123232560Y-112850000D01*
X123232560Y-114250000D01*
X123276838Y-114485317D01*
X123415910Y-114701441D01*
X123590200Y-114820528D01*
X123590200Y-114821897D01*
X123428559Y-114925910D01*
X123283569Y-115138110D01*
X123232560Y-115390000D01*
X123232560Y-116790000D01*
X123276838Y-117025317D01*
X123415910Y-117241441D01*
X123628110Y-117386431D01*
X123880000Y-117437440D01*
X125180000Y-117437440D01*
X125415317Y-117393162D01*
X125631441Y-117254090D01*
X125730633Y-117108917D01*
X125815910Y-117241441D01*
X126028110Y-117386431D01*
X126280000Y-117437440D01*
X127580000Y-117437440D01*
X127815317Y-117393162D01*
X128031441Y-117254090D01*
X128176431Y-117041890D01*
X128178879Y-117029800D01*
X129150722Y-117029800D01*
X131140200Y-119019278D01*
X131140200Y-130402560D01*
X130830000Y-130402560D01*
X130594683Y-130446838D01*
X130378559Y-130585910D01*
X130233569Y-130798110D01*
X130182560Y-131050000D01*
X130182560Y-133550000D01*
X130226838Y-133785317D01*
X130365910Y-134001441D01*
X130578110Y-134146431D01*
X130830000Y-134197440D01*
X133330000Y-134197440D01*
X133565317Y-134153162D01*
X133781441Y-134014090D01*
X133926431Y-133801890D01*
X133977440Y-133550000D01*
X133977440Y-132673305D01*
X135274674Y-132673305D01*
X135561043Y-133366372D01*
X136090839Y-133897093D01*
X136783405Y-134184672D01*
X137533305Y-134185326D01*
X138226372Y-133898957D01*
X138757093Y-133369161D01*
X139044672Y-132676595D01*
X139044674Y-132673305D01*
X140354674Y-132673305D01*
X140641043Y-133366372D01*
X141170839Y-133897093D01*
X141863405Y-134184672D01*
X142613305Y-134185326D01*
X143306372Y-133898957D01*
X143837093Y-133369161D01*
X144124672Y-132676595D01*
X144125326Y-131926695D01*
X143838957Y-131233628D01*
X143655650Y-131050000D01*
X145422560Y-131050000D01*
X145422560Y-133550000D01*
X145466838Y-133785317D01*
X145605910Y-134001441D01*
X145818110Y-134146431D01*
X146070000Y-134197440D01*
X148570000Y-134197440D01*
X148805317Y-134153162D01*
X149021441Y-134014090D01*
X149166431Y-133801890D01*
X149217440Y-133550000D01*
X149217440Y-132673305D01*
X150514674Y-132673305D01*
X150801043Y-133366372D01*
X151330839Y-133897093D01*
X152023405Y-134184672D01*
X152773305Y-134185326D01*
X153466372Y-133898957D01*
X153997093Y-133369161D01*
X154284672Y-132676595D01*
X154284674Y-132673305D01*
X155594674Y-132673305D01*
X155881043Y-133366372D01*
X156410839Y-133897093D01*
X157103405Y-134184672D01*
X157853305Y-134185326D01*
X158546372Y-133898957D01*
X159077093Y-133369161D01*
X159364672Y-132676595D01*
X159365326Y-131926695D01*
X159078957Y-131233628D01*
X158895650Y-131050000D01*
X160662560Y-131050000D01*
X160662560Y-133550000D01*
X160706838Y-133785317D01*
X160845910Y-134001441D01*
X161058110Y-134146431D01*
X161310000Y-134197440D01*
X163810000Y-134197440D01*
X164045317Y-134153162D01*
X164261441Y-134014090D01*
X164406431Y-133801890D01*
X164440567Y-133633320D01*
X166486285Y-133633320D01*
X166615533Y-133926123D01*
X167315806Y-134194388D01*
X168065435Y-134174250D01*
X168664467Y-133926123D01*
X168793715Y-133633320D01*
X167640000Y-132479605D01*
X166486285Y-133633320D01*
X164440567Y-133633320D01*
X164457440Y-133550000D01*
X164457440Y-131975806D01*
X165745612Y-131975806D01*
X165765750Y-132725435D01*
X166013877Y-133324467D01*
X166306680Y-133453715D01*
X167460395Y-132300000D01*
X167819605Y-132300000D01*
X168973320Y-133453715D01*
X169266123Y-133324467D01*
X169534388Y-132624194D01*
X169514250Y-131874565D01*
X169266123Y-131275533D01*
X168973320Y-131146285D01*
X167819605Y-132300000D01*
X167460395Y-132300000D01*
X166306680Y-131146285D01*
X166013877Y-131275533D01*
X165745612Y-131975806D01*
X164457440Y-131975806D01*
X164457440Y-131050000D01*
X164441763Y-130966680D01*
X166486285Y-130966680D01*
X167640000Y-132120395D01*
X168793715Y-130966680D01*
X168664467Y-130673877D01*
X167964194Y-130405612D01*
X167214565Y-130425750D01*
X166615533Y-130673877D01*
X166486285Y-130966680D01*
X164441763Y-130966680D01*
X164413162Y-130814683D01*
X164274090Y-130598559D01*
X164061890Y-130453569D01*
X163810000Y-130402560D01*
X161310000Y-130402560D01*
X161074683Y-130446838D01*
X160858559Y-130585910D01*
X160713569Y-130798110D01*
X160662560Y-131050000D01*
X158895650Y-131050000D01*
X158549161Y-130702907D01*
X158419800Y-130649192D01*
X158419800Y-121543305D01*
X160674674Y-121543305D01*
X160961043Y-122236372D01*
X161490839Y-122767093D01*
X162183405Y-123054672D01*
X162933305Y-123055326D01*
X163626372Y-122768957D01*
X164157093Y-122239161D01*
X164444672Y-121546595D01*
X164445326Y-120796695D01*
X164158957Y-120103628D01*
X163629161Y-119572907D01*
X162936595Y-119285328D01*
X162186695Y-119284674D01*
X161493628Y-119571043D01*
X160962907Y-120100839D01*
X160675328Y-120793405D01*
X160674674Y-121543305D01*
X158419800Y-121543305D01*
X158419800Y-120289278D01*
X159139278Y-119569800D01*
X161150000Y-119569800D01*
X161509646Y-119498262D01*
X161814539Y-119294539D01*
X163154539Y-117954539D01*
X163358262Y-117649646D01*
X163414265Y-117368100D01*
X163591441Y-117254090D01*
X163736431Y-117041890D01*
X163787440Y-116790000D01*
X163787440Y-115390000D01*
X163743162Y-115154683D01*
X163604090Y-114938559D01*
X163428768Y-114818767D01*
X163591441Y-114714090D01*
X163736431Y-114501890D01*
X163787440Y-114250000D01*
X163787440Y-113581638D01*
X165764539Y-111604539D01*
X165968262Y-111299646D01*
X166039800Y-110940000D01*
X166039800Y-108402795D01*
X166215481Y-108285409D01*
X166548227Y-107787419D01*
X166665072Y-107200000D01*
X166548227Y-106612581D01*
X166215481Y-106114591D01*
X165717491Y-105781845D01*
X165130072Y-105665000D01*
X165069928Y-105665000D01*
X164482509Y-105781845D01*
X163984519Y-106114591D01*
X163830000Y-106345845D01*
X163675481Y-106114591D01*
X163177491Y-105781845D01*
X162590072Y-105665000D01*
X162529928Y-105665000D01*
X161942509Y-105781845D01*
X161521974Y-106062837D01*
X161384090Y-105848559D01*
X161171890Y-105703569D01*
X160920000Y-105652560D01*
X159120000Y-105652560D01*
X158884683Y-105696838D01*
X158668559Y-105835910D01*
X158523569Y-106048110D01*
X158472560Y-106300000D01*
X158472560Y-108100000D01*
X158516838Y-108335317D01*
X158655910Y-108551441D01*
X158868110Y-108696431D01*
X159120000Y-108747440D01*
X159150200Y-108747440D01*
X159150200Y-112281897D01*
X158988559Y-112385910D01*
X158843569Y-112598110D01*
X158792560Y-112850000D01*
X158792560Y-114250000D01*
X158836838Y-114485317D01*
X158975910Y-114701441D01*
X159150200Y-114820528D01*
X159150200Y-114821897D01*
X158988559Y-114925910D01*
X158843569Y-115138110D01*
X158792560Y-115390000D01*
X158792560Y-116790000D01*
X158836838Y-117025317D01*
X158975910Y-117241441D01*
X159188110Y-117386431D01*
X159440000Y-117437440D01*
X160740000Y-117437440D01*
X160975317Y-117393162D01*
X161191441Y-117254090D01*
X161290633Y-117108917D01*
X161310747Y-117140175D01*
X160760722Y-117690200D01*
X158750000Y-117690200D01*
X158390354Y-117761738D01*
X158085461Y-117965461D01*
X156815461Y-119235461D01*
X156611738Y-119540354D01*
X156540200Y-119900000D01*
X156540200Y-130648745D01*
X156413628Y-130701043D01*
X155882907Y-131230839D01*
X155595328Y-131923405D01*
X155594674Y-132673305D01*
X154284674Y-132673305D01*
X154285326Y-131926695D01*
X153998957Y-131233628D01*
X153469161Y-130702907D01*
X152776595Y-130415328D01*
X152026695Y-130414674D01*
X151333628Y-130701043D01*
X150802907Y-131230839D01*
X150515328Y-131923405D01*
X150514674Y-132673305D01*
X149217440Y-132673305D01*
X149217440Y-131050000D01*
X149173162Y-130814683D01*
X149034090Y-130598559D01*
X148821890Y-130453569D01*
X148570000Y-130402560D01*
X146070000Y-130402560D01*
X145834683Y-130446838D01*
X145618559Y-130585910D01*
X145473569Y-130798110D01*
X145422560Y-131050000D01*
X143655650Y-131050000D01*
X143309161Y-130702907D01*
X142616595Y-130415328D01*
X141866695Y-130414674D01*
X141173628Y-130701043D01*
X140642907Y-131230839D01*
X140355328Y-131923405D01*
X140354674Y-132673305D01*
X139044674Y-132673305D01*
X139045326Y-131926695D01*
X138758957Y-131233628D01*
X138229161Y-130702907D01*
X137536595Y-130415328D01*
X136786695Y-130414674D01*
X136093628Y-130701043D01*
X135562907Y-131230839D01*
X135275328Y-131923405D01*
X135274674Y-132673305D01*
X133977440Y-132673305D01*
X133977440Y-131050000D01*
X133933162Y-130814683D01*
X133794090Y-130598559D01*
X133581890Y-130453569D01*
X133330000Y-130402560D01*
X133019800Y-130402560D01*
X133019800Y-118630000D01*
X132948262Y-118270354D01*
X132744539Y-117965461D01*
X130204539Y-115425461D01*
X129899646Y-115221738D01*
X129540000Y-115150200D01*
X128180277Y-115150200D01*
X128044090Y-114938559D01*
X127868768Y-114818767D01*
X128031441Y-114714090D01*
X128176431Y-114501890D01*
X128227440Y-114250000D01*
X128227440Y-113581638D01*
X130204539Y-111604539D01*
X130408262Y-111299646D01*
X130479800Y-110940000D01*
X130479800Y-108402795D01*
X130655481Y-108285409D01*
X130988227Y-107787419D01*
X131105072Y-107200000D01*
X130988227Y-106612581D01*
X130655481Y-106114591D01*
X130157491Y-105781845D01*
X129570072Y-105665000D01*
X129509928Y-105665000D01*
X128922509Y-105781845D01*
X128424519Y-106114591D01*
X128270000Y-106345845D01*
X128115481Y-106114591D01*
X127617491Y-105781845D01*
X127030072Y-105665000D01*
X126969928Y-105665000D01*
X126382509Y-105781845D01*
X125961974Y-106062837D01*
X125824090Y-105848559D01*
X125611890Y-105703569D01*
X125360000Y-105652560D01*
X123560000Y-105652560D01*
X123324683Y-105696838D01*
X123108559Y-105835910D01*
X122963569Y-106048110D01*
X122912560Y-106300000D01*
X116116100Y-106300000D01*
X116116100Y-103042619D01*
X118414613Y-103042619D01*
X118754155Y-103864372D01*
X119382321Y-104493636D01*
X120203481Y-104834611D01*
X121092619Y-104835387D01*
X121914372Y-104495845D01*
X122543636Y-103867679D01*
X122884611Y-103046519D01*
X122884614Y-103042619D01*
X131114613Y-103042619D01*
X131454155Y-103864372D01*
X132082321Y-104493636D01*
X132903481Y-104834611D01*
X133792619Y-104835387D01*
X134614372Y-104495845D01*
X135243636Y-103867679D01*
X135584611Y-103046519D01*
X135584614Y-103042619D01*
X153974613Y-103042619D01*
X154314155Y-103864372D01*
X154942321Y-104493636D01*
X155763481Y-104834611D01*
X156652619Y-104835387D01*
X157474372Y-104495845D01*
X158103636Y-103867679D01*
X158444611Y-103046519D01*
X158444614Y-103042619D01*
X166674613Y-103042619D01*
X167014155Y-103864372D01*
X167642321Y-104493636D01*
X168463481Y-104834611D01*
X169352619Y-104835387D01*
X170174372Y-104495845D01*
X170803636Y-103867679D01*
X171144611Y-103046519D01*
X171145387Y-102157381D01*
X170805845Y-101335628D01*
X170177679Y-100706364D01*
X169356519Y-100365389D01*
X168467381Y-100364613D01*
X167645628Y-100704155D01*
X167016364Y-101332321D01*
X166675389Y-102153481D01*
X166674613Y-103042619D01*
X158444614Y-103042619D01*
X158445387Y-102157381D01*
X158105845Y-101335628D01*
X157477679Y-100706364D01*
X156656519Y-100365389D01*
X155767381Y-100364613D01*
X154945628Y-100704155D01*
X154316364Y-101332321D01*
X153975389Y-102153481D01*
X153974613Y-103042619D01*
X135584614Y-103042619D01*
X135585387Y-102157381D01*
X135245845Y-101335628D01*
X134617679Y-100706364D01*
X133796519Y-100365389D01*
X132907381Y-100364613D01*
X132085628Y-100704155D01*
X131456364Y-101332321D01*
X131115389Y-102153481D01*
X131114613Y-103042619D01*
X122884614Y-103042619D01*
X122885387Y-102157381D01*
X122545845Y-101335628D01*
X121917679Y-100706364D01*
X121096519Y-100365389D01*
X120207381Y-100364613D01*
X119385628Y-100704155D01*
X118756364Y-101332321D01*
X118415389Y-102153481D01*
X118414613Y-103042619D01*
X116116100Y-103042619D01*
X116116100Y-102872254D01*
X128284176Y-90704177D01*
X128677857Y-90114992D01*
X128816100Y-89420000D01*
X128677857Y-88725008D01*
X128447800Y-88380704D01*
X128447800Y-87943037D01*
X128675596Y-88171231D01*
X129235528Y-88403735D01*
X129841812Y-88404264D01*
X130402149Y-88172738D01*
X130810336Y-87765263D01*
X131215596Y-88171231D01*
X131775528Y-88403735D01*
X132381812Y-88404264D01*
X132942149Y-88172738D01*
X133371231Y-87744404D01*
X133546355Y-87322658D01*
X133654413Y-87322658D01*
X133993985Y-88144485D01*
X134622208Y-88773805D01*
X135443441Y-89114811D01*
X136332658Y-89115587D01*
X137154485Y-88776015D01*
X137783805Y-88147792D01*
X138124811Y-87326559D01*
X138124814Y-87322658D01*
X151434413Y-87322658D01*
X151773985Y-88144485D01*
X152402208Y-88773805D01*
X153223441Y-89114811D01*
X154112658Y-89115587D01*
X154934485Y-88776015D01*
X155563805Y-88147792D01*
X155904811Y-87326559D01*
X155905587Y-86437342D01*
X155566015Y-85615515D01*
X154937792Y-84986195D01*
X154116559Y-84645189D01*
X153227342Y-84644413D01*
X152405515Y-84983985D01*
X151776195Y-85612208D01*
X151435189Y-86433441D01*
X151434413Y-87322658D01*
X138124814Y-87322658D01*
X138125587Y-86437342D01*
X137786015Y-85615515D01*
X137157792Y-84986195D01*
X136336559Y-84645189D01*
X135447342Y-84644413D01*
X134625515Y-84983985D01*
X133996195Y-85612208D01*
X133655189Y-86433441D01*
X133654413Y-87322658D01*
X133546355Y-87322658D01*
X133603735Y-87184472D01*
X133604264Y-86578188D01*
X133372738Y-86017851D01*
X132944404Y-85588769D01*
X132384472Y-85356265D01*
X131778188Y-85355736D01*
X131217851Y-85587262D01*
X130987800Y-85816912D01*
X130987800Y-85460554D01*
X133364174Y-83084179D01*
X133364177Y-83084177D01*
X133757858Y-82494991D01*
X133896100Y-81800000D01*
X133896100Y-72007185D01*
X133993985Y-72244085D01*
X134622208Y-72873405D01*
X135443441Y-73214411D01*
X136332658Y-73215187D01*
X137154485Y-72875615D01*
X137783805Y-72247392D01*
X138124811Y-71426159D01*
X138124814Y-71422258D01*
X151434413Y-71422258D01*
X151773985Y-72244085D01*
X152402208Y-72873405D01*
X153223441Y-73214411D01*
X154112658Y-73215187D01*
X154934485Y-72875615D01*
X155563805Y-72247392D01*
X155663900Y-72006337D01*
X155663900Y-76719995D01*
X155663899Y-76720000D01*
X155802142Y-77414992D01*
X156195823Y-78004177D01*
X163652200Y-85460553D01*
X163652200Y-85816963D01*
X163424404Y-85588769D01*
X162864472Y-85356265D01*
X162258188Y-85355736D01*
X161697851Y-85587262D01*
X161289664Y-85994737D01*
X160884404Y-85588769D01*
X160324472Y-85356265D01*
X159718188Y-85355736D01*
X159157851Y-85587262D01*
X158749664Y-85994737D01*
X158344404Y-85588769D01*
X157784472Y-85356265D01*
X157178188Y-85355736D01*
X156617851Y-85587262D01*
X156188769Y-86015596D01*
X155956265Y-86575528D01*
X155955736Y-87181812D01*
X156187262Y-87742149D01*
X156615596Y-88171231D01*
X157175528Y-88403735D01*
X157781812Y-88404264D01*
X158342149Y-88172738D01*
X158750336Y-87765263D01*
X159155596Y-88171231D01*
X159715528Y-88403735D01*
X160321812Y-88404264D01*
X160882149Y-88172738D01*
X161112200Y-87943088D01*
X161112200Y-88373255D01*
X160972443Y-88538024D01*
X160755771Y-89212692D01*
X160813776Y-89918921D01*
X161137629Y-90549194D01*
X161678024Y-91007557D01*
X173443900Y-97544155D01*
X173443900Y-116810129D01*
X171802279Y-119272560D01*
X171470000Y-119272560D01*
X171234683Y-119316838D01*
X171018559Y-119455910D01*
X170873569Y-119668110D01*
X170822560Y-119920000D01*
X170822560Y-122420000D01*
X170866838Y-122655317D01*
X170903900Y-122712913D01*
X170903900Y-131758266D01*
X170835328Y-131923405D01*
X170834674Y-132673305D01*
X171121043Y-133366372D01*
X171650839Y-133897093D01*
X172343405Y-134184672D01*
X173093305Y-134185326D01*
X173786372Y-133898957D01*
X174317093Y-133369161D01*
X174604672Y-132676595D01*
X174605326Y-131926695D01*
X174536100Y-131759155D01*
X174536100Y-122716281D01*
X174566431Y-122671890D01*
X174617440Y-122420000D01*
X174617440Y-121597861D01*
X176771086Y-118367391D01*
X176839004Y-118202936D01*
X176937858Y-118054991D01*
X176972937Y-117878636D01*
X177041574Y-117712441D01*
X177041388Y-117534510D01*
X177076100Y-117360000D01*
X177076100Y-83070000D01*
X176937858Y-82375009D01*
X176544177Y-81785823D01*
X176544174Y-81785821D01*
X174004177Y-79245823D01*
X173414992Y-78852142D01*
X172720000Y-78713899D01*
X172719995Y-78713900D01*
X167122253Y-78713900D01*
X162598100Y-74189746D01*
X162598100Y-73176614D01*
X163156272Y-73735761D01*
X163888849Y-74039953D01*
X164682071Y-74040646D01*
X165415178Y-73737732D01*
X165976561Y-73177328D01*
X166280753Y-72444751D01*
X166281446Y-71651529D01*
X166186714Y-71422258D01*
X169214413Y-71422258D01*
X169553985Y-72244085D01*
X170182208Y-72873405D01*
X171003441Y-73214411D01*
X171892658Y-73215187D01*
X172714485Y-72875615D01*
X173343805Y-72247392D01*
X173684811Y-71426159D01*
X173685587Y-70536942D01*
X173346015Y-69715115D01*
X172717792Y-69085795D01*
X171896559Y-68744789D01*
X171007342Y-68744013D01*
X170185515Y-69083585D01*
X169556195Y-69711808D01*
X169215189Y-70533041D01*
X169214413Y-71422258D01*
X166186714Y-71422258D01*
X166103300Y-71220383D01*
X166103300Y-61387454D01*
X166734654Y-60756100D01*
X169386000Y-60756100D01*
X170080991Y-60617858D01*
X170263671Y-60495795D01*
X170340992Y-60495863D01*
X171111455Y-60177514D01*
X171701442Y-59588555D01*
X172021135Y-58818649D01*
X172021863Y-57985008D01*
X171742100Y-57307930D01*
X171742100Y-56087040D01*
X172021135Y-55415049D01*
X172021863Y-54581408D01*
X171703514Y-53810945D01*
X171114555Y-53220958D01*
X170344649Y-52901265D01*
X169511008Y-52900537D01*
X168740545Y-53218886D01*
X168150558Y-53807845D01*
X167869614Y-54484433D01*
X164698223Y-57655823D01*
X163003023Y-59351023D01*
X162988825Y-59372272D01*
X162967981Y-59387050D01*
X156160780Y-66581850D01*
X155985289Y-66860909D01*
X155802142Y-67135009D01*
X155797157Y-67160071D01*
X155783554Y-67181702D01*
X155728213Y-67506677D01*
X155663900Y-67830000D01*
X155663900Y-69952015D01*
X155566015Y-69715115D01*
X154937792Y-69085795D01*
X154116559Y-68744789D01*
X153227342Y-68744013D01*
X152405515Y-69083585D01*
X151776195Y-69711808D01*
X151435189Y-70533041D01*
X151434413Y-71422258D01*
X138124814Y-71422258D01*
X138125587Y-70536942D01*
X137786015Y-69715115D01*
X137157792Y-69085795D01*
X136336559Y-68744789D01*
X135447342Y-68744013D01*
X134625515Y-69083585D01*
X133996195Y-69711808D01*
X133896100Y-69952863D01*
X133896100Y-67449005D01*
X133896101Y-67449000D01*
X133757858Y-66754008D01*
X133364177Y-66164823D01*
X130017418Y-62818064D01*
X130011377Y-62809023D01*
X130011374Y-62809021D01*
X124858177Y-57655823D01*
X124858174Y-57655821D01*
X121689376Y-54487022D01*
X121411514Y-53814545D01*
X120822555Y-53224558D01*
X120052649Y-52904865D01*
X119219008Y-52904137D01*
X118448545Y-53222486D01*
X117858558Y-53811445D01*
X117538865Y-54581351D01*
X117538137Y-55414992D01*
X117817900Y-56092070D01*
X117817900Y-57312960D01*
X117538865Y-57984951D01*
X117538137Y-58818592D01*
X117856486Y-59589055D01*
X118445445Y-60179042D01*
X119215351Y-60498735D01*
X119297236Y-60498807D01*
X119475409Y-60617858D01*
X120170400Y-60756100D01*
X122821746Y-60756100D01*
X126911100Y-64845453D01*
X126911100Y-70916186D01*
X126352928Y-70357039D01*
X125620351Y-70052847D01*
X124827129Y-70052154D01*
X124094022Y-70355068D01*
X123532639Y-70915472D01*
X123353742Y-71346305D01*
X113015823Y-81684223D01*
X112622142Y-82273408D01*
X112483899Y-82968400D01*
X111590000Y-82968400D01*
X111590000Y-71422258D01*
X115874413Y-71422258D01*
X116213985Y-72244085D01*
X116842208Y-72873405D01*
X117663441Y-73214411D01*
X118552658Y-73215187D01*
X119374485Y-72875615D01*
X120003805Y-72247392D01*
X120344811Y-71426159D01*
X120345587Y-70536942D01*
X120006015Y-69715115D01*
X119377792Y-69085795D01*
X118556559Y-68744789D01*
X117667342Y-68744013D01*
X116845515Y-69083585D01*
X116216195Y-69711808D01*
X115875189Y-70533041D01*
X115874413Y-71422258D01*
X111590000Y-71422258D01*
X111590000Y-51760000D01*
X134178375Y-51760000D01*
X134097823Y-51813823D01*
M02*
